999
DXF File generated by ImageToStl.com - Free Image and 3D model conversion tools
0
SECTION
2
HEADER
9
$ACADVER
1
AC1009
9
$EXTMIN
10
0
20
0
9
$EXTMAX
10
589.575125
20
224.004338
0
ENDSEC
0
SECTION
2
ENTITIES
0
LINE
8
0
10
135.000000
20
177.004338
11
135.000000
21
194.004338
0
LINE
8
0
10
135.000000
20
194.004338
11
361.500000
21
194.004338
0
LINE
8
0
10
361.500000
20
194.004338
11
588.000000
21
194.004338
0
LINE
8
0
10
588.000000
20
194.004338
11
588.000000
21
177.004338
0
LINE
8
0
10
588.000000
20
177.004338
11
588.000000
21
160.004338
0
LINE
8
0
10
588.000000
20
160.004338
11
361.500000
21
160.004338
0
LINE
8
0
10
361.500000
20
160.004338
11
135.000000
21
160.004338
0
LINE
8
0
10
135.000000
20
160.004338
11
135.000000
21
177.004338
0
LINE
8
0
10
137.000000
20
18.004338
11
137.000000
21
35.004338
0
LINE
8
0
10
137.000000
20
35.004338
11
363.000000
21
35.004338
0
LINE
8
0
10
363.000000
20
35.004338
11
589.000000
21
35.004338
0
LINE
8
0
10
589.000000
20
35.004338
11
589.000000
21
18.004338
0
LINE
8
0
10
589.000000
20
18.004338
11
589.000000
21
1.004338
0
LINE
8
0
10
589.000000
20
1.004338
11
363.000000
21
1.004338
0
LINE
8
0
10
363.000000
20
1.004338
11
137.000000
21
1.004338
0
LINE
8
0
10
137.000000
20
1.004338
11
137.000000
21
18.004338
0
LINE
8
0
10
24.224850
20
94.754338
11
23.373565
21
95.623054
0
LINE
8
0
10
23.373565
20
95.623054
11
21.378684
21
98.518692
0
LINE
8
0
10
21.378684
20
98.518692
11
18.619025
21
103.656868
0
LINE
8
0
10
18.619025
20
103.656868
11
15.776670
21
109.486226
0
LINE
8
0
10
15.776670
20
109.486226
11
13.408380
21
114.509672
0
LINE
8
0
10
13.408380
20
114.509672
11
12.061123
21
117.401836
0
LINE
8
0
10
12.061123
20
117.401836
11
7.000000
21
128.299333
0
LINE
8
0
10
7.000000
20
128.299333
11
7.000000
21
143.651836
0
LINE
8
0
10
7.000000
20
143.651836
11
7.000000
21
159.004338
0
LINE
8
0
10
7.000000
20
159.004338
11
46.500000
21
159.004338
0
LINE
8
0
10
46.500000
20
159.004338
11
86.000000
21
159.004338
0
LINE
8
0
10
86.000000
20
159.004338
11
86.000000
21
144.096419
0
LINE
8
0
10
86.000000
20
144.096419
11
86.000000
21
129.188501
0
LINE
8
0
10
86.000000
20
129.188501
11
78.441294
21
113.348381
0
LINE
8
0
10
78.441294
20
113.348381
11
75.339455
21
107.020266
0
LINE
8
0
10
75.339455
20
107.020266
11
71.243174
21
99.227918
0
LINE
8
0
10
71.243174
20
99.227918
11
69.346235
21
96.031971
0
LINE
8
0
10
69.346235
20
96.031971
11
68.766980
21
95.256300
0
LINE
8
0
10
68.766980
20
95.256300
11
68.023270
21
94.530218
0
LINE
8
0
10
68.023270
20
94.530218
11
65.984517
21
93.580523
0
LINE
8
0
10
65.984517
20
93.580523
11
63.025079
21
93.212314
0
LINE
8
0
10
63.025079
20
93.212314
11
59.919581
21
93.085158
0
LINE
8
0
10
59.919581
20
93.085158
11
55.627175
21
93.024329
0
LINE
8
0
10
55.627175
20
93.024329
11
49.907110
21
93.005548
0
LINE
8
0
10
49.907110
20
93.005548
11
46.436470
21
93.004338
0
LINE
8
0
10
46.436470
20
93.004338
11
43.268902
21
93.007038
0
LINE
8
0
10
43.268902
20
93.007038
11
37.918458
21
93.033603
0
LINE
8
0
10
37.918458
20
93.033603
11
32.039572
21
93.151176
0
LINE
8
0
10
32.039572
20
93.151176
11
27.326527
21
93.522505
0
LINE
8
0
10
27.326527
20
93.522505
11
24.953653
21
94.236103
0
LINE
8
0
10
24.953653
20
94.236103
11
24.224850
21
94.754338
0
LINE
8
0
10
58.007908
20
4.623484
11
53.859755
21
7.223470
0
LINE
8
0
10
53.859755
20
7.223470
11
47.631897
21
13.465721
0
LINE
8
0
10
47.631897
20
13.465721
11
45.156753
21
17.504338
0
LINE
8
0
10
45.156753
20
17.504338
11
44.281707
21
19.203744
0
LINE
8
0
10
44.281707
20
19.203744
11
43.135143
21
22.657015
0
LINE
8
0
10
43.135143
20
22.657015
11
42.667125
21
26.699166
0
LINE
8
0
10
42.667125
20
26.699166
11
42.476887
21
30.754288
0
LINE
8
0
10
42.476887
20
30.754288
11
42.343716
21
36.313853
0
LINE
8
0
10
42.343716
20
36.313853
11
42.233029
21
43.734573
0
LINE
8
0
10
42.233029
20
43.734573
11
42.175308
21
48.254338
0
LINE
8
0
10
42.175308
20
48.254338
11
41.850617
21
74.004338
0
LINE
8
0
10
41.850617
20
74.004338
11
46.425308
21
74.004338
0
LINE
8
0
10
46.425308
20
74.004338
11
51.000000
21
74.004338
0
LINE
8
0
10
51.000000
20
74.004338
11
51.000000
21
49.661622
0
LINE
8
0
10
51.000000
20
49.661622
11
51.001398
21
45.504206
0
LINE
8
0
10
51.001398
20
45.504206
11
51.021807
21
38.627781
0
LINE
8
0
10
51.021807
20
38.627781
11
51.086214
21
33.415801
0
LINE
8
0
10
51.086214
20
33.415801
11
51.219231
21
29.564149
0
LINE
8
0
10
51.219231
20
29.564149
11
51.601238
21
25.672029
0
LINE
8
0
10
51.601238
20
25.672029
11
52.580433
21
22.405253
0
LINE
8
0
10
52.580433
20
22.405253
11
53.326773
21
20.911622
0
LINE
8
0
10
53.326773
20
20.911622
11
54.962120
21
18.295857
0
LINE
8
0
10
54.962120
20
18.295857
11
59.045143
21
14.172465
0
LINE
8
0
10
59.045143
20
14.172465
11
63.930949
21
11.514769
0
LINE
8
0
10
63.930949
20
11.514769
11
69.283151
21
10.308588
0
LINE
8
0
10
69.283151
20
10.308588
11
74.765362
21
10.539737
0
LINE
8
0
10
74.765362
20
10.539737
11
80.041196
21
12.194034
0
LINE
8
0
10
80.041196
20
12.194034
11
84.774264
21
15.257295
0
LINE
8
0
10
84.774264
20
15.257295
11
88.628181
21
19.715337
0
LINE
8
0
10
88.628181
20
19.715337
11
90.120336
21
22.462968
0
LINE
8
0
10
90.120336
20
22.462968
11
90.921637
21
24.669892
0
LINE
8
0
10
90.921637
20
24.669892
11
91.852661
21
30.237823
0
LINE
8
0
10
91.852661
20
30.237823
11
91.978038
21
33.572837
0
LINE
8
0
10
91.978038
20
33.572837
11
92.125492
21
37.284894
0
LINE
8
0
10
92.125492
20
37.284894
11
93.221756
21
44.133849
0
LINE
8
0
10
93.221756
20
44.133849
11
95.358893
21
50.186743
0
LINE
8
0
10
95.358893
20
50.186743
11
98.503784
21
55.408555
0
LINE
8
0
10
98.503784
20
55.408555
11
102.623307
21
59.764266
0
LINE
8
0
10
102.623307
20
59.764266
11
107.684341
21
63.218856
0
LINE
8
0
10
107.684341
20
63.218856
11
113.653764
21
65.737305
0
LINE
8
0
10
113.653764
20
65.737305
11
120.498457
21
67.284592
0
LINE
8
0
10
120.498457
20
67.284592
11
124.238679
21
67.683107
0
LINE
8
0
10
124.238679
20
67.683107
11
132.897530
21
68.294171
0
LINE
8
0
10
132.897530
20
68.294171
11
133.198765
21
100.232554
0
LINE
8
0
10
133.198765
20
100.232554
11
133.500000
21
132.170936
0
LINE
8
0
10
133.500000
20
132.170936
11
136.765777
21
135.087637
0
LINE
8
0
10
136.765777
20
135.087637
11
138.836870
21
136.750757
0
LINE
8
0
10
138.836870
20
136.750757
11
142.730236
21
137.836091
0
LINE
8
0
10
142.730236
20
137.836091
11
147.747487
21
137.996396
0
LINE
8
0
10
147.747487
20
137.996396
11
151.470463
21
138.004338
0
LINE
8
0
10
151.470463
20
138.004338
11
162.909374
21
138.004338
0
LINE
8
0
10
162.909374
20
138.004338
11
163.547243
21
134.604202
0
LINE
8
0
10
163.547243
20
134.604202
11
163.933664
21
132.347773
0
LINE
8
0
10
163.933664
20
132.347773
11
163.863672
21
129.362976
0
LINE
8
0
10
163.863672
20
129.362976
11
162.022247
21
127.901616
0
LINE
8
0
10
162.022247
20
127.901616
11
157.632201
21
127.346912
0
LINE
8
0
10
157.632201
20
127.346912
11
154.238573
21
127.216812
0
LINE
8
0
10
154.238573
20
127.216812
11
145.000000
21
126.929287
0
LINE
8
0
10
145.000000
20
126.929287
11
145.000000
21
114.966812
0
LINE
8
0
10
145.000000
20
114.966812
11
145.017701
21
112.304792
0
LINE
8
0
10
145.017701
20
112.304792
11
145.154865
21
107.894044
0
LINE
8
0
10
145.154865
20
107.894044
11
145.417827
21
104.816680
0
LINE
8
0
10
145.417827
20
104.816680
11
145.794727
21
103.211492
0
LINE
8
0
10
145.794727
20
103.211492
11
146.022197
21
103.004338
0
LINE
8
0
10
146.022197
20
103.004338
11
146.390364
21
103.086207
0
LINE
8
0
10
146.390364
20
103.086207
11
147.959981
21
103.691798
0
LINE
8
0
10
147.959981
20
103.691798
11
151.843909
21
105.458040
0
LINE
8
0
10
151.843909
20
105.458040
11
155.022197
21
107.015499
0
LINE
8
0
10
155.022197
20
107.015499
11
163.000000
21
111.026659
0
LINE
8
0
10
163.000000
20
111.026659
11
163.000000
21
104.525534
0
LINE
8
0
10
163.000000
20
104.525534
11
163.000000
21
98.024409
0
LINE
8
0
10
163.000000
20
98.024409
11
154.000000
21
93.504338
0
LINE
8
0
10
154.000000
20
93.504338
11
145.000000
21
88.984267
0
LINE
8
0
10
145.000000
20
88.984267
11
145.000000
21
77.994302
0
LINE
8
0
10
145.000000
20
77.994302
11
145.000000
21
67.004338
0
LINE
8
0
10
145.000000
20
67.004338
11
154.000000
21
67.004338
0
LINE
8
0
10
154.000000
20
67.004338
11
163.000000
21
67.004338
0
LINE
8
0
10
163.000000
20
67.004338
11
163.013655
21
63.754338
0
LINE
8
0
10
163.013655
20
63.754338
11
163.200423
21
60.798088
0
LINE
8
0
10
163.200423
20
60.798088
11
163.630286
21
58.254338
0
LINE
8
0
10
163.630286
20
58.254338
11
164.233263
21
56.004338
0
LINE
8
0
10
164.233263
20
56.004338
11
148.616631
21
56.004338
0
LINE
8
0
10
148.616631
20
56.004338
11
144.151516
21
56.016730
0
LINE
8
0
10
144.151516
20
56.016730
11
137.868154
21
56.144269
0
LINE
8
0
10
137.868154
20
56.144269
11
134.456833
21
56.471931
0
LINE
8
0
10
134.456833
20
56.471931
11
133.129015
21
57.075457
0
LINE
8
0
10
133.129015
20
57.075457
11
133.000000
21
57.504338
0
LINE
8
0
10
133.000000
20
57.504338
11
132.900298
21
58.036650
0
LINE
8
0
10
132.900298
20
58.036650
11
131.959157
21
58.776522
0
LINE
8
0
10
131.959157
20
58.776522
11
129.710088
21
59.134101
0
LINE
8
0
10
129.710088
20
59.134101
11
125.770354
21
59.170237
0
LINE
8
0
10
125.770354
20
59.170237
11
123.046883
21
59.086779
0
LINE
8
0
10
123.046883
20
59.086779
11
119.822223
21
58.703206
0
LINE
8
0
10
119.822223
20
58.703206
11
113.538320
21
56.514936
0
LINE
8
0
10
113.538320
20
56.514936
11
107.970567
21
52.765572
0
LINE
8
0
10
107.970567
20
52.765572
11
103.713677
21
47.855598
0
LINE
8
0
10
103.713677
20
47.855598
11
102.262655
21
45.090534
0
LINE
8
0
10
102.262655
20
45.090534
11
101.955283
21
44.187388
0
LINE
8
0
10
101.955283
20
44.187388
11
101.320066
21
41.428079
0
LINE
8
0
10
101.320066
20
41.428079
11
100.452910
21
35.739000
0
LINE
8
0
10
100.452910
20
35.739000
11
100.038354
21
31.560314
0
LINE
8
0
10
100.038354
20
31.560314
11
99.690301
21
27.495775
0
LINE
8
0
10
99.690301
20
27.495775
11
98.807433
21
21.497681
0
LINE
8
0
10
98.807433
20
21.497681
11
97.290834
21
17.267946
0
LINE
8
0
10
97.290834
20
17.267946
11
94.678847
21
13.519027
0
LINE
8
0
10
94.678847
20
13.519027
11
92.817815
21
11.422517
0
LINE
8
0
10
92.817815
20
11.422517
11
90.399152
21
8.975400
0
LINE
8
0
10
90.399152
20
8.975400
11
85.602870
21
5.316974
0
LINE
8
0
10
85.602870
20
5.316974
11
80.422977
21
3.120412
0
LINE
8
0
10
80.422977
20
3.120412
11
74.333474
21
2.162661
0
LINE
8
0
10
74.333474
20
2.162661
11
70.783244
21
2.078636
0
LINE
8
0
10
70.783244
20
2.078636
11
68.422168
21
2.121908
0
LINE
8
0
10
68.422168
20
2.121908
11
64.712750
21
2.372762
0
LINE
8
0
10
64.712750
20
2.372762
11
60.607235
21
3.373604
0
LINE
8
0
10
60.607235
20
3.373604
11
58.007908
21
4.623484
0
LINE
8
0
10
388.923077
20
58.927415
11
386.000000
21
61.850492
0
LINE
8
0
10
386.000000
20
61.850492
11
386.000000
21
97.004338
0
LINE
8
0
10
386.000000
20
97.004338
11
386.000000
21
132.158184
0
LINE
8
0
10
386.000000
20
132.158184
11
388.923077
21
135.081261
0
LINE
8
0
10
388.923077
20
135.081261
11
390.792047
21
136.753559
0
LINE
8
0
10
390.792047
20
136.753559
11
394.474091
21
137.839188
0
LINE
8
0
10
394.474091
20
137.839188
11
399.356659
21
137.996917
0
LINE
8
0
10
399.356659
20
137.996917
11
403.000000
21
138.004338
0
LINE
8
0
10
403.000000
20
138.004338
11
406.643341
21
137.996917
0
LINE
8
0
10
406.643341
20
137.996917
11
411.525909
21
137.839188
0
LINE
8
0
10
411.525909
20
137.839188
11
415.207953
21
136.753559
0
LINE
8
0
10
415.207953
20
136.753559
11
417.076923
21
135.081261
0
LINE
8
0
10
417.076923
20
135.081261
11
420.000000
21
132.158184
0
LINE
8
0
10
420.000000
20
132.158184
11
420.000000
21
96.885980
0
LINE
8
0
10
420.000000
20
96.885980
11
420.000000
21
61.613776
0
LINE
8
0
10
420.000000
20
61.613776
11
417.312909
21
58.809057
0
LINE
8
0
10
417.312909
20
58.809057
11
415.572589
21
57.210025
0
LINE
8
0
10
415.572589
20
57.210025
11
411.905289
21
56.166272
0
LINE
8
0
10
411.905289
20
56.166272
11
406.940825
21
56.011998
0
LINE
8
0
10
406.940825
20
56.011998
11
403.235986
21
56.004338
0
LINE
8
0
10
403.235986
20
56.004338
11
399.507916
21
56.011462
0
LINE
8
0
10
399.507916
20
56.011462
11
394.522697
21
56.167580
0
LINE
8
0
10
394.522697
20
56.167580
11
390.795296
21
57.252063
0
LINE
8
0
10
390.795296
20
57.252063
11
388.923077
21
58.927415
0
LINE
8
0
10
340.000000
20
97.004338
11
340.000000
21
138.004338
0
LINE
8
0
10
340.000000
20
138.004338
11
353.777494
21
138.004338
0
LINE
8
0
10
353.777494
20
138.004338
11
357.403043
21
137.989658
0
LINE
8
0
10
357.403043
20
137.989658
11
363.368530
21
137.773227
0
LINE
8
0
10
363.368530
20
137.773227
11
367.807538
21
137.087399
0
LINE
8
0
10
367.807538
20
137.087399
11
370.945269
21
135.668208
0
LINE
8
0
10
370.945269
20
135.668208
11
373.006926
21
133.251689
0
LINE
8
0
10
373.006926
20
133.251689
11
374.217711
21
129.573878
0
LINE
8
0
10
374.217711
20
129.573878
11
374.802827
21
124.370809
0
LINE
8
0
10
374.802827
20
124.370809
11
374.987475
21
117.378517
0
LINE
8
0
10
374.987475
20
117.378517
11
375.000000
21
113.128923
0
LINE
8
0
10
375.000000
20
113.128923
11
375.000000
21
97.154187
0
LINE
8
0
10
375.000000
20
97.154187
11
370.750000
21
94.779204
0
LINE
8
0
10
370.750000
20
94.779204
11
369.112885
21
93.742634
0
LINE
8
0
10
369.112885
20
93.742634
11
366.936758
21
91.704666
0
LINE
8
0
10
366.936758
20
91.704666
11
366.665772
21
90.954280
0
LINE
8
0
10
366.665772
20
90.954280
11
366.903723
21
90.083219
0
LINE
8
0
10
366.903723
20
90.083219
11
368.471410
21
86.086461
0
LINE
8
0
10
368.471410
20
86.086461
11
371.506416
21
79.056638
0
LINE
8
0
10
371.506416
20
79.056638
11
376.022670
21
68.961490
0
LINE
8
0
10
376.022670
20
68.961490
11
378.840617
21
62.754338
0
LINE
8
0
10
378.840617
20
62.754338
11
381.916353
21
56.004338
0
LINE
8
0
10
381.916353
20
56.004338
11
375.606177
21
56.004338
0
LINE
8
0
10
375.606177
20
56.004338
11
369.296001
21
56.004338
0
LINE
8
0
10
369.296001
20
56.004338
11
362.841937
21
70.754338
0
LINE
8
0
10
362.841937
20
70.754338
11
361.813092
21
73.097896
0
LINE
8
0
10
361.813092
20
73.097896
11
360.061063
21
77.023098
0
LINE
8
0
10
360.061063
20
77.023098
11
358.062666
21
81.229087
0
LINE
8
0
10
358.062666
20
81.229087
11
356.196853
21
84.322000
0
LINE
8
0
10
356.196853
20
84.322000
11
354.717785
21
85.412606
0
LINE
8
0
10
354.717785
20
85.412606
11
353.943937
21
85.504338
0
LINE
8
0
10
353.943937
20
85.504338
11
351.500000
21
85.504338
0
LINE
8
0
10
351.500000
20
85.504338
11
351.223267
21
70.754338
0
LINE
8
0
10
351.223267
20
70.754338
11
350.946534
21
56.004338
0
LINE
8
0
10
350.946534
20
56.004338
11
345.473267
21
56.004338
0
LINE
8
0
10
345.473267
20
56.004338
11
340.000000
21
56.004338
0
LINE
8
0
10
340.000000
20
56.004338
11
340.000000
21
97.004338
0
LINE
8
0
10
473.864674
20
58.985818
11
472.346338
21
60.673138
0
LINE
8
0
10
472.346338
20
60.673138
11
471.144547
21
63.912012
0
LINE
8
0
10
471.144547
20
63.912012
11
471.191597
21
66.189864
0
LINE
8
0
10
471.191597
20
66.189864
11
471.487193
21
68.592799
0
LINE
8
0
10
471.487193
20
68.592799
11
472.894553
21
70.862966
0
LINE
8
0
10
472.894553
20
70.862966
11
475.103166
21
72.272806
0
LINE
8
0
10
475.103166
20
72.272806
11
476.750000
21
73.148730
0
LINE
8
0
10
476.750000
20
73.148730
11
482.000000
21
75.885029
0
LINE
8
0
10
482.000000
20
75.885029
11
482.000000
21
71.444684
0
LINE
8
0
10
482.000000
20
71.444684
11
482.000000
21
67.004338
0
LINE
8
0
10
482.000000
20
67.004338
11
487.500000
21
67.004338
0
LINE
8
0
10
487.500000
20
67.004338
11
493.000000
21
67.004338
0
LINE
8
0
10
493.000000
20
67.004338
11
493.000000
21
80.504338
0
LINE
8
0
10
493.000000
20
80.504338
11
492.947636
21
85.746135
0
LINE
8
0
10
492.947636
20
85.746135
11
492.706751
21
91.690617
0
LINE
8
0
10
492.706751
20
91.690617
11
492.469690
21
93.728801
0
LINE
8
0
10
492.469690
20
93.728801
11
492.336383
21
94.004338
0
LINE
8
0
10
492.336383
20
94.004338
11
491.992109
21
93.892679
0
LINE
8
0
10
491.992109
20
93.892679
11
490.194496
21
93.066725
0
LINE
8
0
10
490.194496
20
93.066725
11
485.402171
21
90.657782
0
LINE
8
0
10
485.402171
20
90.657782
11
481.336383
21
88.533594
0
LINE
8
0
10
481.336383
20
88.533594
11
471.000000
21
83.062851
0
LINE
8
0
10
471.000000
20
83.062851
11
471.000000
21
110.533594
0
LINE
8
0
10
471.000000
20
110.533594
11
471.000000
21
138.004338
0
LINE
8
0
10
471.000000
20
138.004338
11
476.500000
21
138.004338
0
LINE
8
0
10
476.500000
20
138.004338
11
482.000000
21
138.004338
0
LINE
8
0
10
482.000000
20
138.004338
11
482.000000
21
120.504338
0
LINE
8
0
10
482.000000
20
120.504338
11
482.016783
21
116.465852
0
LINE
8
0
10
482.016783
20
116.465852
11
482.149669
21
109.936822
0
LINE
8
0
10
482.149669
20
109.936822
11
482.411923
21
105.523203
0
LINE
8
0
10
482.411923
20
105.523203
11
482.799874
21
103.286787
0
LINE
8
0
10
482.799874
20
103.286787
11
483.039838
21
103.004338
0
LINE
8
0
10
483.039838
20
103.004338
11
488.315861
21
105.166146
0
LINE
8
0
10
488.315861
20
105.166146
11
493.057854
21
108.136791
0
LINE
8
0
10
493.057854
20
108.136791
11
493.168484
21
108.606293
0
LINE
8
0
10
493.168484
20
108.606293
11
493.357174
21
111.104304
0
LINE
8
0
10
493.357174
20
111.104304
11
493.528780
21
117.803490
0
LINE
8
0
10
493.528780
20
117.803490
11
493.545561
21
123.502457
0
LINE
8
0
10
493.545561
20
123.502457
11
493.475414
21
138.004338
0
LINE
8
0
10
493.475414
20
138.004338
11
499.237707
21
138.004338
0
LINE
8
0
10
499.237707
20
138.004338
11
505.000000
21
138.004338
0
LINE
8
0
10
505.000000
20
138.004338
11
505.000000
21
100.551391
0
LINE
8
0
10
505.000000
20
100.551391
11
504.995777
21
95.949121
0
LINE
8
0
10
504.995777
20
95.949121
11
504.961856
21
87.609543
0
LINE
8
0
10
504.961856
20
87.609543
11
504.893665
21
80.412328
0
LINE
8
0
10
504.893665
20
80.412328
11
504.790839
21
74.344368
0
LINE
8
0
10
504.790839
20
74.344368
11
504.653012
21
69.392557
0
LINE
8
0
10
504.653012
20
69.392557
11
504.479821
21
65.543788
0
LINE
8
0
10
504.479821
20
65.543788
11
504.270900
21
62.784954
0
LINE
8
0
10
504.270900
20
62.784954
11
504.025885
21
61.102950
0
LINE
8
0
10
504.025885
20
61.102950
11
503.889728
21
60.661663
0
LINE
8
0
10
503.889728
20
60.661663
11
503.165015
21
59.394245
0
LINE
8
0
10
503.165015
20
59.394245
11
500.949210
21
57.554436
0
LINE
8
0
10
500.949210
20
57.554436
11
497.202547
21
56.497773
0
LINE
8
0
10
497.202547
20
56.497773
11
491.314206
21
56.051986
0
LINE
8
0
10
491.314206
20
56.051986
11
487.376024
21
56.004338
0
LINE
8
0
10
487.376024
20
56.004338
11
483.943527
21
56.012227
0
LINE
8
0
10
483.943527
20
56.012227
11
479.324587
21
56.174845
0
LINE
8
0
10
479.324587
20
56.174845
11
475.756638
21
57.283398
0
LINE
8
0
10
475.756638
20
57.283398
11
473.864674
21
58.985818
0
LINE
8
0
10
255.437091
20
59.069613
11
252.500000
21
62.134888
0
LINE
8
0
10
252.500000
20
62.134888
11
252.500000
21
97.151245
0
LINE
8
0
10
252.500000
20
97.151245
11
252.500000
21
132.167602
0
LINE
8
0
10
252.500000
20
132.167602
11
255.765777
21
135.085970
0
LINE
8
0
10
255.765777
20
135.085970
11
257.820209
21
136.736151
0
LINE
8
0
10
257.820209
20
136.736151
11
261.527484
21
137.827315
0
LINE
8
0
10
261.527484
20
137.827315
11
266.124517
21
137.995041
0
LINE
8
0
10
266.124517
20
137.995041
11
269.500000
21
138.004338
0
LINE
8
0
10
269.500000
20
138.004338
11
272.869123
21
137.994870
0
LINE
8
0
10
272.869123
20
137.994870
11
277.462508
21
137.827319
0
LINE
8
0
10
277.462508
20
137.827319
11
281.166390
21
136.745429
0
LINE
8
0
10
281.166390
20
136.745429
11
283.203924
21
135.113440
0
LINE
8
0
10
283.203924
20
135.113440
11
284.950824
21
133.386671
0
LINE
8
0
10
284.950824
20
133.386671
11
286.199596
21
130.779258
0
LINE
8
0
10
286.199596
20
130.779258
11
286.442072
21
128.160458
0
LINE
8
0
10
286.442072
20
128.160458
11
286.469701
21
126.363440
0
LINE
8
0
10
286.469701
20
126.363440
11
286.500000
21
120.504338
0
LINE
8
0
10
286.500000
20
120.504338
11
281.000000
21
117.821129
0
LINE
8
0
10
281.000000
20
117.821129
11
275.500000
21
115.137921
0
LINE
8
0
10
275.500000
20
115.137921
11
275.202283
21
121.071129
0
LINE
8
0
10
275.202283
20
121.071129
11
274.904565
21
127.004338
0
LINE
8
0
10
274.904565
20
127.004338
11
269.583125
21
127.004338
0
LINE
8
0
10
269.583125
20
127.004338
11
264.261685
21
127.004338
0
LINE
8
0
10
264.261685
20
127.004338
11
263.641848
21
123.254338
0
LINE
8
0
10
263.641848
20
123.254338
11
263.500639
21
121.864230
0
LINE
8
0
10
263.500639
20
121.864230
11
263.272756
21
116.586888
0
LINE
8
0
10
263.272756
20
116.586888
11
263.068517
21
104.373979
0
LINE
8
0
10
263.068517
20
104.373979
11
263.031362
21
90.118266
0
LINE
8
0
10
263.031362
20
90.118266
11
263.100520
21
81.209275
0
LINE
8
0
10
263.100520
20
81.209275
11
263.245593
21
73.986933
0
LINE
8
0
10
263.245593
20
73.986933
11
263.467241
21
69.489063
0
LINE
8
0
10
263.467241
20
69.489063
11
263.606989
21
68.586126
0
LINE
8
0
10
263.606989
20
68.586126
11
264.172363
21
67.844612
0
LINE
8
0
10
264.172363
20
67.844612
11
267.047236
21
67.086706
0
LINE
8
0
10
267.047236
20
67.086706
11
269.606989
21
67.004338
0
LINE
8
0
10
269.606989
20
67.004338
11
275.000000
21
67.004338
0
LINE
8
0
10
275.000000
20
67.004338
11
275.000000
21
71.989943
0
LINE
8
0
10
275.000000
20
71.989943
11
275.000000
21
76.975548
0
LINE
8
0
10
275.000000
20
76.975548
11
281.000000
21
80.004338
0
LINE
8
0
10
281.000000
20
80.004338
11
287.000000
21
83.033129
0
LINE
8
0
10
287.000000
20
83.033129
11
287.000000
21
72.441810
0
LINE
8
0
10
287.000000
20
72.441810
11
286.991818
21
69.000387
0
LINE
8
0
10
286.991818
20
69.000387
11
286.829956
21
64.362221
0
LINE
8
0
10
286.829956
20
64.362221
11
285.741391
21
60.788093
0
LINE
8
0
10
285.741391
20
60.788093
11
284.076923
21
58.927415
0
LINE
8
0
10
284.076923
20
58.927415
11
282.204704
21
57.252063
0
LINE
8
0
10
282.204704
20
57.252063
11
278.477303
21
56.167580
0
LINE
8
0
10
278.477303
20
56.167580
11
273.492084
21
56.011462
0
LINE
8
0
10
273.492084
20
56.011462
11
269.764014
21
56.004338
0
LINE
8
0
10
269.764014
20
56.004338
11
258.374182
21
56.004338
0
LINE
8
0
10
258.374182
20
56.004338
11
255.437091
21
59.069613
0
LINE
8
0
10
212.215613
20
94.087261
11
212.500000
21
132.170183
0
LINE
8
0
10
212.500000
20
132.170183
11
215.765777
21
135.087261
0
LINE
8
0
10
215.765777
20
135.087261
11
217.837573
21
136.751241
0
LINE
8
0
10
217.837573
20
136.751241
11
221.739474
21
137.836474
0
LINE
8
0
10
221.739474
20
137.836474
11
226.776426
21
137.996458
0
LINE
8
0
10
226.776426
20
137.996458
11
230.515777
21
138.004338
0
LINE
8
0
10
230.515777
20
138.004338
11
242.000000
21
138.004338
0
LINE
8
0
10
242.000000
20
138.004338
11
242.000000
21
132.504338
0
LINE
8
0
10
242.000000
20
132.504338
11
242.000000
21
127.004338
0
LINE
8
0
10
242.000000
20
127.004338
11
233.000000
21
127.004338
0
LINE
8
0
10
233.000000
20
127.004338
11
224.000000
21
127.004338
0
LINE
8
0
10
224.000000
20
127.004338
11
224.000000
21
114.936950
0
LINE
8
0
10
224.000000
20
114.936950
11
223.992853
21
112.487809
0
LINE
8
0
10
223.992853
20
112.487809
11
223.996991
21
108.559095
0
LINE
8
0
10
223.996991
20
108.559095
11
224.161948
21
105.834862
0
LINE
8
0
10
224.161948
20
105.834862
11
224.651219
21
104.209183
0
LINE
8
0
10
224.651219
20
104.209183
11
225.628297
21
103.576130
0
LINE
8
0
10
225.628297
20
103.576130
11
227.256677
21
103.829773
0
LINE
8
0
10
227.256677
20
103.829773
11
229.699852
21
104.864185
0
LINE
8
0
10
229.699852
20
104.864185
11
233.121317
21
106.573437
0
LINE
8
0
10
233.121317
20
106.573437
11
235.250000
21
107.648025
0
LINE
8
0
10
235.250000
20
107.648025
11
242.000000
21
111.029482
0
LINE
8
0
10
242.000000
20
111.029482
11
242.000000
21
104.526946
0
LINE
8
0
10
242.000000
20
104.526946
11
242.000000
21
98.024409
0
LINE
8
0
10
242.000000
20
98.024409
11
233.000000
21
93.504338
0
LINE
8
0
10
233.000000
20
93.504338
11
224.000000
21
88.984267
0
LINE
8
0
10
224.000000
20
88.984267
11
224.000000
21
77.994302
0
LINE
8
0
10
224.000000
20
77.994302
11
224.000000
21
67.004338
0
LINE
8
0
10
224.000000
20
67.004338
11
233.000000
21
67.004338
0
LINE
8
0
10
233.000000
20
67.004338
11
242.000000
21
67.004338
0
LINE
8
0
10
242.000000
20
67.004338
11
242.000000
21
61.504338
0
LINE
8
0
10
242.000000
20
61.504338
11
242.000000
21
56.004338
0
LINE
8
0
10
242.000000
20
56.004338
11
226.965613
21
56.004338
0
LINE
8
0
10
226.965613
20
56.004338
11
211.931225
21
56.004338
0
LINE
8
0
10
211.931225
20
56.004338
11
212.215613
21
94.087261
0
LINE
8
0
10
559.215613
20
94.087261
11
559.500000
21
132.170183
0
LINE
8
0
10
559.500000
20
132.170183
11
562.765777
21
135.087261
0
LINE
8
0
10
562.765777
20
135.087261
11
564.837573
21
136.751241
0
LINE
8
0
10
564.837573
20
136.751241
11
568.739474
21
137.836474
0
LINE
8
0
10
568.739474
20
137.836474
11
573.776426
21
137.996458
0
LINE
8
0
10
573.776426
20
137.996458
11
577.515777
21
138.004338
0
LINE
8
0
10
577.515777
20
138.004338
11
589.000000
21
138.004338
0
LINE
8
0
10
589.000000
20
138.004338
11
589.000000
21
132.504338
0
LINE
8
0
10
589.000000
20
132.504338
11
589.000000
21
127.004338
0
LINE
8
0
10
589.000000
20
127.004338
11
580.000000
21
127.004338
0
LINE
8
0
10
580.000000
20
127.004338
11
571.000000
21
127.004338
0
LINE
8
0
10
571.000000
20
127.004338
11
571.000000
21
115.004338
0
LINE
8
0
10
571.000000
20
115.004338
11
571.017694
21
112.333367
0
LINE
8
0
10
571.017694
20
112.333367
11
571.154818
21
107.908464
0
LINE
8
0
10
571.154818
20
107.908464
11
571.417749
21
104.821813
0
LINE
8
0
10
571.417749
20
104.821813
11
571.794676
21
103.212057
0
LINE
8
0
10
571.794676
20
103.212057
11
572.022197
21
103.004338
0
LINE
8
0
10
572.022197
20
103.004338
11
572.390364
21
103.086207
0
LINE
8
0
10
572.390364
20
103.086207
11
573.959981
21
103.691798
0
LINE
8
0
10
573.959981
20
103.691798
11
577.843909
21
105.458040
0
LINE
8
0
10
577.843909
20
105.458040
11
581.022197
21
107.015499
0
LINE
8
0
10
581.022197
20
107.015499
11
589.000000
21
111.026659
0
LINE
8
0
10
589.000000
20
111.026659
11
589.000000
21
104.525534
0
LINE
8
0
10
589.000000
20
104.525534
11
589.000000
21
98.024409
0
LINE
8
0
10
589.000000
20
98.024409
11
580.000000
21
93.504338
0
LINE
8
0
10
580.000000
20
93.504338
11
571.000000
21
88.984267
0
LINE
8
0
10
571.000000
20
88.984267
11
571.000000
21
77.994302
0
LINE
8
0
10
571.000000
20
77.994302
11
571.000000
21
67.004338
0
LINE
8
0
10
571.000000
20
67.004338
11
580.000000
21
67.004338
0
LINE
8
0
10
580.000000
20
67.004338
11
589.000000
21
67.004338
0
LINE
8
0
10
589.000000
20
67.004338
11
589.000000
21
61.504338
0
LINE
8
0
10
589.000000
20
61.504338
11
589.000000
21
56.004338
0
LINE
8
0
10
589.000000
20
56.004338
11
573.965613
21
56.004338
0
LINE
8
0
10
573.965613
20
56.004338
11
558.931225
21
56.004338
0
LINE
8
0
10
558.931225
20
56.004338
11
559.215613
21
94.087261
0
LINE
8
0
10
307.000000
20
91.504338
11
307.000000
21
127.004338
0
LINE
8
0
10
307.000000
20
127.004338
11
300.500000
21
127.004338
0
LINE
8
0
10
300.500000
20
127.004338
11
294.000000
21
127.004338
0
LINE
8
0
10
294.000000
20
127.004338
11
294.000000
21
132.504338
0
LINE
8
0
10
294.000000
20
132.504338
11
294.000000
21
138.004338
0
LINE
8
0
10
294.000000
20
138.004338
11
313.000000
21
138.004338
0
LINE
8
0
10
313.000000
20
138.004338
11
332.000000
21
138.004338
0
LINE
8
0
10
332.000000
20
138.004338
11
332.000000
21
132.504338
0
LINE
8
0
10
332.000000
20
132.504338
11
332.000000
21
127.004338
0
LINE
8
0
10
332.000000
20
127.004338
11
325.630842
21
127.004338
0
LINE
8
0
10
325.630842
20
127.004338
11
319.261685
21
127.004338
0
LINE
8
0
10
319.261685
20
127.004338
11
318.641848
21
123.254338
0
LINE
8
0
10
318.641848
20
123.254338
11
318.578650
21
122.707616
0
LINE
8
0
10
318.578650
20
122.707616
11
318.457556
21
120.708751
0
LINE
8
0
10
318.457556
20
120.708751
11
318.294028
21
115.719914
0
LINE
8
0
10
318.294028
20
115.719914
11
318.123380
21
106.116887
0
LINE
8
0
10
318.123380
20
106.116887
11
318.025867
21
94.208782
0
LINE
8
0
10
318.025867
20
94.208782
11
318.011006
21
87.754338
0
LINE
8
0
10
318.011006
20
87.754338
11
318.000000
21
56.004338
0
LINE
8
0
10
318.000000
20
56.004338
11
312.500000
21
56.004338
0
LINE
8
0
10
312.500000
20
56.004338
11
307.000000
21
56.004338
0
LINE
8
0
10
307.000000
20
56.004338
11
307.000000
21
91.504338
0
LINE
8
0
10
527.000000
20
91.504338
11
527.000000
21
127.004338
0
LINE
8
0
10
527.000000
20
127.004338
11
520.000000
21
127.004338
0
LINE
8
0
10
520.000000
20
127.004338
11
513.000000
21
127.004338
0
LINE
8
0
10
513.000000
20
127.004338
11
513.000000
21
132.504338
0
LINE
8
0
10
513.000000
20
132.504338
11
513.000000
21
138.004338
0
LINE
8
0
10
513.000000
20
138.004338
11
532.000000
21
138.004338
0
LINE
8
0
10
532.000000
20
138.004338
11
551.000000
21
138.004338
0
LINE
8
0
10
551.000000
20
138.004338
11
551.000000
21
132.504338
0
LINE
8
0
10
551.000000
20
132.504338
11
551.000000
21
127.004338
0
LINE
8
0
10
551.000000
20
127.004338
11
544.500000
21
127.004338
0
LINE
8
0
10
544.500000
20
127.004338
11
538.000000
21
127.004338
0
LINE
8
0
10
538.000000
20
127.004338
11
538.000000
21
91.504338
0
LINE
8
0
10
538.000000
20
91.504338
11
538.000000
21
56.004338
0
LINE
8
0
10
538.000000
20
56.004338
11
532.500000
21
56.004338
0
LINE
8
0
10
532.500000
20
56.004338
11
527.000000
21
56.004338
0
LINE
8
0
10
527.000000
20
56.004338
11
527.000000
21
91.504338
0
LINE
8
0
10
173.000000
20
97.004338
11
173.000000
21
138.004338
0
LINE
8
0
10
173.000000
20
138.004338
11
179.000000
21
138.004338
0
LINE
8
0
10
179.000000
20
138.004338
11
185.000000
21
138.004338
0
LINE
8
0
10
185.000000
20
138.004338
11
185.000000
21
102.504338
0
LINE
8
0
10
185.000000
20
102.504338
11
185.000000
21
67.004338
0
LINE
8
0
10
185.000000
20
67.004338
11
194.500000
21
67.004338
0
LINE
8
0
10
194.500000
20
67.004338
11
204.000000
21
67.004338
0
LINE
8
0
10
204.000000
20
67.004338
11
204.000000
21
61.504338
0
LINE
8
0
10
204.000000
20
61.504338
11
204.000000
21
56.004338
0
LINE
8
0
10
204.000000
20
56.004338
11
188.500000
21
56.004338
0
LINE
8
0
10
188.500000
20
56.004338
11
173.000000
21
56.004338
0
LINE
8
0
10
173.000000
20
56.004338
11
173.000000
21
97.004338
0
LINE
8
0
10
432.000000
20
97.054242
11
432.000000
21
138.104146
0
LINE
8
0
10
432.000000
20
138.104146
11
437.750000
21
137.804242
0
LINE
8
0
10
437.750000
20
137.804242
11
443.500000
21
137.504338
0
LINE
8
0
10
443.500000
20
137.504338
11
443.670976
21
128.004338
0
LINE
8
0
10
443.670976
20
128.004338
11
443.706934
21
125.570427
0
LINE
8
0
10
443.706934
20
125.570427
11
443.779942
21
118.289128
0
LINE
8
0
10
443.779942
20
118.289128
11
443.876801
21
103.502190
0
LINE
8
0
10
443.876801
20
103.502190
11
443.920976
21
92.754338
0
LINE
8
0
10
443.920976
20
92.754338
11
444.000000
21
67.004338
0
LINE
8
0
10
444.000000
20
67.004338
11
453.000000
21
67.004338
0
LINE
8
0
10
453.000000
20
67.004338
11
462.000000
21
67.004338
0
LINE
8
0
10
462.000000
20
67.004338
11
462.000000
21
61.504338
0
LINE
8
0
10
462.000000
20
61.504338
11
462.000000
21
56.004338
0
LINE
8
0
10
462.000000
20
56.004338
11
447.000000
21
56.004338
0
LINE
8
0
10
447.000000
20
56.004338
11
432.000000
21
56.004338
0
LINE
8
0
10
432.000000
20
56.004338
11
432.000000
21
97.054242
0
LINE
8
0
10
7.000000
20
168.304338
11
7.086372
21
169.847340
0
LINE
8
0
10
7.086372
20
169.847340
11
8.242966
21
171.464157
0
LINE
8
0
10
8.242966
20
171.464157
11
10.354984
21
172.155739
0
LINE
8
0
10
10.354984
20
172.155739
11
14.064778
21
172.601348
0
LINE
8
0
10
14.064778
20
172.601348
11
19.822359
21
172.855037
0
LINE
8
0
10
19.822359
20
172.855037
11
28.077737
21
172.970860
0
LINE
8
0
10
28.077737
20
172.970860
11
39.280923
21
173.002871
0
LINE
8
0
10
39.280923
20
173.002871
11
46.128571
21
173.004338
0
LINE
8
0
10
46.128571
20
173.004338
11
51.826342
21
173.001758
0
LINE
8
0
10
51.826342
20
173.001758
11
61.449273
21
172.976849
0
LINE
8
0
10
61.449273
20
172.976849
11
68.940006
21
172.916118
0
LINE
8
0
10
68.940006
20
172.916118
11
74.576081
21
172.808178
0
LINE
8
0
10
74.576081
20
172.808178
11
78.635039
21
172.641641
0
LINE
8
0
10
78.635039
20
172.641641
11
81.394419
21
172.405120
0
LINE
8
0
10
81.394419
20
172.405120
11
83.703899
21
171.894210
0
LINE
8
0
10
83.703899
20
171.894210
11
84.428571
21
171.432910
0
LINE
8
0
10
84.428571
20
171.432910
11
85.538393
21
169.756570
0
LINE
8
0
10
85.538393
20
169.756570
11
86.000000
21
167.932910
0
LINE
8
0
10
86.000000
20
167.932910
11
85.875506
21
167.312512
0
LINE
8
0
10
85.875506
20
167.312512
11
84.562057
21
166.656003
0
LINE
8
0
10
84.562057
20
166.656003
11
82.319417
21
166.370987
0
LINE
8
0
10
82.319417
20
166.370987
11
78.490479
21
166.184041
0
LINE
8
0
10
78.490479
20
166.184041
11
72.652931
21
166.074545
0
LINE
8
0
10
72.652931
20
166.074545
11
64.384467
21
166.021881
0
LINE
8
0
10
64.384467
20
166.021881
11
53.262777
21
166.005428
0
LINE
8
0
10
53.262777
20
166.005428
11
46.500000
21
166.004338
0
LINE
8
0
10
46.500000
20
166.004338
11
7.000000
21
166.004338
0
LINE
8
0
10
7.000000
20
166.004338
11
7.000000
21
168.304338
0
LINE
8
0
10
136.224779
20
17.752169
11
136.449558
21
35.504338
0
LINE
8
0
10
136.449558
20
35.504338
11
136.748393
21
18.254338
0
LINE
8
0
10
136.748393
20
18.254338
11
137.047228
21
1.004338
0
LINE
8
0
10
137.047228
20
1.004338
11
363.000000
21
1.004338
0
LINE
8
0
10
363.000000
20
1.004338
11
588.952772
21
1.004338
0
LINE
8
0
10
588.952772
20
1.004338
11
589.263949
21
18.254338
0
LINE
8
0
10
589.263949
20
18.254338
11
589.575125
21
35.504338
0
LINE
8
0
10
589.575125
20
35.504338
11
589.537562
21
18.004338
0
LINE
8
0
10
589.537562
20
18.004338
11
589.500000
21
0.504338
0
LINE
8
0
10
589.500000
20
0.504338
11
362.750000
21
0.252169
0
LINE
8
0
10
362.750000
20
0.252169
11
136.000000
21
0.000000
0
LINE
8
0
10
136.000000
20
0.000000
11
136.224779
21
17.752169
0
LINE
8
0
10
134.442830
20
160.292726
11
134.349144
21
160.887520
0
LINE
8
0
10
134.349144
20
160.887520
11
134.214168
21
163.833084
0
LINE
8
0
10
134.214168
20
163.833084
11
134.156143
21
171.549329
0
LINE
8
0
10
134.156143
20
171.549329
11
134.224214
21
178.042726
0
LINE
8
0
10
134.224214
20
178.042726
11
134.500000
21
194.504338
0
LINE
8
0
10
134.500000
20
194.504338
11
361.500000
21
194.507606
0
LINE
8
0
10
361.500000
20
194.507606
11
588.500000
21
194.510874
0
LINE
8
0
10
588.500000
20
194.510874
11
361.705429
21
194.255436
0
LINE
8
0
10
361.705429
20
194.255436
11
134.910859
21
193.999997
0
LINE
8
0
10
134.910859
20
193.999997
11
135.205429
21
176.500932
0
LINE
8
0
10
135.205429
20
176.500932
11
135.258859
21
172.985764
0
LINE
8
0
10
135.258859
20
172.985764
11
135.321605
21
166.734819
0
LINE
8
0
10
135.321605
20
166.734819
11
135.325172
21
162.001519
0
LINE
8
0
10
135.325172
20
162.001519
11
135.269127
21
159.360012
0
LINE
8
0
10
135.269127
20
159.360012
11
135.218615
21
159.003102
0
LINE
8
0
10
135.218615
20
159.003102
11
134.874657
21
159.382439
0
LINE
8
0
10
134.874657
20
159.382439
11
134.442830
21
160.292726
0
LINE
8
0
10
362.226395
20
159.753251
11
587.952791
21
160.008684
0
LINE
8
0
10
587.952791
20
160.008684
11
588.263958
21
177.256511
0
LINE
8
0
10
588.263958
20
177.256511
11
588.575125
21
194.504338
0
LINE
8
0
10
588.575125
20
194.504338
11
588.537562
21
177.004338
0
LINE
8
0
10
588.537562
20
177.004338
11
588.500000
21
159.504338
0
LINE
8
0
10
588.500000
20
159.504338
11
362.500000
21
159.501077
0
LINE
8
0
10
362.500000
20
159.501077
11
136.500000
21
159.497817
0
LINE
8
0
10
136.500000
20
159.497817
11
362.226395
21
159.753251
0
LINE
8
0
10
249.250000
20
35.754296
11
363.000000
21
35.860948
0
LINE
8
0
10
363.000000
20
35.860948
11
476.750000
21
35.754296
0
LINE
8
0
10
476.750000
20
35.754296
11
482.283197
21
35.741043
0
LINE
8
0
10
482.283197
20
35.741043
11
491.379240
21
35.715057
0
LINE
8
0
10
491.379240
20
35.715057
11
497.896746
21
35.689877
0
LINE
8
0
10
497.896746
20
35.689877
11
501.894033
21
35.665634
0
LINE
8
0
10
501.894033
20
35.665634
11
503.429422
21
35.642461
0
LINE
8
0
10
503.429422
20
35.642461
11
502.561232
21
35.620490
0
LINE
8
0
10
502.561232
20
35.620490
11
499.347780
21
35.599854
0
LINE
8
0
10
499.347780
20
35.599854
11
493.847387
21
35.580686
0
LINE
8
0
10
493.847387
20
35.580686
11
486.118372
21
35.563118
0
LINE
8
0
10
486.118372
20
35.563118
11
476.219053
21
35.547283
0
LINE
8
0
10
476.219053
20
35.547283
11
464.207750
21
35.533313
0
LINE
8
0
10
464.207750
20
35.533313
11
450.142782
21
35.521341
0
LINE
8
0
10
450.142782
20
35.521341
11
434.082468
21
35.511500
0
LINE
8
0
10
434.082468
20
35.511500
11
416.085127
21
35.503921
0
LINE
8
0
10
416.085127
20
35.503921
11
396.209078
21
35.498738
0
LINE
8
0
10
396.209078
20
35.498738
11
374.512640
21
35.496083
0
LINE
8
0
10
374.512640
20
35.496083
11
363.000000
21
35.495745
0
LINE
8
0
10
363.000000
20
35.495745
11
351.487360
21
35.496083
0
LINE
8
0
10
351.487360
20
35.496083
11
329.790922
21
35.498738
0
LINE
8
0
10
329.790922
20
35.498738
11
309.914873
21
35.503921
0
LINE
8
0
10
309.914873
20
35.503921
11
291.917532
21
35.511500
0
LINE
8
0
10
291.917532
20
35.511500
11
275.857218
21
35.521341
0
LINE
8
0
10
275.857218
20
35.521341
11
261.792250
21
35.533313
0
LINE
8
0
10
261.792250
20
35.533313
11
249.780947
21
35.547283
0
LINE
8
0
10
249.780947
20
35.547283
11
239.881628
21
35.563118
0
LINE
8
0
10
239.881628
20
35.563118
11
232.152613
21
35.580686
0
LINE
8
0
10
232.152613
20
35.580686
11
226.652220
21
35.599854
0
LINE
8
0
10
226.652220
20
35.599854
11
223.438768
21
35.620490
0
LINE
8
0
10
223.438768
20
35.620490
11
222.570578
21
35.642461
0
LINE
8
0
10
222.570578
20
35.642461
11
224.105967
21
35.665634
0
LINE
8
0
10
224.105967
20
35.665634
11
228.103254
21
35.689877
0
LINE
8
0
10
228.103254
20
35.689877
11
234.620760
21
35.715057
0
LINE
8
0
10
234.620760
20
35.715057
11
243.716803
21
35.741043
0
LINE
8
0
10
243.716803
20
35.741043
11
249.250000
21
35.754296
0
LINE
8
0
10
17.000000
20
194.432910
11
17.008399
21
197.147523
0
LINE
8
0
10
17.008399
20
197.147523
11
17.088950
21
201.726758
0
LINE
8
0
10
17.088950
20
201.726758
11
17.435953
21
206.705361
0
LINE
8
0
10
17.435953
20
206.705361
11
18.507839
21
210.472273
0
LINE
8
0
10
18.507839
20
210.472273
11
20.537205
21
211.875838
0
LINE
8
0
10
20.537205
20
211.875838
11
22.000000
21
212.004338
0
LINE
8
0
10
22.000000
20
212.004338
11
23.462795
21
211.875838
0
LINE
8
0
10
23.462795
20
211.875838
11
25.492161
21
210.472273
0
LINE
8
0
10
25.492161
20
210.472273
11
26.564047
21
206.705361
0
LINE
8
0
10
26.564047
20
206.705361
11
26.911050
21
201.726758
0
LINE
8
0
10
26.911050
20
201.726758
11
26.991601
21
197.147523
0
LINE
8
0
10
26.991601
20
197.147523
11
27.000000
21
194.432910
0
LINE
8
0
10
27.000000
20
194.432910
11
27.000000
21
180.004338
0
LINE
8
0
10
27.000000
20
180.004338
11
22.000000
21
180.004338
0
LINE
8
0
10
22.000000
20
180.004338
11
17.000000
21
180.004338
0
LINE
8
0
10
17.000000
20
180.004338
11
17.000000
21
194.432910
0
LINE
8
0
10
65.223954
20
195.231431
11
65.500000
21
210.458524
0
LINE
8
0
10
65.500000
20
210.458524
11
68.354668
21
211.461283
0
LINE
8
0
10
68.354668
20
211.461283
11
69.903753
21
211.899448
0
LINE
8
0
10
69.903753
20
211.899448
11
72.019895
21
211.303419
0
LINE
8
0
10
72.019895
20
211.303419
11
73.104668
21
210.123406
0
LINE
8
0
10
73.104668
20
210.123406
11
73.661883
21
209.336549
0
LINE
8
0
10
73.661883
20
209.336549
11
74.432590
21
207.290777
0
LINE
8
0
10
74.432590
20
207.290777
11
74.837241
21
203.825720
0
LINE
8
0
10
74.837241
20
203.825720
11
74.986528
21
197.993529
0
LINE
8
0
10
74.986528
20
197.993529
11
75.000000
21
193.893554
0
LINE
8
0
10
75.000000
20
193.893554
11
75.000000
21
180.004338
0
LINE
8
0
10
75.000000
20
180.004338
11
69.973954
21
180.004338
0
LINE
8
0
10
69.973954
20
180.004338
11
64.947908
21
180.004338
0
LINE
8
0
10
64.947908
20
180.004338
11
65.223954
21
195.231431
0
LINE
8
0
10
31.000000
20
83.572687
11
31.000000
21
87.056430
0
LINE
8
0
10
31.000000
20
87.056430
11
46.250000
21
86.780384
0
LINE
8
0
10
46.250000
20
86.780384
11
61.500000
21
86.504338
0
LINE
8
0
10
61.500000
20
86.504338
11
61.500000
21
83.504338
0
LINE
8
0
10
61.500000
20
83.504338
11
61.500000
21
80.504338
0
LINE
8
0
10
61.500000
20
80.504338
11
46.250000
21
80.296641
0
LINE
8
0
10
46.250000
20
80.296641
11
31.000000
21
80.088944
0
LINE
8
0
10
31.000000
20
80.088944
11
31.000000
21
83.572687
0
LINE
8
0
10
397.711588
20
67.626083
11
397.625012
21
67.876840
0
LINE
8
0
10
397.625012
20
67.876840
11
397.469240
21
69.284041
0
LINE
8
0
10
397.469240
20
69.284041
11
397.278832
21
73.349222
0
LINE
8
0
10
397.278832
20
73.349222
11
397.105119
21
81.550068
0
LINE
8
0
10
397.105119
20
81.550068
11
397.022231
21
91.716910
0
LINE
8
0
10
397.022231
20
91.716910
11
397.029302
21
102.527743
0
LINE
8
0
10
397.029302
20
102.527743
11
397.125468
21
112.660561
0
LINE
8
0
10
397.125468
20
112.660561
11
397.309865
21
120.793358
0
LINE
8
0
10
397.309865
20
120.793358
11
397.505543
21
124.785172
0
LINE
8
0
10
397.505543
20
124.785172
11
397.663117
21
126.132831
0
LINE
8
0
10
397.663117
20
126.132831
11
397.750000
21
126.350626
0
LINE
8
0
10
397.750000
20
126.350626
11
397.824953
21
126.245371
0
LINE
8
0
10
397.824953
20
126.245371
11
397.959788
21
125.160546
0
LINE
8
0
10
397.959788
20
125.160546
11
398.120744
21
121.570088
0
LINE
8
0
10
398.120744
20
121.570088
11
398.248124
21
113.741326
0
LINE
8
0
10
398.248124
20
113.741326
11
398.261652
21
103.307072
0
LINE
8
0
10
398.261652
20
103.307072
11
398.220893
21
97.409643
0
LINE
8
0
10
398.220893
20
97.409643
11
397.941786
21
68.004338
0
LINE
8
0
10
397.941786
20
68.004338
11
402.970893
21
68.004338
0
LINE
8
0
10
402.970893
20
68.004338
11
408.000000
21
68.004338
0
LINE
8
0
10
408.000000
20
68.004338
11
408.000000
21
96.921005
0
LINE
8
0
10
408.000000
20
96.921005
11
407.983218
21
103.555336
0
LINE
8
0
10
407.983218
20
103.555336
11
407.850933
21
114.384390
0
LINE
8
0
10
407.850933
20
114.384390
11
407.591399
21
121.834923
0
LINE
8
0
10
407.591399
20
121.834923
11
407.209870
21
125.756082
0
LINE
8
0
10
407.209870
20
125.756082
11
406.975000
21
126.346005
0
LINE
8
0
10
406.975000
20
126.346005
11
406.677617
21
126.522997
0
LINE
8
0
10
406.677617
20
126.522997
11
406.810820
21
126.656200
0
LINE
8
0
10
406.810820
20
126.656200
11
407.225000
21
126.596005
0
LINE
8
0
10
407.225000
20
126.596005
11
407.566488
21
126.207785
0
LINE
8
0
10
407.566488
20
126.207785
11
408.067249
21
123.192529
0
LINE
8
0
10
408.067249
20
123.192529
11
408.303949
21
118.493411
0
LINE
8
0
10
408.303949
20
118.493411
11
408.405415
21
113.971910
0
LINE
8
0
10
408.405415
20
113.971910
11
408.467908
21
108.197562
0
LINE
8
0
10
408.467908
20
108.197562
11
408.496652
21
101.048792
0
LINE
8
0
10
408.496652
20
101.048792
11
408.500000
21
96.921005
0
LINE
8
0
10
408.500000
20
96.921005
11
408.500000
21
67.504338
0
LINE
8
0
10
408.500000
20
67.504338
11
403.461588
21
67.209417
0
LINE
8
0
10
403.461588
20
67.209417
11
401.449119
21
67.151053
0
LINE
8
0
10
401.449119
20
67.151053
11
398.385447
21
67.373058
0
LINE
8
0
10
398.385447
20
67.373058
11
397.711588
21
67.626083
0
LINE
8
0
10
470.475833
20
110.753941
11
470.500000
21
138.504338
0
LINE
8
0
10
470.500000
20
138.504338
11
476.500000
21
138.504338
0
LINE
8
0
10
476.500000
20
138.504338
11
482.500000
21
138.504338
0
LINE
8
0
10
482.500000
20
138.504338
11
482.536493
21
121.253422
0
LINE
8
0
10
482.536493
20
121.253422
11
482.572986
21
104.002505
0
LINE
8
0
10
482.572986
20
104.002505
11
482.262879
21
121.003422
0
LINE
8
0
10
482.262879
20
121.003422
11
481.952772
21
138.004338
0
LINE
8
0
10
481.952772
20
138.004338
11
476.492205
21
138.004338
0
LINE
8
0
10
476.492205
20
138.004338
11
471.031637
21
138.004338
0
LINE
8
0
10
471.031637
20
138.004338
11
470.741651
21
110.503941
0
LINE
8
0
10
470.741651
20
110.503941
11
470.451665
21
83.003544
0
LINE
8
0
10
470.451665
20
83.003544
11
470.475833
21
110.753941
0
LINE
8
0
10
431.483141
20
96.504338
11
431.500000
21
138.504338
0
LINE
8
0
10
431.500000
20
138.504338
11
437.000000
21
138.578932
0
LINE
8
0
10
437.000000
20
138.578932
11
442.500000
21
138.653526
0
LINE
8
0
10
442.500000
20
138.653526
11
437.260932
21
138.279355
0
LINE
8
0
10
437.260932
20
138.279355
11
432.021864
21
137.905183
0
LINE
8
0
10
432.021864
20
137.905183
11
431.744073
21
96.204760
0
LINE
8
0
10
431.744073
20
96.204760
11
431.466282
21
54.504338
0
LINE
8
0
10
431.466282
20
54.504338
11
431.483141
21
96.504338
0
LINE
8
0
10
6.116001
20
157.754338
11
6.000000
21
160.004338
0
LINE
8
0
10
6.000000
20
160.004338
11
46.250000
21
159.766143
0
LINE
8
0
10
46.250000
20
159.766143
11
86.500000
21
159.527949
0
LINE
8
0
10
86.500000
20
159.527949
11
46.821126
21
159.254732
0
LINE
8
0
10
46.821126
20
159.254732
11
40.324575
21
159.208151
0
LINE
8
0
10
40.324575
20
159.208151
11
29.519752
21
159.113052
0
LINE
8
0
10
29.519752
20
159.113052
11
21.328527
21
159.000126
0
LINE
8
0
10
21.328527
20
159.000126
11
15.385972
21
158.851081
0
LINE
8
0
10
15.385972
20
158.851081
11
11.327159
21
158.647624
0
LINE
8
0
10
11.327159
20
158.647624
11
8.787159
21
158.371462
0
LINE
8
0
10
8.787159
20
158.371462
11
7.026655
21
157.780882
0
LINE
8
0
10
7.026655
20
157.780882
11
6.687128
21
157.242927
0
LINE
8
0
10
6.687128
20
157.242927
11
6.467079
21
156.541164
0
LINE
8
0
10
6.467079
20
156.541164
11
6.194024
21
156.785669
0
LINE
8
0
10
6.194024
20
156.785669
11
6.116001
21
157.754338
0
LINE
8
0
10
172.457144
20
97.004338
11
172.458657
21
101.124196
0
LINE
8
0
10
172.458657
20
101.124196
11
172.470316
21
108.373018
0
LINE
8
0
10
172.470316
20
108.373018
11
172.492487
21
114.229726
0
LINE
8
0
10
172.492487
20
114.229726
11
172.523973
21
118.609212
0
LINE
8
0
10
172.523973
20
118.609212
11
172.563578
21
121.426369
0
LINE
8
0
10
172.563578
20
121.426369
11
172.610106
21
122.596089
0
LINE
8
0
10
172.610106
20
122.596089
11
172.662360
21
122.033266
0
LINE
8
0
10
172.662360
20
122.033266
11
172.719144
21
119.652791
0
LINE
8
0
10
172.719144
20
119.652791
11
172.748860
21
117.754338
0
LINE
8
0
10
172.748860
20
117.754338
11
172.869193
21
97.004338
0
LINE
8
0
10
172.869193
20
97.004338
11
172.748860
21
76.254338
0
LINE
8
0
10
172.748860
20
76.254338
11
172.719144
21
74.355885
0
LINE
8
0
10
172.719144
20
74.355885
11
172.662360
21
71.975411
0
LINE
8
0
10
172.662360
20
71.975411
11
172.610106
21
71.412587
0
LINE
8
0
10
172.610106
20
71.412587
11
172.563578
21
72.582308
0
LINE
8
0
10
172.563578
20
72.582308
11
172.523973
21
75.399464
0
LINE
8
0
10
172.523973
20
75.399464
11
172.492487
21
79.778951
0
LINE
8
0
10
172.492487
20
79.778951
11
172.470316
21
85.635658
0
LINE
8
0
10
172.470316
20
85.635658
11
172.458657
21
92.884480
0
LINE
8
0
10
172.458657
20
92.884480
11
172.457144
21
97.004338
0
LINE
8
0
10
538.481053
20
91.004338
11
538.500000
21
126.504338
0
LINE
8
0
10
538.500000
20
126.504338
11
542.500000
21
126.589848
0
LINE
8
0
10
542.500000
20
126.589848
11
546.500000
21
126.675357
0
LINE
8
0
10
546.500000
20
126.675357
11
542.762570
21
126.282964
0
LINE
8
0
10
542.762570
20
126.282964
11
539.025140
21
125.890571
0
LINE
8
0
10
539.025140
20
125.890571
11
538.743623
21
90.697455
0
LINE
8
0
10
538.743623
20
90.697455
11
538.462106
21
55.504338
0
LINE
8
0
10
538.462106
20
55.504338
11
538.481053
21
91.004338
0
LINE
8
0
10
26.250000
20
165.753088
11
46.000000
21
165.874169
0
LINE
8
0
10
46.000000
20
165.874169
11
65.750000
21
165.753088
0
LINE
8
0
10
65.750000
20
165.753088
11
67.556961
21
165.723187
0
LINE
8
0
10
67.556961
20
165.723187
11
69.822714
21
165.666050
0
LINE
8
0
10
69.822714
20
165.666050
11
70.358414
21
165.613472
0
LINE
8
0
10
70.358414
20
165.613472
11
69.245065
21
165.566655
0
LINE
8
0
10
69.245065
20
165.566655
11
66.563675
21
165.526803
0
LINE
8
0
10
66.563675
20
165.526803
11
62.395248
21
165.495121
0
LINE
8
0
10
62.395248
20
165.495121
11
56.820792
21
165.472812
0
LINE
8
0
10
56.820792
20
165.472812
11
49.921310
21
165.461081
0
LINE
8
0
10
49.921310
20
165.461081
11
46.000000
21
165.459558
0
LINE
8
0
10
46.000000
20
165.459558
11
42.078690
21
165.461081
0
LINE
8
0
10
42.078690
20
165.461081
11
35.179208
21
165.472812
0
LINE
8
0
10
35.179208
20
165.472812
11
29.604752
21
165.495121
0
LINE
8
0
10
29.604752
20
165.495121
11
25.436325
21
165.526803
0
LINE
8
0
10
25.436325
20
165.526803
11
22.754935
21
165.566655
0
LINE
8
0
10
22.754935
20
165.566655
11
21.641586
21
165.613472
0
LINE
8
0
10
21.641586
20
165.613472
11
22.177286
21
165.666050
0
LINE
8
0
10
22.177286
20
165.666050
11
24.443039
21
165.723187
0
LINE
8
0
10
24.443039
20
165.723187
11
26.250000
21
165.753088
0
LINE
8
0
10
306.236613
20
90.187916
11
306.000000
21
125.871493
0
LINE
8
0
10
306.000000
20
125.871493
11
303.250000
21
126.288084
0
LINE
8
0
10
303.250000
20
126.288084
11
300.500000
21
126.704674
0
LINE
8
0
10
300.500000
20
126.704674
11
303.281385
21
126.854506
0
LINE
8
0
10
303.281385
20
126.854506
11
304.399366
21
126.813601
0
LINE
8
0
10
304.399366
20
126.813601
11
306.138059
21
126.224388
0
LINE
8
0
10
306.138059
20
126.224388
11
306.544622
21
125.748651
0
LINE
8
0
10
306.544622
20
125.748651
11
306.592272
21
125.439187
0
LINE
8
0
10
306.592272
20
125.439187
11
306.675011
21
123.796187
0
LINE
8
0
10
306.675011
20
123.796187
11
306.740299
21
120.911658
0
LINE
8
0
10
306.740299
20
120.911658
11
306.787296
21
116.934284
0
LINE
8
0
10
306.787296
20
116.934284
11
306.821653
21
109.244376
0
LINE
8
0
10
306.821653
20
109.244376
11
306.795584
21
96.553899
0
LINE
8
0
10
306.795584
20
96.553899
11
306.749851
21
89.498651
0
LINE
8
0
10
306.749851
20
89.498651
11
306.473227
21
54.504338
0
LINE
8
0
10
306.473227
20
54.504338
11
306.236613
21
90.187916
0
LINE
8
0
10
312.736584
20
55.710761
11
317.973168
21
56.107927
0
LINE
8
0
10
317.973168
20
56.107927
11
318.257427
21
89.306132
0
LINE
8
0
10
318.257427
20
89.306132
11
318.541685
21
122.504338
0
LINE
8
0
10
318.541685
20
122.504338
11
318.520843
21
89.004338
0
LINE
8
0
10
318.520843
20
89.004338
11
318.500000
21
55.504338
0
LINE
8
0
10
318.500000
20
55.504338
11
313.000000
21
55.408967
0
LINE
8
0
10
313.000000
20
55.408967
11
307.500000
21
55.313596
0
LINE
8
0
10
307.500000
20
55.313596
11
312.736584
21
55.710761
0
LINE
8
0
10
505.453654
20
100.504338
11
505.455131
21
104.278377
0
LINE
8
0
10
505.455131
20
104.278377
11
505.466827
21
110.928474
0
LINE
8
0
10
505.466827
20
110.928474
11
505.489171
21
116.315245
0
LINE
8
0
10
505.489171
20
116.315245
11
505.520954
21
120.359465
0
LINE
8
0
10
505.520954
20
120.359465
11
505.560968
21
122.981909
0
LINE
8
0
10
505.560968
20
122.981909
11
505.608004
21
124.103351
0
LINE
8
0
10
505.608004
20
124.103351
11
505.660853
21
123.644566
0
LINE
8
0
10
505.660853
20
123.644566
11
505.718306
21
121.526330
0
LINE
8
0
10
505.718306
20
121.526330
11
505.748381
21
119.820160
0
LINE
8
0
10
505.748381
20
119.820160
11
505.870336
21
100.950436
0
LINE
8
0
10
505.870336
20
100.950436
11
505.748919
21
81.820160
0
LINE
8
0
10
505.748919
20
81.820160
11
505.718893
21
80.049646
0
LINE
8
0
10
505.718893
20
80.049646
11
505.661502
21
77.808458
0
LINE
8
0
10
505.661502
20
77.808458
11
505.608668
21
77.236530
0
LINE
8
0
10
505.608668
20
77.236530
11
505.561602
21
78.257226
0
LINE
8
0
10
505.561602
20
78.257226
11
505.521515
21
80.793914
0
LINE
8
0
10
505.521515
20
80.793914
11
505.489618
21
84.769957
0
LINE
8
0
10
505.489618
20
84.769957
11
505.467122
21
90.108723
0
LINE
8
0
10
505.467122
20
90.108723
11
505.455238
21
96.733577
0
LINE
8
0
10
505.455238
20
96.733577
11
505.453654
21
100.504338
0
LINE
8
0
10
558.453654
20
92.504338
11
558.455131
21
96.278377
0
LINE
8
0
10
558.455131
20
96.278377
11
558.466827
21
102.928474
0
LINE
8
0
10
558.466827
20
102.928474
11
558.489171
21
108.315245
0
LINE
8
0
10
558.489171
20
108.315245
11
558.520954
21
112.359465
0
LINE
8
0
10
558.520954
20
112.359465
11
558.560968
21
114.981909
0
LINE
8
0
10
558.560968
20
114.981909
11
558.608004
21
116.103351
0
LINE
8
0
10
558.608004
20
116.103351
11
558.660853
21
115.644566
0
LINE
8
0
10
558.660853
20
115.644566
11
558.718306
21
113.526330
0
LINE
8
0
10
558.718306
20
113.526330
11
558.748381
21
111.820160
0
LINE
8
0
10
558.748381
20
111.820160
11
558.870336
21
92.950436
0
LINE
8
0
10
558.870336
20
92.950436
11
558.748919
21
73.820160
0
LINE
8
0
10
558.748919
20
73.820160
11
558.718893
21
72.049646
0
LINE
8
0
10
558.718893
20
72.049646
11
558.661502
21
69.808458
0
LINE
8
0
10
558.661502
20
69.808458
11
558.608668
21
69.236530
0
LINE
8
0
10
558.608668
20
69.236530
11
558.561602
21
70.257226
0
LINE
8
0
10
558.561602
20
70.257226
11
558.521515
21
72.793914
0
LINE
8
0
10
558.521515
20
72.793914
11
558.489618
21
76.769957
0
LINE
8
0
10
558.489618
20
76.769957
11
558.467122
21
82.108723
0
LINE
8
0
10
558.467122
20
82.108723
11
558.455238
21
88.733577
0
LINE
8
0
10
558.455238
20
88.733577
11
558.453654
21
92.504338
0
LINE
8
0
10
27.750000
20
173.752890
11
46.000000
21
173.875223
0
LINE
8
0
10
46.000000
20
173.875223
11
64.250000
21
173.752890
0
LINE
8
0
10
64.250000
20
173.752890
11
65.919724
21
173.722680
0
LINE
8
0
10
65.919724
20
173.722680
11
68.013394
21
173.664953
0
LINE
8
0
10
68.013394
20
173.664953
11
68.508408
21
173.611830
0
LINE
8
0
10
68.508408
20
173.611830
11
67.479617
21
173.564529
0
LINE
8
0
10
67.479617
20
173.564529
11
65.001877
21
173.524265
0
LINE
8
0
10
65.001877
20
173.524265
11
61.150040
21
173.492256
0
LINE
8
0
10
61.150040
20
173.492256
11
55.998959
21
173.469716
0
LINE
8
0
10
55.998959
20
173.469716
11
49.623489
21
173.457864
0
LINE
8
0
10
49.623489
20
173.457864
11
46.000000
21
173.456325
0
LINE
8
0
10
46.000000
20
173.456325
11
42.376511
21
173.457864
0
LINE
8
0
10
42.376511
20
173.457864
11
36.001041
21
173.469716
0
LINE
8
0
10
36.001041
20
173.469716
11
30.849960
21
173.492256
0
LINE
8
0
10
30.849960
20
173.492256
11
26.998123
21
173.524265
0
LINE
8
0
10
26.998123
20
173.524265
11
24.520383
21
173.564529
0
LINE
8
0
10
24.520383
20
173.564529
11
23.491592
21
173.611830
0
LINE
8
0
10
23.491592
20
173.611830
11
23.986606
21
173.664953
0
LINE
8
0
10
23.986606
20
173.664953
11
26.080276
21
173.722680
0
LINE
8
0
10
26.080276
20
173.722680
11
27.750000
21
173.752890
0
LINE
8
0
10
525.999295
20
90.705170
11
525.914570
21
97.961563
0
LINE
8
0
10
525.914570
20
97.961563
11
525.851404
21
110.778141
0
LINE
8
0
10
525.851404
20
110.778141
11
525.892769
21
118.334088
0
LINE
8
0
10
525.892769
20
118.334088
11
525.960574
21
122.119580
0
LINE
8
0
10
525.960574
20
122.119580
11
526.059300
21
124.734056
0
LINE
8
0
10
526.059300
20
124.734056
11
526.187866
21
126.032170
0
LINE
8
0
10
526.187866
20
126.032170
11
526.263001
21
126.142169
0
LINE
8
0
10
526.263001
20
126.142169
11
526.339358
21
125.880513
0
LINE
8
0
10
526.339358
20
125.880513
11
526.477339
21
124.315561
0
LINE
8
0
10
526.477339
20
124.315561
11
526.593970
21
121.485493
0
LINE
8
0
10
526.593970
20
121.485493
11
526.687204
21
117.538786
0
LINE
8
0
10
526.687204
20
117.538786
11
526.778703
21
109.849831
0
LINE
8
0
10
526.778703
20
109.849831
11
526.799696
21
97.075473
0
LINE
8
0
10
526.799696
20
97.075473
11
526.762296
21
89.941338
0
LINE
8
0
10
526.762296
20
89.941338
11
526.498590
21
54.504338
0
LINE
8
0
10
526.498590
20
54.504338
11
525.999295
21
90.705170
0
LINE
8
0
10
184.999277
20
103.205190
11
184.914559
21
110.361144
0
LINE
8
0
10
184.914559
20
110.361144
11
184.851425
21
122.999087
0
LINE
8
0
10
184.851425
20
122.999087
11
184.892827
21
130.448598
0
LINE
8
0
10
184.892827
20
130.448598
11
184.960661
21
134.180094
0
LINE
8
0
10
184.960661
20
134.180094
11
185.059419
21
136.756537
0
LINE
8
0
10
185.059419
20
136.756537
11
185.188019
21
138.034632
0
LINE
8
0
10
185.188019
20
138.034632
11
185.263172
21
138.142018
0
LINE
8
0
10
185.263172
20
138.142018
11
185.339545
21
137.882937
0
LINE
8
0
10
185.339545
20
137.882937
11
185.477552
21
136.337938
0
LINE
8
0
10
185.477552
20
136.337938
11
185.594200
21
133.545849
0
LINE
8
0
10
185.594200
20
133.545849
11
185.687440
21
129.653098
0
LINE
8
0
10
185.687440
20
129.653098
11
185.778932
21
122.070545
0
LINE
8
0
10
185.778932
20
122.070545
11
185.799883
21
109.474832
0
LINE
8
0
10
185.799883
20
109.474832
11
185.762448
21
102.441167
0
LINE
8
0
10
185.762448
20
102.441167
11
185.498553
21
67.504338
0
LINE
8
0
10
185.498553
20
67.504338
11
184.999277
21
103.205190
0
LINE
8
0
10
319.451395
20
90.504338
11
319.452877
21
94.079825
0
LINE
8
0
10
319.452877
20
94.079825
11
319.464648
21
100.380547
0
LINE
8
0
10
319.464648
20
100.380547
11
319.487146
21
105.485003
0
LINE
8
0
10
319.487146
20
105.485003
11
319.519152
21
109.318070
0
LINE
8
0
10
319.519152
20
109.318070
11
319.559450
21
111.804631
0
LINE
8
0
10
319.559450
20
111.804631
11
319.606821
21
112.869564
0
LINE
8
0
10
319.606821
20
112.869564
11
319.660050
21
112.437750
0
LINE
8
0
10
319.660050
20
112.437750
11
319.717918
21
110.434069
0
LINE
8
0
10
319.717918
20
110.434069
11
319.748211
21
108.819303
0
LINE
8
0
10
319.748211
20
108.819303
11
319.871066
21
90.949227
0
LINE
8
0
10
319.871066
20
90.949227
11
319.748803
21
72.819303
0
LINE
8
0
10
319.748803
20
72.819303
11
319.718564
21
71.140368
0
LINE
8
0
10
319.718564
20
71.140368
11
319.660764
21
69.014069
0
LINE
8
0
10
319.660764
20
69.014069
11
319.607552
21
68.469418
0
LINE
8
0
10
319.607552
20
68.469418
11
319.560147
21
69.433879
0
LINE
8
0
10
319.560147
20
69.433879
11
319.519768
21
71.834916
0
LINE
8
0
10
319.519768
20
71.834916
11
319.487637
21
75.599993
0
LINE
8
0
10
319.487637
20
75.599993
11
319.464973
21
80.656573
0
LINE
8
0
10
319.464973
20
80.656573
11
319.452995
21
86.932120
0
LINE
8
0
10
319.452995
20
86.932120
11
319.451395
21
90.504338
0
LINE
8
0
10
385.449558
20
97.004338
11
385.451108
21
100.429280
0
LINE
8
0
10
385.451108
20
100.429280
11
385.463052
21
106.455409
0
LINE
8
0
10
385.463052
20
106.455409
11
385.485763
21
111.324239
0
LINE
8
0
10
385.485763
20
111.324239
11
385.518018
21
114.965016
0
LINE
8
0
10
385.518018
20
114.965016
11
385.558590
21
117.306990
0
LINE
8
0
10
385.558590
20
117.306990
11
385.606253
21
118.279408
0
LINE
8
0
10
385.606253
20
118.279408
11
385.659782
21
117.811519
0
LINE
8
0
10
385.659782
20
117.811519
11
385.717951
21
115.832570
0
LINE
8
0
10
385.717951
20
115.832570
11
385.748393
21
114.254338
0
LINE
8
0
10
385.748393
20
114.254338
11
385.871662
21
97.004338
0
LINE
8
0
10
385.871662
20
97.004338
11
385.748393
21
79.754338
0
LINE
8
0
10
385.748393
20
79.754338
11
385.717951
21
78.176106
0
LINE
8
0
10
385.717951
20
78.176106
11
385.659782
21
76.197157
0
LINE
8
0
10
385.659782
20
76.197157
11
385.606253
21
75.729268
0
LINE
8
0
10
385.606253
20
75.729268
11
385.558590
21
76.701686
0
LINE
8
0
10
385.558590
20
76.701686
11
385.518018
21
79.043660
0
LINE
8
0
10
385.518018
20
79.043660
11
385.485763
21
82.684438
0
LINE
8
0
10
385.485763
20
82.684438
11
385.463052
21
87.553267
0
LINE
8
0
10
385.463052
20
87.553267
11
385.451108
21
93.579396
0
LINE
8
0
10
385.451108
20
93.579396
11
385.449558
21
97.004338
0
LINE
8
0
10
211.445414
20
99.004338
11
211.446984
21
102.131459
0
LINE
8
0
10
211.446984
20
102.131459
11
211.459081
21
107.633577
0
LINE
8
0
10
211.459081
20
107.633577
11
211.482086
21
112.079030
0
LINE
8
0
10
211.482086
20
112.079030
11
211.514756
21
115.403218
0
LINE
8
0
10
211.514756
20
115.403218
11
211.555851
21
117.541542
0
LINE
8
0
10
211.555851
20
117.541542
11
211.604128
21
118.429402
0
LINE
8
0
10
211.604128
20
118.429402
11
211.658347
21
118.002199
0
LINE
8
0
10
211.658347
20
118.002199
11
211.717266
21
116.195332
0
LINE
8
0
10
211.717266
20
116.195332
11
211.748100
21
114.754338
0
LINE
8
0
10
211.748100
20
114.754338
11
211.872958
21
99.004338
0
LINE
8
0
10
211.872958
20
99.004338
11
211.748100
21
83.254338
0
LINE
8
0
10
211.748100
20
83.254338
11
211.717266
21
81.813344
0
LINE
8
0
10
211.717266
20
81.813344
11
211.658347
21
80.006477
0
LINE
8
0
10
211.658347
20
80.006477
11
211.604128
21
79.579274
0
LINE
8
0
10
211.604128
20
79.579274
11
211.555851
21
80.467134
0
LINE
8
0
10
211.555851
20
80.467134
11
211.514756
21
82.605458
0
LINE
8
0
10
211.514756
20
82.605458
11
211.482086
21
85.929646
0
LINE
8
0
10
211.482086
20
85.929646
11
211.459081
21
90.375099
0
LINE
8
0
10
211.459081
20
90.375099
11
211.446984
21
95.877217
0
LINE
8
0
10
211.446984
20
95.877217
11
211.445414
21
99.004338
0
LINE
8
0
10
420.445414
20
97.004338
11
420.446984
21
100.131459
0
LINE
8
0
10
420.446984
20
100.131459
11
420.459081
21
105.633577
0
LINE
8
0
10
420.459081
20
105.633577
11
420.482086
21
110.079030
0
LINE
8
0
10
420.482086
20
110.079030
11
420.514756
21
113.403218
0
LINE
8
0
10
420.514756
20
113.403218
11
420.555851
21
115.541542
0
LINE
8
0
10
420.555851
20
115.541542
11
420.604128
21
116.429402
0
LINE
8
0
10
420.604128
20
116.429402
11
420.658347
21
116.002199
0
LINE
8
0
10
420.658347
20
116.002199
11
420.717266
21
114.195332
0
LINE
8
0
10
420.717266
20
114.195332
11
420.748100
21
112.754338
0
LINE
8
0
10
420.748100
20
112.754338
11
420.872958
21
97.004338
0
LINE
8
0
10
420.872958
20
97.004338
11
420.748100
21
81.254338
0
LINE
8
0
10
420.748100
20
81.254338
11
420.717266
21
79.813344
0
LINE
8
0
10
420.717266
20
79.813344
11
420.658347
21
78.006477
0
LINE
8
0
10
420.658347
20
78.006477
11
420.604128
21
77.579274
0
LINE
8
0
10
420.604128
20
77.579274
11
420.555851
21
78.467134
0
LINE
8
0
10
420.555851
20
78.467134
11
420.514756
21
80.605458
0
LINE
8
0
10
420.514756
20
80.605458
11
420.482086
21
83.929646
0
LINE
8
0
10
420.482086
20
83.929646
11
420.459081
21
88.375099
0
LINE
8
0
10
420.459081
20
88.375099
11
420.446984
21
93.877217
0
LINE
8
0
10
420.446984
20
93.877217
11
420.445414
21
97.004338
0
LINE
8
0
10
132.444645
20
99.504338
11
132.450691
21
105.421603
0
LINE
8
0
10
132.450691
20
105.421603
11
132.481083
21
112.409345
0
LINE
8
0
10
132.481083
20
112.409345
11
132.513747
21
115.714488
0
LINE
8
0
10
132.513747
20
115.714488
11
132.554885
21
117.861285
0
LINE
8
0
10
132.554885
20
117.861285
11
132.603253
21
118.784880
0
LINE
8
0
10
132.603253
20
118.784880
11
132.657608
21
118.420418
0
LINE
8
0
10
132.657608
20
118.420418
11
132.716707
21
116.703043
0
LINE
8
0
10
132.716707
20
116.703043
11
132.747648
21
115.316746
0
LINE
8
0
10
132.747648
20
115.316746
11
132.873180
21
99.945614
0
LINE
8
0
10
132.873180
20
99.945614
11
132.748417
21
84.316746
0
LINE
8
0
10
132.748417
20
84.316746
11
132.717547
21
82.866800
0
LINE
8
0
10
132.717547
20
82.866800
11
132.658535
21
81.027803
0
LINE
8
0
10
132.658535
20
81.027803
11
132.604201
21
80.551420
0
LINE
8
0
10
132.604201
20
80.551420
11
132.555790
21
81.375359
0
LINE
8
0
10
132.555790
20
81.375359
11
132.514548
21
83.437327
0
LINE
8
0
10
132.514548
20
83.437327
11
132.481721
21
86.675031
0
LINE
8
0
10
132.481721
20
86.675031
11
132.458555
21
91.026178
0
LINE
8
0
10
132.458555
20
91.026178
11
132.446295
21
96.428475
0
LINE
8
0
10
132.446295
20
96.428475
11
132.444645
21
99.504338
0
LINE
8
0
10
251.443876
20
99.004338
11
251.450083
21
104.819890
0
LINE
8
0
10
251.450083
20
104.819890
11
251.480720
21
111.663960
0
LINE
8
0
10
251.480720
20
111.663960
11
251.513544
21
114.882619
0
LINE
8
0
10
251.513544
20
114.882619
11
251.554832
21
116.953059
0
LINE
8
0
10
251.554832
20
116.953059
11
251.603336
21
117.812734
0
LINE
8
0
10
251.603336
20
117.812734
11
251.657810
21
117.399092
0
LINE
8
0
10
251.657810
20
117.399092
11
251.717005
21
115.649587
0
LINE
8
0
10
251.717005
20
115.649587
11
251.747984
21
114.254338
0
LINE
8
0
10
251.747984
20
114.254338
11
251.873429
21
99.004338
0
LINE
8
0
10
251.873429
20
99.004338
11
251.747984
21
83.754338
0
LINE
8
0
10
251.747984
20
83.754338
11
251.717005
21
82.359090
0
LINE
8
0
10
251.717005
20
82.359090
11
251.657810
21
80.609584
0
LINE
8
0
10
251.657810
20
80.609584
11
251.603336
21
80.195943
0
LINE
8
0
10
251.603336
20
80.195943
11
251.554832
21
81.055617
0
LINE
8
0
10
251.554832
20
81.055617
11
251.513544
21
83.126058
0
LINE
8
0
10
251.513544
20
83.126058
11
251.480720
21
86.344716
0
LINE
8
0
10
251.480720
20
86.344716
11
251.450083
21
93.188786
0
LINE
8
0
10
251.450083
20
93.188786
11
251.443876
21
99.004338
0
LINE
8
0
10
421.443876
20
97.004338
11
421.450083
21
102.819890
0
LINE
8
0
10
421.450083
20
102.819890
11
421.480720
21
109.663960
0
LINE
8
0
10
421.480720
20
109.663960
11
421.513544
21
112.882619
0
LINE
8
0
10
421.513544
20
112.882619
11
421.554832
21
114.953059
0
LINE
8
0
10
421.554832
20
114.953059
11
421.603336
21
115.812734
0
LINE
8
0
10
421.603336
20
115.812734
11
421.657810
21
115.399092
0
LINE
8
0
10
421.657810
20
115.399092
11
421.717005
21
113.649587
0
LINE
8
0
10
421.717005
20
113.649587
11
421.747984
21
112.254338
0
LINE
8
0
10
421.747984
20
112.254338
11
421.873429
21
97.004338
0
LINE
8
0
10
421.873429
20
97.004338
11
421.747984
21
81.754338
0
LINE
8
0
10
421.747984
20
81.754338
11
421.717005
21
80.359090
0
LINE
8
0
10
421.717005
20
80.359090
11
421.657810
21
78.609584
0
LINE
8
0
10
421.657810
20
78.609584
11
421.603336
21
78.195943
0
LINE
8
0
10
421.603336
20
78.195943
11
421.554832
21
79.055617
0
LINE
8
0
10
421.554832
20
79.055617
11
421.513544
21
81.126058
0
LINE
8
0
10
421.513544
20
81.126058
11
421.480720
21
84.344716
0
LINE
8
0
10
421.480720
20
84.344716
11
421.450083
21
91.188786
0
LINE
8
0
10
421.450083
20
91.188786
11
421.443876
21
97.004338
0
LINE
8
0
10
264.440524
20
97.004338
11
264.446793
21
102.438542
0
LINE
8
0
10
264.446793
20
102.438542
11
264.477742
21
108.833821
0
LINE
8
0
10
264.477742
20
108.833821
11
264.510899
21
111.841420
0
LINE
8
0
10
264.510899
20
111.841420
11
264.552605
21
113.776094
0
LINE
8
0
10
264.552605
20
113.776094
11
264.601602
21
114.579396
0
LINE
8
0
10
264.601602
20
114.579396
11
264.656629
21
114.192879
0
LINE
8
0
10
264.656629
20
114.192879
11
264.716425
21
112.558095
0
LINE
8
0
10
264.716425
20
112.558095
11
264.747718
21
111.254338
0
LINE
8
0
10
264.747718
20
111.254338
11
264.874436
21
97.004338
0
LINE
8
0
10
264.874436
20
97.004338
11
264.747718
21
82.754338
0
LINE
8
0
10
264.747718
20
82.754338
11
264.716425
21
81.450581
0
LINE
8
0
10
264.716425
20
81.450581
11
264.656629
21
79.815797
0
LINE
8
0
10
264.656629
20
79.815797
11
264.601602
21
79.429280
0
LINE
8
0
10
264.601602
20
79.429280
11
264.552605
21
80.232582
0
LINE
8
0
10
264.552605
20
80.232582
11
264.510899
21
82.167256
0
LINE
8
0
10
264.510899
20
82.167256
11
264.477742
21
85.174855
0
LINE
8
0
10
264.477742
20
85.174855
11
264.446793
21
91.570134
0
LINE
8
0
10
264.446793
20
91.570134
11
264.440524
21
97.004338
0
LINE
8
0
10
263.437717
20
95.504338
11
263.443853
21
100.658854
0
LINE
8
0
10
263.443853
20
100.658854
11
263.490344
21
108.312558
0
LINE
8
0
10
263.490344
20
108.312558
11
263.550158
21
111.506398
0
LINE
8
0
10
263.550158
20
111.506398
11
263.599534
21
112.316831
0
LINE
8
0
10
263.599534
20
112.316831
11
263.655032
21
112.006147
0
LINE
8
0
10
263.655032
20
112.006147
11
263.715382
21
110.517706
0
LINE
8
0
10
263.715382
20
110.517706
11
263.746980
21
109.314125
0
LINE
8
0
10
263.746980
20
109.314125
11
263.875239
21
95.941912
0
LINE
8
0
10
263.875239
20
95.941912
11
263.747955
21
82.314125
0
LINE
8
0
10
263.747955
20
82.314125
11
263.716446
21
81.047430
0
LINE
8
0
10
263.716446
20
81.047430
11
263.656208
21
79.438386
0
LINE
8
0
10
263.656208
20
79.438386
11
263.600736
21
79.016721
0
LINE
8
0
10
263.600736
20
79.016721
11
263.551305
21
79.728334
0
LINE
8
0
10
263.551305
20
79.728334
11
263.491264
21
82.802305
0
LINE
8
0
10
263.491264
20
82.802305
11
263.444225
21
90.362468
0
LINE
8
0
10
263.444225
20
90.362468
11
263.437717
21
95.504338
0
LINE
8
0
10
233.250000
20
126.735624
11
242.000000
21
127.079390
0
LINE
8
0
10
242.000000
20
127.079390
11
242.000000
21
132.509113
0
LINE
8
0
10
242.000000
20
132.509113
11
242.000000
21
137.938836
0
LINE
8
0
10
242.000000
20
137.938836
11
231.250000
21
138.270690
0
LINE
8
0
10
231.250000
20
138.270690
11
220.500000
21
138.602544
0
LINE
8
0
10
220.500000
20
138.602544
11
231.500000
21
138.553441
0
LINE
8
0
10
231.500000
20
138.553441
11
242.500000
21
138.504338
0
LINE
8
0
10
242.500000
20
138.504338
11
242.500000
21
132.504338
0
LINE
8
0
10
242.500000
20
132.504338
11
242.500000
21
126.504338
0
LINE
8
0
10
242.500000
20
126.504338
11
233.500000
21
126.448098
0
LINE
8
0
10
233.500000
20
126.448098
11
224.500000
21
126.391858
0
LINE
8
0
10
224.500000
20
126.391858
11
233.250000
21
126.735624
0
LINE
8
0
10
580.250000
20
126.735624
11
589.000000
21
127.079390
0
LINE
8
0
10
589.000000
20
127.079390
11
589.000000
21
132.508032
0
LINE
8
0
10
589.000000
20
132.508032
11
589.000000
21
137.936675
0
LINE
8
0
10
589.000000
20
137.936675
11
578.750000
21
138.271226
0
LINE
8
0
10
578.750000
20
138.271226
11
568.500000
21
138.605777
0
LINE
8
0
10
568.500000
20
138.605777
11
579.000000
21
138.555058
0
LINE
8
0
10
579.000000
20
138.555058
11
589.500000
21
138.504338
0
LINE
8
0
10
589.500000
20
138.504338
11
589.500000
21
132.504338
0
LINE
8
0
10
589.500000
20
132.504338
11
589.500000
21
126.504338
0
LINE
8
0
10
589.500000
20
126.504338
11
580.500000
21
126.448098
0
LINE
8
0
10
580.500000
20
126.448098
11
571.500000
21
126.391858
0
LINE
8
0
10
571.500000
20
126.391858
11
580.250000
21
126.735624
0
LINE
8
0
10
41.431254
20
50.504338
11
41.437923
21
55.074237
0
LINE
8
0
10
41.437923
20
55.074237
11
41.485908
21
61.789553
0
LINE
8
0
10
41.485908
20
61.789553
11
41.571444
21
64.952507
0
LINE
8
0
10
41.571444
20
64.952507
11
41.653998
21
64.762685
0
LINE
8
0
10
41.653998
20
64.762685
11
41.715365
21
63.326199
0
LINE
8
0
10
41.715365
20
63.326199
11
41.747461
21
62.196989
0
LINE
8
0
10
41.747461
20
62.196989
11
41.877056
21
50.070208
0
LINE
8
0
10
41.877056
20
50.070208
11
41.746272
21
38.196989
0
LINE
8
0
10
41.746272
20
38.196989
11
41.714067
21
37.130398
0
LINE
8
0
10
41.714067
20
37.130398
11
41.652564
21
35.813564
0
LINE
8
0
10
41.652564
20
35.813564
11
41.569999
21
35.784538
0
LINE
8
0
10
41.569999
20
35.784538
11
41.484784
21
39.113772
0
LINE
8
0
10
41.484784
20
39.113772
11
41.437469
21
45.921893
0
LINE
8
0
10
41.437469
20
45.921893
11
41.431254
21
50.504338
0
LINE
8
0
10
551.180248
20
132.231264
11
551.000000
21
137.958189
0
LINE
8
0
10
551.000000
20
137.958189
11
533.250000
21
138.255862
0
LINE
8
0
10
533.250000
20
138.255862
11
515.500000
21
138.553535
0
LINE
8
0
10
515.500000
20
138.553535
11
533.281385
21
138.778937
0
LINE
8
0
10
533.281385
20
138.778937
11
536.786313
21
138.825530
0
LINE
8
0
10
536.786313
20
138.825530
11
542.453525
21
138.876290
0
LINE
8
0
10
542.453525
20
138.876290
11
546.536768
21
138.787789
0
LINE
8
0
10
546.536768
20
138.787789
11
549.283514
21
138.460793
0
LINE
8
0
10
549.283514
20
138.460793
11
551.439047
21
137.306053
0
LINE
8
0
10
551.439047
20
137.306053
11
551.945088
21
134.005499
0
LINE
8
0
10
551.945088
20
134.005499
11
551.740060
21
131.377278
0
LINE
8
0
10
551.740060
20
131.377278
11
551.360496
21
126.504338
0
LINE
8
0
10
551.360496
20
126.504338
11
551.180248
21
132.231264
0
LINE
8
0
10
446.947505
20
55.739693
11
461.897268
21
56.055877
0
LINE
8
0
10
461.897268
20
56.055877
11
462.285531
21
61.035764
0
LINE
8
0
10
462.285531
20
61.035764
11
462.673795
21
66.015651
0
LINE
8
0
10
462.673795
20
66.015651
11
462.586897
21
60.759995
0
LINE
8
0
10
462.586897
20
60.759995
11
462.500000
21
55.504338
0
LINE
8
0
10
462.500000
20
55.504338
11
447.248871
21
55.463924
0
LINE
8
0
10
447.248871
20
55.463924
11
431.997742
21
55.423509
0
LINE
8
0
10
431.997742
20
55.423509
11
446.947505
21
55.739693
0
LINE
8
0
10
64.439082
20
180.302493
11
64.345345
21
180.848025
0
LINE
8
0
10
64.345345
20
180.848025
11
64.214224
21
183.418162
0
LINE
8
0
10
64.214224
20
183.418162
11
64.169988
21
190.032821
0
LINE
8
0
10
64.169988
20
190.032821
11
64.251121
21
195.552493
0
LINE
8
0
10
64.251121
20
195.552493
11
64.561308
21
209.504338
0
LINE
8
0
10
64.561308
20
209.504338
11
64.780654
21
194.806598
0
LINE
8
0
10
64.780654
20
194.806598
11
65.000000
21
180.108857
0
LINE
8
0
10
65.000000
20
180.108857
11
70.250000
21
179.741580
0
LINE
8
0
10
70.250000
20
179.741580
11
75.500000
21
179.374303
0
LINE
8
0
10
75.500000
20
179.374303
11
70.218615
21
179.189320
0
LINE
8
0
10
70.218615
20
179.189320
11
67.865383
21
179.188138
0
LINE
8
0
10
67.865383
20
179.188138
11
64.984272
21
179.743057
0
LINE
8
0
10
64.984272
20
179.743057
11
64.439082
21
180.302493
0
LINE
8
0
10
36.803194
20
92.750806
11
46.928261
21
92.884261
0
LINE
8
0
10
46.928261
20
92.884261
11
56.803194
21
92.749198
0
LINE
8
0
10
56.803194
20
92.749198
11
58.342875
21
92.683688
0
LINE
8
0
10
58.342875
20
92.683688
11
58.787300
21
92.567375
0
LINE
8
0
10
58.787300
20
92.567375
11
56.000206
21
92.479548
0
LINE
8
0
10
56.000206
20
92.479548
11
50.319665
21
92.430862
0
LINE
8
0
10
50.319665
20
92.430862
11
46.500000
21
92.424525
0
LINE
8
0
10
46.500000
20
92.424525
11
42.692712
21
92.431475
0
LINE
8
0
10
42.692712
20
92.431475
11
37.103721
21
92.481067
0
LINE
8
0
10
37.103721
20
92.481067
11
34.480659
21
92.569329
0
LINE
8
0
10
34.480659
20
92.569329
11
35.141703
21
92.685553
0
LINE
8
0
10
35.141703
20
92.685553
11
36.803194
21
92.750806
0
LINE
8
0
10
21.722856
20
179.710285
11
26.945713
21
180.106975
0
LINE
8
0
10
26.945713
20
180.106975
11
27.267081
21
194.305656
0
LINE
8
0
10
27.267081
20
194.305656
11
27.588450
21
208.504338
0
LINE
8
0
10
27.588450
20
208.504338
11
27.544225
21
194.004338
0
LINE
8
0
10
27.544225
20
194.004338
11
27.500000
21
179.504338
0
LINE
8
0
10
27.500000
20
179.504338
11
22.000000
21
179.408967
0
LINE
8
0
10
22.000000
20
179.408967
11
16.500000
21
179.313596
0
LINE
8
0
10
16.500000
20
179.313596
11
21.722856
21
179.710285
0
LINE
8
0
10
303.250000
20
138.749840
11
313.000000
21
138.884695
0
LINE
8
0
10
313.000000
20
138.884695
11
322.750000
21
138.749840
0
LINE
8
0
10
322.750000
20
138.749840
11
324.310571
21
138.684168
0
LINE
8
0
10
324.310571
20
138.684168
11
324.849487
21
138.567383
0
LINE
8
0
10
324.849487
20
138.567383
11
322.212036
21
138.478948
0
LINE
8
0
10
322.212036
20
138.478948
11
316.718140
21
138.429590
0
LINE
8
0
10
316.718140
20
138.429590
11
313.000000
21
138.422918
0
LINE
8
0
10
313.000000
20
138.422918
11
309.281860
21
138.429590
0
LINE
8
0
10
309.281860
20
138.429590
11
303.787964
21
138.478948
0
LINE
8
0
10
303.787964
20
138.478948
11
301.150513
21
138.567383
0
LINE
8
0
10
301.150513
20
138.567383
11
301.689429
21
138.684168
0
LINE
8
0
10
301.689429
20
138.684168
11
303.250000
21
138.749840
0
LINE
8
0
10
41.584819
20
110.184963
11
48.892103
21
118.626408
0
LINE
8
0
10
48.892103
20
118.626408
11
56.750000
21
127.434111
0
LINE
8
0
10
56.750000
20
127.434111
11
59.953320
21
131.010890
0
LINE
8
0
10
59.953320
20
131.010890
11
63.586060
21
135.260017
0
LINE
8
0
10
63.586060
20
135.260017
11
64.831616
21
136.881054
0
LINE
8
0
10
64.831616
20
136.881054
11
65.000000
21
137.207796
0
LINE
8
0
10
65.000000
20
137.207796
11
64.492152
21
137.504929
0
LINE
8
0
10
64.492152
20
137.504929
11
61.062918
21
138.038196
0
LINE
8
0
10
61.062918
20
138.038196
11
58.563901
21
138.208648
0
LINE
8
0
10
58.563901
20
138.208648
11
52.127802
21
138.504338
0
LINE
8
0
10
52.127802
20
138.504338
11
56.063901
21
144.482872
0
LINE
8
0
10
56.063901
20
144.482872
11
57.592214
21
146.865098
0
LINE
8
0
10
57.592214
20
146.865098
11
59.689417
21
150.461583
0
LINE
8
0
10
59.689417
20
150.461583
11
60.000000
21
151.232872
0
LINE
8
0
10
60.000000
20
151.232872
11
59.830071
21
151.387843
0
LINE
8
0
10
59.830071
20
151.387843
11
58.573088
21
151.663432
0
LINE
8
0
10
58.573088
20
151.663432
11
54.907022
21
151.943465
0
LINE
8
0
10
54.907022
20
151.943465
11
51.674314
21
152.004338
0
LINE
8
0
10
51.674314
20
152.004338
11
49.191296
21
151.989170
0
LINE
8
0
10
49.191296
20
151.989170
11
45.635433
21
151.816424
0
LINE
8
0
10
45.635433
20
151.816424
11
42.639591
21
150.944300
0
LINE
8
0
10
42.639591
20
150.944300
11
41.277398
21
149.754338
0
LINE
8
0
10
41.277398
20
149.754338
11
39.863029
21
148.100802
0
LINE
8
0
10
39.863029
20
148.100802
11
35.784730
21
142.896043
0
LINE
8
0
10
35.784730
20
142.896043
11
31.426082
21
137.026969
0
LINE
8
0
10
31.426082
20
137.026969
11
28.973442
21
133.536181
0
LINE
8
0
10
28.973442
20
133.536181
11
28.116821
21
132.167601
0
LINE
8
0
10
28.116821
20
132.167601
11
28.000000
21
131.875853
0
LINE
8
0
10
28.000000
20
131.875853
11
28.209296
21
131.422960
0
LINE
8
0
10
28.209296
20
131.422960
11
29.877626
21
130.782067
0
LINE
8
0
10
29.877626
20
130.782067
11
33.198858
21
130.495523
0
LINE
8
0
10
33.198858
20
130.495523
11
38.156894
21
130.564716
0
LINE
8
0
10
38.156894
20
130.564716
11
41.244682
21
130.733148
0
LINE
8
0
10
41.244682
20
130.733148
11
43.820522
21
130.888641
0
LINE
8
0
10
43.820522
20
130.888641
11
47.390715
21
131.003770
0
LINE
8
0
10
47.390715
20
131.003770
11
49.190545
21
130.823959
0
LINE
8
0
10
49.190545
20
130.823959
11
49.625955
21
130.308653
0
LINE
8
0
10
49.625955
20
130.308653
11
49.458859
21
129.912516
0
LINE
8
0
10
49.458859
20
129.912516
11
48.787537
21
128.839039
0
LINE
8
0
10
48.787537
20
128.839039
11
46.039942
21
124.532165
0
LINE
8
0
10
46.039942
20
124.532165
11
44.302083
21
121.829232
0
LINE
8
0
10
44.302083
20
121.829232
11
42.631665
21
119.188261
0
LINE
8
0
10
42.631665
20
119.188261
11
40.737320
21
116.022881
0
LINE
8
0
10
40.737320
20
116.022881
11
40.087806
21
114.792569
0
LINE
8
0
10
40.087806
20
114.792569
11
40.000000
21
114.531196
0
LINE
8
0
10
40.000000
20
114.531196
11
39.723828
21
113.857597
0
LINE
8
0
10
39.723828
20
113.857597
11
37.858984
21
110.610472
0
LINE
8
0
10
37.858984
20
110.610472
11
36.500000
21
108.436884
0
LINE
8
0
10
36.500000
20
108.436884
11
35.141016
21
106.274529
0
LINE
8
0
10
35.141016
20
106.274529
11
33.276172
21
103.103248
0
LINE
8
0
10
33.276172
20
103.103248
11
33.000000
21
102.484921
0
LINE
8
0
10
33.000000
20
102.484921
11
33.121117
21
102.026561
0
LINE
8
0
10
33.121117
20
102.026561
11
34.123536
21
102.277675
0
LINE
8
0
10
34.123536
20
102.277675
11
36.213939
21
104.152634
0
LINE
8
0
10
36.213939
20
104.152634
11
39.481608
21
107.731521
0
LINE
8
0
10
39.481608
20
107.731521
11
41.584819
21
110.184963
0
LINE
8
0
10
408.764881
20
96.754338
11
408.500000
21
126.504338
0
LINE
8
0
10
408.500000
20
126.504338
11
403.000000
21
126.504338
0
LINE
8
0
10
403.000000
20
126.504338
11
397.500000
21
126.504338
0
LINE
8
0
10
397.500000
20
126.504338
11
397.234024
21
98.017163
0
LINE
8
0
10
397.234024
20
98.017163
11
397.190485
21
92.268916
0
LINE
8
0
10
397.190485
20
92.268916
11
397.168634
21
81.901884
0
LINE
8
0
10
397.168634
20
81.901884
11
397.227771
21
73.854276
0
LINE
8
0
10
397.227771
20
73.854276
11
397.320957
21
69.927922
0
LINE
8
0
10
397.320957
20
69.927922
11
397.404655
21
68.543595
0
LINE
8
0
10
397.404655
20
68.543595
11
397.452639
21
68.267163
0
LINE
8
0
10
397.452639
20
68.267163
11
398.027160
21
67.729369
0
LINE
8
0
10
398.027160
20
67.729369
11
401.089363
21
67.088162
0
LINE
8
0
10
401.089363
20
67.088162
11
403.483496
21
67.004338
0
LINE
8
0
10
403.483496
20
67.004338
11
409.029761
21
67.004338
0
LINE
8
0
10
409.029761
20
67.004338
11
408.764881
21
96.754338
0
LINE
8
0
10
358.033244
20
101.521184
11
363.000000
21
104.038030
0
LINE
8
0
10
363.000000
20
104.038030
11
363.000000
21
115.571088
0
LINE
8
0
10
363.000000
20
115.571088
11
363.000000
21
127.104146
0
LINE
8
0
10
363.000000
20
127.104146
11
357.250000
21
126.804242
0
LINE
8
0
10
357.250000
20
126.804242
11
351.500000
21
126.504338
0
LINE
8
0
10
351.500000
20
126.504338
11
351.221780
21
112.754338
0
LINE
8
0
10
351.221780
20
112.754338
11
351.172809
21
109.520524
0
LINE
8
0
10
351.172809
20
109.520524
11
351.200372
21
104.358354
0
LINE
8
0
10
351.200372
20
104.358354
11
351.395794
21
100.927685
0
LINE
8
0
10
351.395794
20
100.927685
11
351.759697
21
99.217588
0
LINE
8
0
10
351.759697
20
99.217588
11
352.005024
21
99.004338
0
LINE
8
0
10
352.005024
20
99.004338
11
352.809079
21
99.202933
0
LINE
8
0
10
352.809079
20
99.202933
11
356.020989
21
100.543940
0
LINE
8
0
10
356.020989
20
100.543940
11
358.033244
21
101.521184
0
ENDSEC
0
EOF
