%TF.GenerationSoftware,KiCad,Pcbnew,9.0.6*%
%TF.CreationDate,2025-12-30T14:23:23+05:30*%
%TF.ProjectId,Gantry_PCBv2,47616e74-7279-45f5-9043-4276322e6b69,rev?*%
%TF.SameCoordinates,Original*%
%TF.FileFunction,Soldermask,Bot*%
%TF.FilePolarity,Negative*%
%FSLAX46Y46*%
G04 Gerber Fmt 4.6, Leading zero omitted, Abs format (unit mm)*
G04 Created by KiCad (PCBNEW 9.0.6) date 2025-12-30 14:23:23*
%MOMM*%
%LPD*%
G01*
G04 APERTURE LIST*
G04 Aperture macros list*
%AMRoundRect*
0 Rectangle with rounded corners*
0 $1 Rounding radius*
0 $2 $3 $4 $5 $6 $7 $8 $9 X,Y pos of 4 corners*
0 Add a 4 corners polygon primitive as box body*
4,1,4,$2,$3,$4,$5,$6,$7,$8,$9,$2,$3,0*
0 Add four circle primitives for the rounded corners*
1,1,$1+$1,$2,$3*
1,1,$1+$1,$4,$5*
1,1,$1+$1,$6,$7*
1,1,$1+$1,$8,$9*
0 Add four rect primitives between the rounded corners*
20,1,$1+$1,$2,$3,$4,$5,0*
20,1,$1+$1,$4,$5,$6,$7,0*
20,1,$1+$1,$6,$7,$8,$9,0*
20,1,$1+$1,$8,$9,$2,$3,0*%
G04 Aperture macros list end*
%ADD10C,2.184000*%
%ADD11RoundRect,0.102000X-0.825000X-0.825000X0.825000X-0.825000X0.825000X0.825000X-0.825000X0.825000X0*%
%ADD12C,1.854000*%
%ADD13RoundRect,0.102000X-0.787500X0.787500X-0.787500X-0.787500X0.787500X-0.787500X0.787500X0.787500X0*%
%ADD14C,1.779000*%
%ADD15RoundRect,0.250000X0.600000X0.725000X-0.600000X0.725000X-0.600000X-0.725000X0.600000X-0.725000X0*%
%ADD16O,1.700000X1.950000*%
%ADD17C,3.200000*%
%ADD18RoundRect,0.102000X-0.787500X-0.787500X0.787500X-0.787500X0.787500X0.787500X-0.787500X0.787500X0*%
%ADD19R,1.700000X1.700000*%
%ADD20C,1.700000*%
%ADD21C,0.650000*%
%ADD22O,1.000000X2.100000*%
%ADD23O,1.000000X1.600000*%
%ADD24R,4.400000X1.800000*%
%ADD25O,4.000000X1.800000*%
%ADD26O,1.800000X4.000000*%
%ADD27RoundRect,0.250000X0.725000X-0.600000X0.725000X0.600000X-0.725000X0.600000X-0.725000X-0.600000X0*%
%ADD28O,1.950000X1.700000*%
%ADD29R,3.000000X3.000000*%
%ADD30C,3.000000*%
G04 APERTURE END LIST*
D10*
%TO.C,U3*%
X63006000Y-128960000D03*
X63006000Y-131500000D03*
X63006000Y-134040000D03*
X63006000Y-136580000D03*
X63006000Y-139120000D03*
X63006000Y-141660000D03*
X63006000Y-144200000D03*
X63006000Y-146740000D03*
X78246000Y-146740000D03*
X78246000Y-144200000D03*
X78246000Y-141660000D03*
X78246000Y-139120000D03*
X78246000Y-136580000D03*
X78246000Y-134040000D03*
X78246000Y-131500000D03*
X78246000Y-128960000D03*
%TD*%
D11*
%TO.C,U7*%
X131650000Y-133610000D03*
D12*
X131650000Y-136150000D03*
X131650000Y-138690000D03*
X131650000Y-141230000D03*
X131650000Y-143770000D03*
X131650000Y-146310000D03*
X131650000Y-148850000D03*
X131650000Y-151390000D03*
X144350000Y-151390000D03*
X144350000Y-148850000D03*
X144350000Y-146310000D03*
X144350000Y-143770000D03*
X144350000Y-141230000D03*
X144350000Y-138690000D03*
X144350000Y-136150000D03*
X144350000Y-133610000D03*
%TD*%
D13*
%TO.C,J10*%
X166975000Y-146750000D03*
D14*
X166975000Y-149250000D03*
%TD*%
D15*
%TO.C,J8*%
X112500000Y-165000000D03*
D16*
X110000000Y-165000000D03*
X107500000Y-165000000D03*
X105000000Y-165000000D03*
%TD*%
D17*
%TO.C,H4*%
X165000000Y-165000000D03*
%TD*%
%TO.C,H7*%
X158500000Y-99500000D03*
%TD*%
D13*
%TO.C,J11*%
X166975000Y-119500000D03*
D14*
X166975000Y-122000000D03*
%TD*%
D18*
%TO.C,J17*%
X66250000Y-165525000D03*
D14*
X68750000Y-165525000D03*
%TD*%
D17*
%TO.C,H2*%
X166000000Y-54000000D03*
%TD*%
D19*
%TO.C,J3*%
X108680000Y-85100000D03*
D20*
X111220000Y-85100000D03*
X113760000Y-85100000D03*
X116300000Y-85100000D03*
X118840000Y-85100000D03*
X121380000Y-85100000D03*
X123920000Y-85100000D03*
X126460000Y-85100000D03*
X129000000Y-85100000D03*
X131540000Y-85100000D03*
%TD*%
D17*
%TO.C,H3*%
X55000000Y-165000000D03*
%TD*%
%TO.C,H5*%
X98500000Y-99500000D03*
%TD*%
D19*
%TO.C,J1*%
X102500000Y-52020000D03*
D20*
X102500000Y-54560000D03*
X102500000Y-57100000D03*
X102500000Y-59640000D03*
X102500000Y-62180000D03*
X102500000Y-64720000D03*
X102500000Y-67260000D03*
X102500000Y-69800000D03*
X102500000Y-72340000D03*
X102500000Y-74880000D03*
X102500000Y-77420000D03*
X102500000Y-79960000D03*
X102500000Y-82500000D03*
X102500000Y-85040000D03*
%TD*%
D13*
%TO.C,J12*%
X167000000Y-133000000D03*
D14*
X167000000Y-135500000D03*
%TD*%
D15*
%TO.C,J9*%
X151500000Y-165000000D03*
D16*
X149000000Y-165000000D03*
X146500000Y-165000000D03*
X144000000Y-165000000D03*
%TD*%
D17*
%TO.C,H1*%
X55000000Y-55000000D03*
%TD*%
D15*
%TO.C,J6*%
X90000000Y-165000000D03*
D16*
X87500000Y-165000000D03*
X85000000Y-165000000D03*
X82500000Y-165000000D03*
%TD*%
D11*
%TO.C,U9*%
X132650000Y-105110000D03*
D12*
X132650000Y-107650000D03*
X132650000Y-110190000D03*
X132650000Y-112730000D03*
X132650000Y-115270000D03*
X132650000Y-117810000D03*
X132650000Y-120350000D03*
X132650000Y-122890000D03*
X145350000Y-122890000D03*
X145350000Y-120350000D03*
X145350000Y-117810000D03*
X145350000Y-115270000D03*
X145350000Y-112730000D03*
X145350000Y-110190000D03*
X145350000Y-107650000D03*
X145350000Y-105110000D03*
%TD*%
D15*
%TO.C,J7*%
X130000000Y-165000000D03*
D16*
X127500000Y-165000000D03*
X125000000Y-165000000D03*
X122500000Y-165000000D03*
%TD*%
D11*
%TO.C,U6*%
X109150000Y-105110000D03*
D12*
X109150000Y-107650000D03*
X109150000Y-110190000D03*
X109150000Y-112730000D03*
X109150000Y-115270000D03*
X109150000Y-117810000D03*
X109150000Y-120350000D03*
X109150000Y-122890000D03*
X121850000Y-122890000D03*
X121850000Y-120350000D03*
X121850000Y-117810000D03*
X121850000Y-115270000D03*
X121850000Y-112730000D03*
X121850000Y-110190000D03*
X121850000Y-107650000D03*
X121850000Y-105110000D03*
%TD*%
D21*
%TO.C,J14*%
X154820000Y-55900000D03*
X149040000Y-55900000D03*
D22*
X156250000Y-56430000D03*
D23*
X156250000Y-52250000D03*
D22*
X147610000Y-56430000D03*
D23*
X147610000Y-52250000D03*
%TD*%
D17*
%TO.C,H8*%
X158500000Y-159500000D03*
%TD*%
D24*
%TO.C,J5*%
X67000000Y-58000000D03*
D25*
X67000000Y-52200000D03*
D26*
X62200000Y-55000000D03*
%TD*%
D27*
%TO.C,J13*%
X165000000Y-111000000D03*
D28*
X165000000Y-108500000D03*
X165000000Y-106000000D03*
%TD*%
D11*
%TO.C,U8*%
X109150000Y-133610000D03*
D12*
X109150000Y-136150000D03*
X109150000Y-138690000D03*
X109150000Y-141230000D03*
X109150000Y-143770000D03*
X109150000Y-146310000D03*
X109150000Y-148850000D03*
X109150000Y-151390000D03*
X121850000Y-151390000D03*
X121850000Y-148850000D03*
X121850000Y-146310000D03*
X121850000Y-143770000D03*
X121850000Y-141230000D03*
X121850000Y-138690000D03*
X121850000Y-136150000D03*
X121850000Y-133610000D03*
%TD*%
D19*
%TO.C,J2*%
X138000000Y-52480000D03*
D20*
X138000000Y-55020000D03*
X138000000Y-57560000D03*
X138000000Y-60100000D03*
X138000000Y-62640000D03*
X138000000Y-65180000D03*
X138000000Y-67720000D03*
X138000000Y-70260000D03*
X138000000Y-72800000D03*
X138000000Y-75340000D03*
X138000000Y-77880000D03*
X138000000Y-80420000D03*
X138000000Y-82960000D03*
X138000000Y-85500000D03*
%TD*%
D17*
%TO.C,H6*%
X98500000Y-159500000D03*
%TD*%
D29*
%TO.C,J4*%
X83500000Y-55000000D03*
D30*
X78420000Y-55000000D03*
%TD*%
M02*
