%TF.GenerationSoftware,KiCad,Pcbnew,9.0.6*%
%TF.CreationDate,2025-12-30T14:23:23+05:30*%
%TF.ProjectId,Gantry_PCBv2,47616e74-7279-45f5-9043-4276322e6b69,rev?*%
%TF.SameCoordinates,Original*%
%TF.FileFunction,Copper,L2,Bot*%
%TF.FilePolarity,Positive*%
%FSLAX46Y46*%
G04 Gerber Fmt 4.6, Leading zero omitted, Abs format (unit mm)*
G04 Created by KiCad (PCBNEW 9.0.6) date 2025-12-30 14:23:23*
%MOMM*%
%LPD*%
G01*
G04 APERTURE LIST*
G04 Aperture macros list*
%AMRoundRect*
0 Rectangle with rounded corners*
0 $1 Rounding radius*
0 $2 $3 $4 $5 $6 $7 $8 $9 X,Y pos of 4 corners*
0 Add a 4 corners polygon primitive as box body*
4,1,4,$2,$3,$4,$5,$6,$7,$8,$9,$2,$3,0*
0 Add four circle primitives for the rounded corners*
1,1,$1+$1,$2,$3*
1,1,$1+$1,$4,$5*
1,1,$1+$1,$6,$7*
1,1,$1+$1,$8,$9*
0 Add four rect primitives between the rounded corners*
20,1,$1+$1,$2,$3,$4,$5,0*
20,1,$1+$1,$4,$5,$6,$7,0*
20,1,$1+$1,$6,$7,$8,$9,0*
20,1,$1+$1,$8,$9,$2,$3,0*%
G04 Aperture macros list end*
%TA.AperFunction,ComponentPad*%
%ADD10C,1.980000*%
%TD*%
%TA.AperFunction,ComponentPad*%
%ADD11R,1.650000X1.650000*%
%TD*%
%TA.AperFunction,ComponentPad*%
%ADD12C,1.650000*%
%TD*%
%TA.AperFunction,ComponentPad*%
%ADD13R,1.575000X1.575000*%
%TD*%
%TA.AperFunction,ComponentPad*%
%ADD14C,1.575000*%
%TD*%
%TA.AperFunction,ComponentPad*%
%ADD15RoundRect,0.250000X0.600000X0.725000X-0.600000X0.725000X-0.600000X-0.725000X0.600000X-0.725000X0*%
%TD*%
%TA.AperFunction,ComponentPad*%
%ADD16O,1.700000X1.950000*%
%TD*%
%TA.AperFunction,ComponentPad*%
%ADD17R,1.700000X1.700000*%
%TD*%
%TA.AperFunction,ComponentPad*%
%ADD18C,1.700000*%
%TD*%
%TA.AperFunction,ComponentPad*%
%ADD19C,0.300000*%
%TD*%
%TA.AperFunction,HeatsinkPad*%
%ADD20O,1.000000X2.100000*%
%TD*%
%TA.AperFunction,HeatsinkPad*%
%ADD21O,1.000000X1.600000*%
%TD*%
%TA.AperFunction,ComponentPad*%
%ADD22R,4.400000X1.800000*%
%TD*%
%TA.AperFunction,ComponentPad*%
%ADD23O,4.000000X1.800000*%
%TD*%
%TA.AperFunction,ComponentPad*%
%ADD24O,1.800000X4.000000*%
%TD*%
%TA.AperFunction,ComponentPad*%
%ADD25RoundRect,0.250000X0.725000X-0.600000X0.725000X0.600000X-0.725000X0.600000X-0.725000X-0.600000X0*%
%TD*%
%TA.AperFunction,ComponentPad*%
%ADD26O,1.950000X1.700000*%
%TD*%
%TA.AperFunction,ComponentPad*%
%ADD27R,3.000000X3.000000*%
%TD*%
%TA.AperFunction,ComponentPad*%
%ADD28C,3.000000*%
%TD*%
%TA.AperFunction,ViaPad*%
%ADD29C,0.600000*%
%TD*%
%TA.AperFunction,Conductor*%
%ADD30C,0.400000*%
%TD*%
%TA.AperFunction,Conductor*%
%ADD31C,0.800000*%
%TD*%
%TA.AperFunction,Conductor*%
%ADD32C,0.200000*%
%TD*%
%TA.AperFunction,Conductor*%
%ADD33C,0.250000*%
%TD*%
G04 APERTURE END LIST*
D10*
%TO.P,U3,1,VM*%
%TO.N,/12V_P*%
X63006000Y-128960000D03*
%TO.P,U3,2,VCC*%
%TO.N,/3V3*%
X63006000Y-131500000D03*
%TO.P,U3,3,GND*%
%TO.N,GND*%
X63006000Y-134040000D03*
%TO.P,U3,4,A01*%
%TO.N,/M1A*%
X63006000Y-136580000D03*
%TO.P,U3,5,A02*%
%TO.N,/M1B*%
X63006000Y-139120000D03*
%TO.P,U3,6,B02*%
%TO.N,unconnected-(U3-B02-Pad6)*%
X63006000Y-141660000D03*
%TO.P,U3,7,B01*%
%TO.N,unconnected-(U3-B01-Pad7)*%
X63006000Y-144200000D03*
%TO.P,U3,8,GND*%
%TO.N,GND*%
X63006000Y-146740000D03*
%TO.P,U3,9,GND*%
X78246000Y-146740000D03*
%TO.P,U3,10,PWMB*%
%TO.N,unconnected-(U3-PWMB-Pad10)*%
X78246000Y-144200000D03*
%TO.P,U3,11,BI2*%
%TO.N,unconnected-(U3-BI2-Pad11)*%
X78246000Y-141660000D03*
%TO.P,U3,12,BI1*%
%TO.N,unconnected-(U3-BI1-Pad12)*%
X78246000Y-139120000D03*
%TO.P,U3,13,STBY*%
%TO.N,/3V3*%
X78246000Y-136580000D03*
%TO.P,U3,14,AI1*%
%TO.N,Net-(U3-AI1)*%
X78246000Y-134040000D03*
%TO.P,U3,15,AI2*%
%TO.N,Net-(U3-AI2)*%
X78246000Y-131500000D03*
%TO.P,U3,16,PWMA*%
%TO.N,/4*%
X78246000Y-128960000D03*
%TD*%
D11*
%TO.P,U7,1,~{EN}*%
%TO.N,GND*%
X131650000Y-133610000D03*
D12*
%TO.P,U7,2,M0*%
%TO.N,/3V3*%
X131650000Y-136150000D03*
%TO.P,U7,3,M1*%
X131650000Y-138690000D03*
%TO.P,U7,4,M2*%
X131650000Y-141230000D03*
%TO.P,U7,5,~{RST}*%
X131650000Y-143770000D03*
%TO.P,U7,6,~{SLP}*%
X131650000Y-146310000D03*
%TO.P,U7,7,STEP*%
%TO.N,/26*%
X131650000Y-148850000D03*
%TO.P,U7,8,DIR*%
%TO.N,/25*%
X131650000Y-151390000D03*
%TO.P,U7,9,GND*%
%TO.N,GND*%
X144350000Y-151390000D03*
%TO.P,U7,10,~{FLT}*%
%TO.N,unconnected-(U7-~{FLT}-Pad10)*%
X144350000Y-148850000D03*
%TO.P,U7,11,A2*%
%TO.N,/SM3_A2*%
X144350000Y-146310000D03*
%TO.P,U7,12,A1*%
%TO.N,/SM3_A1*%
X144350000Y-143770000D03*
%TO.P,U7,13,B1*%
%TO.N,/SM3_B1*%
X144350000Y-141230000D03*
%TO.P,U7,14,B2*%
%TO.N,/SM3_B2*%
X144350000Y-138690000D03*
%TO.P,U7,15,GND_MOT*%
%TO.N,GND*%
X144350000Y-136150000D03*
%TO.P,U7,16,VMOT*%
%TO.N,/12V_P*%
X144350000Y-133610000D03*
%TD*%
D13*
%TO.P,J10,1,1*%
%TO.N,/15*%
X166975000Y-146750000D03*
D14*
%TO.P,J10,2,2*%
%TO.N,GND*%
X166975000Y-149250000D03*
%TD*%
D15*
%TO.P,J8,1,Pin_1*%
%TO.N,/SM4_A1*%
X112500000Y-165000000D03*
D16*
%TO.P,J8,2,Pin_2*%
%TO.N,/SM4_A2*%
X110000000Y-165000000D03*
%TO.P,J8,3,Pin_3*%
%TO.N,/SM4_B1*%
X107500000Y-165000000D03*
%TO.P,J8,4,Pin_4*%
%TO.N,/SM4_B2*%
X105000000Y-165000000D03*
%TD*%
D13*
%TO.P,J11,1,1*%
%TO.N,/19*%
X166975000Y-119500000D03*
D14*
%TO.P,J11,2,2*%
%TO.N,GND*%
X166975000Y-122000000D03*
%TD*%
D13*
%TO.P,J17,1,1*%
%TO.N,/M1A*%
X66250000Y-165525000D03*
D14*
%TO.P,J17,2,2*%
%TO.N,/M1B*%
X68750000Y-165525000D03*
%TD*%
D17*
%TO.P,J3,1,Pin_1*%
%TO.N,GND*%
X108680000Y-85100000D03*
D18*
%TO.P,J3,2,Pin_2*%
%TO.N,/13*%
X111220000Y-85100000D03*
%TO.P,J3,3,Pin_3*%
%TO.N,unconnected-(J3-Pin_3-Pad3)*%
X113760000Y-85100000D03*
%TO.P,J3,4,Pin_4*%
%TO.N,unconnected-(J3-Pin_4-Pad4)*%
X116300000Y-85100000D03*
%TO.P,J3,5,Pin_5*%
%TO.N,unconnected-(J3-Pin_5-Pad5)*%
X118840000Y-85100000D03*
%TO.P,J3,6,Pin_6*%
%TO.N,unconnected-(J3-Pin_6-Pad6)*%
X121380000Y-85100000D03*
%TO.P,J3,7,Pin_7*%
%TO.N,unconnected-(J3-Pin_7-Pad7)*%
X123920000Y-85100000D03*
%TO.P,J3,8,Pin_8*%
%TO.N,unconnected-(J3-Pin_8-Pad8)*%
X126460000Y-85100000D03*
%TO.P,J3,9,Pin_9*%
%TO.N,/15*%
X129000000Y-85100000D03*
%TO.P,J3,10,Pin_10*%
%TO.N,/2*%
X131540000Y-85100000D03*
%TD*%
D17*
%TO.P,J1,1,Pin_1*%
%TO.N,GND*%
X102500000Y-52020000D03*
D18*
%TO.P,J1,2,Pin_2*%
%TO.N,/3V3*%
X102500000Y-54560000D03*
%TO.P,J1,3,Pin_3*%
%TO.N,/EN*%
X102500000Y-57100000D03*
%TO.P,J1,4,Pin_4*%
%TO.N,/36*%
X102500000Y-59640000D03*
%TO.P,J1,5,Pin_5*%
%TO.N,/39*%
X102500000Y-62180000D03*
%TO.P,J1,6,Pin_6*%
%TO.N,/34*%
X102500000Y-64720000D03*
%TO.P,J1,7,Pin_7*%
%TO.N,/35*%
X102500000Y-67260000D03*
%TO.P,J1,8,Pin_8*%
%TO.N,/32*%
X102500000Y-69800000D03*
%TO.P,J1,9,Pin_9*%
%TO.N,/33*%
X102500000Y-72340000D03*
%TO.P,J1,10,Pin_10*%
%TO.N,/25*%
X102500000Y-74880000D03*
%TO.P,J1,11,Pin_11*%
%TO.N,/26*%
X102500000Y-77420000D03*
%TO.P,J1,12,Pin_12*%
%TO.N,/27*%
X102500000Y-79960000D03*
%TO.P,J1,13,Pin_13*%
%TO.N,/14*%
X102500000Y-82500000D03*
%TO.P,J1,14,Pin_14*%
%TO.N,/12*%
X102500000Y-85040000D03*
%TD*%
D13*
%TO.P,J12,1,1*%
%TO.N,/18*%
X167000000Y-133000000D03*
D14*
%TO.P,J12,2,2*%
%TO.N,GND*%
X167000000Y-135500000D03*
%TD*%
D15*
%TO.P,J9,1,Pin_1*%
%TO.N,/SM1_A1*%
X151500000Y-165000000D03*
D16*
%TO.P,J9,2,Pin_2*%
%TO.N,/SM1_A2*%
X149000000Y-165000000D03*
%TO.P,J9,3,Pin_3*%
%TO.N,/SM1_B1*%
X146500000Y-165000000D03*
%TO.P,J9,4,Pin_4*%
%TO.N,/SM1_B2*%
X144000000Y-165000000D03*
%TD*%
D19*
%TO.P,U1,39_10*%
%TO.N,N/C*%
X118205000Y-57660000D03*
%TO.P,U1,39_11*%
X119605000Y-57660000D03*
%TO.P,U1,39_12*%
X117505000Y-58360000D03*
%TO.P,U1,39_13*%
X118905000Y-58360000D03*
%TO.P,U1,39_14*%
X120305000Y-58360000D03*
%TO.P,U1,39_15*%
X118205000Y-59060000D03*
%TO.P,U1,39_16*%
X119605000Y-59060000D03*
%TO.P,U1,39_17*%
X117505000Y-59760000D03*
%TO.P,U1,39_18*%
X118905000Y-59760000D03*
%TO.P,U1,39_19*%
X120305000Y-59760000D03*
%TO.P,U1,39_20*%
X118205000Y-60460000D03*
%TO.P,U1,39_21*%
X119605000Y-60460000D03*
%TD*%
D15*
%TO.P,J6,1,Pin_1*%
%TO.N,/SM2_A1*%
X90000000Y-165000000D03*
D16*
%TO.P,J6,2,Pin_2*%
%TO.N,/SM2_A2*%
X87500000Y-165000000D03*
%TO.P,J6,3,Pin_3*%
%TO.N,/SM2_B1*%
X85000000Y-165000000D03*
%TO.P,J6,4,Pin_4*%
%TO.N,/SM2_B2*%
X82500000Y-165000000D03*
%TD*%
D11*
%TO.P,U9,1,~{EN}*%
%TO.N,GND*%
X132650000Y-105110000D03*
D12*
%TO.P,U9,2,M0*%
%TO.N,/3V3*%
X132650000Y-107650000D03*
%TO.P,U9,3,M1*%
X132650000Y-110190000D03*
%TO.P,U9,4,M2*%
X132650000Y-112730000D03*
%TO.P,U9,5,~{RST}*%
X132650000Y-115270000D03*
%TO.P,U9,6,~{SLP}*%
X132650000Y-117810000D03*
%TO.P,U9,7,STEP*%
%TO.N,/12*%
X132650000Y-120350000D03*
%TO.P,U9,8,DIR*%
%TO.N,/14*%
X132650000Y-122890000D03*
%TO.P,U9,9,GND*%
%TO.N,GND*%
X145350000Y-122890000D03*
%TO.P,U9,10,~{FLT}*%
%TO.N,unconnected-(U9-~{FLT}-Pad10)*%
X145350000Y-120350000D03*
%TO.P,U9,11,A2*%
%TO.N,/SM1_A2*%
X145350000Y-117810000D03*
%TO.P,U9,12,A1*%
%TO.N,/SM1_A1*%
X145350000Y-115270000D03*
%TO.P,U9,13,B1*%
%TO.N,/SM1_B1*%
X145350000Y-112730000D03*
%TO.P,U9,14,B2*%
%TO.N,/SM1_B2*%
X145350000Y-110190000D03*
%TO.P,U9,15,GND_MOT*%
%TO.N,GND*%
X145350000Y-107650000D03*
%TO.P,U9,16,VMOT*%
%TO.N,/12V_P*%
X145350000Y-105110000D03*
%TD*%
D15*
%TO.P,J7,1,Pin_1*%
%TO.N,/SM3_A1*%
X130000000Y-165000000D03*
D16*
%TO.P,J7,2,Pin_2*%
%TO.N,/SM3_A2*%
X127500000Y-165000000D03*
%TO.P,J7,3,Pin_3*%
%TO.N,/SM3_B1*%
X125000000Y-165000000D03*
%TO.P,J7,4,Pin_4*%
%TO.N,/SM3_B2*%
X122500000Y-165000000D03*
%TD*%
D11*
%TO.P,U6,1,~{EN}*%
%TO.N,GND*%
X109150000Y-105110000D03*
D12*
%TO.P,U6,2,M0*%
%TO.N,/3V3*%
X109150000Y-107650000D03*
%TO.P,U6,3,M1*%
X109150000Y-110190000D03*
%TO.P,U6,4,M2*%
X109150000Y-112730000D03*
%TO.P,U6,5,~{RST}*%
X109150000Y-115270000D03*
%TO.P,U6,6,~{SLP}*%
X109150000Y-117810000D03*
%TO.P,U6,7,STEP*%
%TO.N,/23*%
X109150000Y-120350000D03*
%TO.P,U6,8,DIR*%
%TO.N,/22*%
X109150000Y-122890000D03*
%TO.P,U6,9,GND*%
%TO.N,GND*%
X121850000Y-122890000D03*
%TO.P,U6,10,~{FLT}*%
%TO.N,unconnected-(U6-~{FLT}-Pad10)*%
X121850000Y-120350000D03*
%TO.P,U6,11,A2*%
%TO.N,/SM2_A2*%
X121850000Y-117810000D03*
%TO.P,U6,12,A1*%
%TO.N,/SM2_A1*%
X121850000Y-115270000D03*
%TO.P,U6,13,B1*%
%TO.N,/SM2_B1*%
X121850000Y-112730000D03*
%TO.P,U6,14,B2*%
%TO.N,/SM2_B2*%
X121850000Y-110190000D03*
%TO.P,U6,15,GND_MOT*%
%TO.N,GND*%
X121850000Y-107650000D03*
%TO.P,U6,16,VMOT*%
%TO.N,/12V_P*%
X121850000Y-105110000D03*
%TD*%
D20*
%TO.P,J14,S1,SHIELD*%
%TO.N,GND*%
X156250000Y-56430000D03*
D21*
X156250000Y-52250000D03*
D20*
X147610000Y-56430000D03*
D21*
X147610000Y-52250000D03*
%TD*%
D22*
%TO.P,J5,1*%
%TO.N,/12V*%
X67000000Y-58000000D03*
D23*
%TO.P,J5,2*%
%TO.N,GND*%
X67000000Y-52200000D03*
D24*
%TO.P,J5,3*%
X62200000Y-55000000D03*
%TD*%
D25*
%TO.P,J13,1,Pin_1*%
%TO.N,unconnected-(J13-Pin_1-Pad1)*%
X165000000Y-111000000D03*
D26*
%TO.P,J13,2,Pin_2*%
%TO.N,/12V_P*%
X165000000Y-108500000D03*
%TO.P,J13,3,Pin_3*%
%TO.N,GND*%
X165000000Y-106000000D03*
%TD*%
D11*
%TO.P,U8,1,~{EN}*%
%TO.N,GND*%
X109150000Y-133610000D03*
D12*
%TO.P,U8,2,M0*%
%TO.N,/3V3*%
X109150000Y-136150000D03*
%TO.P,U8,3,M1*%
X109150000Y-138690000D03*
%TO.P,U8,4,M2*%
X109150000Y-141230000D03*
%TO.P,U8,5,~{RST}*%
X109150000Y-143770000D03*
%TO.P,U8,6,~{SLP}*%
X109150000Y-146310000D03*
%TO.P,U8,7,STEP*%
%TO.N,/26*%
X109150000Y-148850000D03*
%TO.P,U8,8,DIR*%
%TO.N,/25*%
X109150000Y-151390000D03*
%TO.P,U8,9,GND*%
%TO.N,GND*%
X121850000Y-151390000D03*
%TO.P,U8,10,~{FLT}*%
%TO.N,unconnected-(U8-~{FLT}-Pad10)*%
X121850000Y-148850000D03*
%TO.P,U8,11,A2*%
%TO.N,/SM4_A2*%
X121850000Y-146310000D03*
%TO.P,U8,12,A1*%
%TO.N,/SM4_A1*%
X121850000Y-143770000D03*
%TO.P,U8,13,B1*%
%TO.N,/SM4_B1*%
X121850000Y-141230000D03*
%TO.P,U8,14,B2*%
%TO.N,/SM4_B2*%
X121850000Y-138690000D03*
%TO.P,U8,15,GND_MOT*%
%TO.N,GND*%
X121850000Y-136150000D03*
%TO.P,U8,16,VMOT*%
%TO.N,/12V_P*%
X121850000Y-133610000D03*
%TD*%
D17*
%TO.P,J2,1,Pin_1*%
%TO.N,GND*%
X138000000Y-52480000D03*
D18*
%TO.P,J2,2,Pin_2*%
%TO.N,/23*%
X138000000Y-55020000D03*
%TO.P,J2,3,Pin_3*%
%TO.N,/22*%
X138000000Y-57560000D03*
%TO.P,J2,4,Pin_4*%
%TO.N,/TXD*%
X138000000Y-60100000D03*
%TO.P,J2,5,Pin_5*%
%TO.N,/RXD*%
X138000000Y-62640000D03*
%TO.P,J2,6,Pin_6*%
%TO.N,/21*%
X138000000Y-65180000D03*
%TO.P,J2,7,Pin_7*%
%TO.N,unconnected-(J2-Pin_7-Pad7)*%
X138000000Y-67720000D03*
%TO.P,J2,8,Pin_8*%
%TO.N,/19*%
X138000000Y-70260000D03*
%TO.P,J2,9,Pin_9*%
%TO.N,/18*%
X138000000Y-72800000D03*
%TO.P,J2,10,Pin_10*%
%TO.N,/5*%
X138000000Y-75340000D03*
%TO.P,J2,11,Pin_11*%
%TO.N,/17*%
X138000000Y-77880000D03*
%TO.P,J2,12,Pin_12*%
%TO.N,/16*%
X138000000Y-80420000D03*
%TO.P,J2,13,Pin_13*%
%TO.N,/4*%
X138000000Y-82960000D03*
%TO.P,J2,14,Pin_14*%
%TO.N,/0*%
X138000000Y-85500000D03*
%TD*%
D27*
%TO.P,J4,1,Pin_1*%
%TO.N,GND*%
X83500000Y-55000000D03*
D28*
%TO.P,J4,2,Pin_2*%
%TO.N,/12V*%
X78420000Y-55000000D03*
%TD*%
D29*
%TO.N,/SM2_A1*%
X88000000Y-150000000D03*
X90000000Y-152000000D03*
%TO.N,/EN*%
X153000000Y-84500000D03*
X91000000Y-51500000D03*
%TO.N,/3V3*%
X108000000Y-94500000D03*
X87000000Y-86000000D03*
X143000000Y-95500000D03*
%TO.N,/35*%
X56000000Y-142000000D03*
%TO.N,/34*%
X56000000Y-134500000D03*
%TO.N,/4*%
X110000000Y-97500000D03*
%TO.N,Net-(Q1-Pad1)*%
X159500000Y-84000000D03*
X154500000Y-80500000D03*
%TD*%
D30*
%TO.N,/25*%
X94799000Y-137039000D02*
X94799000Y-81378919D01*
D31*
%TO.N,/SM2_A1*%
X90000000Y-152000000D02*
X88000000Y-150000000D01*
D32*
%TO.N,/EN*%
X96900000Y-51500000D02*
X91000000Y-51500000D01*
X145500000Y-77000000D02*
X145500000Y-57000000D01*
X145500000Y-57000000D02*
X142369000Y-53869000D01*
X142369000Y-53869000D02*
X105731000Y-53869000D01*
X105731000Y-53869000D02*
X102500000Y-57100000D01*
X102500000Y-57100000D02*
X96900000Y-51500000D01*
X153000000Y-84500000D02*
X145500000Y-77000000D01*
%TO.N,/3V3*%
X109150000Y-117810000D02*
X110276000Y-116684000D01*
X131650000Y-136150000D02*
X133776000Y-134024000D01*
X109150000Y-138690000D02*
X110340000Y-137500000D01*
X131524000Y-116684000D02*
X132650000Y-117810000D01*
X133776000Y-134024000D02*
X133776000Y-118936000D01*
X143000000Y-95500000D02*
X143000000Y-97300000D01*
X108024000Y-94524000D02*
X108024000Y-106524000D01*
X108024000Y-106524000D02*
X109150000Y-107650000D01*
X110276000Y-137564000D02*
X109150000Y-138690000D01*
X110276000Y-116684000D02*
X131524000Y-116684000D01*
X143000000Y-97300000D02*
X132650000Y-107650000D01*
D33*
X87000000Y-127826000D02*
X87000000Y-86000000D01*
D32*
X110340000Y-137500000D02*
X130300000Y-137500000D01*
D33*
X108720000Y-136580000D02*
X109150000Y-136150000D01*
X78246000Y-136580000D02*
X87000000Y-127826000D01*
D32*
X133776000Y-118936000D02*
X132650000Y-117810000D01*
X130300000Y-137500000D02*
X131650000Y-136150000D01*
D31*
%TO.N,/12V_P*%
X83657986Y-154402000D02*
X131598000Y-154402000D01*
X76655000Y-147399014D02*
X83657986Y-154402000D01*
X76655000Y-142609000D02*
X76655000Y-147399014D01*
X142924000Y-143076000D02*
X142924000Y-135036000D01*
X63006000Y-128960000D02*
X76655000Y-142609000D01*
X131598000Y-154402000D02*
X142924000Y-143076000D01*
X142924000Y-135036000D02*
X144350000Y-133610000D01*
D30*
%TO.N,/25*%
X94799000Y-81378919D02*
X101297919Y-74880000D01*
X101297919Y-74880000D02*
X102500000Y-74880000D01*
X129439000Y-153601000D02*
X131650000Y-151390000D01*
D33*
%TO.N,/12*%
X102500000Y-120500000D02*
X102500000Y-85040000D01*
X107000000Y-125000000D02*
X102500000Y-120500000D01*
X128000000Y-125000000D02*
X107000000Y-125000000D01*
X132650000Y-120350000D02*
X128000000Y-125000000D01*
%TO.N,/14*%
X100000000Y-91000000D02*
X100000000Y-83500000D01*
X106000000Y-126500000D02*
X102000000Y-122500000D01*
X101000000Y-82500000D02*
X102500000Y-82500000D01*
X129040000Y-126500000D02*
X106000000Y-126500000D01*
X102000000Y-93000000D02*
X100000000Y-91000000D01*
X102000000Y-122500000D02*
X102000000Y-93000000D01*
X132650000Y-122890000D02*
X129040000Y-126500000D01*
X100000000Y-83500000D02*
X101000000Y-82500000D01*
%TO.N,/35*%
X56626000Y-141374000D02*
X56626000Y-113134000D01*
X56000000Y-142000000D02*
X56626000Y-141374000D01*
X56626000Y-113134000D02*
X102500000Y-67260000D01*
%TO.N,/34*%
X56000000Y-111220000D02*
X102500000Y-64720000D01*
X56000000Y-134500000D02*
X56000000Y-111220000D01*
%TO.N,/23*%
X105000000Y-84500000D02*
X134480000Y-55020000D01*
X134480000Y-55020000D02*
X138000000Y-55020000D01*
X109150000Y-120350000D02*
X105000000Y-116200000D01*
X105000000Y-116200000D02*
X105000000Y-84500000D01*
%TO.N,/22*%
X108636810Y-119199000D02*
X106000000Y-116562190D01*
X110301000Y-121739000D02*
X110301000Y-119873240D01*
X106000000Y-116562190D02*
X106000000Y-84500000D01*
X106000000Y-84500000D02*
X132940000Y-57560000D01*
X138000000Y-57560000D02*
X132940000Y-57560000D01*
X109150000Y-122890000D02*
X110301000Y-121739000D01*
X109626760Y-119199000D02*
X108636810Y-119199000D01*
X110301000Y-119873240D02*
X109626760Y-119199000D01*
%TO.N,/4*%
X125096000Y-85587116D02*
X125096000Y-84800884D01*
X113183116Y-97500000D02*
X125096000Y-85587116D01*
X125096000Y-84800884D02*
X126936884Y-82960000D01*
X110000000Y-97500000D02*
X113183116Y-97500000D01*
X126936884Y-82960000D02*
X138000000Y-82960000D01*
%TO.N,/18*%
X157500000Y-133000000D02*
X149000000Y-124500000D01*
X149000000Y-83800000D02*
X138000000Y-72800000D01*
X167000000Y-133000000D02*
X157500000Y-133000000D01*
X149000000Y-124500000D02*
X149000000Y-83800000D01*
%TO.N,/19*%
X150000000Y-82260000D02*
X150000000Y-102525000D01*
X138000000Y-70260000D02*
X150000000Y-82260000D01*
X150000000Y-102525000D02*
X166975000Y-119500000D01*
%TO.N,/15*%
X129000000Y-85100000D02*
X137900000Y-94000000D01*
X148000000Y-97500000D02*
X148000000Y-127775000D01*
X148000000Y-127775000D02*
X166975000Y-146750000D01*
X144500000Y-94000000D02*
X148000000Y-97500000D01*
X137900000Y-94000000D02*
X144500000Y-94000000D01*
%TO.N,Net-(Q1-Pad1)*%
X159500000Y-84000000D02*
X158000000Y-84000000D01*
X158000000Y-84000000D02*
X154500000Y-80500000D01*
D30*
%TO.N,/26*%
X98460000Y-81460000D02*
X102500000Y-77420000D01*
X98460000Y-81460000D02*
X98440000Y-81460000D01*
X127500000Y-153000000D02*
X131650000Y-148850000D01*
X98440000Y-81460000D02*
X95400000Y-84500000D01*
X95400000Y-135100000D02*
X95400000Y-84500000D01*
X113300000Y-153000000D02*
X127500000Y-153000000D01*
X109150000Y-148850000D02*
X113300000Y-153000000D01*
X109150000Y-148850000D02*
X95400000Y-135100000D01*
%TO.N,/25*%
X109150000Y-151390000D02*
X111361000Y-153601000D01*
X109150000Y-151390000D02*
X94799000Y-137039000D01*
X111361000Y-153601000D02*
X129439000Y-153601000D01*
%TD*%
%TA.AperFunction,Conductor*%
%TO.N,GND*%
G36*
X120544194Y-138120185D02*
G01*
X120589949Y-138172989D01*
X120599893Y-138242147D01*
X120595086Y-138262818D01*
X120557138Y-138379606D01*
X120557138Y-138379609D01*
X120524500Y-138585675D01*
X120524500Y-138794324D01*
X120557137Y-139000389D01*
X120621612Y-139198820D01*
X120716330Y-139384714D01*
X120838965Y-139553505D01*
X120986495Y-139701035D01*
X121155286Y-139823670D01*
X121202271Y-139847610D01*
X121206010Y-139849515D01*
X121256806Y-139897490D01*
X121273601Y-139965310D01*
X121251064Y-140031445D01*
X121206010Y-140070485D01*
X121155285Y-140096330D01*
X120986493Y-140218966D01*
X120838966Y-140366493D01*
X120716330Y-140535285D01*
X120621612Y-140721179D01*
X120557137Y-140919610D01*
X120524500Y-141125675D01*
X120524500Y-141334324D01*
X120557137Y-141540389D01*
X120621612Y-141738820D01*
X120714516Y-141921153D01*
X120716330Y-141924714D01*
X120838965Y-142093505D01*
X120986495Y-142241035D01*
X121155286Y-142363670D01*
X121185736Y-142379185D01*
X121206010Y-142389515D01*
X121256806Y-142437490D01*
X121273601Y-142505310D01*
X121251064Y-142571445D01*
X121206010Y-142610485D01*
X121155285Y-142636330D01*
X120986493Y-142758966D01*
X120838966Y-142906493D01*
X120716330Y-143075285D01*
X120621612Y-143261179D01*
X120557137Y-143459610D01*
X120524500Y-143665675D01*
X120524500Y-143874324D01*
X120557137Y-144080389D01*
X120621612Y-144278820D01*
X120647071Y-144328785D01*
X120716330Y-144464714D01*
X120838965Y-144633505D01*
X120986495Y-144781035D01*
X121155286Y-144903670D01*
X121202271Y-144927610D01*
X121206010Y-144929515D01*
X121256806Y-144977490D01*
X121273601Y-145045310D01*
X121251064Y-145111445D01*
X121206010Y-145150485D01*
X121155285Y-145176330D01*
X120986493Y-145298966D01*
X120838966Y-145446493D01*
X120716330Y-145615285D01*
X120621612Y-145801179D01*
X120557137Y-145999610D01*
X120524500Y-146205675D01*
X120524500Y-146414324D01*
X120557137Y-146620389D01*
X120621612Y-146818820D01*
X120701013Y-146974652D01*
X120716330Y-147004714D01*
X120838965Y-147173505D01*
X120986495Y-147321035D01*
X121155286Y-147443670D01*
X121202271Y-147467610D01*
X121206010Y-147469515D01*
X121256806Y-147517490D01*
X121273601Y-147585310D01*
X121251064Y-147651445D01*
X121206010Y-147690485D01*
X121155285Y-147716330D01*
X120986493Y-147838966D01*
X120838966Y-147986493D01*
X120716330Y-148155285D01*
X120621612Y-148341179D01*
X120557137Y-148539610D01*
X120524500Y-148745675D01*
X120524500Y-148954324D01*
X120557137Y-149160389D01*
X120621612Y-149358820D01*
X120716330Y-149544714D01*
X120838965Y-149713505D01*
X120986495Y-149861035D01*
X121155286Y-149983670D01*
X121206010Y-150009515D01*
X121341179Y-150078387D01*
X121341181Y-150078387D01*
X121341184Y-150078389D01*
X121372906Y-150088696D01*
X121539610Y-150142862D01*
X121745676Y-150175500D01*
X121745681Y-150175500D01*
X121954324Y-150175500D01*
X122160389Y-150142862D01*
X122358816Y-150078389D01*
X122544714Y-149983670D01*
X122713505Y-149861035D01*
X122861035Y-149713505D01*
X122983670Y-149544714D01*
X123078389Y-149358816D01*
X123142862Y-149160389D01*
X123153865Y-149090918D01*
X123175500Y-148954324D01*
X123175500Y-148745675D01*
X123142862Y-148539610D01*
X123078387Y-148341179D01*
X122983669Y-148155285D01*
X122861035Y-147986495D01*
X122713505Y-147838965D01*
X122632111Y-147779828D01*
X122544712Y-147716328D01*
X122493990Y-147690485D01*
X122443194Y-147642511D01*
X122426398Y-147574690D01*
X122448935Y-147508555D01*
X122493990Y-147469515D01*
X122544712Y-147443671D01*
X122544711Y-147443671D01*
X122544714Y-147443670D01*
X122713505Y-147321035D01*
X122861035Y-147173505D01*
X122983670Y-147004714D01*
X123078389Y-146818816D01*
X123142862Y-146620389D01*
X123153007Y-146556337D01*
X123175500Y-146414324D01*
X123175500Y-146205675D01*
X123142862Y-145999610D01*
X123078387Y-145801179D01*
X123003293Y-145653799D01*
X122983670Y-145615286D01*
X122861035Y-145446495D01*
X122713505Y-145298965D01*
X122657241Y-145258086D01*
X122544712Y-145176328D01*
X122493990Y-145150485D01*
X122443194Y-145102511D01*
X122426398Y-145034690D01*
X122448935Y-144968555D01*
X122493990Y-144929515D01*
X122544712Y-144903671D01*
X122544711Y-144903671D01*
X122544714Y-144903670D01*
X122713505Y-144781035D01*
X122861035Y-144633505D01*
X122983670Y-144464714D01*
X123078389Y-144278816D01*
X123142862Y-144080389D01*
X123175500Y-143874324D01*
X123175500Y-143665675D01*
X123142862Y-143459610D01*
X123078387Y-143261179D01*
X122983669Y-143075285D01*
X122861035Y-142906495D01*
X122713505Y-142758965D01*
X122636477Y-142703000D01*
X122544712Y-142636328D01*
X122493990Y-142610485D01*
X122443194Y-142562511D01*
X122426398Y-142494690D01*
X122448935Y-142428555D01*
X122493990Y-142389515D01*
X122544712Y-142363671D01*
X122544711Y-142363671D01*
X122544714Y-142363670D01*
X122713505Y-142241035D01*
X122861035Y-142093505D01*
X122983670Y-141924714D01*
X123078389Y-141738816D01*
X123142862Y-141540389D01*
X123159458Y-141435606D01*
X123175500Y-141334324D01*
X123175500Y-141125675D01*
X123142862Y-140919610D01*
X123078387Y-140721179D01*
X122983669Y-140535285D01*
X122861035Y-140366495D01*
X122713505Y-140218965D01*
X122657241Y-140178086D01*
X122544712Y-140096328D01*
X122493990Y-140070485D01*
X122443194Y-140022511D01*
X122426398Y-139954690D01*
X122448935Y-139888555D01*
X122493990Y-139849515D01*
X122544712Y-139823671D01*
X122544711Y-139823671D01*
X122544714Y-139823670D01*
X122713505Y-139701035D01*
X122861035Y-139553505D01*
X122983670Y-139384714D01*
X123078389Y-139198816D01*
X123142862Y-139000389D01*
X123175500Y-138794324D01*
X123175500Y-138585675D01*
X123156512Y-138465797D01*
X123142862Y-138379611D01*
X123142861Y-138379607D01*
X123142861Y-138379606D01*
X123104914Y-138262818D01*
X123102919Y-138192977D01*
X123138999Y-138133144D01*
X123201700Y-138102316D01*
X123222845Y-138100500D01*
X130213333Y-138100500D01*
X130220939Y-138100500D01*
X130220943Y-138100501D01*
X130277156Y-138100501D01*
X130316526Y-138112061D01*
X130344193Y-138120186D01*
X130344195Y-138120187D01*
X130389949Y-138172991D01*
X130392822Y-138192977D01*
X130399892Y-138242148D01*
X130395085Y-138262819D01*
X130357138Y-138379606D01*
X130357138Y-138379609D01*
X130324500Y-138585675D01*
X130324500Y-138794324D01*
X130357137Y-139000389D01*
X130421612Y-139198820D01*
X130516330Y-139384714D01*
X130638965Y-139553505D01*
X130786495Y-139701035D01*
X130955286Y-139823670D01*
X131002271Y-139847610D01*
X131006010Y-139849515D01*
X131056806Y-139897490D01*
X131073601Y-139965310D01*
X131051064Y-140031445D01*
X131006010Y-140070485D01*
X130955285Y-140096330D01*
X130786493Y-140218966D01*
X130638966Y-140366493D01*
X130516330Y-140535285D01*
X130421612Y-140721179D01*
X130357137Y-140919610D01*
X130324500Y-141125675D01*
X130324500Y-141334324D01*
X130357137Y-141540389D01*
X130421612Y-141738820D01*
X130514516Y-141921153D01*
X130516330Y-141924714D01*
X130638965Y-142093505D01*
X130786495Y-142241035D01*
X130955286Y-142363670D01*
X130985736Y-142379185D01*
X131006010Y-142389515D01*
X131056806Y-142437490D01*
X131073601Y-142505310D01*
X131051064Y-142571445D01*
X131006010Y-142610485D01*
X130955285Y-142636330D01*
X130786493Y-142758966D01*
X130638966Y-142906493D01*
X130516330Y-143075285D01*
X130421612Y-143261179D01*
X130357137Y-143459610D01*
X130324500Y-143665675D01*
X130324500Y-143874324D01*
X130357137Y-144080389D01*
X130421612Y-144278820D01*
X130447071Y-144328785D01*
X130516330Y-144464714D01*
X130638965Y-144633505D01*
X130786495Y-144781035D01*
X130955286Y-144903670D01*
X131002271Y-144927610D01*
X131006010Y-144929515D01*
X131056806Y-144977490D01*
X131073601Y-145045310D01*
X131051064Y-145111445D01*
X131006010Y-145150485D01*
X130955285Y-145176330D01*
X130786493Y-145298966D01*
X130638966Y-145446493D01*
X130516330Y-145615285D01*
X130421612Y-145801179D01*
X130357137Y-145999610D01*
X130324500Y-146205675D01*
X130324500Y-146414324D01*
X130357137Y-146620389D01*
X130421612Y-146818820D01*
X130501013Y-146974652D01*
X130516330Y-147004714D01*
X130638965Y-147173505D01*
X130786495Y-147321035D01*
X130955286Y-147443670D01*
X131002271Y-147467610D01*
X131006010Y-147469515D01*
X131056806Y-147517490D01*
X131073601Y-147585310D01*
X131051064Y-147651445D01*
X131006010Y-147690485D01*
X130955285Y-147716330D01*
X130786493Y-147838966D01*
X130638966Y-147986493D01*
X130516330Y-148155285D01*
X130421612Y-148341179D01*
X130357137Y-148539610D01*
X130324500Y-148745675D01*
X130324500Y-148954324D01*
X130346135Y-149090919D01*
X130337181Y-149160212D01*
X130311343Y-149197998D01*
X127246162Y-152263181D01*
X127184839Y-152296666D01*
X127158481Y-152299500D01*
X113641519Y-152299500D01*
X113574480Y-152279815D01*
X113553838Y-152263181D01*
X110488655Y-149197998D01*
X110455170Y-149136675D01*
X110453863Y-149090924D01*
X110475500Y-148954319D01*
X110475500Y-148745681D01*
X110475500Y-148745675D01*
X110442862Y-148539610D01*
X110378387Y-148341179D01*
X110283669Y-148155285D01*
X110161035Y-147986495D01*
X110013505Y-147838965D01*
X109932111Y-147779828D01*
X109844712Y-147716328D01*
X109793990Y-147690485D01*
X109743194Y-147642511D01*
X109726398Y-147574690D01*
X109748935Y-147508555D01*
X109793990Y-147469515D01*
X109844712Y-147443671D01*
X109844711Y-147443671D01*
X109844714Y-147443670D01*
X110013505Y-147321035D01*
X110161035Y-147173505D01*
X110283670Y-147004714D01*
X110378389Y-146818816D01*
X110442862Y-146620389D01*
X110453007Y-146556337D01*
X110475500Y-146414324D01*
X110475500Y-146205675D01*
X110442862Y-145999610D01*
X110378387Y-145801179D01*
X110303293Y-145653799D01*
X110283670Y-145615286D01*
X110161035Y-145446495D01*
X110013505Y-145298965D01*
X109957241Y-145258086D01*
X109844712Y-145176328D01*
X109793990Y-145150485D01*
X109743194Y-145102511D01*
X109726398Y-145034690D01*
X109748935Y-144968555D01*
X109793990Y-144929515D01*
X109844712Y-144903671D01*
X109844711Y-144903671D01*
X109844714Y-144903670D01*
X110013505Y-144781035D01*
X110161035Y-144633505D01*
X110283670Y-144464714D01*
X110378389Y-144278816D01*
X110442862Y-144080389D01*
X110475500Y-143874324D01*
X110475500Y-143665675D01*
X110442862Y-143459610D01*
X110378387Y-143261179D01*
X110283669Y-143075285D01*
X110161035Y-142906495D01*
X110013505Y-142758965D01*
X109936477Y-142703000D01*
X109844712Y-142636328D01*
X109793990Y-142610485D01*
X109743194Y-142562511D01*
X109726398Y-142494690D01*
X109748935Y-142428555D01*
X109793990Y-142389515D01*
X109844712Y-142363671D01*
X109844711Y-142363671D01*
X109844714Y-142363670D01*
X110013505Y-142241035D01*
X110161035Y-142093505D01*
X110283670Y-141924714D01*
X110378389Y-141738816D01*
X110442862Y-141540389D01*
X110459458Y-141435606D01*
X110475500Y-141334324D01*
X110475500Y-141125675D01*
X110442862Y-140919610D01*
X110378387Y-140721179D01*
X110283669Y-140535285D01*
X110161035Y-140366495D01*
X110013505Y-140218965D01*
X109957241Y-140178086D01*
X109844712Y-140096328D01*
X109793990Y-140070485D01*
X109743194Y-140022511D01*
X109726398Y-139954690D01*
X109748935Y-139888555D01*
X109793990Y-139849515D01*
X109844712Y-139823671D01*
X109844711Y-139823671D01*
X109844714Y-139823670D01*
X110013505Y-139701035D01*
X110161035Y-139553505D01*
X110283670Y-139384714D01*
X110378389Y-139198816D01*
X110442862Y-139000389D01*
X110475500Y-138794324D01*
X110475500Y-138585675D01*
X110442862Y-138379610D01*
X110433668Y-138351314D01*
X110433233Y-138336100D01*
X110427915Y-138321841D01*
X110432256Y-138301885D01*
X110431673Y-138281473D01*
X110439760Y-138267387D01*
X110442767Y-138253568D01*
X110463915Y-138225319D01*
X110552417Y-138136818D01*
X110613740Y-138103333D01*
X110640097Y-138100500D01*
X120477155Y-138100500D01*
X120544194Y-138120185D01*
G37*
%TD.AperFunction*%
%TA.AperFunction,Conductor*%
G36*
X101068834Y-79944336D02*
G01*
X101124767Y-79986208D01*
X101149184Y-80051672D01*
X101149500Y-80060518D01*
X101149500Y-80066286D01*
X101181210Y-80266499D01*
X101182754Y-80276243D01*
X101229838Y-80421153D01*
X101248444Y-80478414D01*
X101344951Y-80667820D01*
X101469890Y-80839786D01*
X101620213Y-80990109D01*
X101792182Y-81115050D01*
X101800946Y-81119516D01*
X101851742Y-81167491D01*
X101868536Y-81235312D01*
X101845998Y-81301447D01*
X101800946Y-81340484D01*
X101792182Y-81344949D01*
X101620213Y-81469890D01*
X101469890Y-81620213D01*
X101344950Y-81792180D01*
X101337503Y-81806797D01*
X101327053Y-81817860D01*
X101320732Y-81831703D01*
X101303549Y-81842745D01*
X101289527Y-81857592D01*
X101273848Y-81861832D01*
X101261954Y-81869477D01*
X101227019Y-81874500D01*
X101067741Y-81874500D01*
X101067721Y-81874499D01*
X101061607Y-81874499D01*
X100938394Y-81874499D01*
X100837597Y-81894548D01*
X100837592Y-81894548D01*
X100817549Y-81898536D01*
X100817547Y-81898536D01*
X100770397Y-81918067D01*
X100703719Y-81945685D01*
X100703717Y-81945686D01*
X100601266Y-82014141D01*
X100601263Y-82014144D01*
X99799170Y-82816239D01*
X99601269Y-83014140D01*
X99601267Y-83014142D01*
X99557822Y-83057587D01*
X99514142Y-83101266D01*
X99486623Y-83142452D01*
X99486622Y-83142453D01*
X99445690Y-83203709D01*
X99445685Y-83203718D01*
X99398540Y-83317538D01*
X99398538Y-83317545D01*
X99398537Y-83317548D01*
X99398537Y-83317549D01*
X99380180Y-83409843D01*
X99377457Y-83423532D01*
X99377455Y-83423537D01*
X99374500Y-83438389D01*
X99374500Y-91061611D01*
X99398535Y-91182444D01*
X99398540Y-91182461D01*
X99445685Y-91296280D01*
X99445687Y-91296283D01*
X99445688Y-91296286D01*
X99479915Y-91347509D01*
X99514142Y-91398733D01*
X99601267Y-91485858D01*
X99601270Y-91485860D01*
X99608554Y-91493144D01*
X101338181Y-93222771D01*
X101371666Y-93284094D01*
X101374500Y-93310452D01*
X101374500Y-122561611D01*
X101398535Y-122682444D01*
X101398540Y-122682461D01*
X101445685Y-122796281D01*
X101445688Y-122796286D01*
X101467142Y-122828393D01*
X101514142Y-122898733D01*
X101601267Y-122985858D01*
X101601270Y-122985860D01*
X101609105Y-122993695D01*
X105511016Y-126895606D01*
X105511045Y-126895637D01*
X105601263Y-126985855D01*
X105601267Y-126985858D01*
X105703707Y-127054307D01*
X105703711Y-127054309D01*
X105703714Y-127054311D01*
X105817548Y-127101463D01*
X105877971Y-127113481D01*
X105938393Y-127125500D01*
X129101607Y-127125500D01*
X129162029Y-127113481D01*
X129222452Y-127101463D01*
X129255792Y-127087652D01*
X129336286Y-127054312D01*
X129387509Y-127020084D01*
X129438733Y-126985858D01*
X129525858Y-126898733D01*
X129525859Y-126898731D01*
X129532925Y-126891665D01*
X129532928Y-126891661D01*
X132212002Y-124212586D01*
X132273323Y-124179103D01*
X132334767Y-124182175D01*
X132334876Y-124181725D01*
X132337274Y-124182300D01*
X132337994Y-124182336D01*
X132339611Y-124182862D01*
X132431197Y-124197367D01*
X132545676Y-124215500D01*
X132545681Y-124215500D01*
X132754324Y-124215500D01*
X132854222Y-124199677D01*
X132960389Y-124182862D01*
X132960394Y-124182860D01*
X132960396Y-124182860D01*
X133013180Y-124165709D01*
X133083021Y-124163712D01*
X133142854Y-124199792D01*
X133173683Y-124262492D01*
X133175500Y-124283639D01*
X133175500Y-133723902D01*
X133155815Y-133790941D01*
X133139181Y-133811583D01*
X132114682Y-134836081D01*
X132053359Y-134869566D01*
X131988683Y-134866331D01*
X131960390Y-134857138D01*
X131754324Y-134824500D01*
X131754319Y-134824500D01*
X131545681Y-134824500D01*
X131545676Y-134824500D01*
X131339610Y-134857137D01*
X131141179Y-134921612D01*
X130955285Y-135016330D01*
X130786493Y-135138966D01*
X130638966Y-135286493D01*
X130516330Y-135455285D01*
X130421612Y-135641179D01*
X130357137Y-135839610D01*
X130324500Y-136045675D01*
X130324500Y-136254324D01*
X130357138Y-136460389D01*
X130357138Y-136460392D01*
X130366331Y-136488683D01*
X130368326Y-136558524D01*
X130336081Y-136614682D01*
X130087582Y-136863182D01*
X130026262Y-136896666D01*
X129999903Y-136899500D01*
X110458105Y-136899500D01*
X110391066Y-136879815D01*
X110345311Y-136827011D01*
X110335367Y-136757853D01*
X110347620Y-136719206D01*
X110378386Y-136658823D01*
X110378386Y-136658819D01*
X110378389Y-136658816D01*
X110442862Y-136460389D01*
X110457688Y-136366780D01*
X110475500Y-136254324D01*
X110475500Y-136045675D01*
X110442862Y-135839610D01*
X110378387Y-135641179D01*
X110328421Y-135543116D01*
X110283670Y-135455286D01*
X110161035Y-135286495D01*
X110013505Y-135138965D01*
X109844714Y-135016330D01*
X109834245Y-135010996D01*
X109658820Y-134921612D01*
X109460389Y-134857137D01*
X109254324Y-134824500D01*
X109254319Y-134824500D01*
X109045681Y-134824500D01*
X109045676Y-134824500D01*
X108839610Y-134857137D01*
X108641179Y-134921612D01*
X108455285Y-135016330D01*
X108286493Y-135138966D01*
X108138966Y-135286493D01*
X108016330Y-135455285D01*
X107921612Y-135641179D01*
X107857137Y-135839610D01*
X107824500Y-136045675D01*
X107824500Y-136254324D01*
X107857137Y-136460389D01*
X107921612Y-136658820D01*
X107985987Y-136785162D01*
X108016330Y-136844714D01*
X108138965Y-137013505D01*
X108286495Y-137161035D01*
X108455286Y-137283670D01*
X108480192Y-137296360D01*
X108506010Y-137309515D01*
X108556806Y-137357490D01*
X108573601Y-137425310D01*
X108551064Y-137491445D01*
X108506010Y-137530485D01*
X108455285Y-137556330D01*
X108286493Y-137678966D01*
X108138966Y-137826493D01*
X108016330Y-137995285D01*
X107921612Y-138181179D01*
X107857137Y-138379610D01*
X107824500Y-138585675D01*
X107824500Y-138794324D01*
X107857137Y-139000389D01*
X107921612Y-139198820D01*
X108016330Y-139384714D01*
X108138965Y-139553505D01*
X108286495Y-139701035D01*
X108455286Y-139823670D01*
X108502271Y-139847610D01*
X108506010Y-139849515D01*
X108556806Y-139897490D01*
X108573601Y-139965310D01*
X108551064Y-140031445D01*
X108506010Y-140070485D01*
X108455285Y-140096330D01*
X108286493Y-140218966D01*
X108138966Y-140366493D01*
X108016330Y-140535285D01*
X107921612Y-140721179D01*
X107857137Y-140919610D01*
X107824500Y-141125675D01*
X107824500Y-141334324D01*
X107857137Y-141540389D01*
X107921612Y-141738820D01*
X108014516Y-141921153D01*
X108016330Y-141924714D01*
X108138965Y-142093505D01*
X108286495Y-142241035D01*
X108455286Y-142363670D01*
X108485736Y-142379185D01*
X108506010Y-142389515D01*
X108556806Y-142437490D01*
X108573601Y-142505310D01*
X108551064Y-142571445D01*
X108506010Y-142610485D01*
X108455285Y-142636330D01*
X108286493Y-142758966D01*
X108138966Y-142906493D01*
X108016330Y-143075285D01*
X107921612Y-143261179D01*
X107857137Y-143459610D01*
X107824500Y-143665675D01*
X107824500Y-143874324D01*
X107857137Y-144080389D01*
X107921612Y-144278820D01*
X107947071Y-144328785D01*
X108016330Y-144464714D01*
X108138965Y-144633505D01*
X108286495Y-144781035D01*
X108455286Y-144903670D01*
X108502271Y-144927610D01*
X108506010Y-144929515D01*
X108556806Y-144977490D01*
X108573601Y-145045310D01*
X108551064Y-145111445D01*
X108506010Y-145150485D01*
X108455285Y-145176330D01*
X108286493Y-145298966D01*
X108138966Y-145446493D01*
X108016330Y-145615285D01*
X107921612Y-145801179D01*
X107857137Y-145999610D01*
X107824500Y-146205675D01*
X107824500Y-146234481D01*
X107804815Y-146301520D01*
X107752011Y-146347275D01*
X107682853Y-146357219D01*
X107619297Y-146328194D01*
X107612819Y-146322162D01*
X96136819Y-134846162D01*
X96103334Y-134784839D01*
X96100500Y-134758481D01*
X96100500Y-133505675D01*
X120524500Y-133505675D01*
X120524500Y-133714324D01*
X120557137Y-133920389D01*
X120621612Y-134118820D01*
X120696864Y-134266510D01*
X120716330Y-134304714D01*
X120838965Y-134473505D01*
X120986495Y-134621035D01*
X121155286Y-134743670D01*
X121213519Y-134773341D01*
X121341179Y-134838387D01*
X121341181Y-134838387D01*
X121341184Y-134838389D01*
X121437137Y-134869566D01*
X121539610Y-134902862D01*
X121745676Y-134935500D01*
X121745681Y-134935500D01*
X121954324Y-134935500D01*
X122160389Y-134902862D01*
X122358816Y-134838389D01*
X122544714Y-134743670D01*
X122713505Y-134621035D01*
X122861035Y-134473505D01*
X122983670Y-134304714D01*
X123078389Y-134118816D01*
X123142862Y-133920389D01*
X123156327Y-133835373D01*
X123175500Y-133714324D01*
X123175500Y-133505675D01*
X123142862Y-133299610D01*
X123078387Y-133101179D01*
X123003293Y-132953799D01*
X122983670Y-132915286D01*
X122861035Y-132746495D01*
X122713505Y-132598965D01*
X122544714Y-132476330D01*
X122534245Y-132470996D01*
X122358820Y-132381612D01*
X122160389Y-132317137D01*
X121954324Y-132284500D01*
X121954319Y-132284500D01*
X121745681Y-132284500D01*
X121745676Y-132284500D01*
X121539610Y-132317137D01*
X121341179Y-132381612D01*
X121155285Y-132476330D01*
X120986493Y-132598966D01*
X120838966Y-132746493D01*
X120716330Y-132915285D01*
X120621612Y-133101179D01*
X120557137Y-133299610D01*
X120524500Y-133505675D01*
X96100500Y-133505675D01*
X96100500Y-99378711D01*
X96649500Y-99378711D01*
X96649500Y-99621288D01*
X96681161Y-99861785D01*
X96743947Y-100096104D01*
X96836773Y-100320205D01*
X96836776Y-100320212D01*
X96958064Y-100530289D01*
X96958066Y-100530292D01*
X96958067Y-100530293D01*
X97105733Y-100722736D01*
X97105739Y-100722743D01*
X97277256Y-100894260D01*
X97277262Y-100894265D01*
X97469711Y-101041936D01*
X97679788Y-101163224D01*
X97903900Y-101256054D01*
X98138211Y-101318838D01*
X98318586Y-101342584D01*
X98378711Y-101350500D01*
X98378712Y-101350500D01*
X98621289Y-101350500D01*
X98669388Y-101344167D01*
X98861789Y-101318838D01*
X99096100Y-101256054D01*
X99320212Y-101163224D01*
X99530289Y-101041936D01*
X99722738Y-100894265D01*
X99894265Y-100722738D01*
X100041936Y-100530289D01*
X100163224Y-100320212D01*
X100256054Y-100096100D01*
X100318838Y-99861789D01*
X100350500Y-99621288D01*
X100350500Y-99378712D01*
X100318838Y-99138211D01*
X100256054Y-98903900D01*
X100163224Y-98679788D01*
X100041936Y-98469711D01*
X99912096Y-98300500D01*
X99894266Y-98277263D01*
X99894260Y-98277256D01*
X99722743Y-98105739D01*
X99722736Y-98105733D01*
X99530293Y-97958067D01*
X99530292Y-97958066D01*
X99530289Y-97958064D01*
X99320212Y-97836776D01*
X99320205Y-97836773D01*
X99096104Y-97743947D01*
X98861785Y-97681161D01*
X98621289Y-97649500D01*
X98621288Y-97649500D01*
X98378712Y-97649500D01*
X98378711Y-97649500D01*
X98138214Y-97681161D01*
X97903895Y-97743947D01*
X97679794Y-97836773D01*
X97679785Y-97836777D01*
X97469706Y-97958067D01*
X97277263Y-98105733D01*
X97277256Y-98105739D01*
X97105739Y-98277256D01*
X97105733Y-98277263D01*
X96958067Y-98469706D01*
X96836777Y-98679785D01*
X96836773Y-98679794D01*
X96743947Y-98903895D01*
X96681161Y-99138214D01*
X96649500Y-99378711D01*
X96100500Y-99378711D01*
X96100500Y-84841518D01*
X96120185Y-84774479D01*
X96136814Y-84753842D01*
X98837638Y-82053017D01*
X98856417Y-82037606D01*
X98906543Y-82004114D01*
X100937819Y-79972836D01*
X100999142Y-79939352D01*
X101068834Y-79944336D01*
G37*
%TD.AperFunction*%
%TA.AperFunction,Conductor*%
G36*
X120483350Y-117292425D02*
G01*
X120511072Y-117297223D01*
X120516426Y-117302137D01*
X120523399Y-117304185D01*
X120541818Y-117325442D01*
X120562547Y-117344467D01*
X120564394Y-117351496D01*
X120569154Y-117356989D01*
X120573157Y-117384835D01*
X120580309Y-117412041D01*
X120578539Y-117422264D01*
X120579098Y-117426147D01*
X120574291Y-117446818D01*
X120557138Y-117499606D01*
X120557138Y-117499609D01*
X120524500Y-117705675D01*
X120524500Y-117914324D01*
X120557137Y-118120389D01*
X120621612Y-118318820D01*
X120716330Y-118504714D01*
X120838965Y-118673505D01*
X120986495Y-118821035D01*
X121155286Y-118943670D01*
X121202271Y-118967610D01*
X121206010Y-118969515D01*
X121256806Y-119017490D01*
X121273601Y-119085310D01*
X121251064Y-119151445D01*
X121206010Y-119190485D01*
X121155285Y-119216330D01*
X120986493Y-119338966D01*
X120838966Y-119486493D01*
X120716330Y-119655285D01*
X120621612Y-119841179D01*
X120557137Y-120039610D01*
X120524500Y-120245675D01*
X120524500Y-120454324D01*
X120557137Y-120660389D01*
X120621612Y-120858820D01*
X120716330Y-121044714D01*
X120838965Y-121213505D01*
X120986495Y-121361035D01*
X121155286Y-121483670D01*
X121206010Y-121509515D01*
X121341179Y-121578387D01*
X121341181Y-121578387D01*
X121341184Y-121578389D01*
X121447545Y-121612948D01*
X121539610Y-121642862D01*
X121745676Y-121675500D01*
X121745681Y-121675500D01*
X121954324Y-121675500D01*
X122160389Y-121642862D01*
X122214408Y-121625310D01*
X122358816Y-121578389D01*
X122544714Y-121483670D01*
X122713505Y-121361035D01*
X122861035Y-121213505D01*
X122983670Y-121044714D01*
X123078389Y-120858816D01*
X123142862Y-120660389D01*
X123163540Y-120529835D01*
X123175500Y-120454324D01*
X123175500Y-120245675D01*
X123142862Y-120039610D01*
X123078387Y-119841179D01*
X123028421Y-119743116D01*
X122983670Y-119655286D01*
X122861035Y-119486495D01*
X122713505Y-119338965D01*
X122657241Y-119298086D01*
X122544712Y-119216328D01*
X122493990Y-119190485D01*
X122443194Y-119142511D01*
X122426398Y-119074690D01*
X122448935Y-119008555D01*
X122493990Y-118969515D01*
X122544712Y-118943671D01*
X122544711Y-118943671D01*
X122544714Y-118943670D01*
X122713505Y-118821035D01*
X122861035Y-118673505D01*
X122983670Y-118504714D01*
X123078389Y-118318816D01*
X123142862Y-118120389D01*
X123175500Y-117914324D01*
X123175500Y-117705675D01*
X123156512Y-117585797D01*
X123142862Y-117499611D01*
X123142861Y-117499607D01*
X123142861Y-117499606D01*
X123125709Y-117446818D01*
X123123714Y-117376977D01*
X123159794Y-117317144D01*
X123222495Y-117286316D01*
X123243640Y-117284500D01*
X131223903Y-117284500D01*
X131253343Y-117293144D01*
X131283330Y-117299668D01*
X131288345Y-117303422D01*
X131290942Y-117304185D01*
X131311579Y-117320815D01*
X131311584Y-117320819D01*
X131336081Y-117345316D01*
X131369566Y-117406639D01*
X131366332Y-117471313D01*
X131357138Y-117499610D01*
X131324500Y-117705675D01*
X131324500Y-117914324D01*
X131357137Y-118120389D01*
X131421612Y-118318820D01*
X131516330Y-118504714D01*
X131638965Y-118673505D01*
X131786495Y-118821035D01*
X131955286Y-118943670D01*
X132002271Y-118967610D01*
X132006010Y-118969515D01*
X132056806Y-119017490D01*
X132073601Y-119085310D01*
X132051064Y-119151445D01*
X132006010Y-119190485D01*
X131955285Y-119216330D01*
X131786493Y-119338966D01*
X131638966Y-119486493D01*
X131516330Y-119655285D01*
X131421612Y-119841179D01*
X131357137Y-120039610D01*
X131324500Y-120245675D01*
X131324500Y-120454324D01*
X131357138Y-120660392D01*
X131357140Y-120660401D01*
X131357664Y-120662013D01*
X131357682Y-120662658D01*
X131358276Y-120665132D01*
X131357756Y-120665256D01*
X131359652Y-120731854D01*
X131327410Y-120787998D01*
X127777229Y-124338181D01*
X127715906Y-124371666D01*
X127689548Y-124374500D01*
X109653492Y-124374500D01*
X109586453Y-124354815D01*
X109540698Y-124302011D01*
X109530754Y-124232853D01*
X109559779Y-124169297D01*
X109615173Y-124132569D01*
X109658816Y-124118389D01*
X109844714Y-124023670D01*
X110013505Y-123901035D01*
X110161035Y-123753505D01*
X110283670Y-123584714D01*
X110378389Y-123398816D01*
X110442862Y-123200389D01*
X110475500Y-122994324D01*
X110475500Y-122785675D01*
X110455917Y-122662039D01*
X110442862Y-122579611D01*
X110442336Y-122577995D01*
X110442318Y-122577347D01*
X110441725Y-122574876D01*
X110442244Y-122574751D01*
X110440343Y-122508156D01*
X110472586Y-122452002D01*
X110699729Y-122224860D01*
X110699733Y-122224858D01*
X110786858Y-122137733D01*
X110855311Y-122035286D01*
X110855312Y-122035285D01*
X110882932Y-121968603D01*
X110902463Y-121921452D01*
X110926500Y-121800606D01*
X110926500Y-119811634D01*
X110902463Y-119690788D01*
X110855311Y-119576954D01*
X110855310Y-119576953D01*
X110855307Y-119576947D01*
X110786859Y-119474508D01*
X110786858Y-119474507D01*
X110699733Y-119387382D01*
X110699732Y-119387381D01*
X110161125Y-118848775D01*
X110127641Y-118787453D01*
X110132625Y-118717762D01*
X110158395Y-118677668D01*
X110157866Y-118677216D01*
X110161029Y-118673511D01*
X110161029Y-118673510D01*
X110161035Y-118673505D01*
X110283670Y-118504714D01*
X110378389Y-118318816D01*
X110442862Y-118120389D01*
X110475500Y-117914324D01*
X110475500Y-117705675D01*
X110442862Y-117499612D01*
X110442862Y-117499611D01*
X110433667Y-117471314D01*
X110431672Y-117401475D01*
X110463919Y-117345315D01*
X110488420Y-117320815D01*
X110549745Y-117287333D01*
X110576098Y-117284500D01*
X120456360Y-117284500D01*
X120483350Y-117292425D01*
G37*
%TD.AperFunction*%
%TA.AperFunction,Conductor*%
G36*
X136794058Y-58205185D02*
G01*
X136837503Y-58253203D01*
X136844950Y-58267819D01*
X136969890Y-58439786D01*
X137120213Y-58590109D01*
X137292182Y-58715050D01*
X137300946Y-58719516D01*
X137351742Y-58767491D01*
X137368536Y-58835312D01*
X137345998Y-58901447D01*
X137300946Y-58940484D01*
X137292182Y-58944949D01*
X137120213Y-59069890D01*
X136969890Y-59220213D01*
X136844951Y-59392179D01*
X136748444Y-59581585D01*
X136682753Y-59783760D01*
X136649500Y-59993713D01*
X136649500Y-60206286D01*
X136682117Y-60412225D01*
X136682754Y-60416243D01*
X136717103Y-60521959D01*
X136748444Y-60618414D01*
X136844951Y-60807820D01*
X136969890Y-60979786D01*
X137120213Y-61130109D01*
X137292182Y-61255050D01*
X137300946Y-61259516D01*
X137351742Y-61307491D01*
X137368536Y-61375312D01*
X137345998Y-61441447D01*
X137300946Y-61480484D01*
X137292182Y-61484949D01*
X137120213Y-61609890D01*
X136969890Y-61760213D01*
X136844951Y-61932179D01*
X136748444Y-62121585D01*
X136682753Y-62323760D01*
X136655435Y-62496239D01*
X136649500Y-62533713D01*
X136649500Y-62746287D01*
X136682754Y-62956243D01*
X136716399Y-63059792D01*
X136748444Y-63158414D01*
X136844951Y-63347820D01*
X136969890Y-63519786D01*
X137120213Y-63670109D01*
X137292182Y-63795050D01*
X137300946Y-63799516D01*
X137351742Y-63847491D01*
X137368536Y-63915312D01*
X137345998Y-63981447D01*
X137300946Y-64020484D01*
X137292182Y-64024949D01*
X137120213Y-64149890D01*
X136969890Y-64300213D01*
X136844951Y-64472179D01*
X136748444Y-64661585D01*
X136682753Y-64863760D01*
X136655435Y-65036239D01*
X136649500Y-65073713D01*
X136649500Y-65286287D01*
X136682754Y-65496243D01*
X136716399Y-65599792D01*
X136748444Y-65698414D01*
X136844951Y-65887820D01*
X136969890Y-66059786D01*
X137120213Y-66210109D01*
X137292182Y-66335050D01*
X137300946Y-66339516D01*
X137351742Y-66387491D01*
X137368536Y-66455312D01*
X137345998Y-66521447D01*
X137300946Y-66560484D01*
X137292182Y-66564949D01*
X137120213Y-66689890D01*
X136969890Y-66840213D01*
X136844951Y-67012179D01*
X136748444Y-67201585D01*
X136682753Y-67403760D01*
X136655435Y-67576239D01*
X136649500Y-67613713D01*
X136649500Y-67826287D01*
X136682754Y-68036243D01*
X136716399Y-68139792D01*
X136748444Y-68238414D01*
X136844951Y-68427820D01*
X136969890Y-68599786D01*
X137120213Y-68750109D01*
X137292182Y-68875050D01*
X137300946Y-68879516D01*
X137351742Y-68927491D01*
X137368536Y-68995312D01*
X137345998Y-69061447D01*
X137300946Y-69100484D01*
X137292182Y-69104949D01*
X137120213Y-69229890D01*
X136969890Y-69380213D01*
X136844951Y-69552179D01*
X136748444Y-69741585D01*
X136682753Y-69943760D01*
X136655435Y-70116239D01*
X136649500Y-70153713D01*
X136649500Y-70366287D01*
X136682754Y-70576243D01*
X136728761Y-70717838D01*
X136748444Y-70778414D01*
X136844951Y-70967820D01*
X136969890Y-71139786D01*
X137120213Y-71290109D01*
X137292182Y-71415050D01*
X137300946Y-71419516D01*
X137351742Y-71467491D01*
X137368536Y-71535312D01*
X137345998Y-71601447D01*
X137300946Y-71640484D01*
X137292182Y-71644949D01*
X137120213Y-71769890D01*
X136969890Y-71920213D01*
X136844951Y-72092179D01*
X136748444Y-72281585D01*
X136682753Y-72483760D01*
X136655435Y-72656239D01*
X136649500Y-72693713D01*
X136649500Y-72906287D01*
X136682754Y-73116243D01*
X136728761Y-73257838D01*
X136748444Y-73318414D01*
X136844951Y-73507820D01*
X136969890Y-73679786D01*
X137120213Y-73830109D01*
X137292182Y-73955050D01*
X137300946Y-73959516D01*
X137351742Y-74007491D01*
X137368536Y-74075312D01*
X137345998Y-74141447D01*
X137300946Y-74180484D01*
X137292182Y-74184949D01*
X137120213Y-74309890D01*
X136969890Y-74460213D01*
X136844951Y-74632179D01*
X136748444Y-74821585D01*
X136682753Y-75023760D01*
X136655435Y-75196239D01*
X136649500Y-75233713D01*
X136649500Y-75446287D01*
X136682754Y-75656243D01*
X136725699Y-75788415D01*
X136748444Y-75858414D01*
X136844951Y-76047820D01*
X136969890Y-76219786D01*
X137120213Y-76370109D01*
X137292182Y-76495050D01*
X137300946Y-76499516D01*
X137351742Y-76547491D01*
X137368536Y-76615312D01*
X137345998Y-76681447D01*
X137300946Y-76720484D01*
X137292182Y-76724949D01*
X137120213Y-76849890D01*
X136969890Y-77000213D01*
X136844951Y-77172179D01*
X136748444Y-77361585D01*
X136682753Y-77563760D01*
X136663904Y-77682771D01*
X136649500Y-77773713D01*
X136649500Y-77986287D01*
X136682754Y-78196243D01*
X136716399Y-78299792D01*
X136748444Y-78398414D01*
X136844951Y-78587820D01*
X136969890Y-78759786D01*
X137120213Y-78910109D01*
X137292182Y-79035050D01*
X137300946Y-79039516D01*
X137351742Y-79087491D01*
X137368536Y-79155312D01*
X137345998Y-79221447D01*
X137300946Y-79260484D01*
X137292182Y-79264949D01*
X137120213Y-79389890D01*
X136969890Y-79540213D01*
X136844951Y-79712179D01*
X136748444Y-79901585D01*
X136682753Y-80103760D01*
X136649500Y-80313713D01*
X136649500Y-80526286D01*
X136682319Y-80733501D01*
X136682754Y-80736243D01*
X136746480Y-80932372D01*
X136748444Y-80938414D01*
X136844951Y-81127820D01*
X136969890Y-81299786D01*
X137120213Y-81450109D01*
X137292182Y-81575050D01*
X137300946Y-81579516D01*
X137351742Y-81627491D01*
X137368536Y-81695312D01*
X137345998Y-81761447D01*
X137300946Y-81800484D01*
X137292182Y-81804949D01*
X137120213Y-81929890D01*
X136969890Y-82080213D01*
X136844950Y-82252180D01*
X136837503Y-82266797D01*
X136789527Y-82317592D01*
X136727019Y-82334500D01*
X126875273Y-82334500D01*
X126814855Y-82346518D01*
X126777143Y-82354019D01*
X126754434Y-82358536D01*
X126754432Y-82358537D01*
X126721091Y-82372347D01*
X126640602Y-82405685D01*
X126640593Y-82405690D01*
X126598135Y-82434060D01*
X126598126Y-82434067D01*
X126591653Y-82438393D01*
X126538151Y-82474142D01*
X126451026Y-82561267D01*
X126451023Y-82561270D01*
X126447921Y-82564371D01*
X126447914Y-82564378D01*
X124957275Y-84055018D01*
X124895952Y-84088503D01*
X124826260Y-84083519D01*
X124796709Y-84067655D01*
X124627820Y-83944951D01*
X124438414Y-83848444D01*
X124438413Y-83848443D01*
X124438412Y-83848443D01*
X124236243Y-83782754D01*
X124236241Y-83782753D01*
X124236240Y-83782753D01*
X124039274Y-83751557D01*
X124026287Y-83749500D01*
X123813713Y-83749500D01*
X123800726Y-83751557D01*
X123603760Y-83782753D01*
X123603757Y-83782754D01*
X123435843Y-83837313D01*
X123401585Y-83848444D01*
X123212179Y-83944951D01*
X123040213Y-84069890D01*
X122889890Y-84220213D01*
X122764949Y-84392182D01*
X122760484Y-84400946D01*
X122712509Y-84451742D01*
X122644688Y-84468536D01*
X122578553Y-84445998D01*
X122539516Y-84400946D01*
X122535050Y-84392182D01*
X122410109Y-84220213D01*
X122259786Y-84069890D01*
X122087820Y-83944951D01*
X121898414Y-83848444D01*
X121898413Y-83848443D01*
X121898412Y-83848443D01*
X121696243Y-83782754D01*
X121696241Y-83782753D01*
X121696240Y-83782753D01*
X121499274Y-83751557D01*
X121486287Y-83749500D01*
X121273713Y-83749500D01*
X121260726Y-83751557D01*
X121063760Y-83782753D01*
X121063757Y-83782754D01*
X120895843Y-83837313D01*
X120861585Y-83848444D01*
X120672179Y-83944951D01*
X120500213Y-84069890D01*
X120349890Y-84220213D01*
X120224949Y-84392182D01*
X120220484Y-84400946D01*
X120172509Y-84451742D01*
X120104688Y-84468536D01*
X120038553Y-84445998D01*
X119999516Y-84400946D01*
X119995050Y-84392182D01*
X119870109Y-84220213D01*
X119719786Y-84069890D01*
X119547820Y-83944951D01*
X119358414Y-83848444D01*
X119358413Y-83848443D01*
X119358412Y-83848443D01*
X119156243Y-83782754D01*
X119156241Y-83782753D01*
X119156240Y-83782753D01*
X118959274Y-83751557D01*
X118946287Y-83749500D01*
X118733713Y-83749500D01*
X118720726Y-83751557D01*
X118523760Y-83782753D01*
X118523757Y-83782754D01*
X118355843Y-83837313D01*
X118321585Y-83848444D01*
X118132179Y-83944951D01*
X117960213Y-84069890D01*
X117809890Y-84220213D01*
X117684949Y-84392182D01*
X117680484Y-84400946D01*
X117632509Y-84451742D01*
X117564688Y-84468536D01*
X117498553Y-84445998D01*
X117459516Y-84400946D01*
X117455050Y-84392182D01*
X117330109Y-84220213D01*
X117179786Y-84069890D01*
X117007820Y-83944951D01*
X116818414Y-83848444D01*
X116818413Y-83848443D01*
X116818412Y-83848443D01*
X116616243Y-83782754D01*
X116616241Y-83782753D01*
X116616240Y-83782753D01*
X116419274Y-83751557D01*
X116406287Y-83749500D01*
X116193713Y-83749500D01*
X116180726Y-83751557D01*
X115983760Y-83782753D01*
X115983757Y-83782754D01*
X115815843Y-83837313D01*
X115781585Y-83848444D01*
X115592179Y-83944951D01*
X115420213Y-84069890D01*
X115269890Y-84220213D01*
X115144949Y-84392182D01*
X115140484Y-84400946D01*
X115092509Y-84451742D01*
X115024688Y-84468536D01*
X114958553Y-84445998D01*
X114919516Y-84400946D01*
X114915050Y-84392182D01*
X114790109Y-84220213D01*
X114639786Y-84069890D01*
X114467820Y-83944951D01*
X114278414Y-83848444D01*
X114278413Y-83848443D01*
X114278412Y-83848443D01*
X114076243Y-83782754D01*
X114076241Y-83782753D01*
X114076240Y-83782753D01*
X113879274Y-83751557D01*
X113866287Y-83749500D01*
X113653713Y-83749500D01*
X113640726Y-83751557D01*
X113443760Y-83782753D01*
X113443757Y-83782754D01*
X113275843Y-83837313D01*
X113241585Y-83848444D01*
X113052179Y-83944951D01*
X112880213Y-84069890D01*
X112729890Y-84220213D01*
X112604949Y-84392182D01*
X112600484Y-84400946D01*
X112552509Y-84451742D01*
X112484688Y-84468536D01*
X112418553Y-84445998D01*
X112379516Y-84400946D01*
X112375050Y-84392182D01*
X112250109Y-84220213D01*
X112099786Y-84069890D01*
X111927820Y-83944951D01*
X111738414Y-83848444D01*
X111738413Y-83848443D01*
X111738412Y-83848443D01*
X111536243Y-83782754D01*
X111536241Y-83782753D01*
X111536240Y-83782753D01*
X111339274Y-83751557D01*
X111326287Y-83749500D01*
X111113713Y-83749500D01*
X111100726Y-83751557D01*
X110903760Y-83782753D01*
X110903757Y-83782754D01*
X110735843Y-83837313D01*
X110701585Y-83848444D01*
X110512179Y-83944951D01*
X110340213Y-84069890D01*
X110189890Y-84220213D01*
X110064951Y-84392179D01*
X109968444Y-84581585D01*
X109902753Y-84783760D01*
X109879003Y-84933713D01*
X109869500Y-84993713D01*
X109869500Y-85206287D01*
X109873298Y-85230264D01*
X109899185Y-85393713D01*
X109902754Y-85416243D01*
X109964503Y-85606287D01*
X109968444Y-85618414D01*
X110064951Y-85807820D01*
X110189890Y-85979786D01*
X110340213Y-86130109D01*
X110512179Y-86255048D01*
X110512181Y-86255049D01*
X110512184Y-86255051D01*
X110701588Y-86351557D01*
X110903757Y-86417246D01*
X111113713Y-86450500D01*
X111113714Y-86450500D01*
X111326286Y-86450500D01*
X111326287Y-86450500D01*
X111536243Y-86417246D01*
X111738412Y-86351557D01*
X111927816Y-86255051D01*
X111957494Y-86233489D01*
X112099786Y-86130109D01*
X112099788Y-86130106D01*
X112099792Y-86130104D01*
X112250104Y-85979792D01*
X112250106Y-85979788D01*
X112250109Y-85979786D01*
X112375048Y-85807820D01*
X112375047Y-85807820D01*
X112375051Y-85807816D01*
X112379514Y-85799054D01*
X112427488Y-85748259D01*
X112495308Y-85731463D01*
X112561444Y-85753999D01*
X112600486Y-85799056D01*
X112604951Y-85807820D01*
X112729890Y-85979786D01*
X112880213Y-86130109D01*
X113052179Y-86255048D01*
X113052181Y-86255049D01*
X113052184Y-86255051D01*
X113241588Y-86351557D01*
X113443757Y-86417246D01*
X113653713Y-86450500D01*
X113653714Y-86450500D01*
X113866286Y-86450500D01*
X113866287Y-86450500D01*
X114076243Y-86417246D01*
X114278412Y-86351557D01*
X114467816Y-86255051D01*
X114497494Y-86233489D01*
X114639786Y-86130109D01*
X114639788Y-86130106D01*
X114639792Y-86130104D01*
X114790104Y-85979792D01*
X114790106Y-85979788D01*
X114790109Y-85979786D01*
X114915048Y-85807820D01*
X114915047Y-85807820D01*
X114915051Y-85807816D01*
X114919514Y-85799054D01*
X114967488Y-85748259D01*
X115035308Y-85731463D01*
X115101444Y-85753999D01*
X115140486Y-85799056D01*
X115144951Y-85807820D01*
X115269890Y-85979786D01*
X115420213Y-86130109D01*
X115592179Y-86255048D01*
X115592181Y-86255049D01*
X115592184Y-86255051D01*
X115781588Y-86351557D01*
X115983757Y-86417246D01*
X116193713Y-86450500D01*
X116193714Y-86450500D01*
X116406286Y-86450500D01*
X116406287Y-86450500D01*
X116616243Y-86417246D01*
X116818412Y-86351557D01*
X117007816Y-86255051D01*
X117037494Y-86233489D01*
X117179786Y-86130109D01*
X117179788Y-86130106D01*
X117179792Y-86130104D01*
X117330104Y-85979792D01*
X117330106Y-85979788D01*
X117330109Y-85979786D01*
X117455048Y-85807820D01*
X117455047Y-85807820D01*
X117455051Y-85807816D01*
X117459514Y-85799054D01*
X117507488Y-85748259D01*
X117575308Y-85731463D01*
X117641444Y-85753999D01*
X117680486Y-85799056D01*
X117684951Y-85807820D01*
X117809890Y-85979786D01*
X117960213Y-86130109D01*
X118132179Y-86255048D01*
X118132181Y-86255049D01*
X118132184Y-86255051D01*
X118321588Y-86351557D01*
X118523757Y-86417246D01*
X118733713Y-86450500D01*
X118733714Y-86450500D01*
X118946286Y-86450500D01*
X118946287Y-86450500D01*
X119156243Y-86417246D01*
X119358412Y-86351557D01*
X119547816Y-86255051D01*
X119577494Y-86233489D01*
X119719786Y-86130109D01*
X119719788Y-86130106D01*
X119719792Y-86130104D01*
X119870104Y-85979792D01*
X119870106Y-85979788D01*
X119870109Y-85979786D01*
X119995048Y-85807820D01*
X119995047Y-85807820D01*
X119995051Y-85807816D01*
X119999514Y-85799054D01*
X120047488Y-85748259D01*
X120115308Y-85731463D01*
X120181444Y-85753999D01*
X120220486Y-85799056D01*
X120224951Y-85807820D01*
X120349890Y-85979786D01*
X120500213Y-86130109D01*
X120672179Y-86255048D01*
X120672181Y-86255049D01*
X120672184Y-86255051D01*
X120861588Y-86351557D01*
X121063757Y-86417246D01*
X121273713Y-86450500D01*
X121273714Y-86450500D01*
X121486286Y-86450500D01*
X121486287Y-86450500D01*
X121696243Y-86417246D01*
X121898412Y-86351557D01*
X122087816Y-86255051D01*
X122117494Y-86233489D01*
X122259786Y-86130109D01*
X122259788Y-86130106D01*
X122259792Y-86130104D01*
X122410104Y-85979792D01*
X122410106Y-85979788D01*
X122410109Y-85979786D01*
X122535048Y-85807820D01*
X122535047Y-85807820D01*
X122535051Y-85807816D01*
X122539514Y-85799054D01*
X122587488Y-85748259D01*
X122655308Y-85731463D01*
X122721444Y-85753999D01*
X122760486Y-85799056D01*
X122764951Y-85807820D01*
X122889890Y-85979786D01*
X123040213Y-86130109D01*
X123212182Y-86255050D01*
X123279580Y-86289391D01*
X123330377Y-86337365D01*
X123347172Y-86405186D01*
X123324635Y-86471321D01*
X123310967Y-86487557D01*
X112960345Y-96838181D01*
X112899022Y-96871666D01*
X112872664Y-96874500D01*
X110542350Y-96874500D01*
X110475311Y-96854815D01*
X110473459Y-96853602D01*
X110379184Y-96790609D01*
X110379172Y-96790602D01*
X110233501Y-96730264D01*
X110233489Y-96730261D01*
X110078845Y-96699500D01*
X110078842Y-96699500D01*
X109921158Y-96699500D01*
X109921155Y-96699500D01*
X109766510Y-96730261D01*
X109766498Y-96730264D01*
X109620827Y-96790602D01*
X109620814Y-96790609D01*
X109489711Y-96878210D01*
X109489707Y-96878213D01*
X109378213Y-96989707D01*
X109378210Y-96989711D01*
X109290609Y-97120814D01*
X109290602Y-97120827D01*
X109230264Y-97266498D01*
X109230261Y-97266510D01*
X109199500Y-97421153D01*
X109199500Y-97578846D01*
X109230261Y-97733489D01*
X109230264Y-97733501D01*
X109290602Y-97879172D01*
X109290609Y-97879185D01*
X109378210Y-98010288D01*
X109378213Y-98010292D01*
X109489707Y-98121786D01*
X109489711Y-98121789D01*
X109620814Y-98209390D01*
X109620827Y-98209397D01*
X109766498Y-98269735D01*
X109766503Y-98269737D01*
X109921153Y-98300499D01*
X109921156Y-98300500D01*
X109921158Y-98300500D01*
X110078844Y-98300500D01*
X110078845Y-98300499D01*
X110233497Y-98269737D01*
X110379179Y-98209394D01*
X110473459Y-98146398D01*
X110540136Y-98125520D01*
X110542350Y-98125500D01*
X113244723Y-98125500D01*
X113305145Y-98113481D01*
X113365568Y-98101463D01*
X113398908Y-98087652D01*
X113479402Y-98054312D01*
X113545285Y-98010289D01*
X113581849Y-97985858D01*
X113668974Y-97898733D01*
X113668975Y-97898731D01*
X113676041Y-97891665D01*
X113676044Y-97891661D01*
X125422725Y-86144979D01*
X125484046Y-86111496D01*
X125553738Y-86116480D01*
X125583289Y-86132343D01*
X125722506Y-86233489D01*
X125752184Y-86255051D01*
X125941588Y-86351557D01*
X126143757Y-86417246D01*
X126353713Y-86450500D01*
X126353714Y-86450500D01*
X126566286Y-86450500D01*
X126566287Y-86450500D01*
X126776243Y-86417246D01*
X126978412Y-86351557D01*
X127167816Y-86255051D01*
X127197494Y-86233489D01*
X127339786Y-86130109D01*
X127339788Y-86130106D01*
X127339792Y-86130104D01*
X127490104Y-85979792D01*
X127490106Y-85979788D01*
X127490109Y-85979786D01*
X127615048Y-85807820D01*
X127615047Y-85807820D01*
X127615051Y-85807816D01*
X127619514Y-85799054D01*
X127667488Y-85748259D01*
X127735308Y-85731463D01*
X127801444Y-85753999D01*
X127840486Y-85799056D01*
X127844951Y-85807820D01*
X127969890Y-85979786D01*
X128120213Y-86130109D01*
X128292179Y-86255048D01*
X128292181Y-86255049D01*
X128292184Y-86255051D01*
X128481588Y-86351557D01*
X128683757Y-86417246D01*
X128893713Y-86450500D01*
X128893714Y-86450500D01*
X129106286Y-86450500D01*
X129106287Y-86450500D01*
X129316243Y-86417246D01*
X129331840Y-86412177D01*
X129401679Y-86410183D01*
X129457838Y-86442428D01*
X137501263Y-94485855D01*
X137501267Y-94485858D01*
X137603710Y-94554309D01*
X137603711Y-94554309D01*
X137603715Y-94554312D01*
X137670397Y-94581932D01*
X137717548Y-94601463D01*
X137737597Y-94605451D01*
X137802624Y-94618385D01*
X137838392Y-94625501D01*
X137838394Y-94625501D01*
X137967721Y-94625501D01*
X137967741Y-94625500D01*
X142459146Y-94625500D01*
X142526185Y-94645185D01*
X142571940Y-94697989D01*
X142581884Y-94767147D01*
X142552859Y-94830703D01*
X142528037Y-94852602D01*
X142489711Y-94878210D01*
X142489707Y-94878213D01*
X142378213Y-94989707D01*
X142378210Y-94989711D01*
X142290609Y-95120814D01*
X142290602Y-95120827D01*
X142230264Y-95266498D01*
X142230261Y-95266510D01*
X142199500Y-95421153D01*
X142199500Y-95578846D01*
X142230261Y-95733489D01*
X142230264Y-95733501D01*
X142290602Y-95879172D01*
X142290609Y-95879185D01*
X142378602Y-96010874D01*
X142399480Y-96077551D01*
X142399500Y-96079765D01*
X142399500Y-96999902D01*
X142379815Y-97066941D01*
X142363181Y-97087583D01*
X133114682Y-106336081D01*
X133053359Y-106369566D01*
X132988683Y-106366331D01*
X132960390Y-106357138D01*
X132754324Y-106324500D01*
X132754319Y-106324500D01*
X132545681Y-106324500D01*
X132545676Y-106324500D01*
X132339610Y-106357137D01*
X132141179Y-106421612D01*
X131955285Y-106516330D01*
X131786493Y-106638966D01*
X131638966Y-106786493D01*
X131516330Y-106955285D01*
X131421612Y-107141179D01*
X131357137Y-107339610D01*
X131324500Y-107545675D01*
X131324500Y-107754324D01*
X131357137Y-107960389D01*
X131421612Y-108158820D01*
X131516330Y-108344714D01*
X131638965Y-108513505D01*
X131786495Y-108661035D01*
X131955286Y-108783670D01*
X132002271Y-108807610D01*
X132006010Y-108809515D01*
X132056806Y-108857490D01*
X132073601Y-108925310D01*
X132051064Y-108991445D01*
X132006010Y-109030485D01*
X131955285Y-109056330D01*
X131786493Y-109178966D01*
X131638966Y-109326493D01*
X131516330Y-109495285D01*
X131421612Y-109681179D01*
X131357137Y-109879610D01*
X131324500Y-110085675D01*
X131324500Y-110294324D01*
X131357137Y-110500389D01*
X131421612Y-110698820D01*
X131503562Y-110859655D01*
X131516330Y-110884714D01*
X131638965Y-111053505D01*
X131786495Y-111201035D01*
X131955286Y-111323670D01*
X132002271Y-111347610D01*
X132006010Y-111349515D01*
X132056806Y-111397490D01*
X132073601Y-111465310D01*
X132051064Y-111531445D01*
X132006010Y-111570485D01*
X131955285Y-111596330D01*
X131786493Y-111718966D01*
X131638966Y-111866493D01*
X131516330Y-112035285D01*
X131421612Y-112221179D01*
X131357137Y-112419610D01*
X131324500Y-112625675D01*
X131324500Y-112834324D01*
X131357137Y-113040389D01*
X131421612Y-113238820D01*
X131500217Y-113393090D01*
X131516330Y-113424714D01*
X131638965Y-113593505D01*
X131786495Y-113741035D01*
X131955286Y-113863670D01*
X132002271Y-113887610D01*
X132006010Y-113889515D01*
X132056806Y-113937490D01*
X132073601Y-114005310D01*
X132051064Y-114071445D01*
X132006010Y-114110485D01*
X131955285Y-114136330D01*
X131786493Y-114258966D01*
X131638966Y-114406493D01*
X131516330Y-114575285D01*
X131421612Y-114761179D01*
X131357137Y-114959610D01*
X131324500Y-115165675D01*
X131324500Y-115374324D01*
X131357137Y-115580389D01*
X131421612Y-115778820D01*
X131484990Y-115903205D01*
X131497886Y-115971875D01*
X131471610Y-116036615D01*
X131414503Y-116076872D01*
X131374505Y-116083500D01*
X123125495Y-116083500D01*
X123058456Y-116063815D01*
X123012701Y-116011011D01*
X123002757Y-115941853D01*
X123015010Y-115903205D01*
X123078387Y-115778820D01*
X123078387Y-115778819D01*
X123078389Y-115778816D01*
X123142862Y-115580389D01*
X123175500Y-115374324D01*
X123175500Y-115165675D01*
X123142862Y-114959610D01*
X123078387Y-114761179D01*
X122983669Y-114575285D01*
X122861035Y-114406495D01*
X122713505Y-114258965D01*
X122657241Y-114218086D01*
X122544712Y-114136328D01*
X122493990Y-114110485D01*
X122443194Y-114062511D01*
X122426398Y-113994690D01*
X122448935Y-113928555D01*
X122493990Y-113889515D01*
X122544712Y-113863671D01*
X122544711Y-113863671D01*
X122544714Y-113863670D01*
X122713505Y-113741035D01*
X122861035Y-113593505D01*
X122983670Y-113424714D01*
X123078389Y-113238816D01*
X123142862Y-113040389D01*
X123175500Y-112834324D01*
X123175500Y-112625675D01*
X123142862Y-112419610D01*
X123099063Y-112284812D01*
X123078389Y-112221184D01*
X123078387Y-112221181D01*
X123078387Y-112221179D01*
X123000673Y-112068657D01*
X122983670Y-112035286D01*
X122861035Y-111866495D01*
X122713505Y-111718965D01*
X122657241Y-111678086D01*
X122544712Y-111596328D01*
X122493990Y-111570485D01*
X122443194Y-111522511D01*
X122426398Y-111454690D01*
X122448935Y-111388555D01*
X122493990Y-111349515D01*
X122544712Y-111323671D01*
X122544711Y-111323671D01*
X122544714Y-111323670D01*
X122713505Y-111201035D01*
X122861035Y-111053505D01*
X122983670Y-110884714D01*
X123078389Y-110698816D01*
X123142862Y-110500389D01*
X123175500Y-110294324D01*
X123175500Y-110085675D01*
X123142862Y-109879610D01*
X123089437Y-109715186D01*
X123078389Y-109681184D01*
X123078387Y-109681181D01*
X123078387Y-109681179D01*
X123026795Y-109579924D01*
X122983670Y-109495286D01*
X122861035Y-109326495D01*
X122713505Y-109178965D01*
X122544714Y-109056330D01*
X122493990Y-109030485D01*
X122358820Y-108961612D01*
X122160389Y-108897137D01*
X121954324Y-108864500D01*
X121954319Y-108864500D01*
X121745681Y-108864500D01*
X121745676Y-108864500D01*
X121539610Y-108897137D01*
X121341179Y-108961612D01*
X121155285Y-109056330D01*
X120986493Y-109178966D01*
X120838966Y-109326493D01*
X120716330Y-109495285D01*
X120621612Y-109681179D01*
X120557137Y-109879610D01*
X120524500Y-110085675D01*
X120524500Y-110294324D01*
X120557137Y-110500389D01*
X120621612Y-110698820D01*
X120703562Y-110859655D01*
X120716330Y-110884714D01*
X120838965Y-111053505D01*
X120986495Y-111201035D01*
X121155286Y-111323670D01*
X121202271Y-111347610D01*
X121206010Y-111349515D01*
X121256806Y-111397490D01*
X121273601Y-111465310D01*
X121251064Y-111531445D01*
X121206010Y-111570485D01*
X121155285Y-111596330D01*
X120986493Y-111718966D01*
X120838966Y-111866493D01*
X120716330Y-112035285D01*
X120621612Y-112221179D01*
X120557137Y-112419610D01*
X120524500Y-112625675D01*
X120524500Y-112834324D01*
X120557137Y-113040389D01*
X120621612Y-113238820D01*
X120700217Y-113393090D01*
X120716330Y-113424714D01*
X120838965Y-113593505D01*
X120986495Y-113741035D01*
X121155286Y-113863670D01*
X121202271Y-113887610D01*
X121206010Y-113889515D01*
X121256806Y-113937490D01*
X121273601Y-114005310D01*
X121251064Y-114071445D01*
X121206010Y-114110485D01*
X121155285Y-114136330D01*
X120986493Y-114258966D01*
X120838966Y-114406493D01*
X120716330Y-114575285D01*
X120621612Y-114761179D01*
X120557137Y-114959610D01*
X120524500Y-115165675D01*
X120524500Y-115374324D01*
X120557137Y-115580389D01*
X120621612Y-115778820D01*
X120684990Y-115903205D01*
X120697886Y-115971875D01*
X120671610Y-116036615D01*
X120614503Y-116076872D01*
X120574505Y-116083500D01*
X110425495Y-116083500D01*
X110358456Y-116063815D01*
X110312701Y-116011011D01*
X110302757Y-115941853D01*
X110315010Y-115903205D01*
X110378387Y-115778820D01*
X110378387Y-115778819D01*
X110378389Y-115778816D01*
X110442862Y-115580389D01*
X110475500Y-115374324D01*
X110475500Y-115165675D01*
X110442862Y-114959610D01*
X110378387Y-114761179D01*
X110283669Y-114575285D01*
X110161035Y-114406495D01*
X110013505Y-114258965D01*
X109957241Y-114218086D01*
X109844712Y-114136328D01*
X109793990Y-114110485D01*
X109743194Y-114062511D01*
X109726398Y-113994690D01*
X109748935Y-113928555D01*
X109793990Y-113889515D01*
X109844712Y-113863671D01*
X109844711Y-113863671D01*
X109844714Y-113863670D01*
X110013505Y-113741035D01*
X110161035Y-113593505D01*
X110283670Y-113424714D01*
X110378389Y-113238816D01*
X110442862Y-113040389D01*
X110475500Y-112834324D01*
X110475500Y-112625675D01*
X110442862Y-112419610D01*
X110399063Y-112284812D01*
X110378389Y-112221184D01*
X110378387Y-112221181D01*
X110378387Y-112221179D01*
X110300673Y-112068657D01*
X110283670Y-112035286D01*
X110161035Y-111866495D01*
X110013505Y-111718965D01*
X109957241Y-111678086D01*
X109844712Y-111596328D01*
X109793990Y-111570485D01*
X109743194Y-111522511D01*
X109726398Y-111454690D01*
X109748935Y-111388555D01*
X109793990Y-111349515D01*
X109844712Y-111323671D01*
X109844711Y-111323671D01*
X109844714Y-111323670D01*
X110013505Y-111201035D01*
X110161035Y-111053505D01*
X110283670Y-110884714D01*
X110378389Y-110698816D01*
X110442862Y-110500389D01*
X110475500Y-110294324D01*
X110475500Y-110085675D01*
X110442862Y-109879610D01*
X110389437Y-109715186D01*
X110378389Y-109681184D01*
X110378387Y-109681181D01*
X110378387Y-109681179D01*
X110326795Y-109579924D01*
X110283670Y-109495286D01*
X110161035Y-109326495D01*
X110013505Y-109178965D01*
X109957241Y-109138086D01*
X109844712Y-109056328D01*
X109793990Y-109030485D01*
X109743194Y-108982511D01*
X109726398Y-108914690D01*
X109748935Y-108848555D01*
X109793990Y-108809515D01*
X109844712Y-108783671D01*
X109844711Y-108783671D01*
X109844714Y-108783670D01*
X110013505Y-108661035D01*
X110161035Y-108513505D01*
X110283670Y-108344714D01*
X110378389Y-108158816D01*
X110442862Y-107960389D01*
X110469504Y-107792179D01*
X110475500Y-107754324D01*
X110475500Y-107545675D01*
X110442862Y-107339610D01*
X110391896Y-107182754D01*
X110378389Y-107141184D01*
X110378387Y-107141181D01*
X110378387Y-107141179D01*
X110312358Y-107011590D01*
X110283670Y-106955286D01*
X110161035Y-106786495D01*
X110013505Y-106638965D01*
X109844714Y-106516330D01*
X109658820Y-106421612D01*
X109460389Y-106357137D01*
X109254324Y-106324500D01*
X109254319Y-106324500D01*
X109045681Y-106324500D01*
X109045676Y-106324500D01*
X108839610Y-106357138D01*
X108811313Y-106366332D01*
X108796100Y-106366766D01*
X108781843Y-106372084D01*
X108761888Y-106367743D01*
X108741472Y-106368326D01*
X108727385Y-106360237D01*
X108713570Y-106357232D01*
X108685316Y-106336081D01*
X108660819Y-106311584D01*
X108627334Y-106250261D01*
X108624500Y-106223903D01*
X108624500Y-105005675D01*
X120524500Y-105005675D01*
X120524500Y-105214324D01*
X120557137Y-105420389D01*
X120621612Y-105618820D01*
X120716330Y-105804714D01*
X120838965Y-105973505D01*
X120986495Y-106121035D01*
X121155286Y-106243670D01*
X121168222Y-106250261D01*
X121341179Y-106338387D01*
X121341181Y-106338387D01*
X121341184Y-106338389D01*
X121437137Y-106369566D01*
X121539610Y-106402862D01*
X121745676Y-106435500D01*
X121745681Y-106435500D01*
X121954324Y-106435500D01*
X122160389Y-106402862D01*
X122358816Y-106338389D01*
X122544714Y-106243670D01*
X122713505Y-106121035D01*
X122861035Y-105973505D01*
X122983670Y-105804714D01*
X123078389Y-105618816D01*
X123142862Y-105420389D01*
X123175500Y-105214324D01*
X123175500Y-105005675D01*
X123142862Y-104799610D01*
X123078387Y-104601179D01*
X122983669Y-104415285D01*
X122861035Y-104246495D01*
X122713505Y-104098965D01*
X122544714Y-103976330D01*
X122358820Y-103881612D01*
X122160389Y-103817137D01*
X121954324Y-103784500D01*
X121954319Y-103784500D01*
X121745681Y-103784500D01*
X121745676Y-103784500D01*
X121539610Y-103817137D01*
X121341179Y-103881612D01*
X121155285Y-103976330D01*
X120986493Y-104098966D01*
X120838966Y-104246493D01*
X120716330Y-104415285D01*
X120621612Y-104601179D01*
X120557137Y-104799610D01*
X120524500Y-105005675D01*
X108624500Y-105005675D01*
X108624500Y-95043846D01*
X108644185Y-94976807D01*
X108645361Y-94975010D01*
X108709394Y-94879179D01*
X108769737Y-94733497D01*
X108800500Y-94578842D01*
X108800500Y-94421158D01*
X108800500Y-94421155D01*
X108800499Y-94421153D01*
X108769738Y-94266510D01*
X108769737Y-94266503D01*
X108769735Y-94266498D01*
X108709397Y-94120827D01*
X108709390Y-94120814D01*
X108621789Y-93989711D01*
X108621786Y-93989707D01*
X108510292Y-93878213D01*
X108510288Y-93878210D01*
X108379185Y-93790609D01*
X108379172Y-93790602D01*
X108233501Y-93730264D01*
X108233489Y-93730261D01*
X108078845Y-93699500D01*
X108078842Y-93699500D01*
X107921158Y-93699500D01*
X107921155Y-93699500D01*
X107766510Y-93730261D01*
X107766498Y-93730264D01*
X107620827Y-93790602D01*
X107620814Y-93790609D01*
X107489711Y-93878210D01*
X107489707Y-93878213D01*
X107378213Y-93989707D01*
X107378210Y-93989711D01*
X107290609Y-94120814D01*
X107290602Y-94120827D01*
X107230264Y-94266498D01*
X107230261Y-94266510D01*
X107199500Y-94421153D01*
X107199500Y-94578846D01*
X107230261Y-94733489D01*
X107230264Y-94733501D01*
X107290602Y-94879172D01*
X107290609Y-94879185D01*
X107364461Y-94989711D01*
X107378211Y-95010289D01*
X107387179Y-95019257D01*
X107420665Y-95080577D01*
X107423500Y-95106940D01*
X107423500Y-106437330D01*
X107423499Y-106437348D01*
X107423499Y-106603054D01*
X107423498Y-106603054D01*
X107423499Y-106603057D01*
X107464423Y-106755785D01*
X107464424Y-106755787D01*
X107464423Y-106755787D01*
X107482151Y-106786491D01*
X107482153Y-106786493D01*
X107482154Y-106786495D01*
X107523038Y-106857309D01*
X107543479Y-106892715D01*
X107662349Y-107011585D01*
X107662355Y-107011590D01*
X107836081Y-107185316D01*
X107869566Y-107246639D01*
X107866332Y-107311313D01*
X107857138Y-107339610D01*
X107824500Y-107545675D01*
X107824500Y-107754324D01*
X107857137Y-107960389D01*
X107921612Y-108158820D01*
X108016330Y-108344714D01*
X108138965Y-108513505D01*
X108286495Y-108661035D01*
X108455286Y-108783670D01*
X108502271Y-108807610D01*
X108506010Y-108809515D01*
X108556806Y-108857490D01*
X108573601Y-108925310D01*
X108551064Y-108991445D01*
X108506010Y-109030485D01*
X108455285Y-109056330D01*
X108286493Y-109178966D01*
X108138966Y-109326493D01*
X108016330Y-109495285D01*
X107921612Y-109681179D01*
X107857137Y-109879610D01*
X107824500Y-110085675D01*
X107824500Y-110294324D01*
X107857137Y-110500389D01*
X107921612Y-110698820D01*
X108003562Y-110859655D01*
X108016330Y-110884714D01*
X108138965Y-111053505D01*
X108286495Y-111201035D01*
X108455286Y-111323670D01*
X108502271Y-111347610D01*
X108506010Y-111349515D01*
X108556806Y-111397490D01*
X108573601Y-111465310D01*
X108551064Y-111531445D01*
X108506010Y-111570485D01*
X108455285Y-111596330D01*
X108286493Y-111718966D01*
X108138966Y-111866493D01*
X108016330Y-112035285D01*
X107921612Y-112221179D01*
X107857137Y-112419610D01*
X107824500Y-112625675D01*
X107824500Y-112834324D01*
X107857137Y-113040389D01*
X107921612Y-113238820D01*
X108000217Y-113393090D01*
X108016330Y-113424714D01*
X108138965Y-113593505D01*
X108286495Y-113741035D01*
X108455286Y-113863670D01*
X108502271Y-113887610D01*
X108506010Y-113889515D01*
X108556806Y-113937490D01*
X108573601Y-114005310D01*
X108551064Y-114071445D01*
X108506010Y-114110485D01*
X108455285Y-114136330D01*
X108286493Y-114258966D01*
X108138966Y-114406493D01*
X108016330Y-114575285D01*
X107921612Y-114761179D01*
X107857137Y-114959610D01*
X107824500Y-115165675D01*
X107824500Y-115374324D01*
X107857137Y-115580389D01*
X107921612Y-115778820D01*
X107984990Y-115903205D01*
X108016330Y-115964714D01*
X108138965Y-116133505D01*
X108286495Y-116281035D01*
X108455286Y-116403670D01*
X108502271Y-116427610D01*
X108506010Y-116429515D01*
X108556806Y-116477490D01*
X108573601Y-116545310D01*
X108551064Y-116611445D01*
X108506010Y-116650485D01*
X108455285Y-116676330D01*
X108286493Y-116798966D01*
X108138966Y-116946493D01*
X108016330Y-117115285D01*
X107921610Y-117301183D01*
X107911052Y-117333679D01*
X107871614Y-117391354D01*
X107807255Y-117418551D01*
X107738409Y-117406635D01*
X107705441Y-117383040D01*
X106661819Y-116339418D01*
X106628334Y-116278095D01*
X106625500Y-116251737D01*
X106625500Y-84810452D01*
X106645185Y-84743413D01*
X106661819Y-84722771D01*
X133162772Y-58221819D01*
X133224095Y-58188334D01*
X133250453Y-58185500D01*
X136727019Y-58185500D01*
X136794058Y-58205185D01*
G37*
%TD.AperFunction*%
%TA.AperFunction,Conductor*%
G36*
X169812539Y-50150185D02*
G01*
X169858294Y-50202989D01*
X169869500Y-50254500D01*
X169869500Y-169745500D01*
X169849815Y-169812539D01*
X169797011Y-169858294D01*
X169745500Y-169869500D01*
X50254500Y-169869500D01*
X50187461Y-169849815D01*
X50141706Y-169797011D01*
X50130500Y-169745500D01*
X50130500Y-164878711D01*
X53149500Y-164878711D01*
X53149500Y-165121288D01*
X53181161Y-165361785D01*
X53243947Y-165596104D01*
X53336773Y-165820205D01*
X53336777Y-165820214D01*
X53358974Y-165858661D01*
X53458064Y-166030289D01*
X53458066Y-166030292D01*
X53458067Y-166030293D01*
X53605733Y-166222736D01*
X53605739Y-166222743D01*
X53777256Y-166394260D01*
X53777263Y-166394266D01*
X53883127Y-166475498D01*
X53969711Y-166541936D01*
X54179788Y-166663224D01*
X54403900Y-166756054D01*
X54638211Y-166818838D01*
X54818586Y-166842584D01*
X54878711Y-166850500D01*
X54878712Y-166850500D01*
X55121289Y-166850500D01*
X55169388Y-166844167D01*
X55361789Y-166818838D01*
X55596100Y-166756054D01*
X55820212Y-166663224D01*
X56030289Y-166541936D01*
X56222738Y-166394265D01*
X56394265Y-166222738D01*
X56541936Y-166030289D01*
X56663224Y-165820212D01*
X56756054Y-165596100D01*
X56818838Y-165361789D01*
X56850500Y-165121288D01*
X56850500Y-164878712D01*
X56825608Y-164689635D01*
X64962000Y-164689635D01*
X64962001Y-166360363D01*
X64962001Y-166360376D01*
X64968408Y-166419983D01*
X65018702Y-166554828D01*
X65018706Y-166554835D01*
X65104952Y-166670044D01*
X65104955Y-166670047D01*
X65220164Y-166756293D01*
X65220171Y-166756297D01*
X65355017Y-166806591D01*
X65355016Y-166806591D01*
X65361944Y-166807335D01*
X65414627Y-166813000D01*
X67085372Y-166812999D01*
X67144983Y-166806591D01*
X67279831Y-166756296D01*
X67395046Y-166670046D01*
X67481296Y-166554831D01*
X67531591Y-166419983D01*
X67532836Y-166408398D01*
X67559570Y-166343850D01*
X67616960Y-166303999D01*
X67686785Y-166301501D01*
X67746876Y-166337151D01*
X67756442Y-166348764D01*
X67767564Y-166364072D01*
X67910925Y-166507433D01*
X67910930Y-166507437D01*
X68053986Y-166611372D01*
X68074941Y-166626597D01*
X68146822Y-166663222D01*
X68255579Y-166718637D01*
X68255582Y-166718638D01*
X68351986Y-166749961D01*
X68448393Y-166781285D01*
X68648632Y-166813000D01*
X68648633Y-166813000D01*
X68851367Y-166813000D01*
X68851368Y-166813000D01*
X69051607Y-166781285D01*
X69244420Y-166718637D01*
X69425059Y-166626597D01*
X69589076Y-166507432D01*
X69732432Y-166364076D01*
X69851597Y-166200059D01*
X69943637Y-166019420D01*
X70006285Y-165826607D01*
X70038000Y-165626368D01*
X70038000Y-165423632D01*
X70006285Y-165223393D01*
X69943637Y-165030580D01*
X69943637Y-165030579D01*
X69912172Y-164968826D01*
X69851597Y-164849941D01*
X69847337Y-164844078D01*
X69841995Y-164836724D01*
X69841994Y-164836722D01*
X69792582Y-164768713D01*
X81149500Y-164768713D01*
X81149500Y-165231286D01*
X81179964Y-165423632D01*
X81182754Y-165441243D01*
X81233070Y-165596100D01*
X81248444Y-165643414D01*
X81344951Y-165832820D01*
X81469890Y-166004786D01*
X81620213Y-166155109D01*
X81792179Y-166280048D01*
X81792181Y-166280049D01*
X81792184Y-166280051D01*
X81981588Y-166376557D01*
X82183757Y-166442246D01*
X82393713Y-166475500D01*
X82393714Y-166475500D01*
X82606286Y-166475500D01*
X82606287Y-166475500D01*
X82816243Y-166442246D01*
X83018412Y-166376557D01*
X83207816Y-166280051D01*
X83229789Y-166264086D01*
X83379786Y-166155109D01*
X83379788Y-166155106D01*
X83379792Y-166155104D01*
X83530104Y-166004792D01*
X83649683Y-165840204D01*
X83705011Y-165797540D01*
X83774624Y-165791561D01*
X83836420Y-165824166D01*
X83850313Y-165840199D01*
X83939462Y-165962903D01*
X83969896Y-166004792D01*
X84120213Y-166155109D01*
X84292179Y-166280048D01*
X84292181Y-166280049D01*
X84292184Y-166280051D01*
X84481588Y-166376557D01*
X84683757Y-166442246D01*
X84893713Y-166475500D01*
X84893714Y-166475500D01*
X85106286Y-166475500D01*
X85106287Y-166475500D01*
X85316243Y-166442246D01*
X85518412Y-166376557D01*
X85707816Y-166280051D01*
X85729789Y-166264086D01*
X85879786Y-166155109D01*
X85879788Y-166155106D01*
X85879792Y-166155104D01*
X86030104Y-166004792D01*
X86149683Y-165840204D01*
X86205011Y-165797540D01*
X86274624Y-165791561D01*
X86336420Y-165824166D01*
X86350313Y-165840199D01*
X86439462Y-165962903D01*
X86469896Y-166004792D01*
X86620213Y-166155109D01*
X86792179Y-166280048D01*
X86792181Y-166280049D01*
X86792184Y-166280051D01*
X86981588Y-166376557D01*
X87183757Y-166442246D01*
X87393713Y-166475500D01*
X87393714Y-166475500D01*
X87606286Y-166475500D01*
X87606287Y-166475500D01*
X87816243Y-166442246D01*
X88018412Y-166376557D01*
X88207816Y-166280051D01*
X88379792Y-166155104D01*
X88518604Y-166016291D01*
X88579923Y-165982809D01*
X88649615Y-165987793D01*
X88705549Y-166029664D01*
X88711821Y-166038878D01*
X88715185Y-166044333D01*
X88715186Y-166044334D01*
X88807288Y-166193656D01*
X88931344Y-166317712D01*
X89080666Y-166409814D01*
X89247203Y-166464999D01*
X89349991Y-166475500D01*
X90650008Y-166475499D01*
X90752797Y-166464999D01*
X90919334Y-166409814D01*
X91068656Y-166317712D01*
X91192712Y-166193656D01*
X91284814Y-166044334D01*
X91339999Y-165877797D01*
X91350500Y-165775009D01*
X91350499Y-164768713D01*
X103649500Y-164768713D01*
X103649500Y-165231286D01*
X103679964Y-165423632D01*
X103682754Y-165441243D01*
X103733070Y-165596100D01*
X103748444Y-165643414D01*
X103844951Y-165832820D01*
X103969890Y-166004786D01*
X104120213Y-166155109D01*
X104292179Y-166280048D01*
X104292181Y-166280049D01*
X104292184Y-166280051D01*
X104481588Y-166376557D01*
X104683757Y-166442246D01*
X104893713Y-166475500D01*
X104893714Y-166475500D01*
X105106286Y-166475500D01*
X105106287Y-166475500D01*
X105316243Y-166442246D01*
X105518412Y-166376557D01*
X105707816Y-166280051D01*
X105729789Y-166264086D01*
X105879786Y-166155109D01*
X105879788Y-166155106D01*
X105879792Y-166155104D01*
X106030104Y-166004792D01*
X106149683Y-165840204D01*
X106205011Y-165797540D01*
X106274624Y-165791561D01*
X106336420Y-165824166D01*
X106350313Y-165840199D01*
X106439462Y-165962903D01*
X106469896Y-166004792D01*
X106620213Y-166155109D01*
X106792179Y-166280048D01*
X106792181Y-166280049D01*
X106792184Y-166280051D01*
X106981588Y-166376557D01*
X107183757Y-166442246D01*
X107393713Y-166475500D01*
X107393714Y-166475500D01*
X107606286Y-166475500D01*
X107606287Y-166475500D01*
X107816243Y-166442246D01*
X108018412Y-166376557D01*
X108207816Y-166280051D01*
X108229789Y-166264086D01*
X108379786Y-166155109D01*
X108379788Y-166155106D01*
X108379792Y-166155104D01*
X108530104Y-166004792D01*
X108649683Y-165840204D01*
X108705011Y-165797540D01*
X108774624Y-165791561D01*
X108836420Y-165824166D01*
X108850313Y-165840199D01*
X108939462Y-165962903D01*
X108969896Y-166004792D01*
X109120213Y-166155109D01*
X109292179Y-166280048D01*
X109292181Y-166280049D01*
X109292184Y-166280051D01*
X109481588Y-166376557D01*
X109683757Y-166442246D01*
X109893713Y-166475500D01*
X109893714Y-166475500D01*
X110106286Y-166475500D01*
X110106287Y-166475500D01*
X110316243Y-166442246D01*
X110518412Y-166376557D01*
X110707816Y-166280051D01*
X110879792Y-166155104D01*
X111018604Y-166016291D01*
X111079923Y-165982809D01*
X111149615Y-165987793D01*
X111205549Y-166029664D01*
X111211821Y-166038878D01*
X111215185Y-166044333D01*
X111215186Y-166044334D01*
X111307288Y-166193656D01*
X111431344Y-166317712D01*
X111580666Y-166409814D01*
X111747203Y-166464999D01*
X111849991Y-166475500D01*
X113150008Y-166475499D01*
X113252797Y-166464999D01*
X113419334Y-166409814D01*
X113568656Y-166317712D01*
X113692712Y-166193656D01*
X113784814Y-166044334D01*
X113839999Y-165877797D01*
X113850500Y-165775009D01*
X113850499Y-164768713D01*
X121149500Y-164768713D01*
X121149500Y-165231286D01*
X121179964Y-165423632D01*
X121182754Y-165441243D01*
X121233070Y-165596100D01*
X121248444Y-165643414D01*
X121344951Y-165832820D01*
X121469890Y-166004786D01*
X121620213Y-166155109D01*
X121792179Y-166280048D01*
X121792181Y-166280049D01*
X121792184Y-166280051D01*
X121981588Y-166376557D01*
X122183757Y-166442246D01*
X122393713Y-166475500D01*
X122393714Y-166475500D01*
X122606286Y-166475500D01*
X122606287Y-166475500D01*
X122816243Y-166442246D01*
X123018412Y-166376557D01*
X123207816Y-166280051D01*
X123229789Y-166264086D01*
X123379786Y-166155109D01*
X123379788Y-166155106D01*
X123379792Y-166155104D01*
X123530104Y-166004792D01*
X123649683Y-165840204D01*
X123705011Y-165797540D01*
X123774624Y-165791561D01*
X123836420Y-165824166D01*
X123850313Y-165840199D01*
X123939462Y-165962903D01*
X123969896Y-166004792D01*
X124120213Y-166155109D01*
X124292179Y-166280048D01*
X124292181Y-166280049D01*
X124292184Y-166280051D01*
X124481588Y-166376557D01*
X124683757Y-166442246D01*
X124893713Y-166475500D01*
X124893714Y-166475500D01*
X125106286Y-166475500D01*
X125106287Y-166475500D01*
X125316243Y-166442246D01*
X125518412Y-166376557D01*
X125707816Y-166280051D01*
X125729789Y-166264086D01*
X125879786Y-166155109D01*
X125879788Y-166155106D01*
X125879792Y-166155104D01*
X126030104Y-166004792D01*
X126149683Y-165840204D01*
X126205011Y-165797540D01*
X126274624Y-165791561D01*
X126336420Y-165824166D01*
X126350313Y-165840199D01*
X126439462Y-165962903D01*
X126469896Y-166004792D01*
X126620213Y-166155109D01*
X126792179Y-166280048D01*
X126792181Y-166280049D01*
X126792184Y-166280051D01*
X126981588Y-166376557D01*
X127183757Y-166442246D01*
X127393713Y-166475500D01*
X127393714Y-166475500D01*
X127606286Y-166475500D01*
X127606287Y-166475500D01*
X127816243Y-166442246D01*
X128018412Y-166376557D01*
X128207816Y-166280051D01*
X128379792Y-166155104D01*
X128518604Y-166016291D01*
X128579923Y-165982809D01*
X128649615Y-165987793D01*
X128705549Y-166029664D01*
X128711821Y-166038878D01*
X128715185Y-166044333D01*
X128715186Y-166044334D01*
X128807288Y-166193656D01*
X128931344Y-166317712D01*
X129080666Y-166409814D01*
X129247203Y-166464999D01*
X129349991Y-166475500D01*
X130650008Y-166475499D01*
X130752797Y-166464999D01*
X130919334Y-166409814D01*
X131068656Y-166317712D01*
X131192712Y-166193656D01*
X131284814Y-166044334D01*
X131339999Y-165877797D01*
X131350500Y-165775009D01*
X131350499Y-164768713D01*
X142649500Y-164768713D01*
X142649500Y-165231286D01*
X142679964Y-165423632D01*
X142682754Y-165441243D01*
X142733070Y-165596100D01*
X142748444Y-165643414D01*
X142844951Y-165832820D01*
X142969890Y-166004786D01*
X143120213Y-166155109D01*
X143292179Y-166280048D01*
X143292181Y-166280049D01*
X143292184Y-166280051D01*
X143481588Y-166376557D01*
X143683757Y-166442246D01*
X143893713Y-166475500D01*
X143893714Y-166475500D01*
X144106286Y-166475500D01*
X144106287Y-166475500D01*
X144316243Y-166442246D01*
X144518412Y-166376557D01*
X144707816Y-166280051D01*
X144729789Y-166264086D01*
X144879786Y-166155109D01*
X144879788Y-166155106D01*
X144879792Y-166155104D01*
X145030104Y-166004792D01*
X145149683Y-165840204D01*
X145205011Y-165797540D01*
X145274624Y-165791561D01*
X145336420Y-165824166D01*
X145350313Y-165840199D01*
X145439462Y-165962903D01*
X145469896Y-166004792D01*
X145620213Y-166155109D01*
X145792179Y-166280048D01*
X145792181Y-166280049D01*
X145792184Y-166280051D01*
X145981588Y-166376557D01*
X146183757Y-166442246D01*
X146393713Y-166475500D01*
X146393714Y-166475500D01*
X146606286Y-166475500D01*
X146606287Y-166475500D01*
X146816243Y-166442246D01*
X147018412Y-166376557D01*
X147207816Y-166280051D01*
X147229789Y-166264086D01*
X147379786Y-166155109D01*
X147379788Y-166155106D01*
X147379792Y-166155104D01*
X147530104Y-166004792D01*
X147649683Y-165840204D01*
X147705011Y-165797540D01*
X147774624Y-165791561D01*
X147836420Y-165824166D01*
X147850313Y-165840199D01*
X147939462Y-165962903D01*
X147969896Y-166004792D01*
X148120213Y-166155109D01*
X148292179Y-166280048D01*
X148292181Y-166280049D01*
X148292184Y-166280051D01*
X148481588Y-166376557D01*
X148683757Y-166442246D01*
X148893713Y-166475500D01*
X148893714Y-166475500D01*
X149106286Y-166475500D01*
X149106287Y-166475500D01*
X149316243Y-166442246D01*
X149518412Y-166376557D01*
X149707816Y-166280051D01*
X149879792Y-166155104D01*
X150018604Y-166016291D01*
X150079923Y-165982809D01*
X150149615Y-165987793D01*
X150205549Y-166029664D01*
X150211821Y-166038878D01*
X150215185Y-166044333D01*
X150215186Y-166044334D01*
X150307288Y-166193656D01*
X150431344Y-166317712D01*
X150580666Y-166409814D01*
X150747203Y-166464999D01*
X150849991Y-166475500D01*
X152150008Y-166475499D01*
X152252797Y-166464999D01*
X152419334Y-166409814D01*
X152568656Y-166317712D01*
X152692712Y-166193656D01*
X152784814Y-166044334D01*
X152839999Y-165877797D01*
X152850500Y-165775009D01*
X152850499Y-164878711D01*
X163149500Y-164878711D01*
X163149500Y-165121288D01*
X163181161Y-165361785D01*
X163243947Y-165596104D01*
X163336773Y-165820205D01*
X163336777Y-165820214D01*
X163358974Y-165858661D01*
X163458064Y-166030289D01*
X163458066Y-166030292D01*
X163458067Y-166030293D01*
X163605733Y-166222736D01*
X163605739Y-166222743D01*
X163777256Y-166394260D01*
X163777263Y-166394266D01*
X163883127Y-166475498D01*
X163969711Y-166541936D01*
X164179788Y-166663224D01*
X164403900Y-166756054D01*
X164638211Y-166818838D01*
X164818586Y-166842584D01*
X164878711Y-166850500D01*
X164878712Y-166850500D01*
X165121289Y-166850500D01*
X165169388Y-166844167D01*
X165361789Y-166818838D01*
X165596100Y-166756054D01*
X165820212Y-166663224D01*
X166030289Y-166541936D01*
X166222738Y-166394265D01*
X166394265Y-166222738D01*
X166541936Y-166030289D01*
X166663224Y-165820212D01*
X166756054Y-165596100D01*
X166818838Y-165361789D01*
X166850500Y-165121288D01*
X166850500Y-164878712D01*
X166818838Y-164638211D01*
X166756054Y-164403900D01*
X166663224Y-164179788D01*
X166541936Y-163969711D01*
X166446158Y-163844890D01*
X166394266Y-163777263D01*
X166394260Y-163777256D01*
X166222743Y-163605739D01*
X166222736Y-163605733D01*
X166030293Y-163458067D01*
X166030292Y-163458066D01*
X166030289Y-163458064D01*
X165820212Y-163336776D01*
X165820205Y-163336773D01*
X165596104Y-163243947D01*
X165361785Y-163181161D01*
X165121289Y-163149500D01*
X165121288Y-163149500D01*
X164878712Y-163149500D01*
X164878711Y-163149500D01*
X164638214Y-163181161D01*
X164403895Y-163243947D01*
X164179794Y-163336773D01*
X164179785Y-163336777D01*
X163969706Y-163458067D01*
X163777263Y-163605733D01*
X163777256Y-163605739D01*
X163605739Y-163777256D01*
X163605733Y-163777263D01*
X163458067Y-163969706D01*
X163336777Y-164179785D01*
X163336773Y-164179794D01*
X163243947Y-164403895D01*
X163181161Y-164638214D01*
X163149500Y-164878711D01*
X152850499Y-164878711D01*
X152850499Y-164224992D01*
X152839999Y-164122203D01*
X152784814Y-163955666D01*
X152692712Y-163806344D01*
X152568656Y-163682288D01*
X152419334Y-163590186D01*
X152252797Y-163535001D01*
X152252795Y-163535000D01*
X152150010Y-163524500D01*
X150849998Y-163524500D01*
X150849981Y-163524501D01*
X150747203Y-163535000D01*
X150747200Y-163535001D01*
X150580668Y-163590185D01*
X150580663Y-163590187D01*
X150431342Y-163682289D01*
X150307289Y-163806342D01*
X150211821Y-163961121D01*
X150159873Y-164007845D01*
X150090910Y-164019068D01*
X150026828Y-163991224D01*
X150018601Y-163983705D01*
X149879786Y-163844890D01*
X149707820Y-163719951D01*
X149518414Y-163623444D01*
X149518413Y-163623443D01*
X149518412Y-163623443D01*
X149316243Y-163557754D01*
X149316241Y-163557753D01*
X149316240Y-163557753D01*
X149154957Y-163532208D01*
X149106287Y-163524500D01*
X148893713Y-163524500D01*
X148845042Y-163532208D01*
X148683760Y-163557753D01*
X148481585Y-163623444D01*
X148292179Y-163719951D01*
X148120213Y-163844890D01*
X147969894Y-163995209D01*
X147969890Y-163995214D01*
X147850318Y-164159793D01*
X147794989Y-164202459D01*
X147725375Y-164208438D01*
X147663580Y-164175833D01*
X147649682Y-164159793D01*
X147530109Y-163995214D01*
X147530105Y-163995209D01*
X147379786Y-163844890D01*
X147207820Y-163719951D01*
X147018414Y-163623444D01*
X147018413Y-163623443D01*
X147018412Y-163623443D01*
X146816243Y-163557754D01*
X146816241Y-163557753D01*
X146816240Y-163557753D01*
X146654957Y-163532208D01*
X146606287Y-163524500D01*
X146393713Y-163524500D01*
X146345042Y-163532208D01*
X146183760Y-163557753D01*
X145981585Y-163623444D01*
X145792179Y-163719951D01*
X145620213Y-163844890D01*
X145469894Y-163995209D01*
X145469890Y-163995214D01*
X145350318Y-164159793D01*
X145294989Y-164202459D01*
X145225375Y-164208438D01*
X145163580Y-164175833D01*
X145149682Y-164159793D01*
X145030109Y-163995214D01*
X145030105Y-163995209D01*
X144879786Y-163844890D01*
X144707820Y-163719951D01*
X144518414Y-163623444D01*
X144518413Y-163623443D01*
X144518412Y-163623443D01*
X144316243Y-163557754D01*
X144316241Y-163557753D01*
X144316240Y-163557753D01*
X144154957Y-163532208D01*
X144106287Y-163524500D01*
X143893713Y-163524500D01*
X143845042Y-163532208D01*
X143683760Y-163557753D01*
X143481585Y-163623444D01*
X143292179Y-163719951D01*
X143120213Y-163844890D01*
X142969890Y-163995213D01*
X142844951Y-164167179D01*
X142748444Y-164356585D01*
X142682753Y-164558760D01*
X142649500Y-164768713D01*
X131350499Y-164768713D01*
X131350499Y-164224992D01*
X131339999Y-164122203D01*
X131284814Y-163955666D01*
X131192712Y-163806344D01*
X131068656Y-163682288D01*
X130919334Y-163590186D01*
X130752797Y-163535001D01*
X130752795Y-163535000D01*
X130650010Y-163524500D01*
X129349998Y-163524500D01*
X129349981Y-163524501D01*
X129247203Y-163535000D01*
X129247200Y-163535001D01*
X129080668Y-163590185D01*
X129080663Y-163590187D01*
X128931342Y-163682289D01*
X128807289Y-163806342D01*
X128711821Y-163961121D01*
X128659873Y-164007845D01*
X128590910Y-164019068D01*
X128526828Y-163991224D01*
X128518601Y-163983705D01*
X128379786Y-163844890D01*
X128207820Y-163719951D01*
X128018414Y-163623444D01*
X128018413Y-163623443D01*
X128018412Y-163623443D01*
X127816243Y-163557754D01*
X127816241Y-163557753D01*
X127816240Y-163557753D01*
X127654957Y-163532208D01*
X127606287Y-163524500D01*
X127393713Y-163524500D01*
X127345042Y-163532208D01*
X127183760Y-163557753D01*
X126981585Y-163623444D01*
X126792179Y-163719951D01*
X126620213Y-163844890D01*
X126469894Y-163995209D01*
X126469890Y-163995214D01*
X126350318Y-164159793D01*
X126294989Y-164202459D01*
X126225375Y-164208438D01*
X126163580Y-164175833D01*
X126149682Y-164159793D01*
X126030109Y-163995214D01*
X126030105Y-163995209D01*
X125879786Y-163844890D01*
X125707820Y-163719951D01*
X125518414Y-163623444D01*
X125518413Y-163623443D01*
X125518412Y-163623443D01*
X125316243Y-163557754D01*
X125316241Y-163557753D01*
X125316240Y-163557753D01*
X125154957Y-163532208D01*
X125106287Y-163524500D01*
X124893713Y-163524500D01*
X124845042Y-163532208D01*
X124683760Y-163557753D01*
X124481585Y-163623444D01*
X124292179Y-163719951D01*
X124120213Y-163844890D01*
X123969894Y-163995209D01*
X123969890Y-163995214D01*
X123850318Y-164159793D01*
X123794989Y-164202459D01*
X123725375Y-164208438D01*
X123663580Y-164175833D01*
X123649682Y-164159793D01*
X123530109Y-163995214D01*
X123530105Y-163995209D01*
X123379786Y-163844890D01*
X123207820Y-163719951D01*
X123018414Y-163623444D01*
X123018413Y-163623443D01*
X123018412Y-163623443D01*
X122816243Y-163557754D01*
X122816241Y-163557753D01*
X122816240Y-163557753D01*
X122654957Y-163532208D01*
X122606287Y-163524500D01*
X122393713Y-163524500D01*
X122345042Y-163532208D01*
X122183760Y-163557753D01*
X121981585Y-163623444D01*
X121792179Y-163719951D01*
X121620213Y-163844890D01*
X121469890Y-163995213D01*
X121344951Y-164167179D01*
X121248444Y-164356585D01*
X121182753Y-164558760D01*
X121149500Y-164768713D01*
X113850499Y-164768713D01*
X113850499Y-164224992D01*
X113839999Y-164122203D01*
X113784814Y-163955666D01*
X113692712Y-163806344D01*
X113568656Y-163682288D01*
X113419334Y-163590186D01*
X113252797Y-163535001D01*
X113252795Y-163535000D01*
X113150010Y-163524500D01*
X111849998Y-163524500D01*
X111849981Y-163524501D01*
X111747203Y-163535000D01*
X111747200Y-163535001D01*
X111580668Y-163590185D01*
X111580663Y-163590187D01*
X111431342Y-163682289D01*
X111307289Y-163806342D01*
X111211821Y-163961121D01*
X111159873Y-164007845D01*
X111090910Y-164019068D01*
X111026828Y-163991224D01*
X111018601Y-163983705D01*
X110879786Y-163844890D01*
X110707820Y-163719951D01*
X110518414Y-163623444D01*
X110518413Y-163623443D01*
X110518412Y-163623443D01*
X110316243Y-163557754D01*
X110316241Y-163557753D01*
X110316240Y-163557753D01*
X110154957Y-163532208D01*
X110106287Y-163524500D01*
X109893713Y-163524500D01*
X109845042Y-163532208D01*
X109683760Y-163557753D01*
X109481585Y-163623444D01*
X109292179Y-163719951D01*
X109120213Y-163844890D01*
X108969894Y-163995209D01*
X108969890Y-163995214D01*
X108850318Y-164159793D01*
X108794989Y-164202459D01*
X108725375Y-164208438D01*
X108663580Y-164175833D01*
X108649682Y-164159793D01*
X108530109Y-163995214D01*
X108530105Y-163995209D01*
X108379786Y-163844890D01*
X108207820Y-163719951D01*
X108018414Y-163623444D01*
X108018413Y-163623443D01*
X108018412Y-163623443D01*
X107816243Y-163557754D01*
X107816241Y-163557753D01*
X107816240Y-163557753D01*
X107654957Y-163532208D01*
X107606287Y-163524500D01*
X107393713Y-163524500D01*
X107345042Y-163532208D01*
X107183760Y-163557753D01*
X106981585Y-163623444D01*
X106792179Y-163719951D01*
X106620213Y-163844890D01*
X106469894Y-163995209D01*
X106469890Y-163995214D01*
X106350318Y-164159793D01*
X106294989Y-164202459D01*
X106225375Y-164208438D01*
X106163580Y-164175833D01*
X106149682Y-164159793D01*
X106030109Y-163995214D01*
X106030105Y-163995209D01*
X105879786Y-163844890D01*
X105707820Y-163719951D01*
X105518414Y-163623444D01*
X105518413Y-163623443D01*
X105518412Y-163623443D01*
X105316243Y-163557754D01*
X105316241Y-163557753D01*
X105316240Y-163557753D01*
X105154957Y-163532208D01*
X105106287Y-163524500D01*
X104893713Y-163524500D01*
X104845042Y-163532208D01*
X104683760Y-163557753D01*
X104481585Y-163623444D01*
X104292179Y-163719951D01*
X104120213Y-163844890D01*
X103969890Y-163995213D01*
X103844951Y-164167179D01*
X103748444Y-164356585D01*
X103682753Y-164558760D01*
X103649500Y-164768713D01*
X91350499Y-164768713D01*
X91350499Y-164224992D01*
X91339999Y-164122203D01*
X91284814Y-163955666D01*
X91192712Y-163806344D01*
X91068656Y-163682288D01*
X90919334Y-163590186D01*
X90752797Y-163535001D01*
X90752795Y-163535000D01*
X90650010Y-163524500D01*
X89349998Y-163524500D01*
X89349981Y-163524501D01*
X89247203Y-163535000D01*
X89247200Y-163535001D01*
X89080668Y-163590185D01*
X89080663Y-163590187D01*
X88931342Y-163682289D01*
X88807289Y-163806342D01*
X88711821Y-163961121D01*
X88659873Y-164007845D01*
X88590910Y-164019068D01*
X88526828Y-163991224D01*
X88518601Y-163983705D01*
X88379786Y-163844890D01*
X88207820Y-163719951D01*
X88018414Y-163623444D01*
X88018413Y-163623443D01*
X88018412Y-163623443D01*
X87816243Y-163557754D01*
X87816241Y-163557753D01*
X87816240Y-163557753D01*
X87654957Y-163532208D01*
X87606287Y-163524500D01*
X87393713Y-163524500D01*
X87345042Y-163532208D01*
X87183760Y-163557753D01*
X86981585Y-163623444D01*
X86792179Y-163719951D01*
X86620213Y-163844890D01*
X86469894Y-163995209D01*
X86469890Y-163995214D01*
X86350318Y-164159793D01*
X86294989Y-164202459D01*
X86225375Y-164208438D01*
X86163580Y-164175833D01*
X86149682Y-164159793D01*
X86030109Y-163995214D01*
X86030105Y-163995209D01*
X85879786Y-163844890D01*
X85707820Y-163719951D01*
X85518414Y-163623444D01*
X85518413Y-163623443D01*
X85518412Y-163623443D01*
X85316243Y-163557754D01*
X85316241Y-163557753D01*
X85316240Y-163557753D01*
X85154957Y-163532208D01*
X85106287Y-163524500D01*
X84893713Y-163524500D01*
X84845042Y-163532208D01*
X84683760Y-163557753D01*
X84481585Y-163623444D01*
X84292179Y-163719951D01*
X84120213Y-163844890D01*
X83969894Y-163995209D01*
X83969890Y-163995214D01*
X83850318Y-164159793D01*
X83794989Y-164202459D01*
X83725375Y-164208438D01*
X83663580Y-164175833D01*
X83649682Y-164159793D01*
X83530109Y-163995214D01*
X83530105Y-163995209D01*
X83379786Y-163844890D01*
X83207820Y-163719951D01*
X83018414Y-163623444D01*
X83018413Y-163623443D01*
X83018412Y-163623443D01*
X82816243Y-163557754D01*
X82816241Y-163557753D01*
X82816240Y-163557753D01*
X82654957Y-163532208D01*
X82606287Y-163524500D01*
X82393713Y-163524500D01*
X82345042Y-163532208D01*
X82183760Y-163557753D01*
X81981585Y-163623444D01*
X81792179Y-163719951D01*
X81620213Y-163844890D01*
X81469890Y-163995213D01*
X81344951Y-164167179D01*
X81248444Y-164356585D01*
X81182753Y-164558760D01*
X81149500Y-164768713D01*
X69792582Y-164768713D01*
X69732437Y-164685930D01*
X69732433Y-164685925D01*
X69589074Y-164542566D01*
X69589069Y-164542562D01*
X69425062Y-164423405D01*
X69425061Y-164423404D01*
X69425059Y-164423403D01*
X69367186Y-164393915D01*
X69244420Y-164331362D01*
X69244417Y-164331361D01*
X69051608Y-164268715D01*
X68951487Y-164252857D01*
X68851368Y-164237000D01*
X68648632Y-164237000D01*
X68581885Y-164247571D01*
X68448391Y-164268715D01*
X68255582Y-164331361D01*
X68255579Y-164331362D01*
X68074937Y-164423405D01*
X67910930Y-164542562D01*
X67910925Y-164542566D01*
X67767566Y-164685925D01*
X67767560Y-164685932D01*
X67756443Y-164701234D01*
X67701113Y-164743900D01*
X67631499Y-164749878D01*
X67569705Y-164717271D01*
X67535348Y-164656432D01*
X67532836Y-164641599D01*
X67531591Y-164630016D01*
X67481297Y-164495171D01*
X67481293Y-164495164D01*
X67395047Y-164379955D01*
X67395044Y-164379952D01*
X67279835Y-164293706D01*
X67279828Y-164293702D01*
X67144982Y-164243408D01*
X67144983Y-164243408D01*
X67085383Y-164237001D01*
X67085381Y-164237000D01*
X67085373Y-164237000D01*
X67085364Y-164237000D01*
X65414629Y-164237000D01*
X65414623Y-164237001D01*
X65355016Y-164243408D01*
X65220171Y-164293702D01*
X65220164Y-164293706D01*
X65104955Y-164379952D01*
X65104952Y-164379955D01*
X65018706Y-164495164D01*
X65018702Y-164495171D01*
X64968408Y-164630017D01*
X64962001Y-164689616D01*
X64962000Y-164689635D01*
X56825608Y-164689635D01*
X56818838Y-164638211D01*
X56756054Y-164403900D01*
X56663224Y-164179788D01*
X56541936Y-163969711D01*
X56446158Y-163844890D01*
X56394266Y-163777263D01*
X56394260Y-163777256D01*
X56222743Y-163605739D01*
X56222736Y-163605733D01*
X56030293Y-163458067D01*
X56030292Y-163458066D01*
X56030289Y-163458064D01*
X55820212Y-163336776D01*
X55820205Y-163336773D01*
X55596104Y-163243947D01*
X55361785Y-163181161D01*
X55121289Y-163149500D01*
X55121288Y-163149500D01*
X54878712Y-163149500D01*
X54878711Y-163149500D01*
X54638214Y-163181161D01*
X54403895Y-163243947D01*
X54179794Y-163336773D01*
X54179785Y-163336777D01*
X53969706Y-163458067D01*
X53777263Y-163605733D01*
X53777256Y-163605739D01*
X53605739Y-163777256D01*
X53605733Y-163777263D01*
X53458067Y-163969706D01*
X53336777Y-164179785D01*
X53336773Y-164179794D01*
X53243947Y-164403895D01*
X53181161Y-164638214D01*
X53149500Y-164878711D01*
X50130500Y-164878711D01*
X50130500Y-159378711D01*
X96649500Y-159378711D01*
X96649500Y-159621288D01*
X96681161Y-159861785D01*
X96743947Y-160096104D01*
X96836773Y-160320205D01*
X96836776Y-160320212D01*
X96958064Y-160530289D01*
X96958066Y-160530292D01*
X96958067Y-160530293D01*
X97105733Y-160722736D01*
X97105739Y-160722743D01*
X97277256Y-160894260D01*
X97277262Y-160894265D01*
X97469711Y-161041936D01*
X97679788Y-161163224D01*
X97903900Y-161256054D01*
X98138211Y-161318838D01*
X98318586Y-161342584D01*
X98378711Y-161350500D01*
X98378712Y-161350500D01*
X98621289Y-161350500D01*
X98669388Y-161344167D01*
X98861789Y-161318838D01*
X99096100Y-161256054D01*
X99320212Y-161163224D01*
X99530289Y-161041936D01*
X99722738Y-160894265D01*
X99894265Y-160722738D01*
X100041936Y-160530289D01*
X100163224Y-160320212D01*
X100256054Y-160096100D01*
X100318838Y-159861789D01*
X100350500Y-159621288D01*
X100350500Y-159378712D01*
X100350500Y-159378711D01*
X156649500Y-159378711D01*
X156649500Y-159621288D01*
X156681161Y-159861785D01*
X156743947Y-160096104D01*
X156836773Y-160320205D01*
X156836776Y-160320212D01*
X156958064Y-160530289D01*
X156958066Y-160530292D01*
X156958067Y-160530293D01*
X157105733Y-160722736D01*
X157105739Y-160722743D01*
X157277256Y-160894260D01*
X157277262Y-160894265D01*
X157469711Y-161041936D01*
X157679788Y-161163224D01*
X157903900Y-161256054D01*
X158138211Y-161318838D01*
X158318586Y-161342584D01*
X158378711Y-161350500D01*
X158378712Y-161350500D01*
X158621289Y-161350500D01*
X158669388Y-161344167D01*
X158861789Y-161318838D01*
X159096100Y-161256054D01*
X159320212Y-161163224D01*
X159530289Y-161041936D01*
X159722738Y-160894265D01*
X159894265Y-160722738D01*
X160041936Y-160530289D01*
X160163224Y-160320212D01*
X160256054Y-160096100D01*
X160318838Y-159861789D01*
X160350500Y-159621288D01*
X160350500Y-159378712D01*
X160318838Y-159138211D01*
X160256054Y-158903900D01*
X160163224Y-158679788D01*
X160041936Y-158469711D01*
X159894265Y-158277262D01*
X159894260Y-158277256D01*
X159722743Y-158105739D01*
X159722736Y-158105733D01*
X159530293Y-157958067D01*
X159530292Y-157958066D01*
X159530289Y-157958064D01*
X159320212Y-157836776D01*
X159320205Y-157836773D01*
X159096104Y-157743947D01*
X158861785Y-157681161D01*
X158621289Y-157649500D01*
X158621288Y-157649500D01*
X158378712Y-157649500D01*
X158378711Y-157649500D01*
X158138214Y-157681161D01*
X157903895Y-157743947D01*
X157679794Y-157836773D01*
X157679785Y-157836777D01*
X157469706Y-157958067D01*
X157277263Y-158105733D01*
X157277256Y-158105739D01*
X157105739Y-158277256D01*
X157105733Y-158277263D01*
X156958067Y-158469706D01*
X156836777Y-158679785D01*
X156836773Y-158679794D01*
X156743947Y-158903895D01*
X156681161Y-159138214D01*
X156649500Y-159378711D01*
X100350500Y-159378711D01*
X100318838Y-159138211D01*
X100256054Y-158903900D01*
X100163224Y-158679788D01*
X100041936Y-158469711D01*
X99894265Y-158277262D01*
X99894260Y-158277256D01*
X99722743Y-158105739D01*
X99722736Y-158105733D01*
X99530293Y-157958067D01*
X99530292Y-157958066D01*
X99530289Y-157958064D01*
X99320212Y-157836776D01*
X99320205Y-157836773D01*
X99096104Y-157743947D01*
X98861785Y-157681161D01*
X98621289Y-157649500D01*
X98621288Y-157649500D01*
X98378712Y-157649500D01*
X98378711Y-157649500D01*
X98138214Y-157681161D01*
X97903895Y-157743947D01*
X97679794Y-157836773D01*
X97679785Y-157836777D01*
X97469706Y-157958067D01*
X97277263Y-158105733D01*
X97277256Y-158105739D01*
X97105739Y-158277256D01*
X97105733Y-158277263D01*
X96958067Y-158469706D01*
X96836777Y-158679785D01*
X96836773Y-158679794D01*
X96743947Y-158903895D01*
X96681161Y-159138214D01*
X96649500Y-159378711D01*
X50130500Y-159378711D01*
X50130500Y-134421153D01*
X55199500Y-134421153D01*
X55199500Y-134578846D01*
X55230261Y-134733489D01*
X55230264Y-134733501D01*
X55290602Y-134879172D01*
X55290609Y-134879185D01*
X55378210Y-135010288D01*
X55378213Y-135010292D01*
X55489707Y-135121786D01*
X55489711Y-135121789D01*
X55620814Y-135209390D01*
X55620827Y-135209397D01*
X55766498Y-135269735D01*
X55766503Y-135269737D01*
X55850741Y-135286493D01*
X55900691Y-135296429D01*
X55962602Y-135328814D01*
X55997176Y-135389529D01*
X56000500Y-135418046D01*
X56000500Y-141063547D01*
X55991855Y-141092988D01*
X55985331Y-141122976D01*
X55981577Y-141127990D01*
X55980815Y-141130586D01*
X55964179Y-141151230D01*
X55941201Y-141174207D01*
X55879877Y-141207691D01*
X55877714Y-141208141D01*
X55766508Y-141230261D01*
X55766498Y-141230264D01*
X55620827Y-141290602D01*
X55620814Y-141290609D01*
X55489711Y-141378210D01*
X55489707Y-141378213D01*
X55378213Y-141489707D01*
X55378210Y-141489711D01*
X55290609Y-141620814D01*
X55290602Y-141620827D01*
X55230264Y-141766498D01*
X55230261Y-141766510D01*
X55199500Y-141921153D01*
X55199500Y-142078846D01*
X55230261Y-142233489D01*
X55230264Y-142233501D01*
X55290602Y-142379172D01*
X55290609Y-142379185D01*
X55378210Y-142510288D01*
X55378213Y-142510292D01*
X55489707Y-142621786D01*
X55489711Y-142621789D01*
X55620814Y-142709390D01*
X55620827Y-142709397D01*
X55693064Y-142739318D01*
X55766503Y-142769737D01*
X55903025Y-142796893D01*
X55921153Y-142800499D01*
X55921156Y-142800500D01*
X55921158Y-142800500D01*
X56078844Y-142800500D01*
X56078845Y-142800499D01*
X56233497Y-142769737D01*
X56379179Y-142709394D01*
X56510289Y-142621789D01*
X56621789Y-142510289D01*
X56709394Y-142379179D01*
X56769737Y-142233497D01*
X56791858Y-142122282D01*
X56824241Y-142060376D01*
X56825730Y-142058858D01*
X57111858Y-141772733D01*
X57180312Y-141670285D01*
X57227463Y-141556451D01*
X57251501Y-141435606D01*
X57251501Y-141312393D01*
X57251501Y-141307283D01*
X57251500Y-141307257D01*
X57251500Y-136462695D01*
X61515500Y-136462695D01*
X61515500Y-136697304D01*
X61552201Y-136929027D01*
X61624697Y-137152150D01*
X61671152Y-137243322D01*
X61724771Y-137348555D01*
X61731212Y-137361195D01*
X61869104Y-137550989D01*
X61869108Y-137550994D01*
X62035005Y-137716891D01*
X62035010Y-137716895D01*
X62080137Y-137749682D01*
X62122803Y-137805012D01*
X62128782Y-137874625D01*
X62096176Y-137936420D01*
X62080137Y-137950318D01*
X62035010Y-137983104D01*
X62035005Y-137983108D01*
X61869108Y-138149005D01*
X61869104Y-138149010D01*
X61731212Y-138338804D01*
X61624697Y-138547849D01*
X61552201Y-138770972D01*
X61515500Y-139002695D01*
X61515500Y-139237304D01*
X61552201Y-139469027D01*
X61624697Y-139692150D01*
X61677954Y-139796672D01*
X61724771Y-139888555D01*
X61731212Y-139901195D01*
X61869104Y-140090989D01*
X61869108Y-140090994D01*
X62035005Y-140256891D01*
X62035010Y-140256895D01*
X62080137Y-140289682D01*
X62122803Y-140345012D01*
X62128782Y-140414625D01*
X62096176Y-140476420D01*
X62080137Y-140490318D01*
X62035010Y-140523104D01*
X62035005Y-140523108D01*
X61869108Y-140689005D01*
X61869104Y-140689010D01*
X61731212Y-140878804D01*
X61624697Y-141087849D01*
X61552201Y-141310972D01*
X61515500Y-141542695D01*
X61515500Y-141777304D01*
X61552201Y-142009027D01*
X61624697Y-142232150D01*
X61677954Y-142336672D01*
X61724771Y-142428555D01*
X61731212Y-142441195D01*
X61869104Y-142630989D01*
X61869108Y-142630994D01*
X62035005Y-142796891D01*
X62035010Y-142796895D01*
X62080137Y-142829682D01*
X62122803Y-142885012D01*
X62128782Y-142954625D01*
X62096176Y-143016420D01*
X62080137Y-143030318D01*
X62035010Y-143063104D01*
X62035005Y-143063108D01*
X61869108Y-143229005D01*
X61869104Y-143229010D01*
X61731212Y-143418804D01*
X61624697Y-143627849D01*
X61552201Y-143850972D01*
X61515500Y-144082695D01*
X61515500Y-144317304D01*
X61552201Y-144549027D01*
X61624697Y-144772150D01*
X61677954Y-144876672D01*
X61724771Y-144968555D01*
X61731212Y-144981195D01*
X61869104Y-145170989D01*
X61869108Y-145170994D01*
X62035005Y-145336891D01*
X62035010Y-145336895D01*
X62157215Y-145425681D01*
X62224808Y-145474790D01*
X62433847Y-145581301D01*
X62433849Y-145581302D01*
X62538443Y-145615286D01*
X62656974Y-145653799D01*
X62888695Y-145690500D01*
X62888696Y-145690500D01*
X63123304Y-145690500D01*
X63123305Y-145690500D01*
X63355026Y-145653799D01*
X63578153Y-145581301D01*
X63787192Y-145474790D01*
X63976996Y-145336890D01*
X64142890Y-145170996D01*
X64280790Y-144981192D01*
X64387301Y-144772153D01*
X64459799Y-144549026D01*
X64496500Y-144317305D01*
X64496500Y-144082695D01*
X64459799Y-143850974D01*
X64387301Y-143627847D01*
X64280790Y-143418808D01*
X64263171Y-143394558D01*
X64142895Y-143229010D01*
X64142891Y-143229005D01*
X63976992Y-143063106D01*
X63931863Y-143030319D01*
X63889196Y-142974989D01*
X63883216Y-142905376D01*
X63915822Y-142843581D01*
X63931863Y-142829681D01*
X63976992Y-142796893D01*
X63976992Y-142796892D01*
X63976996Y-142796890D01*
X64142890Y-142630996D01*
X64280790Y-142441192D01*
X64387301Y-142232153D01*
X64459799Y-142009026D01*
X64496500Y-141777305D01*
X64496500Y-141542695D01*
X64459799Y-141310974D01*
X64396094Y-141114909D01*
X64387302Y-141087849D01*
X64374919Y-141063547D01*
X64280790Y-140878808D01*
X64263171Y-140854558D01*
X64142895Y-140689010D01*
X64142891Y-140689005D01*
X63976992Y-140523106D01*
X63931863Y-140490319D01*
X63889196Y-140434989D01*
X63883216Y-140365376D01*
X63915822Y-140303581D01*
X63931863Y-140289681D01*
X63976992Y-140256893D01*
X63976992Y-140256892D01*
X63976996Y-140256890D01*
X64142890Y-140090996D01*
X64280790Y-139901192D01*
X64387301Y-139692153D01*
X64459799Y-139469026D01*
X64496500Y-139237305D01*
X64496500Y-139002695D01*
X64459799Y-138770974D01*
X64387301Y-138547847D01*
X64280790Y-138338808D01*
X64225581Y-138262819D01*
X64142895Y-138149010D01*
X64142891Y-138149005D01*
X63976992Y-137983106D01*
X63931863Y-137950319D01*
X63889196Y-137894989D01*
X63883216Y-137825376D01*
X63915822Y-137763581D01*
X63931863Y-137749681D01*
X63976992Y-137716893D01*
X63976992Y-137716892D01*
X63976996Y-137716890D01*
X64142890Y-137550996D01*
X64280790Y-137361192D01*
X64387301Y-137152153D01*
X64459799Y-136929026D01*
X64496500Y-136697305D01*
X64496500Y-136462695D01*
X64459799Y-136230974D01*
X64399592Y-136045675D01*
X64387302Y-136007849D01*
X64387301Y-136007847D01*
X64280790Y-135798808D01*
X64198333Y-135685315D01*
X64142895Y-135609010D01*
X64142891Y-135609005D01*
X63976994Y-135443108D01*
X63976989Y-135443104D01*
X63787195Y-135305212D01*
X63787194Y-135305211D01*
X63787192Y-135305210D01*
X63682672Y-135251954D01*
X63578150Y-135198697D01*
X63355027Y-135126201D01*
X63239165Y-135107850D01*
X63123305Y-135089500D01*
X62888695Y-135089500D01*
X62811454Y-135101733D01*
X62656972Y-135126201D01*
X62433849Y-135198697D01*
X62224804Y-135305212D01*
X62035010Y-135443104D01*
X62035005Y-135443108D01*
X61869108Y-135609005D01*
X61869104Y-135609010D01*
X61731212Y-135798804D01*
X61624697Y-136007849D01*
X61552201Y-136230972D01*
X61515500Y-136462695D01*
X57251500Y-136462695D01*
X57251500Y-113444451D01*
X57271185Y-113377412D01*
X57287814Y-113356775D01*
X100937819Y-69706769D01*
X100999142Y-69673285D01*
X101068834Y-69678269D01*
X101124767Y-69720141D01*
X101149184Y-69785605D01*
X101149500Y-69794451D01*
X101149500Y-69906286D01*
X101182753Y-70116239D01*
X101248444Y-70318414D01*
X101344951Y-70507820D01*
X101469890Y-70679786D01*
X101620213Y-70830109D01*
X101792182Y-70955050D01*
X101800946Y-70959516D01*
X101851742Y-71007491D01*
X101868536Y-71075312D01*
X101845998Y-71141447D01*
X101800946Y-71180484D01*
X101792182Y-71184949D01*
X101620213Y-71309890D01*
X101469890Y-71460213D01*
X101344951Y-71632179D01*
X101248444Y-71821585D01*
X101182753Y-72023760D01*
X101149500Y-72233713D01*
X101149500Y-72446286D01*
X101182753Y-72656239D01*
X101248444Y-72858414D01*
X101344951Y-73047820D01*
X101469890Y-73219786D01*
X101620213Y-73370109D01*
X101792182Y-73495050D01*
X101800946Y-73499516D01*
X101851742Y-73547491D01*
X101868536Y-73615312D01*
X101845998Y-73681447D01*
X101800946Y-73720484D01*
X101792182Y-73724949D01*
X101620213Y-73849890D01*
X101469892Y-74000211D01*
X101415330Y-74075312D01*
X101376770Y-74128385D01*
X101351307Y-74148020D01*
X101326763Y-74168836D01*
X101323386Y-74169551D01*
X101321442Y-74171051D01*
X101292794Y-74178419D01*
X101284663Y-74179500D01*
X101228926Y-74179500D01*
X101120510Y-74201065D01*
X101116605Y-74201841D01*
X101116603Y-74201842D01*
X101093592Y-74206419D01*
X101040785Y-74228291D01*
X101040785Y-74228292D01*
X100993693Y-74247798D01*
X100966105Y-74259226D01*
X100955953Y-74266010D01*
X100955842Y-74266084D01*
X100851376Y-74335886D01*
X100851372Y-74335889D01*
X94254888Y-80932372D01*
X94254887Y-80932373D01*
X94178222Y-81047111D01*
X94125421Y-81174586D01*
X94125418Y-81174598D01*
X94105001Y-81277244D01*
X94105001Y-81277247D01*
X94100635Y-81299196D01*
X94098500Y-81309926D01*
X94098500Y-136970006D01*
X94098500Y-137107994D01*
X94098500Y-137107996D01*
X94098499Y-137107996D01*
X94125418Y-137243322D01*
X94125421Y-137243332D01*
X94178222Y-137370807D01*
X94254887Y-137485545D01*
X94254888Y-137485546D01*
X107811343Y-151042000D01*
X107844828Y-151103323D01*
X107846135Y-151149079D01*
X107824500Y-151285675D01*
X107824500Y-151494324D01*
X107857137Y-151700389D01*
X107921612Y-151898820D01*
X108016330Y-152084714D01*
X108138965Y-152253505D01*
X108286495Y-152401035D01*
X108455286Y-152523670D01*
X108543116Y-152568421D01*
X108641179Y-152618387D01*
X108641181Y-152618387D01*
X108641184Y-152618389D01*
X108716292Y-152642793D01*
X108839610Y-152682862D01*
X109045676Y-152715500D01*
X109045681Y-152715500D01*
X109254317Y-152715500D01*
X109254319Y-152715500D01*
X109390922Y-152693863D01*
X109460211Y-152702817D01*
X109497998Y-152728655D01*
X110059162Y-153289819D01*
X110092647Y-153351142D01*
X110087663Y-153420834D01*
X110045791Y-153476767D01*
X109980327Y-153501184D01*
X109971481Y-153501500D01*
X84082347Y-153501500D01*
X84015308Y-153481815D01*
X83994666Y-153465181D01*
X80522383Y-149992897D01*
X80440789Y-149911303D01*
X87099500Y-149911303D01*
X87099500Y-150088696D01*
X87134103Y-150262658D01*
X87134105Y-150262666D01*
X87201988Y-150426548D01*
X87300534Y-150574034D01*
X87300540Y-150574041D01*
X89425958Y-152699459D01*
X89425965Y-152699465D01*
X89573451Y-152798011D01*
X89573452Y-152798011D01*
X89573453Y-152798012D01*
X89737334Y-152865895D01*
X89897060Y-152897666D01*
X89911303Y-152900499D01*
X89911307Y-152900500D01*
X89911308Y-152900500D01*
X90088693Y-152900500D01*
X90088694Y-152900499D01*
X90262666Y-152865895D01*
X90426547Y-152798012D01*
X90574036Y-152699464D01*
X90699464Y-152574036D01*
X90798012Y-152426547D01*
X90865895Y-152262666D01*
X90900500Y-152088692D01*
X90900500Y-151911308D01*
X90865895Y-151737334D01*
X90798012Y-151573453D01*
X90745140Y-151494324D01*
X90699465Y-151425965D01*
X90699459Y-151425958D01*
X88574041Y-149300540D01*
X88574034Y-149300534D01*
X88426548Y-149201988D01*
X88262666Y-149134105D01*
X88262658Y-149134103D01*
X88088696Y-149099500D01*
X88088692Y-149099500D01*
X87911308Y-149099500D01*
X87911303Y-149099500D01*
X87737341Y-149134103D01*
X87737333Y-149134105D01*
X87573451Y-149201988D01*
X87425965Y-149300534D01*
X87425958Y-149300540D01*
X87300540Y-149425958D01*
X87300534Y-149425965D01*
X87201988Y-149573451D01*
X87134105Y-149737333D01*
X87134103Y-149737341D01*
X87099500Y-149911303D01*
X80440789Y-149911303D01*
X77591819Y-147062333D01*
X77558334Y-147001010D01*
X77555500Y-146974652D01*
X77555500Y-145713519D01*
X77575185Y-145646480D01*
X77627989Y-145600725D01*
X77697147Y-145590781D01*
X77717818Y-145595588D01*
X77896974Y-145653799D01*
X78128695Y-145690500D01*
X78128696Y-145690500D01*
X78363304Y-145690500D01*
X78363305Y-145690500D01*
X78595026Y-145653799D01*
X78818153Y-145581301D01*
X79027192Y-145474790D01*
X79216996Y-145336890D01*
X79382890Y-145170996D01*
X79520790Y-144981192D01*
X79627301Y-144772153D01*
X79699799Y-144549026D01*
X79736500Y-144317305D01*
X79736500Y-144082695D01*
X79699799Y-143850974D01*
X79627301Y-143627847D01*
X79520790Y-143418808D01*
X79503171Y-143394558D01*
X79382895Y-143229010D01*
X79382891Y-143229005D01*
X79216992Y-143063106D01*
X79171863Y-143030319D01*
X79129196Y-142974989D01*
X79123216Y-142905376D01*
X79155822Y-142843581D01*
X79171863Y-142829681D01*
X79216992Y-142796893D01*
X79216992Y-142796892D01*
X79216996Y-142796890D01*
X79382890Y-142630996D01*
X79520790Y-142441192D01*
X79627301Y-142232153D01*
X79699799Y-142009026D01*
X79736500Y-141777305D01*
X79736500Y-141542695D01*
X79699799Y-141310974D01*
X79636094Y-141114909D01*
X79627302Y-141087849D01*
X79614919Y-141063547D01*
X79520790Y-140878808D01*
X79503171Y-140854558D01*
X79382895Y-140689010D01*
X79382891Y-140689005D01*
X79216992Y-140523106D01*
X79171863Y-140490319D01*
X79129196Y-140434989D01*
X79123216Y-140365376D01*
X79155822Y-140303581D01*
X79171863Y-140289681D01*
X79216992Y-140256893D01*
X79216992Y-140256892D01*
X79216996Y-140256890D01*
X79382890Y-140090996D01*
X79520790Y-139901192D01*
X79627301Y-139692153D01*
X79699799Y-139469026D01*
X79736500Y-139237305D01*
X79736500Y-139002695D01*
X79699799Y-138770974D01*
X79627301Y-138547847D01*
X79520790Y-138338808D01*
X79465581Y-138262819D01*
X79382895Y-138149010D01*
X79382891Y-138149005D01*
X79216992Y-137983106D01*
X79171863Y-137950319D01*
X79129196Y-137894989D01*
X79123216Y-137825376D01*
X79155822Y-137763581D01*
X79171863Y-137749681D01*
X79216992Y-137716893D01*
X79216992Y-137716892D01*
X79216996Y-137716890D01*
X79382890Y-137550996D01*
X79520790Y-137361192D01*
X79627301Y-137152153D01*
X79699799Y-136929026D01*
X79736500Y-136697305D01*
X79736500Y-136462695D01*
X79699799Y-136230974D01*
X79669283Y-136137054D01*
X79667288Y-136067213D01*
X79699531Y-136011057D01*
X87485858Y-128224733D01*
X87554312Y-128122285D01*
X87601463Y-128008451D01*
X87625501Y-127887606D01*
X87625501Y-127764393D01*
X87625501Y-127759283D01*
X87625500Y-127759257D01*
X87625500Y-86542350D01*
X87645185Y-86475311D01*
X87646398Y-86473459D01*
X87647827Y-86471321D01*
X87709394Y-86379179D01*
X87769737Y-86233497D01*
X87800500Y-86078842D01*
X87800500Y-85921158D01*
X87800500Y-85921155D01*
X87800499Y-85921153D01*
X87779630Y-85816239D01*
X87769737Y-85766503D01*
X87755223Y-85731463D01*
X87709397Y-85620827D01*
X87709390Y-85620814D01*
X87621789Y-85489711D01*
X87621786Y-85489707D01*
X87510292Y-85378213D01*
X87510288Y-85378210D01*
X87379185Y-85290609D01*
X87379172Y-85290602D01*
X87233501Y-85230264D01*
X87233489Y-85230261D01*
X87078845Y-85199500D01*
X87078842Y-85199500D01*
X86921158Y-85199500D01*
X86921155Y-85199500D01*
X86766510Y-85230261D01*
X86766498Y-85230264D01*
X86620827Y-85290602D01*
X86620814Y-85290609D01*
X86489711Y-85378210D01*
X86489707Y-85378213D01*
X86378213Y-85489707D01*
X86378210Y-85489711D01*
X86290609Y-85620814D01*
X86290602Y-85620827D01*
X86230264Y-85766498D01*
X86230261Y-85766510D01*
X86199500Y-85921153D01*
X86199500Y-86078846D01*
X86230261Y-86233489D01*
X86230264Y-86233501D01*
X86290602Y-86379172D01*
X86290609Y-86379184D01*
X86353602Y-86473459D01*
X86374480Y-86540136D01*
X86374500Y-86542350D01*
X86374500Y-127515547D01*
X86354815Y-127582586D01*
X86338181Y-127603228D01*
X79947170Y-133994238D01*
X79885847Y-134027723D01*
X79816155Y-134022739D01*
X79760222Y-133980867D01*
X79737016Y-133925955D01*
X79736500Y-133922695D01*
X79699799Y-133690974D01*
X79627301Y-133467847D01*
X79520790Y-133258808D01*
X79503171Y-133234558D01*
X79382895Y-133069010D01*
X79382891Y-133069005D01*
X79216992Y-132903106D01*
X79171863Y-132870319D01*
X79129196Y-132814989D01*
X79123216Y-132745376D01*
X79155822Y-132683581D01*
X79171863Y-132669681D01*
X79216992Y-132636893D01*
X79216992Y-132636892D01*
X79216996Y-132636890D01*
X79382890Y-132470996D01*
X79520790Y-132281192D01*
X79627301Y-132072153D01*
X79699799Y-131849026D01*
X79736500Y-131617305D01*
X79736500Y-131382695D01*
X79699799Y-131150974D01*
X79627301Y-130927847D01*
X79520790Y-130718808D01*
X79503171Y-130694558D01*
X79382895Y-130529010D01*
X79382891Y-130529005D01*
X79216992Y-130363106D01*
X79171863Y-130330319D01*
X79129196Y-130274989D01*
X79123216Y-130205376D01*
X79155822Y-130143581D01*
X79171863Y-130129681D01*
X79216992Y-130096893D01*
X79216992Y-130096892D01*
X79216996Y-130096890D01*
X79382890Y-129930996D01*
X79520790Y-129741192D01*
X79627301Y-129532153D01*
X79699799Y-129309026D01*
X79736500Y-129077305D01*
X79736500Y-128842695D01*
X79699799Y-128610974D01*
X79627301Y-128387847D01*
X79520790Y-128178808D01*
X79459250Y-128094105D01*
X79382895Y-127989010D01*
X79382891Y-127989005D01*
X79216994Y-127823108D01*
X79216989Y-127823104D01*
X79027195Y-127685212D01*
X79027194Y-127685211D01*
X79027192Y-127685210D01*
X78866294Y-127603228D01*
X78818150Y-127578697D01*
X78595027Y-127506201D01*
X78479165Y-127487850D01*
X78363305Y-127469500D01*
X78128695Y-127469500D01*
X78051454Y-127481733D01*
X77896972Y-127506201D01*
X77673849Y-127578697D01*
X77464804Y-127685212D01*
X77275010Y-127823104D01*
X77275005Y-127823108D01*
X77109108Y-127989005D01*
X77109104Y-127989010D01*
X76971212Y-128178804D01*
X76864697Y-128387849D01*
X76792201Y-128610972D01*
X76755500Y-128842695D01*
X76755500Y-129077304D01*
X76792201Y-129309027D01*
X76864697Y-129532150D01*
X76971212Y-129741195D01*
X77109104Y-129930989D01*
X77109108Y-129930994D01*
X77275005Y-130096891D01*
X77275010Y-130096895D01*
X77320137Y-130129682D01*
X77362803Y-130185012D01*
X77368782Y-130254625D01*
X77336176Y-130316420D01*
X77320137Y-130330318D01*
X77275010Y-130363104D01*
X77275005Y-130363108D01*
X77109108Y-130529005D01*
X77109104Y-130529010D01*
X76971212Y-130718804D01*
X76864697Y-130927849D01*
X76792201Y-131150972D01*
X76755500Y-131382695D01*
X76755500Y-131617304D01*
X76792201Y-131849027D01*
X76864697Y-132072150D01*
X76971212Y-132281195D01*
X77109104Y-132470989D01*
X77109108Y-132470994D01*
X77275005Y-132636891D01*
X77275010Y-132636895D01*
X77320137Y-132669682D01*
X77362803Y-132725012D01*
X77368782Y-132794625D01*
X77336176Y-132856420D01*
X77320137Y-132870318D01*
X77275010Y-132903104D01*
X77275005Y-132903108D01*
X77109108Y-133069005D01*
X77109104Y-133069010D01*
X76971212Y-133258804D01*
X76864697Y-133467849D01*
X76792201Y-133690972D01*
X76755500Y-133922695D01*
X76755500Y-134157304D01*
X76792201Y-134389027D01*
X76864697Y-134612150D01*
X76889333Y-134660500D01*
X76965427Y-134809843D01*
X76971212Y-134821195D01*
X77109104Y-135010989D01*
X77109108Y-135010994D01*
X77275005Y-135176891D01*
X77275010Y-135176895D01*
X77320137Y-135209682D01*
X77362803Y-135265012D01*
X77368782Y-135334625D01*
X77336176Y-135396420D01*
X77320137Y-135410318D01*
X77275010Y-135443104D01*
X77275005Y-135443108D01*
X77109108Y-135609005D01*
X77109104Y-135609010D01*
X76971212Y-135798804D01*
X76864697Y-136007849D01*
X76792201Y-136230972D01*
X76755500Y-136462695D01*
X76755500Y-136697304D01*
X76792201Y-136929027D01*
X76864697Y-137152150D01*
X76911152Y-137243322D01*
X76964771Y-137348555D01*
X76971212Y-137361195D01*
X77109104Y-137550989D01*
X77109108Y-137550994D01*
X77275005Y-137716891D01*
X77275010Y-137716895D01*
X77320137Y-137749682D01*
X77362803Y-137805012D01*
X77368782Y-137874625D01*
X77336176Y-137936420D01*
X77320137Y-137950318D01*
X77275010Y-137983104D01*
X77275005Y-137983108D01*
X77109108Y-138149005D01*
X77109104Y-138149010D01*
X76971212Y-138338804D01*
X76864697Y-138547849D01*
X76792201Y-138770972D01*
X76755500Y-139002695D01*
X76755500Y-139237304D01*
X76792201Y-139469027D01*
X76864697Y-139692150D01*
X76917954Y-139796672D01*
X76964771Y-139888555D01*
X76971212Y-139901195D01*
X77109104Y-140090989D01*
X77109108Y-140090994D01*
X77275005Y-140256891D01*
X77275010Y-140256895D01*
X77320137Y-140289682D01*
X77362803Y-140345012D01*
X77368782Y-140414625D01*
X77336176Y-140476420D01*
X77320137Y-140490318D01*
X77275010Y-140523104D01*
X77275005Y-140523108D01*
X77109108Y-140689005D01*
X77109104Y-140689010D01*
X76971212Y-140878804D01*
X76864697Y-141087849D01*
X76815068Y-141240593D01*
X76775630Y-141298269D01*
X76711272Y-141325467D01*
X76642425Y-141313552D01*
X76609456Y-141289956D01*
X64527544Y-129208044D01*
X64494059Y-129146721D01*
X64492752Y-129100966D01*
X64496500Y-129077305D01*
X64496500Y-128842695D01*
X64459799Y-128610974D01*
X64387301Y-128387847D01*
X64280790Y-128178808D01*
X64219250Y-128094105D01*
X64142895Y-127989010D01*
X64142891Y-127989005D01*
X63976994Y-127823108D01*
X63976989Y-127823104D01*
X63787195Y-127685212D01*
X63787194Y-127685211D01*
X63787192Y-127685210D01*
X63626294Y-127603228D01*
X63578150Y-127578697D01*
X63355027Y-127506201D01*
X63239165Y-127487850D01*
X63123305Y-127469500D01*
X62888695Y-127469500D01*
X62811454Y-127481733D01*
X62656972Y-127506201D01*
X62433849Y-127578697D01*
X62224804Y-127685212D01*
X62035010Y-127823104D01*
X62035005Y-127823108D01*
X61869108Y-127989005D01*
X61869104Y-127989010D01*
X61731212Y-128178804D01*
X61624697Y-128387849D01*
X61552201Y-128610972D01*
X61515500Y-128842695D01*
X61515500Y-129077304D01*
X61552201Y-129309027D01*
X61624697Y-129532150D01*
X61731212Y-129741195D01*
X61869104Y-129930989D01*
X61869108Y-129930994D01*
X62035005Y-130096891D01*
X62035010Y-130096895D01*
X62080137Y-130129682D01*
X62122803Y-130185012D01*
X62128782Y-130254625D01*
X62096176Y-130316420D01*
X62080137Y-130330318D01*
X62035010Y-130363104D01*
X62035005Y-130363108D01*
X61869108Y-130529005D01*
X61869104Y-130529010D01*
X61731212Y-130718804D01*
X61624697Y-130927849D01*
X61552201Y-131150972D01*
X61515500Y-131382695D01*
X61515500Y-131617304D01*
X61552201Y-131849027D01*
X61624697Y-132072150D01*
X61731212Y-132281195D01*
X61869104Y-132470989D01*
X61869108Y-132470994D01*
X62035005Y-132636891D01*
X62035010Y-132636895D01*
X62156294Y-132725012D01*
X62224808Y-132774790D01*
X62412292Y-132870318D01*
X62433849Y-132881302D01*
X62538443Y-132915286D01*
X62656974Y-132953799D01*
X62888695Y-132990500D01*
X62888696Y-132990500D01*
X63123304Y-132990500D01*
X63123305Y-132990500D01*
X63355026Y-132953799D01*
X63578153Y-132881301D01*
X63787192Y-132774790D01*
X63976996Y-132636890D01*
X64142890Y-132470996D01*
X64280790Y-132281192D01*
X64387301Y-132072153D01*
X64420438Y-131970169D01*
X64436931Y-131919407D01*
X64476368Y-131861731D01*
X64540726Y-131834532D01*
X64609573Y-131846446D01*
X64642543Y-131870043D01*
X75718181Y-142945681D01*
X75751666Y-143007004D01*
X75754500Y-143033362D01*
X75754500Y-147487710D01*
X75789103Y-147661673D01*
X75789105Y-147661679D01*
X75817748Y-147730830D01*
X75817751Y-147730836D01*
X75819928Y-147736091D01*
X75856987Y-147825561D01*
X75903416Y-147895046D01*
X75907021Y-147900442D01*
X75907022Y-147900443D01*
X75955537Y-147973052D01*
X75955540Y-147973055D01*
X82958522Y-154976035D01*
X83083951Y-155101464D01*
X83231439Y-155200013D01*
X83279438Y-155219895D01*
X83395320Y-155267895D01*
X83569289Y-155302499D01*
X83569293Y-155302500D01*
X83569294Y-155302500D01*
X131686693Y-155302500D01*
X131686694Y-155302499D01*
X131860666Y-155267895D01*
X131942606Y-155233953D01*
X132024547Y-155200013D01*
X132112959Y-155140936D01*
X132172036Y-155101464D01*
X142958086Y-144315412D01*
X143019407Y-144281929D01*
X143089099Y-144286913D01*
X143145032Y-144328785D01*
X143156250Y-144346800D01*
X143216330Y-144464714D01*
X143338965Y-144633505D01*
X143486495Y-144781035D01*
X143655286Y-144903670D01*
X143702271Y-144927610D01*
X143706010Y-144929515D01*
X143756806Y-144977490D01*
X143773601Y-145045310D01*
X143751064Y-145111445D01*
X143706010Y-145150485D01*
X143655285Y-145176330D01*
X143486493Y-145298966D01*
X143338966Y-145446493D01*
X143216330Y-145615285D01*
X143121612Y-145801179D01*
X143057137Y-145999610D01*
X143024500Y-146205675D01*
X143024500Y-146414324D01*
X143057137Y-146620389D01*
X143121612Y-146818820D01*
X143201013Y-146974652D01*
X143216330Y-147004714D01*
X143338965Y-147173505D01*
X143486495Y-147321035D01*
X143655286Y-147443670D01*
X143702271Y-147467610D01*
X143706010Y-147469515D01*
X143756806Y-147517490D01*
X143773601Y-147585310D01*
X143751064Y-147651445D01*
X143706010Y-147690485D01*
X143655285Y-147716330D01*
X143486493Y-147838966D01*
X143338966Y-147986493D01*
X143216330Y-148155285D01*
X143121612Y-148341179D01*
X143057137Y-148539610D01*
X143024500Y-148745675D01*
X143024500Y-148954324D01*
X143057137Y-149160389D01*
X143121612Y-149358820D01*
X143216330Y-149544714D01*
X143338965Y-149713505D01*
X143486495Y-149861035D01*
X143655286Y-149983670D01*
X143706010Y-150009515D01*
X143841179Y-150078387D01*
X143841181Y-150078387D01*
X143841184Y-150078389D01*
X143872906Y-150088696D01*
X144039610Y-150142862D01*
X144245676Y-150175500D01*
X144245681Y-150175500D01*
X144454324Y-150175500D01*
X144660389Y-150142862D01*
X144858816Y-150078389D01*
X145044714Y-149983670D01*
X145213505Y-149861035D01*
X145361035Y-149713505D01*
X145483670Y-149544714D01*
X145578389Y-149358816D01*
X145642862Y-149160389D01*
X145653865Y-149090918D01*
X145675500Y-148954324D01*
X145675500Y-148745675D01*
X145642862Y-148539610D01*
X145578387Y-148341179D01*
X145483669Y-148155285D01*
X145361035Y-147986495D01*
X145213505Y-147838965D01*
X145132111Y-147779828D01*
X145044712Y-147716328D01*
X144993990Y-147690485D01*
X144943194Y-147642511D01*
X144926398Y-147574690D01*
X144948935Y-147508555D01*
X144993990Y-147469515D01*
X145044712Y-147443671D01*
X145044711Y-147443671D01*
X145044714Y-147443670D01*
X145213505Y-147321035D01*
X145361035Y-147173505D01*
X145483670Y-147004714D01*
X145578389Y-146818816D01*
X145642862Y-146620389D01*
X145653007Y-146556337D01*
X145675500Y-146414324D01*
X145675500Y-146205675D01*
X145642862Y-145999610D01*
X145578387Y-145801179D01*
X145503293Y-145653799D01*
X145483670Y-145615286D01*
X145361035Y-145446495D01*
X145213505Y-145298965D01*
X145157241Y-145258086D01*
X145044712Y-145176328D01*
X144993990Y-145150485D01*
X144943194Y-145102511D01*
X144926398Y-145034690D01*
X144948935Y-144968555D01*
X144993990Y-144929515D01*
X145044712Y-144903671D01*
X145044711Y-144903671D01*
X145044714Y-144903670D01*
X145213505Y-144781035D01*
X145361035Y-144633505D01*
X145483670Y-144464714D01*
X145578389Y-144278816D01*
X145642862Y-144080389D01*
X145675500Y-143874324D01*
X145675500Y-143665675D01*
X145642862Y-143459610D01*
X145578387Y-143261179D01*
X145483669Y-143075285D01*
X145361035Y-142906495D01*
X145213505Y-142758965D01*
X145136477Y-142703000D01*
X145044712Y-142636328D01*
X144993990Y-142610485D01*
X144943194Y-142562511D01*
X144926398Y-142494690D01*
X144948935Y-142428555D01*
X144993990Y-142389515D01*
X145044712Y-142363671D01*
X145044711Y-142363671D01*
X145044714Y-142363670D01*
X145213505Y-142241035D01*
X145361035Y-142093505D01*
X145483670Y-141924714D01*
X145578389Y-141738816D01*
X145642862Y-141540389D01*
X145659458Y-141435606D01*
X145675500Y-141334324D01*
X145675500Y-141125675D01*
X145642862Y-140919610D01*
X145578387Y-140721179D01*
X145483669Y-140535285D01*
X145361035Y-140366495D01*
X145213505Y-140218965D01*
X145157241Y-140178086D01*
X145044712Y-140096328D01*
X144993990Y-140070485D01*
X144943194Y-140022511D01*
X144926398Y-139954690D01*
X144948935Y-139888555D01*
X144993990Y-139849515D01*
X145044712Y-139823671D01*
X145044711Y-139823671D01*
X145044714Y-139823670D01*
X145213505Y-139701035D01*
X145361035Y-139553505D01*
X145483670Y-139384714D01*
X145578389Y-139198816D01*
X145642862Y-139000389D01*
X145675500Y-138794324D01*
X145675500Y-138585675D01*
X145642862Y-138379610D01*
X145604914Y-138262819D01*
X145578389Y-138181184D01*
X145578387Y-138181181D01*
X145578387Y-138181179D01*
X145483669Y-137995285D01*
X145361035Y-137826495D01*
X145213505Y-137678965D01*
X145044714Y-137556330D01*
X145034245Y-137550996D01*
X144858820Y-137461612D01*
X144660389Y-137397137D01*
X144454324Y-137364500D01*
X144454319Y-137364500D01*
X144245681Y-137364500D01*
X144245676Y-137364500D01*
X144039609Y-137397138D01*
X144039606Y-137397138D01*
X143986818Y-137414291D01*
X143916977Y-137416286D01*
X143857144Y-137380206D01*
X143826316Y-137317505D01*
X143824500Y-137296360D01*
X143824500Y-135460361D01*
X143844185Y-135393322D01*
X143860819Y-135372680D01*
X144261680Y-134971819D01*
X144323003Y-134938334D01*
X144349361Y-134935500D01*
X144454324Y-134935500D01*
X144660389Y-134902862D01*
X144858816Y-134838389D01*
X145044714Y-134743670D01*
X145213505Y-134621035D01*
X145361035Y-134473505D01*
X145483670Y-134304714D01*
X145578389Y-134118816D01*
X145642862Y-133920389D01*
X145656327Y-133835373D01*
X145675500Y-133714324D01*
X145675500Y-133505675D01*
X145642862Y-133299610D01*
X145578387Y-133101179D01*
X145503293Y-132953799D01*
X145483670Y-132915286D01*
X145361035Y-132746495D01*
X145213505Y-132598965D01*
X145044714Y-132476330D01*
X145034245Y-132470996D01*
X144858820Y-132381612D01*
X144660389Y-132317137D01*
X144454324Y-132284500D01*
X144454319Y-132284500D01*
X144245681Y-132284500D01*
X144245676Y-132284500D01*
X144039610Y-132317137D01*
X143841179Y-132381612D01*
X143655285Y-132476330D01*
X143486493Y-132598966D01*
X143338966Y-132746493D01*
X143216330Y-132915285D01*
X143121612Y-133101179D01*
X143057137Y-133299610D01*
X143024500Y-133505675D01*
X143024500Y-133610637D01*
X143004815Y-133677676D01*
X142988181Y-133698318D01*
X142224538Y-134461960D01*
X142224537Y-134461961D01*
X142198316Y-134501204D01*
X142198311Y-134501211D01*
X142196101Y-134504520D01*
X142125987Y-134609453D01*
X142104843Y-134660500D01*
X142101703Y-134668078D01*
X142101703Y-134668080D01*
X142058105Y-134773333D01*
X142058103Y-134773341D01*
X142027901Y-134925177D01*
X142027902Y-134925178D01*
X142023500Y-134947309D01*
X142023500Y-142651637D01*
X142003815Y-142718676D01*
X141987181Y-142739318D01*
X133187181Y-151539318D01*
X133125858Y-151572803D01*
X133056166Y-151567819D01*
X133000233Y-151525947D01*
X132975816Y-151460483D01*
X132975500Y-151451637D01*
X132975500Y-151285675D01*
X132942862Y-151079610D01*
X132878387Y-150881179D01*
X132783669Y-150695285D01*
X132661035Y-150526495D01*
X132513505Y-150378965D01*
X132353424Y-150262658D01*
X132344712Y-150256328D01*
X132293990Y-150230485D01*
X132243194Y-150182511D01*
X132226398Y-150114690D01*
X132248935Y-150048555D01*
X132293990Y-150009515D01*
X132344712Y-149983671D01*
X132344711Y-149983671D01*
X132344714Y-149983670D01*
X132513505Y-149861035D01*
X132661035Y-149713505D01*
X132783670Y-149544714D01*
X132878389Y-149358816D01*
X132942862Y-149160389D01*
X132953865Y-149090918D01*
X132975500Y-148954324D01*
X132975500Y-148745675D01*
X132942862Y-148539610D01*
X132878387Y-148341179D01*
X132783669Y-148155285D01*
X132661035Y-147986495D01*
X132513505Y-147838965D01*
X132432111Y-147779828D01*
X132344712Y-147716328D01*
X132293990Y-147690485D01*
X132243194Y-147642511D01*
X132226398Y-147574690D01*
X132248935Y-147508555D01*
X132293990Y-147469515D01*
X132344712Y-147443671D01*
X132344711Y-147443671D01*
X132344714Y-147443670D01*
X132513505Y-147321035D01*
X132661035Y-147173505D01*
X132783670Y-147004714D01*
X132878389Y-146818816D01*
X132942862Y-146620389D01*
X132953007Y-146556337D01*
X132975500Y-146414324D01*
X132975500Y-146205675D01*
X132942862Y-145999610D01*
X132878387Y-145801179D01*
X132803293Y-145653799D01*
X132783670Y-145615286D01*
X132661035Y-145446495D01*
X132513505Y-145298965D01*
X132457241Y-145258086D01*
X132344712Y-145176328D01*
X132293990Y-145150485D01*
X132243194Y-145102511D01*
X132226398Y-145034690D01*
X132248935Y-144968555D01*
X132293990Y-144929515D01*
X132344712Y-144903671D01*
X132344711Y-144903671D01*
X132344714Y-144903670D01*
X132513505Y-144781035D01*
X132661035Y-144633505D01*
X132783670Y-144464714D01*
X132878389Y-144278816D01*
X132942862Y-144080389D01*
X132975500Y-143874324D01*
X132975500Y-143665675D01*
X132942862Y-143459610D01*
X132878387Y-143261179D01*
X132783669Y-143075285D01*
X132661035Y-142906495D01*
X132513505Y-142758965D01*
X132436477Y-142703000D01*
X132344712Y-142636328D01*
X132293990Y-142610485D01*
X132243194Y-142562511D01*
X132226398Y-142494690D01*
X132248935Y-142428555D01*
X132293990Y-142389515D01*
X132344712Y-142363671D01*
X132344711Y-142363671D01*
X132344714Y-142363670D01*
X132513505Y-142241035D01*
X132661035Y-142093505D01*
X132783670Y-141924714D01*
X132878389Y-141738816D01*
X132942862Y-141540389D01*
X132959458Y-141435606D01*
X132975500Y-141334324D01*
X132975500Y-141125675D01*
X132942862Y-140919610D01*
X132878387Y-140721179D01*
X132783669Y-140535285D01*
X132661035Y-140366495D01*
X132513505Y-140218965D01*
X132457241Y-140178086D01*
X132344712Y-140096328D01*
X132293990Y-140070485D01*
X132243194Y-140022511D01*
X132226398Y-139954690D01*
X132248935Y-139888555D01*
X132293990Y-139849515D01*
X132344712Y-139823671D01*
X132344711Y-139823671D01*
X132344714Y-139823670D01*
X132513505Y-139701035D01*
X132661035Y-139553505D01*
X132783670Y-139384714D01*
X132878389Y-139198816D01*
X132942862Y-139000389D01*
X132975500Y-138794324D01*
X132975500Y-138585675D01*
X132942862Y-138379610D01*
X132904914Y-138262819D01*
X132878389Y-138181184D01*
X132878387Y-138181181D01*
X132878387Y-138181179D01*
X132783669Y-137995285D01*
X132661035Y-137826495D01*
X132513505Y-137678965D01*
X132457241Y-137638086D01*
X132344712Y-137556328D01*
X132293990Y-137530485D01*
X132243194Y-137482511D01*
X132226398Y-137414690D01*
X132248935Y-137348555D01*
X132293990Y-137309515D01*
X132344712Y-137283671D01*
X132344711Y-137283671D01*
X132344714Y-137283670D01*
X132513505Y-137161035D01*
X132661035Y-137013505D01*
X132783670Y-136844714D01*
X132878389Y-136658816D01*
X132942862Y-136460389D01*
X132957688Y-136366780D01*
X132975500Y-136254324D01*
X132975500Y-136045675D01*
X132942862Y-135839610D01*
X132933668Y-135811314D01*
X132931673Y-135741473D01*
X132963916Y-135685317D01*
X134134506Y-134514728D01*
X134134511Y-134514724D01*
X134144714Y-134504520D01*
X134144716Y-134504520D01*
X134256520Y-134392716D01*
X134316978Y-134287999D01*
X134335577Y-134255785D01*
X134376501Y-134103057D01*
X134376501Y-133944943D01*
X134376501Y-133937348D01*
X134376500Y-133937330D01*
X134376500Y-118856941D01*
X134373643Y-118846280D01*
X134373642Y-118846279D01*
X134366878Y-118821035D01*
X134345417Y-118740941D01*
X134335577Y-118704216D01*
X134335576Y-118704215D01*
X134335576Y-118704213D01*
X134256524Y-118567290D01*
X134256521Y-118567286D01*
X134256520Y-118567284D01*
X134144716Y-118455480D01*
X134144715Y-118455479D01*
X134140385Y-118451149D01*
X134140374Y-118451139D01*
X133963918Y-118274683D01*
X133930433Y-118213360D01*
X133933669Y-118148681D01*
X133942861Y-118120391D01*
X133942862Y-118120389D01*
X133959677Y-118014222D01*
X133975500Y-117914324D01*
X133975500Y-117705675D01*
X133942862Y-117499610D01*
X133892727Y-117345312D01*
X133878389Y-117301184D01*
X133878387Y-117301181D01*
X133878387Y-117301179D01*
X133783669Y-117115285D01*
X133661035Y-116946495D01*
X133513505Y-116798965D01*
X133457241Y-116758086D01*
X133344712Y-116676328D01*
X133293990Y-116650485D01*
X133243194Y-116602511D01*
X133226398Y-116534690D01*
X133248935Y-116468555D01*
X133293990Y-116429515D01*
X133344712Y-116403671D01*
X133344711Y-116403671D01*
X133344714Y-116403670D01*
X133513505Y-116281035D01*
X133661035Y-116133505D01*
X133783670Y-115964714D01*
X133878389Y-115778816D01*
X133942862Y-115580389D01*
X133975500Y-115374324D01*
X133975500Y-115165675D01*
X133942862Y-114959610D01*
X133878387Y-114761179D01*
X133783669Y-114575285D01*
X133661035Y-114406495D01*
X133513505Y-114258965D01*
X133457241Y-114218086D01*
X133344712Y-114136328D01*
X133293990Y-114110485D01*
X133243194Y-114062511D01*
X133226398Y-113994690D01*
X133248935Y-113928555D01*
X133293990Y-113889515D01*
X133344712Y-113863671D01*
X133344711Y-113863671D01*
X133344714Y-113863670D01*
X133513505Y-113741035D01*
X133661035Y-113593505D01*
X133783670Y-113424714D01*
X133878389Y-113238816D01*
X133942862Y-113040389D01*
X133975500Y-112834324D01*
X133975500Y-112625675D01*
X133942862Y-112419610D01*
X133899063Y-112284812D01*
X133878389Y-112221184D01*
X133878387Y-112221181D01*
X133878387Y-112221179D01*
X133800673Y-112068657D01*
X133783670Y-112035286D01*
X133661035Y-111866495D01*
X133513505Y-111718965D01*
X133457241Y-111678086D01*
X133344712Y-111596328D01*
X133293990Y-111570485D01*
X133243194Y-111522511D01*
X133226398Y-111454690D01*
X133248935Y-111388555D01*
X133293990Y-111349515D01*
X133344712Y-111323671D01*
X133344711Y-111323671D01*
X133344714Y-111323670D01*
X133513505Y-111201035D01*
X133661035Y-111053505D01*
X133783670Y-110884714D01*
X133878389Y-110698816D01*
X133942862Y-110500389D01*
X133975500Y-110294324D01*
X133975500Y-110085675D01*
X144024500Y-110085675D01*
X144024500Y-110294324D01*
X144057137Y-110500389D01*
X144121612Y-110698820D01*
X144203562Y-110859655D01*
X144216330Y-110884714D01*
X144338965Y-111053505D01*
X144486495Y-111201035D01*
X144655286Y-111323670D01*
X144702271Y-111347610D01*
X144706010Y-111349515D01*
X144756806Y-111397490D01*
X144773601Y-111465310D01*
X144751064Y-111531445D01*
X144706010Y-111570485D01*
X144655285Y-111596330D01*
X144486493Y-111718966D01*
X144338966Y-111866493D01*
X144216330Y-112035285D01*
X144121612Y-112221179D01*
X144057137Y-112419610D01*
X144024500Y-112625675D01*
X144024500Y-112834324D01*
X144057137Y-113040389D01*
X144121612Y-113238820D01*
X144200217Y-113393090D01*
X144216330Y-113424714D01*
X144338965Y-113593505D01*
X144486495Y-113741035D01*
X144655286Y-113863670D01*
X144702271Y-113887610D01*
X144706010Y-113889515D01*
X144756806Y-113937490D01*
X144773601Y-114005310D01*
X144751064Y-114071445D01*
X144706010Y-114110485D01*
X144655285Y-114136330D01*
X144486493Y-114258966D01*
X144338966Y-114406493D01*
X144216330Y-114575285D01*
X144121612Y-114761179D01*
X144057137Y-114959610D01*
X144024500Y-115165675D01*
X144024500Y-115374324D01*
X144057137Y-115580389D01*
X144121612Y-115778820D01*
X144184990Y-115903205D01*
X144216330Y-115964714D01*
X144338965Y-116133505D01*
X144486495Y-116281035D01*
X144655286Y-116403670D01*
X144702271Y-116427610D01*
X144706010Y-116429515D01*
X144756806Y-116477490D01*
X144773601Y-116545310D01*
X144751064Y-116611445D01*
X144706010Y-116650485D01*
X144655285Y-116676330D01*
X144486493Y-116798966D01*
X144338966Y-116946493D01*
X144216330Y-117115285D01*
X144121612Y-117301179D01*
X144057137Y-117499610D01*
X144024500Y-117705675D01*
X144024500Y-117914324D01*
X144057137Y-118120389D01*
X144121612Y-118318820D01*
X144216330Y-118504714D01*
X144338965Y-118673505D01*
X144486495Y-118821035D01*
X144655286Y-118943670D01*
X144702271Y-118967610D01*
X144706010Y-118969515D01*
X144756806Y-119017490D01*
X144773601Y-119085310D01*
X144751064Y-119151445D01*
X144706010Y-119190485D01*
X144655285Y-119216330D01*
X144486493Y-119338966D01*
X144338966Y-119486493D01*
X144216330Y-119655285D01*
X144121612Y-119841179D01*
X144057137Y-120039610D01*
X144024500Y-120245675D01*
X144024500Y-120454324D01*
X144057137Y-120660389D01*
X144121612Y-120858820D01*
X144216330Y-121044714D01*
X144338965Y-121213505D01*
X144486495Y-121361035D01*
X144655286Y-121483670D01*
X144706010Y-121509515D01*
X144841179Y-121578387D01*
X144841181Y-121578387D01*
X144841184Y-121578389D01*
X144947545Y-121612948D01*
X145039610Y-121642862D01*
X145245676Y-121675500D01*
X145245681Y-121675500D01*
X145454324Y-121675500D01*
X145660389Y-121642862D01*
X145714408Y-121625310D01*
X145858816Y-121578389D01*
X146044714Y-121483670D01*
X146213505Y-121361035D01*
X146361035Y-121213505D01*
X146483670Y-121044714D01*
X146578389Y-120858816D01*
X146642862Y-120660389D01*
X146663540Y-120529835D01*
X146675500Y-120454324D01*
X146675500Y-120245675D01*
X146642862Y-120039610D01*
X146578387Y-119841179D01*
X146528421Y-119743116D01*
X146483670Y-119655286D01*
X146361035Y-119486495D01*
X146213505Y-119338965D01*
X146157241Y-119298086D01*
X146044712Y-119216328D01*
X145993990Y-119190485D01*
X145943194Y-119142511D01*
X145926398Y-119074690D01*
X145948935Y-119008555D01*
X145993990Y-118969515D01*
X146044712Y-118943671D01*
X146044711Y-118943671D01*
X146044714Y-118943670D01*
X146213505Y-118821035D01*
X146361035Y-118673505D01*
X146483670Y-118504714D01*
X146578389Y-118318816D01*
X146642862Y-118120389D01*
X146675500Y-117914324D01*
X146675500Y-117705675D01*
X146642862Y-117499610D01*
X146592727Y-117345312D01*
X146578389Y-117301184D01*
X146578387Y-117301181D01*
X146578387Y-117301179D01*
X146483669Y-117115285D01*
X146361035Y-116946495D01*
X146213505Y-116798965D01*
X146157241Y-116758086D01*
X146044712Y-116676328D01*
X145993990Y-116650485D01*
X145943194Y-116602511D01*
X145926398Y-116534690D01*
X145948935Y-116468555D01*
X145993990Y-116429515D01*
X146044712Y-116403671D01*
X146044711Y-116403671D01*
X146044714Y-116403670D01*
X146213505Y-116281035D01*
X146361035Y-116133505D01*
X146483670Y-115964714D01*
X146578389Y-115778816D01*
X146642862Y-115580389D01*
X146675500Y-115374324D01*
X146675500Y-115165675D01*
X146642862Y-114959610D01*
X146578387Y-114761179D01*
X146483669Y-114575285D01*
X146361035Y-114406495D01*
X146213505Y-114258965D01*
X146157241Y-114218086D01*
X146044712Y-114136328D01*
X145993990Y-114110485D01*
X145943194Y-114062511D01*
X145926398Y-113994690D01*
X145948935Y-113928555D01*
X145993990Y-113889515D01*
X146044712Y-113863671D01*
X146044711Y-113863671D01*
X146044714Y-113863670D01*
X146213505Y-113741035D01*
X146361035Y-113593505D01*
X146483670Y-113424714D01*
X146578389Y-113238816D01*
X146642862Y-113040389D01*
X146675500Y-112834324D01*
X146675500Y-112625675D01*
X146642862Y-112419610D01*
X146599063Y-112284812D01*
X146578389Y-112221184D01*
X146578387Y-112221181D01*
X146578387Y-112221179D01*
X146500673Y-112068657D01*
X146483670Y-112035286D01*
X146361035Y-111866495D01*
X146213505Y-111718965D01*
X146157241Y-111678086D01*
X146044712Y-111596328D01*
X145993990Y-111570485D01*
X145943194Y-111522511D01*
X145926398Y-111454690D01*
X145948935Y-111388555D01*
X145993990Y-111349515D01*
X146044712Y-111323671D01*
X146044711Y-111323671D01*
X146044714Y-111323670D01*
X146213505Y-111201035D01*
X146361035Y-111053505D01*
X146483670Y-110884714D01*
X146578389Y-110698816D01*
X146642862Y-110500389D01*
X146675500Y-110294324D01*
X146675500Y-110085675D01*
X146642862Y-109879610D01*
X146589437Y-109715186D01*
X146578389Y-109681184D01*
X146578387Y-109681181D01*
X146578387Y-109681179D01*
X146526795Y-109579924D01*
X146483670Y-109495286D01*
X146361035Y-109326495D01*
X146213505Y-109178965D01*
X146044714Y-109056330D01*
X145993990Y-109030485D01*
X145858820Y-108961612D01*
X145660389Y-108897137D01*
X145454324Y-108864500D01*
X145454319Y-108864500D01*
X145245681Y-108864500D01*
X145245676Y-108864500D01*
X145039610Y-108897137D01*
X144841179Y-108961612D01*
X144655285Y-109056330D01*
X144486493Y-109178966D01*
X144338966Y-109326493D01*
X144216330Y-109495285D01*
X144121612Y-109681179D01*
X144057137Y-109879610D01*
X144024500Y-110085675D01*
X133975500Y-110085675D01*
X133942862Y-109879610D01*
X133889437Y-109715186D01*
X133878389Y-109681184D01*
X133878387Y-109681181D01*
X133878387Y-109681179D01*
X133826795Y-109579924D01*
X133783670Y-109495286D01*
X133661035Y-109326495D01*
X133513505Y-109178965D01*
X133457241Y-109138086D01*
X133344712Y-109056328D01*
X133293990Y-109030485D01*
X133243194Y-108982511D01*
X133226398Y-108914690D01*
X133248935Y-108848555D01*
X133293990Y-108809515D01*
X133344712Y-108783671D01*
X133344711Y-108783671D01*
X133344714Y-108783670D01*
X133513505Y-108661035D01*
X133661035Y-108513505D01*
X133783670Y-108344714D01*
X133878389Y-108158816D01*
X133942862Y-107960389D01*
X133969504Y-107792179D01*
X133975500Y-107754324D01*
X133975500Y-107545675D01*
X133942862Y-107339610D01*
X133933668Y-107311314D01*
X133931673Y-107241473D01*
X133963916Y-107185317D01*
X136143558Y-105005675D01*
X144024500Y-105005675D01*
X144024500Y-105214324D01*
X144057137Y-105420389D01*
X144121612Y-105618820D01*
X144216330Y-105804714D01*
X144338965Y-105973505D01*
X144486495Y-106121035D01*
X144655286Y-106243670D01*
X144668222Y-106250261D01*
X144841179Y-106338387D01*
X144841181Y-106338387D01*
X144841184Y-106338389D01*
X144937137Y-106369566D01*
X145039610Y-106402862D01*
X145245676Y-106435500D01*
X145245681Y-106435500D01*
X145454324Y-106435500D01*
X145660389Y-106402862D01*
X145858816Y-106338389D01*
X146044714Y-106243670D01*
X146213505Y-106121035D01*
X146361035Y-105973505D01*
X146483670Y-105804714D01*
X146578389Y-105618816D01*
X146642862Y-105420389D01*
X146675500Y-105214324D01*
X146675500Y-105005675D01*
X146642862Y-104799610D01*
X146578387Y-104601179D01*
X146483669Y-104415285D01*
X146361035Y-104246495D01*
X146213505Y-104098965D01*
X146044714Y-103976330D01*
X145858820Y-103881612D01*
X145660389Y-103817137D01*
X145454324Y-103784500D01*
X145454319Y-103784500D01*
X145245681Y-103784500D01*
X145245676Y-103784500D01*
X145039610Y-103817137D01*
X144841179Y-103881612D01*
X144655285Y-103976330D01*
X144486493Y-104098966D01*
X144338966Y-104246493D01*
X144216330Y-104415285D01*
X144121612Y-104601179D01*
X144057137Y-104799610D01*
X144024500Y-105005675D01*
X136143558Y-105005675D01*
X143358506Y-97790728D01*
X143358511Y-97790724D01*
X143368714Y-97780520D01*
X143368716Y-97780520D01*
X143480520Y-97668716D01*
X143559577Y-97531784D01*
X143600500Y-97379057D01*
X143600500Y-96079765D01*
X143620185Y-96012726D01*
X143621398Y-96010874D01*
X143709390Y-95879185D01*
X143709390Y-95879184D01*
X143709394Y-95879179D01*
X143769737Y-95733497D01*
X143800500Y-95578842D01*
X143800500Y-95421158D01*
X143800500Y-95421155D01*
X143800499Y-95421153D01*
X143769738Y-95266510D01*
X143769737Y-95266503D01*
X143769735Y-95266498D01*
X143709397Y-95120827D01*
X143709390Y-95120814D01*
X143621789Y-94989711D01*
X143621786Y-94989707D01*
X143510292Y-94878213D01*
X143510288Y-94878210D01*
X143471963Y-94852602D01*
X143427158Y-94798990D01*
X143418451Y-94729665D01*
X143448605Y-94666637D01*
X143508048Y-94629918D01*
X143540854Y-94625500D01*
X144189548Y-94625500D01*
X144256587Y-94645185D01*
X144277229Y-94661819D01*
X147338181Y-97722771D01*
X147371666Y-97784094D01*
X147374500Y-97810452D01*
X147374500Y-127836611D01*
X147398535Y-127957444D01*
X147398540Y-127957461D01*
X147445685Y-128071281D01*
X147445688Y-128071286D01*
X147460936Y-128094105D01*
X147514142Y-128173733D01*
X147601267Y-128260858D01*
X147601269Y-128260860D01*
X147605088Y-128264679D01*
X165650681Y-146310272D01*
X165684166Y-146371595D01*
X165687000Y-146397953D01*
X165687000Y-147585370D01*
X165687001Y-147585376D01*
X165693408Y-147644983D01*
X165743702Y-147779828D01*
X165743706Y-147779835D01*
X165829952Y-147895044D01*
X165829955Y-147895047D01*
X165945164Y-147981293D01*
X165945171Y-147981297D01*
X166080017Y-148031591D01*
X166080016Y-148031591D01*
X166086944Y-148032335D01*
X166139627Y-148038000D01*
X167810372Y-148037999D01*
X167869983Y-148031591D01*
X168004831Y-147981296D01*
X168120046Y-147895046D01*
X168206296Y-147779831D01*
X168256591Y-147644983D01*
X168263000Y-147585373D01*
X168262999Y-145914628D01*
X168256591Y-145855017D01*
X168206296Y-145720169D01*
X168206295Y-145720168D01*
X168206293Y-145720164D01*
X168120047Y-145604955D01*
X168120044Y-145604952D01*
X168004835Y-145518706D01*
X168004828Y-145518702D01*
X167869982Y-145468408D01*
X167869983Y-145468408D01*
X167810383Y-145462001D01*
X167810381Y-145462000D01*
X167810373Y-145462000D01*
X167810365Y-145462000D01*
X166622953Y-145462000D01*
X166555914Y-145442315D01*
X166535272Y-145425681D01*
X148661819Y-127552228D01*
X148628334Y-127490905D01*
X148625500Y-127464547D01*
X148625500Y-125309452D01*
X148645185Y-125242413D01*
X148697989Y-125196658D01*
X148767147Y-125186714D01*
X148830703Y-125215739D01*
X148837181Y-125221771D01*
X157011016Y-133395606D01*
X157011045Y-133395637D01*
X157101263Y-133485855D01*
X157101267Y-133485858D01*
X157203707Y-133554307D01*
X157203713Y-133554310D01*
X157203714Y-133554311D01*
X157317548Y-133601463D01*
X157377971Y-133613481D01*
X157438393Y-133625500D01*
X157438394Y-133625500D01*
X165588001Y-133625500D01*
X165655040Y-133645185D01*
X165700795Y-133697989D01*
X165712001Y-133749500D01*
X165712001Y-133835376D01*
X165718408Y-133894983D01*
X165768702Y-134029828D01*
X165768706Y-134029835D01*
X165854952Y-134145044D01*
X165854955Y-134145047D01*
X165970164Y-134231293D01*
X165970171Y-134231297D01*
X166105017Y-134281591D01*
X166105016Y-134281591D01*
X166111944Y-134282335D01*
X166164627Y-134288000D01*
X167835372Y-134287999D01*
X167894983Y-134281591D01*
X168029831Y-134231296D01*
X168145046Y-134145046D01*
X168231296Y-134029831D01*
X168281591Y-133894983D01*
X168288000Y-133835373D01*
X168287999Y-132164628D01*
X168281591Y-132105017D01*
X168269332Y-132072150D01*
X168231297Y-131970171D01*
X168231293Y-131970164D01*
X168145047Y-131854955D01*
X168145044Y-131854952D01*
X168029835Y-131768706D01*
X168029828Y-131768702D01*
X167894982Y-131718408D01*
X167894983Y-131718408D01*
X167835383Y-131712001D01*
X167835381Y-131712000D01*
X167835373Y-131712000D01*
X167835364Y-131712000D01*
X166164629Y-131712000D01*
X166164623Y-131712001D01*
X166105016Y-131718408D01*
X165970171Y-131768702D01*
X165970164Y-131768706D01*
X165854955Y-131854952D01*
X165854952Y-131854955D01*
X165768706Y-131970164D01*
X165768702Y-131970171D01*
X165718408Y-132105017D01*
X165712001Y-132164616D01*
X165712001Y-132164623D01*
X165712000Y-132164635D01*
X165712000Y-132250500D01*
X165692315Y-132317539D01*
X165639511Y-132363294D01*
X165588000Y-132374500D01*
X157810452Y-132374500D01*
X157743413Y-132354815D01*
X157722771Y-132338181D01*
X149661819Y-124277229D01*
X149628334Y-124215906D01*
X149625500Y-124189548D01*
X149625500Y-103334452D01*
X149645185Y-103267413D01*
X149697989Y-103221658D01*
X149767147Y-103211714D01*
X149830703Y-103240739D01*
X149837181Y-103246771D01*
X165650681Y-119060271D01*
X165684166Y-119121594D01*
X165687000Y-119147952D01*
X165687000Y-120335370D01*
X165687001Y-120335376D01*
X165693408Y-120394983D01*
X165743702Y-120529828D01*
X165743706Y-120529835D01*
X165829952Y-120645044D01*
X165829955Y-120645047D01*
X165945164Y-120731293D01*
X165945171Y-120731297D01*
X166080017Y-120781591D01*
X166080016Y-120781591D01*
X166086944Y-120782335D01*
X166139627Y-120788000D01*
X167810372Y-120787999D01*
X167869983Y-120781591D01*
X168004831Y-120731296D01*
X168120046Y-120645046D01*
X168206296Y-120529831D01*
X168256591Y-120394983D01*
X168263000Y-120335373D01*
X168262999Y-118664628D01*
X168256591Y-118605017D01*
X168242518Y-118567286D01*
X168206297Y-118470171D01*
X168206293Y-118470164D01*
X168120047Y-118354955D01*
X168120044Y-118354952D01*
X168004835Y-118268706D01*
X168004828Y-118268702D01*
X167869982Y-118218408D01*
X167869983Y-118218408D01*
X167810383Y-118212001D01*
X167810381Y-118212000D01*
X167810373Y-118212000D01*
X167810365Y-118212000D01*
X166622952Y-118212000D01*
X166555913Y-118192315D01*
X166535271Y-118175681D01*
X156753303Y-108393713D01*
X163524500Y-108393713D01*
X163524500Y-108606286D01*
X163552594Y-108783669D01*
X163557754Y-108816243D01*
X163604987Y-108961612D01*
X163623444Y-109018414D01*
X163719951Y-109207820D01*
X163844890Y-109379786D01*
X163983705Y-109518601D01*
X164017190Y-109579924D01*
X164012206Y-109649616D01*
X163970334Y-109705549D01*
X163961121Y-109711821D01*
X163806342Y-109807289D01*
X163682289Y-109931342D01*
X163590187Y-110080663D01*
X163590186Y-110080666D01*
X163535001Y-110247203D01*
X163535001Y-110247204D01*
X163535000Y-110247204D01*
X163524500Y-110349983D01*
X163524500Y-111650001D01*
X163524501Y-111650018D01*
X163535000Y-111752796D01*
X163535001Y-111752799D01*
X163572676Y-111866493D01*
X163590186Y-111919334D01*
X163682288Y-112068656D01*
X163806344Y-112192712D01*
X163955666Y-112284814D01*
X164122203Y-112339999D01*
X164224991Y-112350500D01*
X165775008Y-112350499D01*
X165877797Y-112339999D01*
X166044334Y-112284814D01*
X166193656Y-112192712D01*
X166317712Y-112068656D01*
X166409814Y-111919334D01*
X166464999Y-111752797D01*
X166475500Y-111650009D01*
X166475499Y-110349992D01*
X166469812Y-110294324D01*
X166464999Y-110247203D01*
X166464998Y-110247200D01*
X166409814Y-110080666D01*
X166317712Y-109931344D01*
X166193656Y-109807288D01*
X166044334Y-109715186D01*
X166044333Y-109715185D01*
X166038878Y-109711821D01*
X165992154Y-109659873D01*
X165980931Y-109590910D01*
X166008775Y-109526828D01*
X166016272Y-109518623D01*
X166155104Y-109379792D01*
X166280051Y-109207816D01*
X166376557Y-109018412D01*
X166442246Y-108816243D01*
X166475500Y-108606287D01*
X166475500Y-108393713D01*
X166442246Y-108183757D01*
X166376557Y-107981588D01*
X166280051Y-107792184D01*
X166280049Y-107792181D01*
X166280048Y-107792179D01*
X166155109Y-107620213D01*
X166004786Y-107469890D01*
X165832820Y-107344951D01*
X165643414Y-107248444D01*
X165643413Y-107248443D01*
X165643412Y-107248443D01*
X165441243Y-107182754D01*
X165441241Y-107182753D01*
X165441240Y-107182753D01*
X165279957Y-107157208D01*
X165231287Y-107149500D01*
X164768713Y-107149500D01*
X164720042Y-107157208D01*
X164558760Y-107182753D01*
X164356585Y-107248444D01*
X164167179Y-107344951D01*
X163995213Y-107469890D01*
X163844890Y-107620213D01*
X163719951Y-107792179D01*
X163623444Y-107981585D01*
X163557753Y-108183760D01*
X163524500Y-108393713D01*
X156753303Y-108393713D01*
X150661819Y-102302229D01*
X150628334Y-102240906D01*
X150625500Y-102214548D01*
X150625500Y-99378711D01*
X156649500Y-99378711D01*
X156649500Y-99621288D01*
X156681161Y-99861785D01*
X156743947Y-100096104D01*
X156836773Y-100320205D01*
X156836776Y-100320212D01*
X156958064Y-100530289D01*
X156958066Y-100530292D01*
X156958067Y-100530293D01*
X157105733Y-100722736D01*
X157105739Y-100722743D01*
X157277256Y-100894260D01*
X157277262Y-100894265D01*
X157469711Y-101041936D01*
X157679788Y-101163224D01*
X157903900Y-101256054D01*
X158138211Y-101318838D01*
X158318586Y-101342584D01*
X158378711Y-101350500D01*
X158378712Y-101350500D01*
X158621289Y-101350500D01*
X158669388Y-101344167D01*
X158861789Y-101318838D01*
X159096100Y-101256054D01*
X159320212Y-101163224D01*
X159530289Y-101041936D01*
X159722738Y-100894265D01*
X159894265Y-100722738D01*
X160041936Y-100530289D01*
X160163224Y-100320212D01*
X160256054Y-100096100D01*
X160318838Y-99861789D01*
X160350500Y-99621288D01*
X160350500Y-99378712D01*
X160318838Y-99138211D01*
X160256054Y-98903900D01*
X160163224Y-98679788D01*
X160041936Y-98469711D01*
X159912096Y-98300500D01*
X159894266Y-98277263D01*
X159894260Y-98277256D01*
X159722743Y-98105739D01*
X159722736Y-98105733D01*
X159530293Y-97958067D01*
X159530292Y-97958066D01*
X159530289Y-97958064D01*
X159320212Y-97836776D01*
X159320205Y-97836773D01*
X159096104Y-97743947D01*
X158861785Y-97681161D01*
X158621289Y-97649500D01*
X158621288Y-97649500D01*
X158378712Y-97649500D01*
X158378711Y-97649500D01*
X158138214Y-97681161D01*
X157903895Y-97743947D01*
X157679794Y-97836773D01*
X157679785Y-97836777D01*
X157469706Y-97958067D01*
X157277263Y-98105733D01*
X157277256Y-98105739D01*
X157105739Y-98277256D01*
X157105733Y-98277263D01*
X156958067Y-98469706D01*
X156836777Y-98679785D01*
X156836773Y-98679794D01*
X156743947Y-98903895D01*
X156681161Y-99138214D01*
X156649500Y-99378711D01*
X150625500Y-99378711D01*
X150625500Y-83274097D01*
X150645185Y-83207058D01*
X150697989Y-83161303D01*
X150767147Y-83151359D01*
X150830703Y-83180384D01*
X150837181Y-83186416D01*
X152165425Y-84514660D01*
X152198910Y-84575983D01*
X152199361Y-84578149D01*
X152230261Y-84733491D01*
X152230264Y-84733501D01*
X152290602Y-84879172D01*
X152290609Y-84879185D01*
X152378210Y-85010288D01*
X152378213Y-85010292D01*
X152489707Y-85121786D01*
X152489711Y-85121789D01*
X152620814Y-85209390D01*
X152620827Y-85209397D01*
X152766498Y-85269735D01*
X152766503Y-85269737D01*
X152921153Y-85300499D01*
X152921156Y-85300500D01*
X152921158Y-85300500D01*
X153078844Y-85300500D01*
X153078845Y-85300499D01*
X153233497Y-85269737D01*
X153379179Y-85209394D01*
X153510289Y-85121789D01*
X153621789Y-85010289D01*
X153709394Y-84879179D01*
X153769737Y-84733497D01*
X153800500Y-84578842D01*
X153800500Y-84421158D01*
X153800500Y-84421155D01*
X153800499Y-84421153D01*
X153782801Y-84332179D01*
X153769737Y-84266503D01*
X153762256Y-84248443D01*
X153709397Y-84120827D01*
X153709390Y-84120814D01*
X153621789Y-83989711D01*
X153621786Y-83989707D01*
X153510292Y-83878213D01*
X153510288Y-83878210D01*
X153379185Y-83790609D01*
X153379172Y-83790602D01*
X153233501Y-83730264D01*
X153233491Y-83730261D01*
X153078151Y-83699362D01*
X153016241Y-83666977D01*
X153014662Y-83665426D01*
X149770389Y-80421153D01*
X153699500Y-80421153D01*
X153699500Y-80578846D01*
X153730261Y-80733489D01*
X153730264Y-80733501D01*
X153790602Y-80879172D01*
X153790609Y-80879185D01*
X153878210Y-81010288D01*
X153878213Y-81010292D01*
X153989707Y-81121786D01*
X153989711Y-81121789D01*
X154120814Y-81209390D01*
X154120827Y-81209397D01*
X154183393Y-81235312D01*
X154266503Y-81269737D01*
X154377716Y-81291858D01*
X154439623Y-81324241D01*
X154441202Y-81325792D01*
X157514141Y-84398732D01*
X157514142Y-84398733D01*
X157601267Y-84485858D01*
X157630328Y-84505276D01*
X157703714Y-84554311D01*
X157817548Y-84601463D01*
X157911788Y-84620208D01*
X157938388Y-84625499D01*
X157938392Y-84625500D01*
X157938393Y-84625500D01*
X157938394Y-84625500D01*
X158957650Y-84625500D01*
X159024689Y-84645185D01*
X159026541Y-84646398D01*
X159120821Y-84709394D01*
X159120823Y-84709395D01*
X159120827Y-84709397D01*
X159266498Y-84769735D01*
X159266503Y-84769737D01*
X159369161Y-84790157D01*
X159421153Y-84800499D01*
X159421156Y-84800500D01*
X159421158Y-84800500D01*
X159578844Y-84800500D01*
X159578845Y-84800499D01*
X159733497Y-84769737D01*
X159879179Y-84709394D01*
X160010289Y-84621789D01*
X160121789Y-84510289D01*
X160209394Y-84379179D01*
X160269737Y-84233497D01*
X160300500Y-84078842D01*
X160300500Y-83921158D01*
X160300500Y-83921155D01*
X160300499Y-83921153D01*
X160293298Y-83884951D01*
X160269737Y-83766503D01*
X160268987Y-83764692D01*
X160209397Y-83620827D01*
X160209390Y-83620814D01*
X160121789Y-83489711D01*
X160121786Y-83489707D01*
X160010292Y-83378213D01*
X160010288Y-83378210D01*
X159879185Y-83290609D01*
X159879172Y-83290602D01*
X159733501Y-83230264D01*
X159733489Y-83230261D01*
X159578845Y-83199500D01*
X159578842Y-83199500D01*
X159421158Y-83199500D01*
X159421155Y-83199500D01*
X159266510Y-83230261D01*
X159266498Y-83230264D01*
X159120827Y-83290602D01*
X159120815Y-83290609D01*
X159026541Y-83353602D01*
X158959864Y-83374480D01*
X158957650Y-83374500D01*
X158310453Y-83374500D01*
X158243414Y-83354815D01*
X158222772Y-83338181D01*
X155325793Y-80441203D01*
X155292308Y-80379880D01*
X155291887Y-80377864D01*
X155269737Y-80266503D01*
X155245599Y-80208230D01*
X155209397Y-80120827D01*
X155209390Y-80120814D01*
X155121789Y-79989711D01*
X155121786Y-79989707D01*
X155010292Y-79878213D01*
X155010288Y-79878210D01*
X154879185Y-79790609D01*
X154879172Y-79790602D01*
X154733501Y-79730264D01*
X154733489Y-79730261D01*
X154578845Y-79699500D01*
X154578842Y-79699500D01*
X154421158Y-79699500D01*
X154421155Y-79699500D01*
X154266510Y-79730261D01*
X154266498Y-79730264D01*
X154120827Y-79790602D01*
X154120814Y-79790609D01*
X153989711Y-79878210D01*
X153989707Y-79878213D01*
X153878213Y-79989707D01*
X153878210Y-79989711D01*
X153790609Y-80120814D01*
X153790602Y-80120827D01*
X153730264Y-80266498D01*
X153730261Y-80266510D01*
X153699500Y-80421153D01*
X149770389Y-80421153D01*
X146136819Y-76787583D01*
X146103334Y-76726260D01*
X146100500Y-76699902D01*
X146100500Y-57089060D01*
X146100501Y-57089047D01*
X146100501Y-56920944D01*
X146094460Y-56898398D01*
X146059577Y-56768216D01*
X146044704Y-56742455D01*
X145980524Y-56631290D01*
X145980518Y-56631282D01*
X145253024Y-55903788D01*
X145173470Y-55824234D01*
X148464500Y-55824234D01*
X148464500Y-55975765D01*
X148503719Y-56122136D01*
X148534268Y-56175048D01*
X148579485Y-56253365D01*
X148686635Y-56360515D01*
X148817865Y-56436281D01*
X148964234Y-56475500D01*
X148964236Y-56475500D01*
X149115764Y-56475500D01*
X149115766Y-56475500D01*
X149262135Y-56436281D01*
X149393365Y-56360515D01*
X149500515Y-56253365D01*
X149576281Y-56122135D01*
X149615500Y-55975766D01*
X149615500Y-55824234D01*
X154244500Y-55824234D01*
X154244500Y-55975765D01*
X154283719Y-56122136D01*
X154314268Y-56175048D01*
X154359485Y-56253365D01*
X154466635Y-56360515D01*
X154597865Y-56436281D01*
X154744234Y-56475500D01*
X154744236Y-56475500D01*
X154895764Y-56475500D01*
X154895766Y-56475500D01*
X155042135Y-56436281D01*
X155173365Y-56360515D01*
X155280515Y-56253365D01*
X155356281Y-56122135D01*
X155395500Y-55975766D01*
X155395500Y-55824234D01*
X155356281Y-55677865D01*
X155280515Y-55546635D01*
X155173365Y-55439485D01*
X155095042Y-55394265D01*
X155042136Y-55363719D01*
X154939577Y-55336239D01*
X154895766Y-55324500D01*
X154744234Y-55324500D01*
X154597863Y-55363719D01*
X154466635Y-55439485D01*
X154466632Y-55439487D01*
X154359487Y-55546632D01*
X154359485Y-55546635D01*
X154283719Y-55677863D01*
X154244500Y-55824234D01*
X149615500Y-55824234D01*
X149576281Y-55677865D01*
X149500515Y-55546635D01*
X149393365Y-55439485D01*
X149315042Y-55394265D01*
X149262136Y-55363719D01*
X149159577Y-55336239D01*
X149115766Y-55324500D01*
X148964234Y-55324500D01*
X148817863Y-55363719D01*
X148686635Y-55439485D01*
X148686632Y-55439487D01*
X148579487Y-55546632D01*
X148579485Y-55546635D01*
X148503719Y-55677863D01*
X148464500Y-55824234D01*
X145173470Y-55824234D01*
X143311569Y-53962334D01*
X143227946Y-53878711D01*
X164149500Y-53878711D01*
X164149500Y-54121288D01*
X164181161Y-54361785D01*
X164243947Y-54596104D01*
X164296775Y-54723641D01*
X164336776Y-54820212D01*
X164458064Y-55030289D01*
X164458066Y-55030292D01*
X164458067Y-55030293D01*
X164605733Y-55222736D01*
X164605739Y-55222743D01*
X164777256Y-55394260D01*
X164777263Y-55394266D01*
X164890321Y-55481018D01*
X164969711Y-55541936D01*
X165179788Y-55663224D01*
X165403900Y-55756054D01*
X165638211Y-55818838D01*
X165818586Y-55842584D01*
X165878711Y-55850500D01*
X165878712Y-55850500D01*
X166121289Y-55850500D01*
X166169388Y-55844167D01*
X166361789Y-55818838D01*
X166596100Y-55756054D01*
X166820212Y-55663224D01*
X167030289Y-55541936D01*
X167222738Y-55394265D01*
X167394265Y-55222738D01*
X167541936Y-55030289D01*
X167663224Y-54820212D01*
X167756054Y-54596100D01*
X167818838Y-54361789D01*
X167850500Y-54121288D01*
X167850500Y-53878712D01*
X167818838Y-53638211D01*
X167756054Y-53403900D01*
X167663224Y-53179788D01*
X167541936Y-52969711D01*
X167394265Y-52777262D01*
X167394260Y-52777256D01*
X167222743Y-52605739D01*
X167222736Y-52605733D01*
X167030293Y-52458067D01*
X167030292Y-52458066D01*
X167030289Y-52458064D01*
X166820212Y-52336776D01*
X166820205Y-52336773D01*
X166596104Y-52243947D01*
X166478944Y-52212554D01*
X166361789Y-52181162D01*
X166361788Y-52181161D01*
X166361785Y-52181161D01*
X166121289Y-52149500D01*
X166121288Y-52149500D01*
X165878712Y-52149500D01*
X165878711Y-52149500D01*
X165638214Y-52181161D01*
X165403895Y-52243947D01*
X165179794Y-52336773D01*
X165179785Y-52336777D01*
X164969706Y-52458067D01*
X164777263Y-52605733D01*
X164777256Y-52605739D01*
X164605739Y-52777256D01*
X164605733Y-52777263D01*
X164458067Y-52969706D01*
X164336777Y-53179785D01*
X164336773Y-53179794D01*
X164243947Y-53403895D01*
X164181161Y-53638214D01*
X164149500Y-53878711D01*
X143227946Y-53878711D01*
X142856590Y-53507355D01*
X142856588Y-53507352D01*
X142737717Y-53388481D01*
X142737709Y-53388475D01*
X142641754Y-53333076D01*
X142641752Y-53333075D01*
X142600790Y-53309425D01*
X142600789Y-53309424D01*
X142588263Y-53306067D01*
X142448057Y-53268499D01*
X142289943Y-53268499D01*
X142282347Y-53268499D01*
X142282331Y-53268500D01*
X105817669Y-53268500D01*
X105817653Y-53268499D01*
X105810057Y-53268499D01*
X105651943Y-53268499D01*
X105544587Y-53297265D01*
X105499210Y-53309424D01*
X105499209Y-53309425D01*
X105458248Y-53333075D01*
X105458246Y-53333076D01*
X105362290Y-53388475D01*
X105362282Y-53388481D01*
X104062181Y-54688583D01*
X104000858Y-54722068D01*
X103931166Y-54717084D01*
X103875233Y-54675212D01*
X103850816Y-54609748D01*
X103850500Y-54600902D01*
X103850500Y-54453713D01*
X103842610Y-54403900D01*
X103817246Y-54243757D01*
X103751557Y-54041588D01*
X103655051Y-53852184D01*
X103655049Y-53852181D01*
X103655048Y-53852179D01*
X103530109Y-53680213D01*
X103379786Y-53529890D01*
X103207820Y-53404951D01*
X103018414Y-53308444D01*
X103018413Y-53308443D01*
X103018412Y-53308443D01*
X102816243Y-53242754D01*
X102816241Y-53242753D01*
X102816240Y-53242753D01*
X102654957Y-53217208D01*
X102606287Y-53209500D01*
X102393713Y-53209500D01*
X102345042Y-53217208D01*
X102183760Y-53242753D01*
X101981585Y-53308444D01*
X101792179Y-53404951D01*
X101620213Y-53529890D01*
X101469890Y-53680213D01*
X101344951Y-53852179D01*
X101248444Y-54041585D01*
X101182753Y-54243760D01*
X101149500Y-54453713D01*
X101149500Y-54600903D01*
X101129815Y-54667942D01*
X101077011Y-54713697D01*
X101007853Y-54723641D01*
X100944297Y-54694616D01*
X100937819Y-54688584D01*
X97387590Y-51138355D01*
X97387588Y-51138352D01*
X97268717Y-51019481D01*
X97268716Y-51019480D01*
X97181904Y-50969360D01*
X97181904Y-50969359D01*
X97181900Y-50969358D01*
X97131785Y-50940423D01*
X96979057Y-50899499D01*
X96820943Y-50899499D01*
X96813347Y-50899499D01*
X96813331Y-50899500D01*
X91579766Y-50899500D01*
X91512727Y-50879815D01*
X91510875Y-50878602D01*
X91379185Y-50790609D01*
X91379172Y-50790602D01*
X91233501Y-50730264D01*
X91233489Y-50730261D01*
X91078845Y-50699500D01*
X91078842Y-50699500D01*
X90921158Y-50699500D01*
X90921155Y-50699500D01*
X90766510Y-50730261D01*
X90766498Y-50730264D01*
X90620827Y-50790602D01*
X90620814Y-50790609D01*
X90489711Y-50878210D01*
X90489707Y-50878213D01*
X90378213Y-50989707D01*
X90378210Y-50989711D01*
X90290609Y-51120814D01*
X90290602Y-51120827D01*
X90230264Y-51266498D01*
X90230261Y-51266510D01*
X90199500Y-51421153D01*
X90199500Y-51578846D01*
X90230261Y-51733489D01*
X90230264Y-51733501D01*
X90290602Y-51879172D01*
X90290609Y-51879185D01*
X90378210Y-52010288D01*
X90378213Y-52010292D01*
X90489707Y-52121786D01*
X90489711Y-52121789D01*
X90620814Y-52209390D01*
X90620827Y-52209397D01*
X90766498Y-52269735D01*
X90766503Y-52269737D01*
X90921153Y-52300499D01*
X90921156Y-52300500D01*
X90921158Y-52300500D01*
X91078844Y-52300500D01*
X91078845Y-52300499D01*
X91233497Y-52269737D01*
X91379179Y-52209394D01*
X91468817Y-52149500D01*
X91510875Y-52121398D01*
X91577553Y-52100520D01*
X91579766Y-52100500D01*
X96599903Y-52100500D01*
X96666942Y-52120185D01*
X96687584Y-52136819D01*
X101166241Y-56615476D01*
X101199726Y-56676799D01*
X101196492Y-56741473D01*
X101182753Y-56783757D01*
X101149500Y-56993713D01*
X101149500Y-57206286D01*
X101172557Y-57351866D01*
X101182754Y-57416243D01*
X101242166Y-57599095D01*
X101248444Y-57618414D01*
X101344951Y-57807820D01*
X101469890Y-57979786D01*
X101620213Y-58130109D01*
X101792182Y-58255050D01*
X101800946Y-58259516D01*
X101851742Y-58307491D01*
X101868536Y-58375312D01*
X101845998Y-58441447D01*
X101800946Y-58480484D01*
X101792182Y-58484949D01*
X101620213Y-58609890D01*
X101469890Y-58760213D01*
X101344951Y-58932179D01*
X101248444Y-59121585D01*
X101182753Y-59323760D01*
X101149500Y-59533713D01*
X101149500Y-59746286D01*
X101181724Y-59949744D01*
X101182754Y-59956243D01*
X101219109Y-60068133D01*
X101248444Y-60158414D01*
X101344951Y-60347820D01*
X101469890Y-60519786D01*
X101620213Y-60670109D01*
X101792182Y-60795050D01*
X101800946Y-60799516D01*
X101851742Y-60847491D01*
X101868536Y-60915312D01*
X101845998Y-60981447D01*
X101800946Y-61020484D01*
X101792182Y-61024949D01*
X101620213Y-61149890D01*
X101469890Y-61300213D01*
X101344951Y-61472179D01*
X101248444Y-61661585D01*
X101182753Y-61863760D01*
X101149500Y-62073713D01*
X101149500Y-62286286D01*
X101182753Y-62496239D01*
X101248444Y-62698414D01*
X101344951Y-62887820D01*
X101469890Y-63059786D01*
X101620213Y-63210109D01*
X101792182Y-63335050D01*
X101800946Y-63339516D01*
X101851742Y-63387491D01*
X101868536Y-63455312D01*
X101845998Y-63521447D01*
X101800946Y-63560484D01*
X101792182Y-63564949D01*
X101620213Y-63689890D01*
X101469890Y-63840213D01*
X101344951Y-64012179D01*
X101248444Y-64201585D01*
X101182753Y-64403760D01*
X101149500Y-64613713D01*
X101149500Y-64826286D01*
X101182754Y-65036246D01*
X101182754Y-65036247D01*
X101187821Y-65051842D01*
X101189814Y-65121683D01*
X101157570Y-65177837D01*
X66956698Y-99378711D01*
X55601270Y-110734139D01*
X55601267Y-110734142D01*
X55557704Y-110777704D01*
X55514142Y-110821266D01*
X55498458Y-110844738D01*
X55488492Y-110859655D01*
X55445688Y-110923714D01*
X55412347Y-111004207D01*
X55410145Y-111009523D01*
X55410143Y-111009527D01*
X55398537Y-111037545D01*
X55398535Y-111037553D01*
X55374500Y-111158389D01*
X55374500Y-133957650D01*
X55354815Y-134024689D01*
X55353626Y-134026503D01*
X55351401Y-134029835D01*
X55290609Y-134120815D01*
X55290602Y-134120828D01*
X55230264Y-134266498D01*
X55230261Y-134266510D01*
X55199500Y-134421153D01*
X50130500Y-134421153D01*
X50130500Y-57052135D01*
X64299500Y-57052135D01*
X64299500Y-58947870D01*
X64299501Y-58947876D01*
X64305908Y-59007483D01*
X64356202Y-59142328D01*
X64356206Y-59142335D01*
X64442452Y-59257544D01*
X64442455Y-59257547D01*
X64557664Y-59343793D01*
X64557671Y-59343797D01*
X64692517Y-59394091D01*
X64692516Y-59394091D01*
X64699444Y-59394835D01*
X64752127Y-59400500D01*
X69247872Y-59400499D01*
X69307483Y-59394091D01*
X69442331Y-59343796D01*
X69557546Y-59257546D01*
X69643796Y-59142331D01*
X69694091Y-59007483D01*
X69700500Y-58947873D01*
X69700499Y-57052128D01*
X69694091Y-56992517D01*
X69658985Y-56898394D01*
X69643797Y-56857671D01*
X69643793Y-56857664D01*
X69557547Y-56742455D01*
X69557544Y-56742452D01*
X69442335Y-56656206D01*
X69442328Y-56656202D01*
X69307482Y-56605908D01*
X69307483Y-56605908D01*
X69247883Y-56599501D01*
X69247881Y-56599500D01*
X69247873Y-56599500D01*
X69247864Y-56599500D01*
X64752129Y-56599500D01*
X64752123Y-56599501D01*
X64692516Y-56605908D01*
X64557671Y-56656202D01*
X64557664Y-56656206D01*
X64442455Y-56742452D01*
X64442452Y-56742455D01*
X64356206Y-56857664D01*
X64356202Y-56857671D01*
X64305908Y-56992517D01*
X64301395Y-57034497D01*
X64299501Y-57052123D01*
X64299500Y-57052135D01*
X50130500Y-57052135D01*
X50130500Y-54878711D01*
X53149500Y-54878711D01*
X53149500Y-55121288D01*
X53181161Y-55361785D01*
X53243947Y-55596104D01*
X53298506Y-55727820D01*
X53336776Y-55820212D01*
X53458064Y-56030289D01*
X53458066Y-56030292D01*
X53458067Y-56030293D01*
X53605733Y-56222736D01*
X53605739Y-56222743D01*
X53777256Y-56394260D01*
X53777263Y-56394266D01*
X53791188Y-56404951D01*
X53969711Y-56541936D01*
X54179788Y-56663224D01*
X54403900Y-56756054D01*
X54638211Y-56818838D01*
X54818586Y-56842584D01*
X54878711Y-56850500D01*
X54878712Y-56850500D01*
X55121289Y-56850500D01*
X55169388Y-56844167D01*
X55361789Y-56818838D01*
X55596100Y-56756054D01*
X55820212Y-56663224D01*
X56030289Y-56541936D01*
X56222738Y-56394265D01*
X56394265Y-56222738D01*
X56541936Y-56030289D01*
X56663224Y-55820212D01*
X56756054Y-55596100D01*
X56818838Y-55361789D01*
X56850500Y-55121288D01*
X56850500Y-54878712D01*
X56849205Y-54868872D01*
X76419500Y-54868872D01*
X76419500Y-55131127D01*
X76444960Y-55324500D01*
X76453730Y-55391116D01*
X76495401Y-55546635D01*
X76521602Y-55644418D01*
X76521605Y-55644428D01*
X76621953Y-55886690D01*
X76621958Y-55886700D01*
X76753075Y-56113803D01*
X76912718Y-56321851D01*
X76912726Y-56321860D01*
X77098140Y-56507274D01*
X77098148Y-56507281D01*
X77306196Y-56666924D01*
X77533299Y-56798041D01*
X77533309Y-56798046D01*
X77775571Y-56898394D01*
X77775581Y-56898398D01*
X78028884Y-56966270D01*
X78288880Y-57000500D01*
X78288887Y-57000500D01*
X78551113Y-57000500D01*
X78551120Y-57000500D01*
X78811116Y-56966270D01*
X79064419Y-56898398D01*
X79306697Y-56798043D01*
X79533803Y-56666924D01*
X79741851Y-56507282D01*
X79741855Y-56507277D01*
X79741860Y-56507274D01*
X79927274Y-56321860D01*
X79927277Y-56321855D01*
X79927282Y-56321851D01*
X80086924Y-56113803D01*
X80218043Y-55886697D01*
X80318398Y-55644419D01*
X80386270Y-55391116D01*
X80420500Y-55131120D01*
X80420500Y-54868880D01*
X80386270Y-54608884D01*
X80318398Y-54355581D01*
X80221351Y-54121288D01*
X80218046Y-54113309D01*
X80218041Y-54113299D01*
X80086924Y-53886196D01*
X79927281Y-53678148D01*
X79927274Y-53678140D01*
X79741860Y-53492726D01*
X79741851Y-53492718D01*
X79533803Y-53333075D01*
X79306700Y-53201958D01*
X79306690Y-53201953D01*
X79064428Y-53101605D01*
X79064421Y-53101603D01*
X79064419Y-53101602D01*
X78811116Y-53033730D01*
X78753339Y-53026123D01*
X78551127Y-52999500D01*
X78551120Y-52999500D01*
X78288880Y-52999500D01*
X78288872Y-52999500D01*
X78057772Y-53029926D01*
X78028884Y-53033730D01*
X77775581Y-53101602D01*
X77775571Y-53101605D01*
X77533309Y-53201953D01*
X77533299Y-53201958D01*
X77306196Y-53333075D01*
X77098148Y-53492718D01*
X76912718Y-53678148D01*
X76753075Y-53886196D01*
X76621958Y-54113299D01*
X76621953Y-54113309D01*
X76521605Y-54355571D01*
X76521602Y-54355581D01*
X76455869Y-54600903D01*
X76453730Y-54608885D01*
X76419500Y-54868872D01*
X56849205Y-54868872D01*
X56818838Y-54638211D01*
X56756054Y-54403900D01*
X56663224Y-54179788D01*
X56541936Y-53969711D01*
X56394265Y-53777262D01*
X56394260Y-53777256D01*
X56222743Y-53605739D01*
X56222736Y-53605733D01*
X56030293Y-53458067D01*
X56030292Y-53458066D01*
X56030289Y-53458064D01*
X55820212Y-53336776D01*
X55820205Y-53336773D01*
X55596104Y-53243947D01*
X55361785Y-53181161D01*
X55121289Y-53149500D01*
X55121288Y-53149500D01*
X54878712Y-53149500D01*
X54878711Y-53149500D01*
X54638214Y-53181161D01*
X54403895Y-53243947D01*
X54179794Y-53336773D01*
X54179785Y-53336777D01*
X53969706Y-53458067D01*
X53777263Y-53605733D01*
X53777256Y-53605739D01*
X53605739Y-53777256D01*
X53605733Y-53777263D01*
X53458067Y-53969706D01*
X53336777Y-54179785D01*
X53336773Y-54179794D01*
X53243947Y-54403895D01*
X53181161Y-54638214D01*
X53149500Y-54878711D01*
X50130500Y-54878711D01*
X50130500Y-50254500D01*
X50150185Y-50187461D01*
X50202989Y-50141706D01*
X50254500Y-50130500D01*
X169745500Y-50130500D01*
X169812539Y-50150185D01*
G37*
%TD.AperFunction*%
%TD*%
M02*
