%TF.GenerationSoftware,KiCad,Pcbnew,9.0.6*%
%TF.CreationDate,2025-12-30T14:23:23+05:30*%
%TF.ProjectId,Gantry_PCBv2,47616e74-7279-45f5-9043-4276322e6b69,rev?*%
%TF.SameCoordinates,Original*%
%TF.FileFunction,Paste,Top*%
%TF.FilePolarity,Positive*%
%FSLAX46Y46*%
G04 Gerber Fmt 4.6, Leading zero omitted, Abs format (unit mm)*
G04 Created by KiCad (PCBNEW 9.0.6) date 2025-12-30 14:23:23*
%MOMM*%
%LPD*%
G01*
G04 APERTURE LIST*
G04 Aperture macros list*
%AMRoundRect*
0 Rectangle with rounded corners*
0 $1 Rounding radius*
0 $2 $3 $4 $5 $6 $7 $8 $9 X,Y pos of 4 corners*
0 Add a 4 corners polygon primitive as box body*
4,1,4,$2,$3,$4,$5,$6,$7,$8,$9,$2,$3,0*
0 Add four circle primitives for the rounded corners*
1,1,$1+$1,$2,$3*
1,1,$1+$1,$4,$5*
1,1,$1+$1,$6,$7*
1,1,$1+$1,$8,$9*
0 Add four rect primitives between the rounded corners*
20,1,$1+$1,$2,$3,$4,$5,0*
20,1,$1+$1,$4,$5,$6,$7,0*
20,1,$1+$1,$6,$7,$8,$9,0*
20,1,$1+$1,$8,$9,$2,$3,0*%
G04 Aperture macros list end*
%ADD10RoundRect,0.250000X-0.262500X-0.450000X0.262500X-0.450000X0.262500X0.450000X-0.262500X0.450000X0*%
%ADD11RoundRect,0.150000X-0.150000X0.587500X-0.150000X-0.587500X0.150000X-0.587500X0.150000X0.587500X0*%
%ADD12RoundRect,0.250000X-0.250000X-0.475000X0.250000X-0.475000X0.250000X0.475000X-0.250000X0.475000X0*%
%ADD13RoundRect,0.250000X0.250000X0.475000X-0.250000X0.475000X-0.250000X-0.475000X0.250000X-0.475000X0*%
%ADD14RoundRect,0.250000X0.475000X-0.250000X0.475000X0.250000X-0.475000X0.250000X-0.475000X-0.250000X0*%
%ADD15RoundRect,0.250000X-0.550000X1.500000X-0.550000X-1.500000X0.550000X-1.500000X0.550000X1.500000X0*%
%ADD16RoundRect,0.250000X-0.450000X0.262500X-0.450000X-0.262500X0.450000X-0.262500X0.450000X0.262500X0*%
%ADD17RoundRect,0.250000X-0.900000X1.000000X-0.900000X-1.000000X0.900000X-1.000000X0.900000X1.000000X0*%
%ADD18RoundRect,0.250000X-2.375000X2.025000X-2.375000X-2.025000X2.375000X-2.025000X2.375000X2.025000X0*%
%ADD19RoundRect,0.250000X-0.300000X2.050000X-0.300000X-2.050000X0.300000X-2.050000X0.300000X2.050000X0*%
%ADD20R,1.500000X0.900000*%
%ADD21R,0.900000X1.500000*%
%ADD22R,0.900000X0.900000*%
%ADD23RoundRect,0.200000X-0.800000X0.200000X-0.800000X-0.200000X0.800000X-0.200000X0.800000X0.200000X0*%
%ADD24RoundRect,0.200000X-0.200000X-0.275000X0.200000X-0.275000X0.200000X0.275000X-0.200000X0.275000X0*%
%ADD25R,0.600000X1.450000*%
%ADD26R,0.300000X1.450000*%
%ADD27RoundRect,0.150000X-0.150000X0.825000X-0.150000X-0.825000X0.150000X-0.825000X0.150000X0.825000X0*%
%ADD28RoundRect,0.250000X1.500000X0.550000X-1.500000X0.550000X-1.500000X-0.550000X1.500000X-0.550000X0*%
%ADD29RoundRect,0.250000X0.650000X-1.000000X0.650000X1.000000X-0.650000X1.000000X-0.650000X-1.000000X0*%
%ADD30RoundRect,0.250000X-1.000000X1.500000X-1.000000X-1.500000X1.000000X-1.500000X1.000000X1.500000X0*%
%ADD31R,2.700000X3.600000*%
%ADD32RoundRect,0.375000X0.375000X-0.625000X0.375000X0.625000X-0.375000X0.625000X-0.375000X-0.625000X0*%
%ADD33RoundRect,0.500000X1.400000X-0.500000X1.400000X0.500000X-1.400000X0.500000X-1.400000X-0.500000X0*%
G04 APERTURE END LIST*
D10*
%TO.C,R10*%
X148087500Y-63000000D03*
X149912500Y-63000000D03*
%TD*%
D11*
%TO.C,Q2*%
X151000000Y-85500000D03*
X149100000Y-85500000D03*
X150050000Y-87375000D03*
%TD*%
D10*
%TO.C,R11*%
X154087500Y-63500000D03*
X155912500Y-63500000D03*
%TD*%
D12*
%TO.C,C1*%
X91100000Y-58000000D03*
X93000000Y-58000000D03*
%TD*%
D13*
%TO.C,C10*%
X91950000Y-71650000D03*
X90050000Y-71650000D03*
%TD*%
D14*
%TO.C,C5*%
X158000000Y-92900000D03*
X158000000Y-91000000D03*
%TD*%
D15*
%TO.C,C6*%
X58000000Y-108500000D03*
X58000000Y-113900000D03*
%TD*%
D14*
%TO.C,C3*%
X162500000Y-74500000D03*
X162500000Y-72600000D03*
%TD*%
D16*
%TO.C,R3*%
X158000000Y-78675000D03*
X158000000Y-80500000D03*
%TD*%
D13*
%TO.C,C9*%
X92400000Y-87650000D03*
X90500000Y-87650000D03*
%TD*%
D17*
%TO.C,D15*%
X77500000Y-89000000D03*
X77500000Y-93300000D03*
%TD*%
D18*
%TO.C,U4*%
X75275000Y-110075000D03*
X69725000Y-110075000D03*
X75275000Y-114925000D03*
X69725000Y-114925000D03*
D19*
X75900000Y-103350000D03*
X74200000Y-103350000D03*
X72500000Y-103350000D03*
X70800000Y-103350000D03*
X69100000Y-103350000D03*
%TD*%
D11*
%TO.C,Q1*%
X159000000Y-85500000D03*
X157100000Y-85500000D03*
X158050000Y-87375000D03*
%TD*%
D20*
%TO.C,U1*%
X111655000Y-51340000D03*
X111655000Y-52610000D03*
X111655000Y-53880000D03*
X111655000Y-55150000D03*
X111655000Y-56420000D03*
X111655000Y-57690000D03*
X111655000Y-58960000D03*
X111655000Y-60230000D03*
X111655000Y-61500000D03*
X111655000Y-62770000D03*
X111655000Y-64040000D03*
X111655000Y-65310000D03*
X111655000Y-66580000D03*
X111655000Y-67850000D03*
D21*
X114690000Y-69100000D03*
X115960000Y-69100000D03*
X117230000Y-69100000D03*
X118500000Y-69100000D03*
X119770000Y-69100000D03*
X121040000Y-69100000D03*
X122310000Y-69100000D03*
X123580000Y-69100000D03*
X124850000Y-69100000D03*
X126120000Y-69100000D03*
D20*
X129155000Y-67850000D03*
X129155000Y-66580000D03*
X129155000Y-65310000D03*
X129155000Y-64040000D03*
X129155000Y-62770000D03*
X129155000Y-61500000D03*
X129155000Y-60230000D03*
X129155000Y-58960000D03*
X129155000Y-57690000D03*
X129155000Y-56420000D03*
X129155000Y-55150000D03*
X129155000Y-53880000D03*
X129155000Y-52610000D03*
X129155000Y-51340000D03*
D22*
X117505000Y-57660000D03*
X118905000Y-57660000D03*
X120305000Y-57660000D03*
X117505000Y-59060000D03*
X118905000Y-59060000D03*
X120305000Y-59060000D03*
X117505000Y-60460000D03*
X118905000Y-60460000D03*
X120305000Y-60460000D03*
%TD*%
D23*
%TO.C,SW7*%
X146000000Y-77300000D03*
X146000000Y-81500000D03*
%TD*%
D24*
%TO.C,R9*%
X55350000Y-139500000D03*
X57000000Y-139500000D03*
%TD*%
D25*
%TO.C,J14*%
X155180000Y-57345000D03*
X154380000Y-57345000D03*
D26*
X153180000Y-57345000D03*
X152180000Y-57345000D03*
X151680000Y-57345000D03*
X150680000Y-57345000D03*
D25*
X149480000Y-57345000D03*
X148680000Y-57345000D03*
X148680000Y-57345000D03*
X149480000Y-57345000D03*
D26*
X150180000Y-57345000D03*
X151180000Y-57345000D03*
X152680000Y-57345000D03*
X153680000Y-57345000D03*
D25*
X154380000Y-57345000D03*
X155180000Y-57345000D03*
%TD*%
D27*
%TO.C,U2*%
X157620000Y-68500000D03*
X156350000Y-68500000D03*
X155080000Y-68500000D03*
X153810000Y-68500000D03*
X152540000Y-68500000D03*
X151270000Y-68500000D03*
X150000000Y-68500000D03*
X148730000Y-68500000D03*
X148730000Y-73450000D03*
X150000000Y-73450000D03*
X151270000Y-73450000D03*
X152540000Y-73450000D03*
X153810000Y-73450000D03*
X155080000Y-73450000D03*
X156350000Y-73450000D03*
X157620000Y-73450000D03*
%TD*%
D14*
%TO.C,C4*%
X150000000Y-92900000D03*
X150000000Y-91000000D03*
%TD*%
D28*
%TO.C,C14*%
X140700000Y-136500000D03*
X135300000Y-136500000D03*
%TD*%
D10*
%TO.C,R1*%
X91000000Y-53000000D03*
X92825000Y-53000000D03*
%TD*%
D16*
%TO.C,R5*%
X164500000Y-91087500D03*
X164500000Y-92912500D03*
%TD*%
D23*
%TO.C,SW8*%
X164500000Y-77800000D03*
X164500000Y-82000000D03*
%TD*%
D16*
%TO.C,R2*%
X152500000Y-78500000D03*
X152500000Y-80325000D03*
%TD*%
D28*
%TO.C,C13*%
X118200000Y-136500000D03*
X112800000Y-136500000D03*
%TD*%
D29*
%TO.C,D13*%
X162500000Y-65000000D03*
X162500000Y-61000000D03*
%TD*%
%TO.C,D14*%
X56000000Y-78000000D03*
X56000000Y-74000000D03*
%TD*%
D30*
%TO.C,C7*%
X65500000Y-87750000D03*
X65500000Y-94250000D03*
%TD*%
D24*
%TO.C,R8*%
X55350000Y-136500000D03*
X57000000Y-136500000D03*
%TD*%
D13*
%TO.C,C11*%
X91900000Y-67150000D03*
X90000000Y-67150000D03*
%TD*%
D28*
%TO.C,C12*%
X141700000Y-108000000D03*
X136300000Y-108000000D03*
%TD*%
D16*
%TO.C,R4*%
X143000000Y-91087500D03*
X143000000Y-92912500D03*
%TD*%
D31*
%TO.C,L1*%
X74150000Y-77000000D03*
X65850000Y-77000000D03*
%TD*%
D13*
%TO.C,C8*%
X92450000Y-92650000D03*
X90550000Y-92650000D03*
%TD*%
D32*
%TO.C,U5*%
X88700000Y-82300000D03*
X91000000Y-82300000D03*
D33*
X91000000Y-76000000D03*
D32*
X93300000Y-82300000D03*
%TD*%
D28*
%TO.C,C15*%
X118200000Y-108000000D03*
X112800000Y-108000000D03*
%TD*%
D14*
%TO.C,C2*%
X162500000Y-69950000D03*
X162500000Y-68050000D03*
%TD*%
M02*
