%TF.GenerationSoftware,KiCad,Pcbnew,9.0.2*%
%TF.CreationDate,2026-03-16T16:04:42+05:30*%
%TF.ProjectId,Gantry_PCBv2,47616e74-7279-45f5-9043-4276322e6b69,rev?*%
%TF.SameCoordinates,Original*%
%TF.FileFunction,Soldermask,Top*%
%TF.FilePolarity,Negative*%
%FSLAX46Y46*%
G04 Gerber Fmt 4.6, Leading zero omitted, Abs format (unit mm)*
G04 Created by KiCad (PCBNEW 9.0.2) date 2026-03-16 16:04:42*
%MOMM*%
%LPD*%
G01*
G04 APERTURE LIST*
G04 Aperture macros list*
%AMRoundRect*
0 Rectangle with rounded corners*
0 $1 Rounding radius*
0 $2 $3 $4 $5 $6 $7 $8 $9 X,Y pos of 4 corners*
0 Add a 4 corners polygon primitive as box body*
4,1,4,$2,$3,$4,$5,$6,$7,$8,$9,$2,$3,0*
0 Add four circle primitives for the rounded corners*
1,1,$1+$1,$2,$3*
1,1,$1+$1,$4,$5*
1,1,$1+$1,$6,$7*
1,1,$1+$1,$8,$9*
0 Add four rect primitives between the rounded corners*
20,1,$1+$1,$2,$3,$4,$5,0*
20,1,$1+$1,$4,$5,$6,$7,0*
20,1,$1+$1,$6,$7,$8,$9,0*
20,1,$1+$1,$8,$9,$2,$3,0*%
G04 Aperture macros list end*
%ADD10RoundRect,0.250000X-0.325000X-0.450000X0.325000X-0.450000X0.325000X0.450000X-0.325000X0.450000X0*%
%ADD11C,2.000000*%
%ADD12RoundRect,0.250000X-0.350000X-0.450000X0.350000X-0.450000X0.350000X0.450000X-0.350000X0.450000X0*%
%ADD13RoundRect,0.250000X0.475000X-0.337500X0.475000X0.337500X-0.475000X0.337500X-0.475000X-0.337500X0*%
%ADD14RoundRect,0.250000X0.450000X-0.350000X0.450000X0.350000X-0.450000X0.350000X-0.450000X-0.350000X0*%
%ADD15C,3.200000*%
%ADD16RoundRect,0.062500X0.337500X0.062500X-0.337500X0.062500X-0.337500X-0.062500X0.337500X-0.062500X0*%
%ADD17RoundRect,0.062500X0.062500X0.337500X-0.062500X0.337500X-0.062500X-0.337500X0.062500X-0.337500X0*%
%ADD18R,3.350000X3.350000*%
%ADD19RoundRect,0.250000X0.337500X0.475000X-0.337500X0.475000X-0.337500X-0.475000X0.337500X-0.475000X0*%
%ADD20RoundRect,0.200000X-0.800000X0.200000X-0.800000X-0.200000X0.800000X-0.200000X0.800000X0.200000X0*%
%ADD21RoundRect,0.250000X0.350000X0.450000X-0.350000X0.450000X-0.350000X-0.450000X0.350000X-0.450000X0*%
%ADD22RoundRect,0.150000X0.150000X-0.825000X0.150000X0.825000X-0.150000X0.825000X-0.150000X-0.825000X0*%
%ADD23R,3.300000X2.410000*%
%ADD24RoundRect,0.250000X-0.450000X0.350000X-0.450000X-0.350000X0.450000X-0.350000X0.450000X0.350000X0*%
%ADD25RoundRect,0.250000X0.325000X0.450000X-0.325000X0.450000X-0.325000X-0.450000X0.325000X-0.450000X0*%
%ADD26C,1.440000*%
%ADD27RoundRect,0.250000X-1.000000X-0.900000X1.000000X-0.900000X1.000000X0.900000X-1.000000X0.900000X0*%
%ADD28RoundRect,0.250000X-0.337500X-0.475000X0.337500X-0.475000X0.337500X0.475000X-0.337500X0.475000X0*%
%ADD29C,2.184000*%
%ADD30RoundRect,0.250000X-0.475000X0.337500X-0.475000X-0.337500X0.475000X-0.337500X0.475000X0.337500X0*%
%ADD31RoundRect,0.250000X0.450000X-0.325000X0.450000X0.325000X-0.450000X0.325000X-0.450000X-0.325000X0*%
%ADD32R,1.700000X1.700000*%
%ADD33C,1.700000*%
%ADD34RoundRect,0.250000X-1.000000X1.950000X-1.000000X-1.950000X1.000000X-1.950000X1.000000X1.950000X0*%
%ADD35RoundRect,0.150000X-0.150000X0.587500X-0.150000X-0.587500X0.150000X-0.587500X0.150000X0.587500X0*%
%ADD36C,0.650000*%
%ADD37RoundRect,0.150000X-0.425000X0.150000X-0.425000X-0.150000X0.425000X-0.150000X0.425000X0.150000X0*%
%ADD38RoundRect,0.075000X-0.500000X0.075000X-0.500000X-0.075000X0.500000X-0.075000X0.500000X0.075000X0*%
%ADD39O,2.100000X1.000000*%
%ADD40O,1.800000X1.000000*%
%ADD41O,2.844800X1.524000*%
%ADD42RoundRect,0.250000X-0.650000X1.000000X-0.650000X-1.000000X0.650000X-1.000000X0.650000X1.000000X0*%
%ADD43RoundRect,0.250000X0.600000X0.750000X-0.600000X0.750000X-0.600000X-0.750000X0.600000X-0.750000X0*%
%ADD44O,1.700000X2.000000*%
%ADD45RoundRect,0.175000X-0.175000X-0.325000X0.175000X-0.325000X0.175000X0.325000X-0.175000X0.325000X0*%
%ADD46RoundRect,0.150000X-0.200000X-0.150000X0.200000X-0.150000X0.200000X0.150000X-0.200000X0.150000X0*%
%ADD47RoundRect,0.102000X-0.825000X-0.825000X0.825000X-0.825000X0.825000X0.825000X-0.825000X0.825000X0*%
%ADD48C,1.854000*%
%ADD49RoundRect,0.250000X-0.750000X0.600000X-0.750000X-0.600000X0.750000X-0.600000X0.750000X0.600000X0*%
%ADD50O,2.000000X1.700000*%
%ADD51R,1.000000X1.500000*%
%ADD52RoundRect,0.250000X0.725000X-0.600000X0.725000X0.600000X-0.725000X0.600000X-0.725000X-0.600000X0*%
%ADD53O,1.950000X1.700000*%
%ADD54RoundRect,0.250000X-1.950000X-1.000000X1.950000X-1.000000X1.950000X1.000000X-1.950000X1.000000X0*%
%ADD55RoundRect,0.150000X-0.150000X0.512500X-0.150000X-0.512500X0.150000X-0.512500X0.150000X0.512500X0*%
%ADD56RoundRect,0.150000X-0.850000X-0.150000X0.850000X-0.150000X0.850000X0.150000X-0.850000X0.150000X0*%
%ADD57RoundRect,0.250000X0.925000X1.500000X-0.925000X1.500000X-0.925000X-1.500000X0.925000X-1.500000X0*%
%ADD58RoundRect,0.250000X1.950000X1.000000X-1.950000X1.000000X-1.950000X-1.000000X1.950000X-1.000000X0*%
%ADD59R,3.000000X3.000000*%
%ADD60C,3.000000*%
%ADD61RoundRect,0.150000X-0.875000X-0.150000X0.875000X-0.150000X0.875000X0.150000X-0.875000X0.150000X0*%
%ADD62R,2.500000X4.500000*%
%ADD63O,2.500000X4.500000*%
%ADD64RoundRect,0.250000X1.500000X0.650000X-1.500000X0.650000X-1.500000X-0.650000X1.500000X-0.650000X0*%
%ADD65R,0.900000X1.500000*%
%ADD66R,1.500000X0.900000*%
%ADD67C,0.600000*%
%ADD68R,3.800000X3.800000*%
%ADD69R,4.600000X2.000000*%
%ADD70O,4.200000X2.000000*%
%ADD71O,2.000000X4.200000*%
%ADD72RoundRect,0.075000X-0.075000X0.662500X-0.075000X-0.662500X0.075000X-0.662500X0.075000X0.662500X0*%
G04 APERTURE END LIST*
%TO.C,JP1*%
G36*
X104200000Y-124500000D02*
G01*
X105800000Y-124500000D01*
X105800000Y-126000000D01*
X104200000Y-126000000D01*
X104200000Y-124500000D01*
G37*
%TO.C,JP3*%
G36*
X111249000Y-110049000D02*
G01*
X112849000Y-110049000D01*
X112849000Y-111549000D01*
X111249000Y-111549000D01*
X111249000Y-110049000D01*
G37*
%TO.C,JP2*%
G36*
X103950000Y-117250000D02*
G01*
X105550000Y-117250000D01*
X105550000Y-118750000D01*
X103950000Y-118750000D01*
X103950000Y-117250000D01*
G37*
%TD*%
D10*
%TO.C,D13*%
X185347500Y-75940000D03*
X187397500Y-75940000D03*
%TD*%
D11*
%TO.C,FLT/VIO2*%
X128850000Y-93500000D03*
%TD*%
D12*
%TO.C,R29*%
X55250000Y-51500000D03*
X57250000Y-51500000D03*
%TD*%
D13*
%TO.C,C6*%
X187250000Y-43000000D03*
X187250000Y-40925000D03*
%TD*%
D10*
%TO.C,D11*%
X165072500Y-75940000D03*
X167122500Y-75940000D03*
%TD*%
D14*
%TO.C,R18*%
X111750000Y-137000000D03*
X111750000Y-135000000D03*
%TD*%
D15*
%TO.C,H1*%
X159897500Y-78190000D03*
%TD*%
D16*
%TO.C,U13*%
X88200000Y-57880000D03*
X88200000Y-57380000D03*
X88200000Y-56880000D03*
X88200000Y-56380000D03*
X88200000Y-55880000D03*
X88200000Y-55380000D03*
X88200000Y-54880000D03*
D17*
X87250000Y-53930000D03*
X86750000Y-53930000D03*
X86250000Y-53930000D03*
X85750000Y-53930000D03*
X85250000Y-53930000D03*
X84750000Y-53930000D03*
X84250000Y-53930000D03*
D16*
X83300000Y-54880000D03*
X83300000Y-55380000D03*
X83300000Y-55880000D03*
X83300000Y-56380000D03*
X83300000Y-56880000D03*
X83300000Y-57380000D03*
X83300000Y-57880000D03*
D17*
X84250000Y-58830000D03*
X84750000Y-58830000D03*
X85250000Y-58830000D03*
X85750000Y-58830000D03*
X86250000Y-58830000D03*
X86750000Y-58830000D03*
X87250000Y-58830000D03*
D18*
X85750000Y-56380000D03*
%TD*%
D19*
%TO.C,C11*%
X65325000Y-137000000D03*
X63250000Y-137000000D03*
%TD*%
D20*
%TO.C,SW2*%
X64250000Y-56900000D03*
X64250000Y-61100000D03*
%TD*%
D14*
%TO.C,R17*%
X72250000Y-137000000D03*
X72250000Y-135000000D03*
%TD*%
D11*
%TO.C,F1*%
X190450000Y-29000000D03*
X179050000Y-29000000D03*
%TD*%
D12*
%TO.C,R24*%
X162647500Y-103440000D03*
X164647500Y-103440000D03*
%TD*%
D21*
%TO.C,R25*%
X174250000Y-139500000D03*
X172250000Y-139500000D03*
%TD*%
D22*
%TO.C,U2*%
X177440000Y-48500000D03*
X178710000Y-48500000D03*
X179980000Y-48500000D03*
X181250000Y-48500000D03*
X181250000Y-43550000D03*
X179980000Y-43550000D03*
X178710000Y-43550000D03*
X177440000Y-43550000D03*
D23*
X179345000Y-46025000D03*
%TD*%
D24*
%TO.C,R22*%
X99750000Y-35500000D03*
X99750000Y-37500000D03*
%TD*%
D19*
%TO.C,C13*%
X121250000Y-38000000D03*
X119175000Y-38000000D03*
%TD*%
D25*
%TO.C,D19*%
X81800000Y-41500000D03*
X79750000Y-41500000D03*
%TD*%
D19*
%TO.C,C12*%
X105825000Y-137000000D03*
X103750000Y-137000000D03*
%TD*%
D26*
%TO.C,RV1*%
X181210000Y-67090000D03*
X183750000Y-67090000D03*
X186290000Y-67090000D03*
%TD*%
D21*
%TO.C,TH1*%
X175250000Y-57500000D03*
X173250000Y-57500000D03*
%TD*%
D27*
%TO.C,D1*%
X203850000Y-29250000D03*
X208150000Y-29250000D03*
%TD*%
D24*
%TO.C,R50*%
X96750000Y-113000000D03*
X96750000Y-115000000D03*
%TD*%
D12*
%TO.C,R9*%
X61750000Y-66000000D03*
X63750000Y-66000000D03*
%TD*%
D28*
%TO.C,C16*%
X113675000Y-29250000D03*
X115750000Y-29250000D03*
%TD*%
D21*
%TO.C,R49*%
X82750000Y-70500000D03*
X80750000Y-70500000D03*
%TD*%
D29*
%TO.C,U7*%
X220140000Y-47880000D03*
X217600000Y-47880000D03*
X215060000Y-47880000D03*
X212520000Y-47880000D03*
X209980000Y-47880000D03*
X207440000Y-47880000D03*
X204900000Y-47880000D03*
X202360000Y-47880000D03*
X202360000Y-63120000D03*
X204900000Y-63120000D03*
X207440000Y-63120000D03*
X209980000Y-63120000D03*
X212520000Y-63120000D03*
X215060000Y-63120000D03*
X217600000Y-63120000D03*
X220140000Y-63120000D03*
%TD*%
D12*
%TO.C,R4*%
X181250000Y-40000000D03*
X183250000Y-40000000D03*
%TD*%
D24*
%TO.C,R15*%
X108750000Y-135000000D03*
X108750000Y-137000000D03*
%TD*%
D30*
%TO.C,C24*%
X115750000Y-121962500D03*
X115750000Y-124037500D03*
%TD*%
D31*
%TO.C,D7*%
X97500000Y-37525000D03*
X97500000Y-35475000D03*
%TD*%
D15*
%TO.C,H7*%
X55250000Y-142000000D03*
%TD*%
D32*
%TO.C,J16*%
X58750000Y-126844500D03*
D33*
X58750000Y-129384500D03*
X58750000Y-131924500D03*
X58750000Y-134464500D03*
X58750000Y-137004500D03*
%TD*%
D15*
%TO.C,H2*%
X159897500Y-138190000D03*
%TD*%
D12*
%TO.C,R31*%
X169347500Y-75940000D03*
X171347500Y-75940000D03*
%TD*%
D30*
%TO.C,C28*%
X99500000Y-119500000D03*
X99500000Y-121575000D03*
%TD*%
D12*
%TO.C,R40*%
X208647500Y-76190000D03*
X210647500Y-76190000D03*
%TD*%
D25*
%TO.C,D17*%
X202647500Y-140690000D03*
X200597500Y-140690000D03*
%TD*%
D21*
%TO.C,R12*%
X152750000Y-59000000D03*
X150750000Y-59000000D03*
%TD*%
D10*
%TO.C,D16*%
X179847500Y-140190000D03*
X181897500Y-140190000D03*
%TD*%
D30*
%TO.C,C17*%
X60750000Y-57925000D03*
X60750000Y-60000000D03*
%TD*%
D19*
%TO.C,C10*%
X85750000Y-136500000D03*
X83675000Y-136500000D03*
%TD*%
D11*
%TO.C,M3/4_S*%
X189097500Y-140190000D03*
%TD*%
D30*
%TO.C,C2*%
X183250000Y-34925000D03*
X183250000Y-37000000D03*
%TD*%
D21*
%TO.C,R54*%
X56500000Y-101000000D03*
X54500000Y-101000000D03*
%TD*%
D12*
%TO.C,R34*%
X218250000Y-67000000D03*
X220250000Y-67000000D03*
%TD*%
D30*
%TO.C,C19*%
X178147500Y-118462500D03*
X178147500Y-120537500D03*
%TD*%
D34*
%TO.C,C20*%
X189597500Y-85240000D03*
X189597500Y-93640000D03*
%TD*%
D21*
%TO.C,R52*%
X74250000Y-45500000D03*
X72250000Y-45500000D03*
%TD*%
D34*
%TO.C,C25*%
X220250000Y-84740000D03*
X220250000Y-93140000D03*
%TD*%
D14*
%TO.C,R20*%
X57750000Y-60000000D03*
X57750000Y-58000000D03*
%TD*%
%TO.C,R19*%
X75750000Y-60000000D03*
X75750000Y-58000000D03*
%TD*%
D30*
%TO.C,C30*%
X97000000Y-119462500D03*
X97000000Y-121537500D03*
%TD*%
D21*
%TO.C,R46*%
X106000000Y-114750000D03*
X104000000Y-114750000D03*
%TD*%
D11*
%TO.C,M2_D*%
X205697500Y-76440000D03*
%TD*%
D35*
%TO.C,Q3*%
X69150000Y-68000000D03*
X67250000Y-68000000D03*
X68200000Y-69875000D03*
%TD*%
D24*
%TO.C,R27*%
X99750000Y-29250000D03*
X99750000Y-31250000D03*
%TD*%
D14*
%TO.C,R5*%
X191250000Y-43000000D03*
X191250000Y-41000000D03*
%TD*%
D36*
%TO.C,J11*%
X57855000Y-40610000D03*
X57855000Y-46390000D03*
D37*
X58930000Y-40300000D03*
X58930000Y-41100000D03*
D38*
X58930000Y-42250000D03*
X58930000Y-43250000D03*
X58930000Y-43750000D03*
X58930000Y-44750000D03*
D37*
X58930000Y-45900000D03*
X58930000Y-46700000D03*
X58930000Y-46700000D03*
X58930000Y-45900000D03*
D38*
X58930000Y-45250000D03*
X58930000Y-44250000D03*
X58930000Y-42750000D03*
X58930000Y-41750000D03*
D37*
X58930000Y-41100000D03*
X58930000Y-40300000D03*
D39*
X58355000Y-39180000D03*
D40*
X54175000Y-39180000D03*
D39*
X58355000Y-47820000D03*
D40*
X54175000Y-47820000D03*
%TD*%
D41*
%TO.C,SW3*%
X123830000Y-112920000D03*
X123830000Y-115460000D03*
X123830000Y-118000000D03*
X118750000Y-112920000D03*
X118750000Y-115460000D03*
X118750000Y-118000000D03*
%TD*%
D21*
%TO.C,R30*%
X77225000Y-67250000D03*
X75225000Y-67250000D03*
%TD*%
D12*
%TO.C,R38*%
X194647500Y-100190000D03*
X196647500Y-100190000D03*
%TD*%
D42*
%TO.C,D12*%
X65750000Y-37500000D03*
X65750000Y-41500000D03*
%TD*%
D32*
%TO.C,J4*%
X54960000Y-105500000D03*
D33*
X57500000Y-105500000D03*
X60040000Y-105500000D03*
X62580000Y-105500000D03*
X65120000Y-105500000D03*
X67660000Y-105500000D03*
X70200000Y-105500000D03*
X72740000Y-105500000D03*
X75280000Y-105500000D03*
X77820000Y-105500000D03*
X80360000Y-105500000D03*
X82900000Y-105500000D03*
X85440000Y-105500000D03*
X87980000Y-105500000D03*
%TD*%
D11*
%TO.C,M1_S*%
X174097500Y-75940000D03*
%TD*%
D43*
%TO.C,J7*%
X69750000Y-142000000D03*
D44*
X67250000Y-142000000D03*
%TD*%
D45*
%TO.C,D9*%
X64750000Y-46800000D03*
D46*
X64750000Y-48500000D03*
X66750000Y-48500000D03*
X66750000Y-46600000D03*
%TD*%
D47*
%TO.C,U5*%
X168550000Y-118260000D03*
D48*
X168550000Y-120800000D03*
X168550000Y-123340000D03*
X168550000Y-125880000D03*
X168550000Y-128420000D03*
X168550000Y-130960000D03*
X168550000Y-133500000D03*
X168550000Y-136040000D03*
X181250000Y-136040000D03*
X181250000Y-133500000D03*
X181250000Y-130960000D03*
X181250000Y-128420000D03*
X181250000Y-125880000D03*
X181250000Y-123340000D03*
X181250000Y-120800000D03*
X181250000Y-118260000D03*
%TD*%
D30*
%TO.C,C18*%
X178147500Y-85902500D03*
X178147500Y-87977500D03*
%TD*%
D11*
%TO.C,3V3*%
X103250000Y-30500000D03*
%TD*%
D19*
%TO.C,C9*%
X121250000Y-35750000D03*
X119175000Y-35750000D03*
%TD*%
D28*
%TO.C,C8*%
X150750000Y-53500000D03*
X152825000Y-53500000D03*
%TD*%
%TO.C,C31*%
X90675000Y-49500000D03*
X92750000Y-49500000D03*
%TD*%
D14*
%TO.C,R16*%
X92250000Y-136500000D03*
X92250000Y-134500000D03*
%TD*%
D21*
%TO.C,R45*%
X106000000Y-121750000D03*
X104000000Y-121750000D03*
%TD*%
D49*
%TO.C,J10*%
X239000000Y-68000000D03*
D50*
X239000000Y-70500000D03*
%TD*%
D12*
%TO.C,R43*%
X112250000Y-102250000D03*
X114250000Y-102250000D03*
%TD*%
%TO.C,R36*%
X194250000Y-132550000D03*
X196250000Y-132550000D03*
%TD*%
D32*
%TO.C,J17*%
X58750000Y-111340000D03*
D33*
X58750000Y-113880000D03*
X58750000Y-116420000D03*
X58750000Y-118960000D03*
X58750000Y-121500000D03*
%TD*%
D51*
%TO.C,JP1*%
X103700000Y-125250000D03*
X105000000Y-125250000D03*
X106300000Y-125250000D03*
%TD*%
D12*
%TO.C,R28*%
X55250000Y-35000000D03*
X57250000Y-35000000D03*
%TD*%
D52*
%TO.C,J12*%
X238750000Y-86000000D03*
D53*
X238750000Y-83500000D03*
X238750000Y-81000000D03*
X238750000Y-78500000D03*
%TD*%
D15*
%TO.C,H6*%
X239000000Y-142750000D03*
%TD*%
D32*
%TO.C,J9*%
X86750000Y-101820000D03*
D33*
X86750000Y-99280000D03*
X86750000Y-96740000D03*
X86750000Y-94200000D03*
X86750000Y-91660000D03*
X86750000Y-89120000D03*
X86750000Y-86580000D03*
X86750000Y-84040000D03*
X86750000Y-81500000D03*
X86750000Y-78960000D03*
%TD*%
D21*
%TO.C,R26*%
X174250000Y-142500000D03*
X172250000Y-142500000D03*
%TD*%
D41*
%TO.C,SW4*%
X136330000Y-113000000D03*
X136330000Y-115540000D03*
X136330000Y-118080000D03*
X131250000Y-113000000D03*
X131250000Y-115540000D03*
X131250000Y-118080000D03*
%TD*%
D11*
%TO.C,M3/4_D*%
X193147500Y-140190000D03*
%TD*%
D21*
%TO.C,R1*%
X92750000Y-46000000D03*
X90750000Y-46000000D03*
%TD*%
D12*
%TO.C,R3*%
X188250000Y-50000000D03*
X190250000Y-50000000D03*
%TD*%
D54*
%TO.C,C26*%
X216245000Y-118190000D03*
X224645000Y-118190000D03*
%TD*%
D15*
%TO.C,H5*%
X55250000Y-27500000D03*
%TD*%
D12*
%TO.C,R53*%
X79750000Y-45500000D03*
X81750000Y-45500000D03*
%TD*%
%TO.C,R44*%
X112250000Y-100000000D03*
X114250000Y-100000000D03*
%TD*%
D43*
%TO.C,J5*%
X110750000Y-142500000D03*
D44*
X108250000Y-142500000D03*
%TD*%
D55*
%TO.C,U4*%
X121075000Y-29250000D03*
X120125000Y-29250000D03*
X119175000Y-29250000D03*
X119175000Y-31525000D03*
X121075000Y-31525000D03*
%TD*%
D24*
%TO.C,R13*%
X88750000Y-134500000D03*
X88750000Y-136500000D03*
%TD*%
D21*
%TO.C,R8*%
X63750000Y-70000000D03*
X61750000Y-70000000D03*
%TD*%
D20*
%TO.C,SW1*%
X68700000Y-56900000D03*
X68700000Y-61100000D03*
%TD*%
D31*
%TO.C,D8*%
X97500000Y-31250000D03*
X97500000Y-29200000D03*
%TD*%
D56*
%TO.C,U10*%
X118250000Y-124110000D03*
X118250000Y-125380000D03*
X118250000Y-126650000D03*
X118250000Y-127920000D03*
X118250000Y-129190000D03*
X118250000Y-130460000D03*
X118250000Y-131730000D03*
X118250000Y-133000000D03*
X118250000Y-134270000D03*
X118250000Y-135540000D03*
X127500000Y-135540000D03*
X127500000Y-134270000D03*
X127500000Y-133000000D03*
X127500000Y-131730000D03*
X127500000Y-130460000D03*
X127500000Y-129190000D03*
X127500000Y-127920000D03*
X127500000Y-126650000D03*
X127500000Y-125380000D03*
X127500000Y-124110000D03*
%TD*%
D24*
%TO.C,R55*%
X85750000Y-48000000D03*
X85750000Y-50000000D03*
%TD*%
D12*
%TO.C,R35*%
X195847500Y-76190000D03*
X197847500Y-76190000D03*
%TD*%
%TO.C,R57*%
X72250000Y-41500000D03*
X74250000Y-41500000D03*
%TD*%
D47*
%TO.C,U8*%
X199750000Y-85050000D03*
D48*
X199750000Y-87590000D03*
X199750000Y-90130000D03*
X199750000Y-92670000D03*
X199750000Y-95210000D03*
X199750000Y-97750000D03*
X199750000Y-100290000D03*
X199750000Y-102830000D03*
X212450000Y-102830000D03*
X212450000Y-100290000D03*
X212450000Y-97750000D03*
X212450000Y-95210000D03*
X212450000Y-92670000D03*
X212450000Y-90130000D03*
X212450000Y-87590000D03*
X212450000Y-85050000D03*
%TD*%
D12*
%TO.C,R51*%
X95750000Y-126500000D03*
X97750000Y-126500000D03*
%TD*%
D11*
%TO.C,F3*%
X86150000Y-28000000D03*
X74750000Y-28000000D03*
%TD*%
D19*
%TO.C,C32*%
X92750000Y-52000000D03*
X90675000Y-52000000D03*
%TD*%
D13*
%TO.C,C27*%
X84750000Y-117575000D03*
X84750000Y-115500000D03*
%TD*%
D15*
%TO.C,H4*%
X219897500Y-138190000D03*
%TD*%
D21*
%TO.C,R47*%
X113349000Y-107901000D03*
X111349000Y-107901000D03*
%TD*%
%TO.C,R56*%
X74250000Y-37500000D03*
X72250000Y-37500000D03*
%TD*%
D12*
%TO.C,R37*%
X194250000Y-135500000D03*
X196250000Y-135500000D03*
%TD*%
D57*
%TO.C,L1*%
X166275000Y-40000000D03*
X160225000Y-40000000D03*
%TD*%
D58*
%TO.C,C21*%
X178450000Y-111000000D03*
X170050000Y-111000000D03*
%TD*%
D51*
%TO.C,JP3*%
X110749000Y-110799000D03*
X112049000Y-110799000D03*
X113349000Y-110799000D03*
%TD*%
D15*
%TO.C,H8*%
X238250000Y-27500000D03*
%TD*%
D24*
%TO.C,R2*%
X194750000Y-41000000D03*
X194750000Y-43000000D03*
%TD*%
D11*
%TO.C,5V*%
X103250000Y-36500000D03*
%TD*%
D31*
%TO.C,D6*%
X192000000Y-37525000D03*
X192000000Y-35475000D03*
%TD*%
D12*
%TO.C,R23*%
X162647500Y-100940000D03*
X164647500Y-100940000D03*
%TD*%
D52*
%TO.C,J3*%
X238250000Y-59750000D03*
D53*
X238250000Y-57250000D03*
X238250000Y-54750000D03*
%TD*%
D12*
%TO.C,R32*%
X181372500Y-75940000D03*
X183372500Y-75940000D03*
%TD*%
D28*
%TO.C,C15*%
X113675000Y-31500000D03*
X115750000Y-31500000D03*
%TD*%
D24*
%TO.C,R14*%
X68750000Y-135000000D03*
X68750000Y-137000000D03*
%TD*%
D12*
%TO.C,R39*%
X194647500Y-103140000D03*
X196647500Y-103140000D03*
%TD*%
D28*
%TO.C,C3*%
X188175000Y-46500000D03*
X190250000Y-46500000D03*
%TD*%
D11*
%TO.C,M1_D*%
X178597500Y-75940000D03*
%TD*%
D52*
%TO.C,J15*%
X238750000Y-102000000D03*
D53*
X238750000Y-99500000D03*
X238750000Y-97000000D03*
X238750000Y-94500000D03*
%TD*%
D25*
%TO.C,D18*%
X81750000Y-37500000D03*
X79700000Y-37500000D03*
%TD*%
D24*
%TO.C,R21*%
X194250000Y-35500000D03*
X194250000Y-37500000D03*
%TD*%
D28*
%TO.C,C33*%
X58462500Y-101000000D03*
X60537500Y-101000000D03*
%TD*%
D59*
%TO.C,J1*%
X219750000Y-30250000D03*
D60*
X214670000Y-30250000D03*
%TD*%
D12*
%TO.C,R11*%
X150750000Y-56000000D03*
X152750000Y-56000000D03*
%TD*%
D10*
%TO.C,D14*%
X191572500Y-76190000D03*
X193622500Y-76190000D03*
%TD*%
%TO.C,D10*%
X75200000Y-70500000D03*
X77250000Y-70500000D03*
%TD*%
D61*
%TO.C,U12*%
X98450000Y-94030000D03*
X98450000Y-95300000D03*
X98450000Y-96570000D03*
X98450000Y-97840000D03*
X98450000Y-99110000D03*
X98450000Y-100380000D03*
X98450000Y-101650000D03*
X98450000Y-102920000D03*
X98450000Y-104190000D03*
X98450000Y-105460000D03*
X98450000Y-106730000D03*
X98450000Y-108000000D03*
X98450000Y-109270000D03*
X98450000Y-110540000D03*
X107750000Y-110540000D03*
X107750000Y-109270000D03*
X107750000Y-108000000D03*
X107750000Y-106730000D03*
X107750000Y-105460000D03*
X107750000Y-104190000D03*
X107750000Y-102920000D03*
X107750000Y-101650000D03*
X107750000Y-100380000D03*
X107750000Y-99110000D03*
X107750000Y-97840000D03*
X107750000Y-96570000D03*
X107750000Y-95300000D03*
X107750000Y-94030000D03*
%TD*%
D15*
%TO.C,H3*%
X219897500Y-78190000D03*
%TD*%
D11*
%TO.C,FLT/VIO3*%
X124800000Y-93500000D03*
%TD*%
D62*
%TO.C,Q1*%
X176750000Y-62000000D03*
D63*
X171300000Y-62000000D03*
X165850000Y-62000000D03*
%TD*%
D35*
%TO.C,Q2*%
X58200000Y-68062500D03*
X56300000Y-68062500D03*
X57250000Y-69937500D03*
%TD*%
D43*
%TO.C,J6*%
X90250000Y-142000000D03*
D44*
X87750000Y-142000000D03*
%TD*%
D30*
%TO.C,C14*%
X72750000Y-57925000D03*
X72750000Y-60000000D03*
%TD*%
D11*
%TO.C,M2_S*%
X201647500Y-76440000D03*
%TD*%
D21*
%TO.C,R41*%
X186097500Y-140190000D03*
X184097500Y-140190000D03*
%TD*%
D47*
%TO.C,U6*%
X168047500Y-85550000D03*
D48*
X168047500Y-88090000D03*
X168047500Y-90630000D03*
X168047500Y-93170000D03*
X168047500Y-95710000D03*
X168047500Y-98250000D03*
X168047500Y-100790000D03*
X168047500Y-103330000D03*
X180747500Y-103330000D03*
X180747500Y-100790000D03*
X180747500Y-98250000D03*
X180747500Y-95710000D03*
X180747500Y-93170000D03*
X180747500Y-90630000D03*
X180747500Y-88090000D03*
X180747500Y-85550000D03*
%TD*%
D56*
%TO.C,U11*%
X72750000Y-116340000D03*
X72750000Y-117610000D03*
X72750000Y-118880000D03*
X72750000Y-120150000D03*
X72750000Y-121420000D03*
X72750000Y-122690000D03*
X72750000Y-123960000D03*
X72750000Y-125230000D03*
X72750000Y-126500000D03*
X72750000Y-127770000D03*
X82000000Y-127770000D03*
X82000000Y-126500000D03*
X82000000Y-125230000D03*
X82000000Y-123960000D03*
X82000000Y-122690000D03*
X82000000Y-121420000D03*
X82000000Y-120150000D03*
X82000000Y-118880000D03*
X82000000Y-117610000D03*
X82000000Y-116340000D03*
%TD*%
D64*
%TO.C,D4*%
X165750000Y-45500000D03*
X160750000Y-45500000D03*
%TD*%
D30*
%TO.C,C29*%
X94500000Y-119425000D03*
X94500000Y-121500000D03*
%TD*%
D12*
%TO.C,R48*%
X112250000Y-104500000D03*
X114250000Y-104500000D03*
%TD*%
D21*
%TO.C,R42*%
X198347500Y-140440000D03*
X196347500Y-140440000D03*
%TD*%
D32*
%TO.C,J8*%
X53310000Y-75000000D03*
D33*
X55850000Y-75000000D03*
X58390000Y-75000000D03*
X60930000Y-75000000D03*
X63470000Y-75000000D03*
X66010000Y-75000000D03*
X68550000Y-75000000D03*
X71090000Y-75000000D03*
X73630000Y-75000000D03*
X76170000Y-75000000D03*
X78710000Y-75000000D03*
X81250000Y-75000000D03*
X83790000Y-75000000D03*
X86330000Y-75000000D03*
%TD*%
D30*
%TO.C,C23*%
X208750000Y-117925000D03*
X208750000Y-120000000D03*
%TD*%
D65*
%TO.C,U14*%
X53440000Y-98000000D03*
X54710000Y-98000000D03*
X55980000Y-98000000D03*
X57250000Y-98000000D03*
X58520000Y-98000000D03*
X59790000Y-98000000D03*
X61060000Y-98000000D03*
X62330000Y-98000000D03*
X63600000Y-98000000D03*
X64870000Y-98000000D03*
X66140000Y-98000000D03*
X67410000Y-98000000D03*
X68680000Y-98000000D03*
X69950000Y-98000000D03*
D66*
X71045000Y-94965000D03*
X71045000Y-93695000D03*
X71045000Y-92425000D03*
X71045000Y-91155000D03*
X71045000Y-89885000D03*
X71045000Y-88615000D03*
X71045000Y-87345000D03*
X71045000Y-86075000D03*
X71045000Y-84805000D03*
X71045000Y-83535000D03*
D65*
X69950000Y-80500000D03*
X68680000Y-80500000D03*
X67410000Y-80500000D03*
X66140000Y-80500000D03*
X64870000Y-80500000D03*
X63600000Y-80500000D03*
X62330000Y-80500000D03*
X61060000Y-80500000D03*
X59790000Y-80500000D03*
X58520000Y-80500000D03*
X57250000Y-80500000D03*
X55980000Y-80500000D03*
X54710000Y-80500000D03*
X53440000Y-80500000D03*
D67*
X60305000Y-92150000D03*
X61705000Y-92150000D03*
X59605000Y-91450000D03*
X61005000Y-91450000D03*
X62405000Y-91450000D03*
X60305000Y-90750000D03*
D68*
X61005000Y-90750000D03*
D67*
X61705000Y-90750000D03*
X59605000Y-90050000D03*
X61005000Y-90050000D03*
X62405000Y-90050000D03*
X60305000Y-89350000D03*
X61705000Y-89350000D03*
%TD*%
D11*
%TO.C,12V*%
X198250000Y-36500000D03*
%TD*%
D30*
%TO.C,C22*%
X209897500Y-85152500D03*
X209897500Y-87227500D03*
%TD*%
D11*
%TO.C,F2*%
X166950000Y-29000000D03*
X155550000Y-29000000D03*
%TD*%
D52*
%TO.C,J14*%
X238750000Y-118750000D03*
D53*
X238750000Y-116250000D03*
X238750000Y-113750000D03*
X238750000Y-111250000D03*
%TD*%
D11*
%TO.C,FLT/VIO4*%
X120750000Y-93500000D03*
%TD*%
%TO.C,FLT/VIO1*%
X132900000Y-93500000D03*
%TD*%
D69*
%TO.C,J2*%
X229750000Y-40600000D03*
D70*
X229750000Y-34300000D03*
D71*
X224950000Y-37700000D03*
%TD*%
D47*
%TO.C,U9*%
X199400000Y-117610000D03*
D48*
X199400000Y-120150000D03*
X199400000Y-122690000D03*
X199400000Y-125230000D03*
X199400000Y-127770000D03*
X199400000Y-130310000D03*
X199400000Y-132850000D03*
X199400000Y-135390000D03*
X212100000Y-135390000D03*
X212100000Y-132850000D03*
X212100000Y-130310000D03*
X212100000Y-127770000D03*
X212100000Y-125230000D03*
X212100000Y-122690000D03*
X212100000Y-120150000D03*
X212100000Y-117610000D03*
%TD*%
D12*
%TO.C,R33*%
X214250000Y-67000000D03*
X216250000Y-67000000D03*
%TD*%
D72*
%TO.C,U1*%
X129250000Y-83137500D03*
X128750000Y-83137500D03*
X128250000Y-83137500D03*
X127750000Y-83137500D03*
X127250000Y-83137500D03*
X126750000Y-83137500D03*
X126250000Y-83137500D03*
X125750000Y-83137500D03*
X125250000Y-83137500D03*
X124750000Y-83137500D03*
X124750000Y-88862500D03*
X125250000Y-88862500D03*
X125750000Y-88862500D03*
X126250000Y-88862500D03*
X126750000Y-88862500D03*
X127250000Y-88862500D03*
X127750000Y-88862500D03*
X128250000Y-88862500D03*
X128750000Y-88862500D03*
X129250000Y-88862500D03*
%TD*%
D30*
%TO.C,C4*%
X173750000Y-44962500D03*
X173750000Y-47037500D03*
%TD*%
D52*
%TO.C,J13*%
X238750000Y-135250000D03*
D53*
X238750000Y-132750000D03*
X238750000Y-130250000D03*
X238750000Y-127750000D03*
%TD*%
D42*
%TO.C,D2*%
X155750000Y-36000000D03*
X155750000Y-40000000D03*
%TD*%
D25*
%TO.C,D15*%
X214647500Y-76190000D03*
X212597500Y-76190000D03*
%TD*%
D51*
%TO.C,JP2*%
X103450000Y-118000000D03*
X104750000Y-118000000D03*
X106050000Y-118000000D03*
%TD*%
M02*
