M48
; DRILL file {KiCad 9.0.2} date 2026-03-16T16:05:25+0530
; FORMAT={-:-/ absolute / metric / decimal}
; #@! TF.CreationDate,2026-03-16T16:05:25+05:30
; #@! TF.GenerationSoftware,Kicad,Pcbnew,9.0.2
; #@! TF.FileFunction,Plated,1,2,PTH
FMAT,2
METRIC
; #@! TA.AperFunction,Plated,PTH,ViaDrill
T1C0.200
; #@! TA.AperFunction,Plated,PTH,ComponentDrill
T2C0.200
; #@! TA.AperFunction,Plated,PTH,ViaDrill
T3C0.300
; #@! TA.AperFunction,Plated,PTH,ComponentDrill
T4C0.600
; #@! TA.AperFunction,Plated,PTH,ComponentDrill
T5C0.800
; #@! TA.AperFunction,Plated,PTH,ComponentDrill
T6C0.813
; #@! TA.AperFunction,Plated,PTH,ComponentDrill
T7C0.950
; #@! TA.AperFunction,Plated,PTH,ComponentDrill
T8C1.000
; #@! TA.AperFunction,Plated,PTH,ComponentDrill
T9C1.100
; #@! TA.AperFunction,Plated,PTH,ComponentDrill
T10C1.320
; #@! TA.AperFunction,Plated,PTH,ComponentDrill
T11C1.500
; #@! TA.AperFunction,Plated,PTH,ComponentDrill
T12C1.520
%
G90
G05
T1
X99.75Y-37.5
X121.075Y-29.25
T2
X59.605Y-90.05
X59.605Y-91.45
X60.305Y-89.35
X60.305Y-90.75
X60.305Y-92.15
X61.005Y-90.05
X61.005Y-91.45
X61.705Y-89.35
X61.705Y-90.75
X61.705Y-92.15
X62.405Y-90.05
X62.405Y-91.45
T3
X55.98Y-98.0
X56.75Y-131.0
X57.25Y-69.938
X58.52Y-98.0
X60.469Y-101.068
X63.75Y-62.5
X64.75Y-46.8
X64.75Y-48.5
X66.75Y-48.5
X68.2Y-69.875
X71.75Y-113.0
X72.25Y-135.0
X72.75Y-57.925
X72.75Y-116.34
X75.274Y-56.9
X76.909Y-59.392
X79.75Y-45.5
X81.75Y-54.5
X84.75Y-121.473
X85.684Y-60.6
X85.81Y-56.44
X86.25Y-60.0
X86.35Y-51.5
X86.635Y-52.9
X87.25Y-121.473
X87.85Y-52.0
X88.2Y-54.88
X88.75Y-134.5
X89.186Y-56.216
X90.675Y-52.0
X90.75Y-46.0
X91.75Y-101.0
X91.75Y-102.0
X92.75Y-79.0
X94.5Y-119.425
X95.75Y-126.5
X96.25Y-109.5
X96.75Y-115.0
X97.0Y-121.537
X97.25Y-119.5
X98.45Y-97.84
X98.45Y-99.11
X98.45Y-105.46
X98.45Y-108.0
X99.5Y-121.575
X99.625Y-119.625
X100.376Y-98.5
X100.777Y-99.672
X103.25Y-36.5
X104.25Y-107.5
X105.125Y-108.307
X105.698Y-109.448
X106.75Y-116.5
X107.75Y-104.19
X107.75Y-105.46
X107.75Y-106.73
X108.75Y-135.0
X109.25Y-119.0
X112.049Y-110.799
X113.25Y-128.626
X114.25Y-100.0
X114.25Y-102.25
X114.25Y-104.5
X118.25Y-126.65
X118.25Y-128.0
X118.25Y-129.19
X118.25Y-130.5
X118.25Y-131.73
X119.175Y-29.25
X127.5Y-129.19
X127.5Y-130.46
X127.5Y-131.73
X128.8Y-93.45
X130.0Y-86.75
X131.25Y-88.0
X146.25Y-107.86
X146.75Y-116.75
X150.25Y-110.0
X150.761Y-116.21
X153.25Y-108.0
X154.305Y-107.26
X155.5Y-107.0
X157.0Y-107.75
X161.75Y-99.5
X164.5Y-128.0
X168.0Y-107.75
X168.024Y-108.75
X171.126Y-97.0
X171.25Y-99.5
X174.25Y-139.5
X174.25Y-142.5
X178.45Y-111.0
X178.71Y-43.55
X178.75Y-51.5
X181.25Y-48.5
X184.75Y-57.5
X190.25Y-50.0
X191.25Y-41.0
X191.572Y-76.19
X194.647Y-100.19
X194.647Y-103.14
X197.847Y-76.19
X202.25Y-122.5
X205.697Y-76.25
X210.0Y-73.25
X214.25Y-70.0
X218.25Y-67.0
T5
X181.21Y-67.09
X183.75Y-67.09
X186.29Y-67.09
T6
X118.75Y-112.92
X118.75Y-115.46
X118.75Y-118.0
X123.83Y-112.92
X123.83Y-115.46
X123.83Y-118.0
X131.25Y-113.0
X131.25Y-115.54
X131.25Y-118.08
X136.33Y-113.0
X136.33Y-115.54
X136.33Y-118.08
T7
X238.25Y-54.75
X238.25Y-57.25
X238.25Y-59.75
X238.75Y-78.5
X238.75Y-81.0
X238.75Y-83.5
X238.75Y-86.0
X238.75Y-94.5
X238.75Y-97.0
X238.75Y-99.5
X238.75Y-102.0
X238.75Y-111.25
X238.75Y-113.75
X238.75Y-116.25
X238.75Y-118.75
X238.75Y-127.75
X238.75Y-130.25
X238.75Y-132.75
X238.75Y-135.25
T8
X53.31Y-75.0
X54.96Y-105.5
X55.85Y-75.0
X57.5Y-105.5
X58.39Y-75.0
X58.75Y-111.34
X58.75Y-113.88
X58.75Y-116.42
X58.75Y-118.96
X58.75Y-121.5
X58.75Y-126.844
X58.75Y-129.385
X58.75Y-131.924
X58.75Y-134.464
X58.75Y-137.005
X60.04Y-105.5
X60.93Y-75.0
X62.58Y-105.5
X63.47Y-75.0
X65.12Y-105.5
X66.01Y-75.0
X67.25Y-142.0
X67.66Y-105.5
X68.55Y-75.0
X69.75Y-142.0
X70.2Y-105.5
X71.09Y-75.0
X72.74Y-105.5
X73.63Y-75.0
X74.75Y-28.0
X75.28Y-105.5
X76.17Y-75.0
X77.82Y-105.5
X78.71Y-75.0
X80.36Y-105.5
X81.25Y-75.0
X82.9Y-105.5
X83.79Y-75.0
X85.44Y-105.5
X86.15Y-28.0
X86.33Y-75.0
X86.75Y-78.96
X86.75Y-81.5
X86.75Y-84.04
X86.75Y-86.58
X86.75Y-89.12
X86.75Y-91.66
X86.75Y-94.2
X86.75Y-96.74
X86.75Y-99.28
X86.75Y-101.82
X87.75Y-142.0
X87.98Y-105.5
X90.25Y-142.0
X108.25Y-142.5
X110.75Y-142.5
X155.55Y-29.0
X166.95Y-29.0
X179.05Y-29.0
X190.45Y-29.0
X239.0Y-68.0
X239.0Y-70.5
T9
X168.047Y-85.55
X168.047Y-88.09
X168.047Y-90.63
X168.047Y-93.17
X168.047Y-95.71
X168.047Y-98.25
X168.047Y-100.79
X168.047Y-103.33
X168.55Y-118.26
X168.55Y-120.8
X168.55Y-123.34
X168.55Y-125.88
X168.55Y-128.42
X168.55Y-130.96
X168.55Y-133.5
X168.55Y-136.04
X180.748Y-85.55
X180.748Y-88.09
X180.748Y-90.63
X180.748Y-93.17
X180.748Y-95.71
X180.748Y-98.25
X180.748Y-100.79
X180.748Y-103.33
X181.25Y-118.26
X181.25Y-120.8
X181.25Y-123.34
X181.25Y-125.88
X181.25Y-128.42
X181.25Y-130.96
X181.25Y-133.5
X181.25Y-136.04
X199.4Y-117.61
X199.4Y-120.15
X199.4Y-122.69
X199.4Y-125.23
X199.4Y-127.77
X199.4Y-130.31
X199.4Y-132.85
X199.4Y-135.39
X199.75Y-85.05
X199.75Y-87.59
X199.75Y-90.13
X199.75Y-92.67
X199.75Y-95.21
X199.75Y-97.75
X199.75Y-100.29
X199.75Y-102.83
X212.1Y-117.61
X212.1Y-120.15
X212.1Y-122.69
X212.1Y-125.23
X212.1Y-127.77
X212.1Y-130.31
X212.1Y-132.85
X212.1Y-135.39
X212.45Y-85.05
X212.45Y-87.59
X212.45Y-90.13
X212.45Y-92.67
X212.45Y-95.21
X212.45Y-97.75
X212.45Y-100.29
X212.45Y-102.83
T10
X202.36Y-47.88
X202.36Y-63.12
X204.9Y-47.88
X204.9Y-63.12
X207.44Y-47.88
X207.44Y-63.12
X209.98Y-47.88
X209.98Y-63.12
X212.52Y-47.88
X212.52Y-63.12
X215.06Y-47.88
X215.06Y-63.12
X217.6Y-47.88
X217.6Y-63.12
X220.14Y-47.88
X220.14Y-63.12
T11
X165.85Y-62.0
X171.3Y-62.0
X176.75Y-62.0
T12
X214.67Y-30.25
X219.75Y-30.25
T4
G00X54.575Y-39.18
M15
G01X53.775Y-39.18
M16
G05
G00X54.575Y-47.82
M15
G01X53.775Y-47.82
M16
G05
G00X58.905Y-39.18
M15
G01X57.805Y-39.18
M16
G05
G00X58.905Y-47.82
M15
G01X57.805Y-47.82
M16
G05
T8
G00X224.95Y-38.8
M15
G01X224.95Y-36.6
M16
G05
G00X230.85Y-34.3
M15
G01X228.65Y-34.3
M16
G05
G00X231.05Y-40.6
M15
G01X228.45Y-40.6
M16
G05
M30
