%TF.GenerationSoftware,KiCad,Pcbnew,9.0.2*%
%TF.CreationDate,2026-03-16T16:04:42+05:30*%
%TF.ProjectId,Gantry_PCBv2,47616e74-7279-45f5-9043-4276322e6b69,rev?*%
%TF.SameCoordinates,Original*%
%TF.FileFunction,Soldermask,Bot*%
%TF.FilePolarity,Negative*%
%FSLAX46Y46*%
G04 Gerber Fmt 4.6, Leading zero omitted, Abs format (unit mm)*
G04 Created by KiCad (PCBNEW 9.0.2) date 2026-03-16 16:04:42*
%MOMM*%
%LPD*%
G01*
G04 APERTURE LIST*
G04 Aperture macros list*
%AMRoundRect*
0 Rectangle with rounded corners*
0 $1 Rounding radius*
0 $2 $3 $4 $5 $6 $7 $8 $9 X,Y pos of 4 corners*
0 Add a 4 corners polygon primitive as box body*
4,1,4,$2,$3,$4,$5,$6,$7,$8,$9,$2,$3,0*
0 Add four circle primitives for the rounded corners*
1,1,$1+$1,$2,$3*
1,1,$1+$1,$4,$5*
1,1,$1+$1,$6,$7*
1,1,$1+$1,$8,$9*
0 Add four rect primitives between the rounded corners*
20,1,$1+$1,$2,$3,$4,$5,0*
20,1,$1+$1,$4,$5,$6,$7,0*
20,1,$1+$1,$6,$7,$8,$9,0*
20,1,$1+$1,$8,$9,$2,$3,0*%
G04 Aperture macros list end*
%ADD10C,3.200000*%
%ADD11C,2.000000*%
%ADD12C,1.440000*%
%ADD13C,2.184000*%
%ADD14R,1.700000X1.700000*%
%ADD15C,1.700000*%
%ADD16C,0.650000*%
%ADD17O,2.100000X1.000000*%
%ADD18O,1.800000X1.000000*%
%ADD19O,2.844800X1.524000*%
%ADD20RoundRect,0.250000X0.600000X0.750000X-0.600000X0.750000X-0.600000X-0.750000X0.600000X-0.750000X0*%
%ADD21O,1.700000X2.000000*%
%ADD22RoundRect,0.102000X-0.825000X-0.825000X0.825000X-0.825000X0.825000X0.825000X-0.825000X0.825000X0*%
%ADD23C,1.854000*%
%ADD24RoundRect,0.250000X-0.750000X0.600000X-0.750000X-0.600000X0.750000X-0.600000X0.750000X0.600000X0*%
%ADD25O,2.000000X1.700000*%
%ADD26RoundRect,0.250000X0.725000X-0.600000X0.725000X0.600000X-0.725000X0.600000X-0.725000X-0.600000X0*%
%ADD27O,1.950000X1.700000*%
%ADD28R,3.000000X3.000000*%
%ADD29C,3.000000*%
%ADD30R,2.500000X4.500000*%
%ADD31O,2.500000X4.500000*%
%ADD32R,4.600000X2.000000*%
%ADD33O,4.200000X2.000000*%
%ADD34O,2.000000X4.200000*%
G04 APERTURE END LIST*
D10*
%TO.C,H1*%
X159897500Y-78190000D03*
%TD*%
D11*
%TO.C,F1*%
X190450000Y-29000000D03*
X179050000Y-29000000D03*
%TD*%
D12*
%TO.C,RV1*%
X181210000Y-67090000D03*
X183750000Y-67090000D03*
X186290000Y-67090000D03*
%TD*%
D13*
%TO.C,U7*%
X220140000Y-47880000D03*
X217600000Y-47880000D03*
X215060000Y-47880000D03*
X212520000Y-47880000D03*
X209980000Y-47880000D03*
X207440000Y-47880000D03*
X204900000Y-47880000D03*
X202360000Y-47880000D03*
X202360000Y-63120000D03*
X204900000Y-63120000D03*
X207440000Y-63120000D03*
X209980000Y-63120000D03*
X212520000Y-63120000D03*
X215060000Y-63120000D03*
X217600000Y-63120000D03*
X220140000Y-63120000D03*
%TD*%
D10*
%TO.C,H7*%
X55250000Y-142000000D03*
%TD*%
D14*
%TO.C,J16*%
X58750000Y-126844500D03*
D15*
X58750000Y-129384500D03*
X58750000Y-131924500D03*
X58750000Y-134464500D03*
X58750000Y-137004500D03*
%TD*%
D10*
%TO.C,H2*%
X159897500Y-138190000D03*
%TD*%
D16*
%TO.C,J11*%
X57855000Y-40610000D03*
X57855000Y-46390000D03*
D17*
X58355000Y-39180000D03*
D18*
X54175000Y-39180000D03*
D17*
X58355000Y-47820000D03*
D18*
X54175000Y-47820000D03*
%TD*%
D19*
%TO.C,SW3*%
X123830000Y-112920000D03*
X123830000Y-115460000D03*
X123830000Y-118000000D03*
X118750000Y-112920000D03*
X118750000Y-115460000D03*
X118750000Y-118000000D03*
%TD*%
D14*
%TO.C,J4*%
X54960000Y-105500000D03*
D15*
X57500000Y-105500000D03*
X60040000Y-105500000D03*
X62580000Y-105500000D03*
X65120000Y-105500000D03*
X67660000Y-105500000D03*
X70200000Y-105500000D03*
X72740000Y-105500000D03*
X75280000Y-105500000D03*
X77820000Y-105500000D03*
X80360000Y-105500000D03*
X82900000Y-105500000D03*
X85440000Y-105500000D03*
X87980000Y-105500000D03*
%TD*%
D20*
%TO.C,J7*%
X69750000Y-142000000D03*
D21*
X67250000Y-142000000D03*
%TD*%
D22*
%TO.C,U5*%
X168550000Y-118260000D03*
D23*
X168550000Y-120800000D03*
X168550000Y-123340000D03*
X168550000Y-125880000D03*
X168550000Y-128420000D03*
X168550000Y-130960000D03*
X168550000Y-133500000D03*
X168550000Y-136040000D03*
X181250000Y-136040000D03*
X181250000Y-133500000D03*
X181250000Y-130960000D03*
X181250000Y-128420000D03*
X181250000Y-125880000D03*
X181250000Y-123340000D03*
X181250000Y-120800000D03*
X181250000Y-118260000D03*
%TD*%
D24*
%TO.C,J10*%
X239000000Y-68000000D03*
D25*
X239000000Y-70500000D03*
%TD*%
D14*
%TO.C,J17*%
X58750000Y-111340000D03*
D15*
X58750000Y-113880000D03*
X58750000Y-116420000D03*
X58750000Y-118960000D03*
X58750000Y-121500000D03*
%TD*%
D26*
%TO.C,J12*%
X238750000Y-86000000D03*
D27*
X238750000Y-83500000D03*
X238750000Y-81000000D03*
X238750000Y-78500000D03*
%TD*%
D10*
%TO.C,H6*%
X239000000Y-142750000D03*
%TD*%
D14*
%TO.C,J9*%
X86750000Y-101820000D03*
D15*
X86750000Y-99280000D03*
X86750000Y-96740000D03*
X86750000Y-94200000D03*
X86750000Y-91660000D03*
X86750000Y-89120000D03*
X86750000Y-86580000D03*
X86750000Y-84040000D03*
X86750000Y-81500000D03*
X86750000Y-78960000D03*
%TD*%
D19*
%TO.C,SW4*%
X136330000Y-113000000D03*
X136330000Y-115540000D03*
X136330000Y-118080000D03*
X131250000Y-113000000D03*
X131250000Y-115540000D03*
X131250000Y-118080000D03*
%TD*%
D10*
%TO.C,H5*%
X55250000Y-27500000D03*
%TD*%
D20*
%TO.C,J5*%
X110750000Y-142500000D03*
D21*
X108250000Y-142500000D03*
%TD*%
D22*
%TO.C,U8*%
X199750000Y-85050000D03*
D23*
X199750000Y-87590000D03*
X199750000Y-90130000D03*
X199750000Y-92670000D03*
X199750000Y-95210000D03*
X199750000Y-97750000D03*
X199750000Y-100290000D03*
X199750000Y-102830000D03*
X212450000Y-102830000D03*
X212450000Y-100290000D03*
X212450000Y-97750000D03*
X212450000Y-95210000D03*
X212450000Y-92670000D03*
X212450000Y-90130000D03*
X212450000Y-87590000D03*
X212450000Y-85050000D03*
%TD*%
D11*
%TO.C,F3*%
X86150000Y-28000000D03*
X74750000Y-28000000D03*
%TD*%
D10*
%TO.C,H4*%
X219897500Y-138190000D03*
%TD*%
%TO.C,H8*%
X238250000Y-27500000D03*
%TD*%
D26*
%TO.C,J3*%
X238250000Y-59750000D03*
D27*
X238250000Y-57250000D03*
X238250000Y-54750000D03*
%TD*%
D26*
%TO.C,J15*%
X238750000Y-102000000D03*
D27*
X238750000Y-99500000D03*
X238750000Y-97000000D03*
X238750000Y-94500000D03*
%TD*%
D28*
%TO.C,J1*%
X219750000Y-30250000D03*
D29*
X214670000Y-30250000D03*
%TD*%
D10*
%TO.C,H3*%
X219897500Y-78190000D03*
%TD*%
D30*
%TO.C,Q1*%
X176750000Y-62000000D03*
D31*
X171300000Y-62000000D03*
X165850000Y-62000000D03*
%TD*%
D20*
%TO.C,J6*%
X90250000Y-142000000D03*
D21*
X87750000Y-142000000D03*
%TD*%
D22*
%TO.C,U6*%
X168047500Y-85550000D03*
D23*
X168047500Y-88090000D03*
X168047500Y-90630000D03*
X168047500Y-93170000D03*
X168047500Y-95710000D03*
X168047500Y-98250000D03*
X168047500Y-100790000D03*
X168047500Y-103330000D03*
X180747500Y-103330000D03*
X180747500Y-100790000D03*
X180747500Y-98250000D03*
X180747500Y-95710000D03*
X180747500Y-93170000D03*
X180747500Y-90630000D03*
X180747500Y-88090000D03*
X180747500Y-85550000D03*
%TD*%
D14*
%TO.C,J8*%
X53310000Y-75000000D03*
D15*
X55850000Y-75000000D03*
X58390000Y-75000000D03*
X60930000Y-75000000D03*
X63470000Y-75000000D03*
X66010000Y-75000000D03*
X68550000Y-75000000D03*
X71090000Y-75000000D03*
X73630000Y-75000000D03*
X76170000Y-75000000D03*
X78710000Y-75000000D03*
X81250000Y-75000000D03*
X83790000Y-75000000D03*
X86330000Y-75000000D03*
%TD*%
D11*
%TO.C,F2*%
X166950000Y-29000000D03*
X155550000Y-29000000D03*
%TD*%
D26*
%TO.C,J14*%
X238750000Y-118750000D03*
D27*
X238750000Y-116250000D03*
X238750000Y-113750000D03*
X238750000Y-111250000D03*
%TD*%
D32*
%TO.C,J2*%
X229750000Y-40600000D03*
D33*
X229750000Y-34300000D03*
D34*
X224950000Y-37700000D03*
%TD*%
D22*
%TO.C,U9*%
X199400000Y-117610000D03*
D23*
X199400000Y-120150000D03*
X199400000Y-122690000D03*
X199400000Y-125230000D03*
X199400000Y-127770000D03*
X199400000Y-130310000D03*
X199400000Y-132850000D03*
X199400000Y-135390000D03*
X212100000Y-135390000D03*
X212100000Y-132850000D03*
X212100000Y-130310000D03*
X212100000Y-127770000D03*
X212100000Y-125230000D03*
X212100000Y-122690000D03*
X212100000Y-120150000D03*
X212100000Y-117610000D03*
%TD*%
D26*
%TO.C,J13*%
X238750000Y-135250000D03*
D27*
X238750000Y-132750000D03*
X238750000Y-130250000D03*
X238750000Y-127750000D03*
%TD*%
M02*
