%TF.GenerationSoftware,KiCad,Pcbnew,9.0.6*%
%TF.CreationDate,2025-12-30T14:23:23+05:30*%
%TF.ProjectId,Gantry_PCBv2,47616e74-7279-45f5-9043-4276322e6b69,rev?*%
%TF.SameCoordinates,Original*%
%TF.FileFunction,Soldermask,Top*%
%TF.FilePolarity,Negative*%
%FSLAX46Y46*%
G04 Gerber Fmt 4.6, Leading zero omitted, Abs format (unit mm)*
G04 Created by KiCad (PCBNEW 9.0.6) date 2025-12-30 14:23:23*
%MOMM*%
%LPD*%
G01*
G04 APERTURE LIST*
G04 Aperture macros list*
%AMRoundRect*
0 Rectangle with rounded corners*
0 $1 Rounding radius*
0 $2 $3 $4 $5 $6 $7 $8 $9 X,Y pos of 4 corners*
0 Add a 4 corners polygon primitive as box body*
4,1,4,$2,$3,$4,$5,$6,$7,$8,$9,$2,$3,0*
0 Add four circle primitives for the rounded corners*
1,1,$1+$1,$2,$3*
1,1,$1+$1,$4,$5*
1,1,$1+$1,$6,$7*
1,1,$1+$1,$8,$9*
0 Add four rect primitives between the rounded corners*
20,1,$1+$1,$2,$3,$4,$5,0*
20,1,$1+$1,$4,$5,$6,$7,0*
20,1,$1+$1,$6,$7,$8,$9,0*
20,1,$1+$1,$8,$9,$2,$3,0*%
G04 Aperture macros list end*
%ADD10C,2.184000*%
%ADD11RoundRect,0.250000X-0.262500X-0.450000X0.262500X-0.450000X0.262500X0.450000X-0.262500X0.450000X0*%
%ADD12RoundRect,0.102000X-0.825000X-0.825000X0.825000X-0.825000X0.825000X0.825000X-0.825000X0.825000X0*%
%ADD13C,1.854000*%
%ADD14RoundRect,0.150000X-0.150000X0.587500X-0.150000X-0.587500X0.150000X-0.587500X0.150000X0.587500X0*%
%ADD15RoundRect,0.102000X-0.787500X0.787500X-0.787500X-0.787500X0.787500X-0.787500X0.787500X0.787500X0*%
%ADD16C,1.779000*%
%ADD17RoundRect,0.250000X0.600000X0.725000X-0.600000X0.725000X-0.600000X-0.725000X0.600000X-0.725000X0*%
%ADD18O,1.700000X1.950000*%
%ADD19C,3.200000*%
%ADD20RoundRect,0.102000X-0.787500X-0.787500X0.787500X-0.787500X0.787500X0.787500X-0.787500X0.787500X0*%
%ADD21RoundRect,0.250000X-0.250000X-0.475000X0.250000X-0.475000X0.250000X0.475000X-0.250000X0.475000X0*%
%ADD22RoundRect,0.250000X0.250000X0.475000X-0.250000X0.475000X-0.250000X-0.475000X0.250000X-0.475000X0*%
%ADD23R,1.700000X1.700000*%
%ADD24C,1.700000*%
%ADD25RoundRect,0.250000X0.475000X-0.250000X0.475000X0.250000X-0.475000X0.250000X-0.475000X-0.250000X0*%
%ADD26RoundRect,0.250000X-0.550000X1.500000X-0.550000X-1.500000X0.550000X-1.500000X0.550000X1.500000X0*%
%ADD27RoundRect,0.250000X-0.450000X0.262500X-0.450000X-0.262500X0.450000X-0.262500X0.450000X0.262500X0*%
%ADD28RoundRect,0.250000X-0.900000X1.000000X-0.900000X-1.000000X0.900000X-1.000000X0.900000X1.000000X0*%
%ADD29RoundRect,0.250000X-0.300000X2.050000X-0.300000X-2.050000X0.300000X-2.050000X0.300000X2.050000X0*%
%ADD30RoundRect,0.250002X-5.149998X4.449998X-5.149998X-4.449998X5.149998X-4.449998X5.149998X4.449998X0*%
%ADD31RoundRect,0.102000X-0.750000X-0.450000X0.750000X-0.450000X0.750000X0.450000X-0.750000X0.450000X0*%
%ADD32RoundRect,0.102000X-0.450000X-0.750000X0.450000X-0.750000X0.450000X0.750000X-0.450000X0.750000X0*%
%ADD33RoundRect,0.102000X-0.450000X-0.450000X0.450000X-0.450000X0.450000X0.450000X-0.450000X0.450000X0*%
%ADD34RoundRect,0.200000X-0.800000X0.200000X-0.800000X-0.200000X0.800000X-0.200000X0.800000X0.200000X0*%
%ADD35RoundRect,0.200000X-0.200000X-0.275000X0.200000X-0.275000X0.200000X0.275000X-0.200000X0.275000X0*%
%ADD36C,0.650000*%
%ADD37R,0.600000X1.450000*%
%ADD38R,0.300000X1.450000*%
%ADD39O,1.000000X2.100000*%
%ADD40O,1.000000X1.600000*%
%ADD41R,4.400000X1.800000*%
%ADD42O,4.000000X1.800000*%
%ADD43O,1.800000X4.000000*%
%ADD44RoundRect,0.150000X-0.150000X0.825000X-0.150000X-0.825000X0.150000X-0.825000X0.150000X0.825000X0*%
%ADD45RoundRect,0.250000X1.500000X0.550000X-1.500000X0.550000X-1.500000X-0.550000X1.500000X-0.550000X0*%
%ADD46RoundRect,0.250000X0.725000X-0.600000X0.725000X0.600000X-0.725000X0.600000X-0.725000X-0.600000X0*%
%ADD47O,1.950000X1.700000*%
%ADD48RoundRect,0.250000X0.650000X-1.000000X0.650000X1.000000X-0.650000X1.000000X-0.650000X-1.000000X0*%
%ADD49RoundRect,0.250000X-1.000000X1.500000X-1.000000X-1.500000X1.000000X-1.500000X1.000000X1.500000X0*%
%ADD50R,2.700000X3.600000*%
%ADD51RoundRect,0.375000X0.375000X-0.625000X0.375000X0.625000X-0.375000X0.625000X-0.375000X-0.625000X0*%
%ADD52RoundRect,0.500000X1.400000X-0.500000X1.400000X0.500000X-1.400000X0.500000X-1.400000X-0.500000X0*%
%ADD53R,3.000000X3.000000*%
%ADD54C,3.000000*%
G04 APERTURE END LIST*
D10*
%TO.C,U3*%
X63006000Y-128960000D03*
X63006000Y-131500000D03*
X63006000Y-134040000D03*
X63006000Y-136580000D03*
X63006000Y-139120000D03*
X63006000Y-141660000D03*
X63006000Y-144200000D03*
X63006000Y-146740000D03*
X78246000Y-146740000D03*
X78246000Y-144200000D03*
X78246000Y-141660000D03*
X78246000Y-139120000D03*
X78246000Y-136580000D03*
X78246000Y-134040000D03*
X78246000Y-131500000D03*
X78246000Y-128960000D03*
%TD*%
D11*
%TO.C,R10*%
X148087500Y-63000000D03*
X149912500Y-63000000D03*
%TD*%
D12*
%TO.C,U7*%
X131650000Y-133610000D03*
D13*
X131650000Y-136150000D03*
X131650000Y-138690000D03*
X131650000Y-141230000D03*
X131650000Y-143770000D03*
X131650000Y-146310000D03*
X131650000Y-148850000D03*
X131650000Y-151390000D03*
X144350000Y-151390000D03*
X144350000Y-148850000D03*
X144350000Y-146310000D03*
X144350000Y-143770000D03*
X144350000Y-141230000D03*
X144350000Y-138690000D03*
X144350000Y-136150000D03*
X144350000Y-133610000D03*
%TD*%
D14*
%TO.C,Q2*%
X151000000Y-85500000D03*
X149100000Y-85500000D03*
X150050000Y-87375000D03*
%TD*%
D15*
%TO.C,J10*%
X166975000Y-146750000D03*
D16*
X166975000Y-149250000D03*
%TD*%
D17*
%TO.C,J8*%
X112500000Y-165000000D03*
D18*
X110000000Y-165000000D03*
X107500000Y-165000000D03*
X105000000Y-165000000D03*
%TD*%
D19*
%TO.C,H4*%
X165000000Y-165000000D03*
%TD*%
%TO.C,H7*%
X158500000Y-99500000D03*
%TD*%
D15*
%TO.C,J11*%
X166975000Y-119500000D03*
D16*
X166975000Y-122000000D03*
%TD*%
D11*
%TO.C,R11*%
X154087500Y-63500000D03*
X155912500Y-63500000D03*
%TD*%
D20*
%TO.C,J17*%
X66250000Y-165525000D03*
D16*
X68750000Y-165525000D03*
%TD*%
D21*
%TO.C,C1*%
X91100000Y-58000000D03*
X93000000Y-58000000D03*
%TD*%
D19*
%TO.C,H2*%
X166000000Y-54000000D03*
%TD*%
D22*
%TO.C,C10*%
X91950000Y-71650000D03*
X90050000Y-71650000D03*
%TD*%
D23*
%TO.C,J3*%
X108680000Y-85100000D03*
D24*
X111220000Y-85100000D03*
X113760000Y-85100000D03*
X116300000Y-85100000D03*
X118840000Y-85100000D03*
X121380000Y-85100000D03*
X123920000Y-85100000D03*
X126460000Y-85100000D03*
X129000000Y-85100000D03*
X131540000Y-85100000D03*
%TD*%
D25*
%TO.C,C5*%
X158000000Y-92900000D03*
X158000000Y-91000000D03*
%TD*%
D19*
%TO.C,H3*%
X55000000Y-165000000D03*
%TD*%
D26*
%TO.C,C6*%
X58000000Y-108500000D03*
X58000000Y-113900000D03*
%TD*%
D25*
%TO.C,C3*%
X162500000Y-74500000D03*
X162500000Y-72600000D03*
%TD*%
D19*
%TO.C,H5*%
X98500000Y-99500000D03*
%TD*%
D23*
%TO.C,J1*%
X102500000Y-52020000D03*
D24*
X102500000Y-54560000D03*
X102500000Y-57100000D03*
X102500000Y-59640000D03*
X102500000Y-62180000D03*
X102500000Y-64720000D03*
X102500000Y-67260000D03*
X102500000Y-69800000D03*
X102500000Y-72340000D03*
X102500000Y-74880000D03*
X102500000Y-77420000D03*
X102500000Y-79960000D03*
X102500000Y-82500000D03*
X102500000Y-85040000D03*
%TD*%
D27*
%TO.C,R3*%
X158000000Y-78675000D03*
X158000000Y-80500000D03*
%TD*%
D15*
%TO.C,J12*%
X167000000Y-133000000D03*
D16*
X167000000Y-135500000D03*
%TD*%
D22*
%TO.C,C9*%
X92400000Y-87650000D03*
X90500000Y-87650000D03*
%TD*%
D28*
%TO.C,D15*%
X77500000Y-89000000D03*
X77500000Y-93300000D03*
%TD*%
D17*
%TO.C,J9*%
X151500000Y-165000000D03*
D18*
X149000000Y-165000000D03*
X146500000Y-165000000D03*
X144000000Y-165000000D03*
%TD*%
D19*
%TO.C,H1*%
X55000000Y-55000000D03*
%TD*%
D29*
%TO.C,U4*%
X75900000Y-103350000D03*
X74200000Y-103350000D03*
X72500000Y-103350000D03*
D30*
X72500000Y-112500000D03*
D29*
X70800000Y-103350000D03*
X69100000Y-103350000D03*
%TD*%
D14*
%TO.C,Q1*%
X159000000Y-85500000D03*
X157100000Y-85500000D03*
X158050000Y-87375000D03*
%TD*%
D31*
%TO.C,U1*%
X111655000Y-51340000D03*
X111655000Y-52610000D03*
X111655000Y-53880000D03*
X111655000Y-55150000D03*
X111655000Y-56420000D03*
X111655000Y-57690000D03*
X111655000Y-58960000D03*
X111655000Y-60230000D03*
X111655000Y-61500000D03*
X111655000Y-62770000D03*
X111655000Y-64040000D03*
X111655000Y-65310000D03*
X111655000Y-66580000D03*
X111655000Y-67850000D03*
D32*
X114690000Y-69100000D03*
X115960000Y-69100000D03*
X117230000Y-69100000D03*
X118500000Y-69100000D03*
X119770000Y-69100000D03*
X121040000Y-69100000D03*
X122310000Y-69100000D03*
X123580000Y-69100000D03*
X124850000Y-69100000D03*
X126120000Y-69100000D03*
D31*
X129155000Y-67850000D03*
X129155000Y-66580000D03*
X129155000Y-65310000D03*
X129155000Y-64040000D03*
X129155000Y-62770000D03*
X129155000Y-61500000D03*
X129155000Y-60230000D03*
X129155000Y-58960000D03*
X129155000Y-57690000D03*
X129155000Y-56420000D03*
X129155000Y-55150000D03*
X129155000Y-53880000D03*
X129155000Y-52610000D03*
X129155000Y-51340000D03*
D33*
X117505000Y-57660000D03*
X118905000Y-57660000D03*
X120305000Y-57660000D03*
X117505000Y-59060000D03*
X118905000Y-59060000D03*
X120305000Y-59060000D03*
X117505000Y-60460000D03*
X118905000Y-60460000D03*
X120305000Y-60460000D03*
%TD*%
D17*
%TO.C,J6*%
X90000000Y-165000000D03*
D18*
X87500000Y-165000000D03*
X85000000Y-165000000D03*
X82500000Y-165000000D03*
%TD*%
D12*
%TO.C,U9*%
X132650000Y-105110000D03*
D13*
X132650000Y-107650000D03*
X132650000Y-110190000D03*
X132650000Y-112730000D03*
X132650000Y-115270000D03*
X132650000Y-117810000D03*
X132650000Y-120350000D03*
X132650000Y-122890000D03*
X145350000Y-122890000D03*
X145350000Y-120350000D03*
X145350000Y-117810000D03*
X145350000Y-115270000D03*
X145350000Y-112730000D03*
X145350000Y-110190000D03*
X145350000Y-107650000D03*
X145350000Y-105110000D03*
%TD*%
D17*
%TO.C,J7*%
X130000000Y-165000000D03*
D18*
X127500000Y-165000000D03*
X125000000Y-165000000D03*
X122500000Y-165000000D03*
%TD*%
D34*
%TO.C,SW7*%
X146000000Y-77300000D03*
X146000000Y-81500000D03*
%TD*%
D12*
%TO.C,U6*%
X109150000Y-105110000D03*
D13*
X109150000Y-107650000D03*
X109150000Y-110190000D03*
X109150000Y-112730000D03*
X109150000Y-115270000D03*
X109150000Y-117810000D03*
X109150000Y-120350000D03*
X109150000Y-122890000D03*
X121850000Y-122890000D03*
X121850000Y-120350000D03*
X121850000Y-117810000D03*
X121850000Y-115270000D03*
X121850000Y-112730000D03*
X121850000Y-110190000D03*
X121850000Y-107650000D03*
X121850000Y-105110000D03*
%TD*%
D35*
%TO.C,R9*%
X55350000Y-139500000D03*
X57000000Y-139500000D03*
%TD*%
D36*
%TO.C,J14*%
X154820000Y-55900000D03*
X149040000Y-55900000D03*
D37*
X155180000Y-57345000D03*
X154380000Y-57345000D03*
D38*
X153180000Y-57345000D03*
X152180000Y-57345000D03*
X151680000Y-57345000D03*
X150680000Y-57345000D03*
D37*
X149480000Y-57345000D03*
X148680000Y-57345000D03*
X148680000Y-57345000D03*
X149480000Y-57345000D03*
D38*
X150180000Y-57345000D03*
X151180000Y-57345000D03*
X152680000Y-57345000D03*
X153680000Y-57345000D03*
D37*
X154380000Y-57345000D03*
X155180000Y-57345000D03*
D39*
X156250000Y-56430000D03*
D40*
X156250000Y-52250000D03*
D39*
X147610000Y-56430000D03*
D40*
X147610000Y-52250000D03*
%TD*%
D19*
%TO.C,H8*%
X158500000Y-159500000D03*
%TD*%
D41*
%TO.C,J5*%
X67000000Y-58000000D03*
D42*
X67000000Y-52200000D03*
D43*
X62200000Y-55000000D03*
%TD*%
D44*
%TO.C,U2*%
X157620000Y-68500000D03*
X156350000Y-68500000D03*
X155080000Y-68500000D03*
X153810000Y-68500000D03*
X152540000Y-68500000D03*
X151270000Y-68500000D03*
X150000000Y-68500000D03*
X148730000Y-68500000D03*
X148730000Y-73450000D03*
X150000000Y-73450000D03*
X151270000Y-73450000D03*
X152540000Y-73450000D03*
X153810000Y-73450000D03*
X155080000Y-73450000D03*
X156350000Y-73450000D03*
X157620000Y-73450000D03*
%TD*%
D25*
%TO.C,C4*%
X150000000Y-92900000D03*
X150000000Y-91000000D03*
%TD*%
D45*
%TO.C,C14*%
X140700000Y-136500000D03*
X135300000Y-136500000D03*
%TD*%
D11*
%TO.C,R1*%
X91000000Y-53000000D03*
X92825000Y-53000000D03*
%TD*%
D27*
%TO.C,R5*%
X164500000Y-91087500D03*
X164500000Y-92912500D03*
%TD*%
D34*
%TO.C,SW8*%
X164500000Y-77800000D03*
X164500000Y-82000000D03*
%TD*%
D27*
%TO.C,R2*%
X152500000Y-78500000D03*
X152500000Y-80325000D03*
%TD*%
D45*
%TO.C,C13*%
X118200000Y-136500000D03*
X112800000Y-136500000D03*
%TD*%
D46*
%TO.C,J13*%
X165000000Y-111000000D03*
D47*
X165000000Y-108500000D03*
X165000000Y-106000000D03*
%TD*%
D12*
%TO.C,U8*%
X109150000Y-133610000D03*
D13*
X109150000Y-136150000D03*
X109150000Y-138690000D03*
X109150000Y-141230000D03*
X109150000Y-143770000D03*
X109150000Y-146310000D03*
X109150000Y-148850000D03*
X109150000Y-151390000D03*
X121850000Y-151390000D03*
X121850000Y-148850000D03*
X121850000Y-146310000D03*
X121850000Y-143770000D03*
X121850000Y-141230000D03*
X121850000Y-138690000D03*
X121850000Y-136150000D03*
X121850000Y-133610000D03*
%TD*%
D23*
%TO.C,J2*%
X138000000Y-52480000D03*
D24*
X138000000Y-55020000D03*
X138000000Y-57560000D03*
X138000000Y-60100000D03*
X138000000Y-62640000D03*
X138000000Y-65180000D03*
X138000000Y-67720000D03*
X138000000Y-70260000D03*
X138000000Y-72800000D03*
X138000000Y-75340000D03*
X138000000Y-77880000D03*
X138000000Y-80420000D03*
X138000000Y-82960000D03*
X138000000Y-85500000D03*
%TD*%
D48*
%TO.C,D13*%
X162500000Y-65000000D03*
X162500000Y-61000000D03*
%TD*%
%TO.C,D14*%
X56000000Y-78000000D03*
X56000000Y-74000000D03*
%TD*%
D49*
%TO.C,C7*%
X65500000Y-87750000D03*
X65500000Y-94250000D03*
%TD*%
D35*
%TO.C,R8*%
X55350000Y-136500000D03*
X57000000Y-136500000D03*
%TD*%
D22*
%TO.C,C11*%
X91900000Y-67150000D03*
X90000000Y-67150000D03*
%TD*%
D19*
%TO.C,H6*%
X98500000Y-159500000D03*
%TD*%
D45*
%TO.C,C12*%
X141700000Y-108000000D03*
X136300000Y-108000000D03*
%TD*%
D27*
%TO.C,R4*%
X143000000Y-91087500D03*
X143000000Y-92912500D03*
%TD*%
D50*
%TO.C,L1*%
X74150000Y-77000000D03*
X65850000Y-77000000D03*
%TD*%
D22*
%TO.C,C8*%
X92450000Y-92650000D03*
X90550000Y-92650000D03*
%TD*%
D51*
%TO.C,U5*%
X88700000Y-82300000D03*
X91000000Y-82300000D03*
D52*
X91000000Y-76000000D03*
D51*
X93300000Y-82300000D03*
%TD*%
D53*
%TO.C,J4*%
X83500000Y-55000000D03*
D54*
X78420000Y-55000000D03*
%TD*%
D45*
%TO.C,C15*%
X118200000Y-108000000D03*
X112800000Y-108000000D03*
%TD*%
D25*
%TO.C,C2*%
X162500000Y-69950000D03*
X162500000Y-68050000D03*
%TD*%
M02*
