M48
; DRILL file {KiCad 9.0.6} date 2025-12-30T14:23:17+0530
; FORMAT={-:-/ absolute / metric / decimal}
; #@! TF.CreationDate,2025-12-30T14:23:17+05:30
; #@! TF.GenerationSoftware,Kicad,Pcbnew,9.0.6
; #@! TF.FileFunction,Plated,1,2,PTH
FMAT,2
METRIC
; #@! TA.AperFunction,Plated,PTH,ComponentDrill
T1C0.200
; #@! TA.AperFunction,Plated,PTH,ViaDrill
T2C0.300
; #@! TA.AperFunction,Plated,PTH,ComponentDrill
T3C0.600
; #@! TA.AperFunction,Plated,PTH,ComponentDrill
T4C0.800
; #@! TA.AperFunction,Plated,PTH,ComponentDrill
T5C0.950
; #@! TA.AperFunction,Plated,PTH,ComponentDrill
T6C1.000
; #@! TA.AperFunction,Plated,PTH,ComponentDrill
T7C1.050
; #@! TA.AperFunction,Plated,PTH,ComponentDrill
T8C1.100
; #@! TA.AperFunction,Plated,PTH,ComponentDrill
T9C1.320
; #@! TA.AperFunction,Plated,PTH,ComponentDrill
T10C1.520
%
G90
G05
T1
X117.505Y-58.36
X117.505Y-59.76
X118.205Y-57.66
X118.205Y-59.06
X118.205Y-60.46
X118.905Y-58.36
X118.905Y-59.76
X119.605Y-57.66
X119.605Y-59.06
X119.605Y-60.46
X120.305Y-58.36
X120.305Y-59.76
T2
X56.0Y-134.5
X56.0Y-142.0
X87.0Y-86.0
X88.0Y-150.0
X90.0Y-152.0
X91.0Y-51.5
X108.0Y-94.5
X110.0Y-97.5
X143.0Y-95.5
X153.0Y-84.5
X154.5Y-80.5
X159.5Y-84.0
T5
X82.5Y-165.0
X85.0Y-165.0
X87.5Y-165.0
X90.0Y-165.0
X105.0Y-165.0
X107.5Y-165.0
X110.0Y-165.0
X112.5Y-165.0
X122.5Y-165.0
X125.0Y-165.0
X127.5Y-165.0
X130.0Y-165.0
X144.0Y-165.0
X146.5Y-165.0
X149.0Y-165.0
X151.5Y-165.0
X165.0Y-106.0
X165.0Y-108.5
X165.0Y-111.0
T6
X102.5Y-52.02
X102.5Y-54.56
X102.5Y-57.1
X102.5Y-59.64
X102.5Y-62.18
X102.5Y-64.72
X102.5Y-67.26
X102.5Y-69.8
X102.5Y-72.34
X102.5Y-74.88
X102.5Y-77.42
X102.5Y-79.96
X102.5Y-82.5
X102.5Y-85.04
X108.68Y-85.1
X111.22Y-85.1
X113.76Y-85.1
X116.3Y-85.1
X118.84Y-85.1
X121.38Y-85.1
X123.92Y-85.1
X126.46Y-85.1
X129.0Y-85.1
X131.54Y-85.1
X138.0Y-52.48
X138.0Y-55.02
X138.0Y-57.56
X138.0Y-60.1
X138.0Y-62.64
X138.0Y-65.18
X138.0Y-67.72
X138.0Y-70.26
X138.0Y-72.8
X138.0Y-75.34
X138.0Y-77.88
X138.0Y-80.42
X138.0Y-82.96
X138.0Y-85.5
T7
X66.25Y-165.525
X68.75Y-165.525
X166.975Y-119.5
X166.975Y-122.0
X166.975Y-146.75
X166.975Y-149.25
X167.0Y-133.0
X167.0Y-135.5
T8
X109.15Y-105.11
X109.15Y-107.65
X109.15Y-110.19
X109.15Y-112.73
X109.15Y-115.27
X109.15Y-117.81
X109.15Y-120.35
X109.15Y-122.89
X109.15Y-133.61
X109.15Y-136.15
X109.15Y-138.69
X109.15Y-141.23
X109.15Y-143.77
X109.15Y-146.31
X109.15Y-148.85
X109.15Y-151.39
X121.85Y-105.11
X121.85Y-107.65
X121.85Y-110.19
X121.85Y-112.73
X121.85Y-115.27
X121.85Y-117.81
X121.85Y-120.35
X121.85Y-122.89
X121.85Y-133.61
X121.85Y-136.15
X121.85Y-138.69
X121.85Y-141.23
X121.85Y-143.77
X121.85Y-146.31
X121.85Y-148.85
X121.85Y-151.39
X131.65Y-133.61
X131.65Y-136.15
X131.65Y-138.69
X131.65Y-141.23
X131.65Y-143.77
X131.65Y-146.31
X131.65Y-148.85
X131.65Y-151.39
X132.65Y-105.11
X132.65Y-107.65
X132.65Y-110.19
X132.65Y-112.73
X132.65Y-115.27
X132.65Y-117.81
X132.65Y-120.35
X132.65Y-122.89
X144.35Y-133.61
X144.35Y-136.15
X144.35Y-138.69
X144.35Y-141.23
X144.35Y-143.77
X144.35Y-146.31
X144.35Y-148.85
X144.35Y-151.39
X145.35Y-105.11
X145.35Y-107.65
X145.35Y-110.19
X145.35Y-112.73
X145.35Y-115.27
X145.35Y-117.81
X145.35Y-120.35
X145.35Y-122.89
T9
X63.006Y-128.96
X63.006Y-131.5
X63.006Y-134.04
X63.006Y-136.58
X63.006Y-139.12
X63.006Y-141.66
X63.006Y-144.2
X63.006Y-146.74
X78.246Y-128.96
X78.246Y-131.5
X78.246Y-134.04
X78.246Y-136.58
X78.246Y-139.12
X78.246Y-141.66
X78.246Y-144.2
X78.246Y-146.74
T10
X78.42Y-55.0
X83.5Y-55.0
T3
G00X147.61Y-52.55
M15
G01X147.61Y-51.95
M16
G05
G00X147.61Y-56.98
M15
G01X147.61Y-55.88
M16
G05
G00X156.25Y-52.55
M15
G01X156.25Y-51.95
M16
G05
G00X156.25Y-56.98
M15
G01X156.25Y-55.88
M16
G05
T4
G00X62.2Y-53.9
M15
G01X62.2Y-56.1
M16
G05
G00X68.1Y-52.2
M15
G01X65.9Y-52.2
M16
G05
G00X68.3Y-58.0
M15
G01X65.7Y-58.0
M16
G05
M30
