%TF.GenerationSoftware,KiCad,Pcbnew,9.0.6*%
%TF.CreationDate,2025-12-30T14:23:23+05:30*%
%TF.ProjectId,Gantry_PCBv2,47616e74-7279-45f5-9043-4276322e6b69,rev?*%
%TF.SameCoordinates,Original*%
%TF.FileFunction,Legend,Top*%
%TF.FilePolarity,Positive*%
%FSLAX46Y46*%
G04 Gerber Fmt 4.6, Leading zero omitted, Abs format (unit mm)*
G04 Created by KiCad (PCBNEW 9.0.6) date 2025-12-30 14:23:23*
%MOMM*%
%LPD*%
G01*
G04 APERTURE LIST*
%ADD10C,0.150000*%
%ADD11C,0.127000*%
%ADD12C,0.200000*%
%ADD13C,0.120000*%
G04 APERTURE END LIST*
D10*
X64330895Y-125691619D02*
X64330895Y-126501142D01*
X64330895Y-126501142D02*
X64378514Y-126596380D01*
X64378514Y-126596380D02*
X64426133Y-126644000D01*
X64426133Y-126644000D02*
X64521371Y-126691619D01*
X64521371Y-126691619D02*
X64711847Y-126691619D01*
X64711847Y-126691619D02*
X64807085Y-126644000D01*
X64807085Y-126644000D02*
X64854704Y-126596380D01*
X64854704Y-126596380D02*
X64902323Y-126501142D01*
X64902323Y-126501142D02*
X64902323Y-125691619D01*
X65283276Y-125691619D02*
X65902323Y-125691619D01*
X65902323Y-125691619D02*
X65568990Y-126072571D01*
X65568990Y-126072571D02*
X65711847Y-126072571D01*
X65711847Y-126072571D02*
X65807085Y-126120190D01*
X65807085Y-126120190D02*
X65854704Y-126167809D01*
X65854704Y-126167809D02*
X65902323Y-126263047D01*
X65902323Y-126263047D02*
X65902323Y-126501142D01*
X65902323Y-126501142D02*
X65854704Y-126596380D01*
X65854704Y-126596380D02*
X65807085Y-126644000D01*
X65807085Y-126644000D02*
X65711847Y-126691619D01*
X65711847Y-126691619D02*
X65426133Y-126691619D01*
X65426133Y-126691619D02*
X65330895Y-126644000D01*
X65330895Y-126644000D02*
X65283276Y-126596380D01*
X148357142Y-61804819D02*
X148023809Y-61328628D01*
X147785714Y-61804819D02*
X147785714Y-60804819D01*
X147785714Y-60804819D02*
X148166666Y-60804819D01*
X148166666Y-60804819D02*
X148261904Y-60852438D01*
X148261904Y-60852438D02*
X148309523Y-60900057D01*
X148309523Y-60900057D02*
X148357142Y-60995295D01*
X148357142Y-60995295D02*
X148357142Y-61138152D01*
X148357142Y-61138152D02*
X148309523Y-61233390D01*
X148309523Y-61233390D02*
X148261904Y-61281009D01*
X148261904Y-61281009D02*
X148166666Y-61328628D01*
X148166666Y-61328628D02*
X147785714Y-61328628D01*
X149309523Y-61804819D02*
X148738095Y-61804819D01*
X149023809Y-61804819D02*
X149023809Y-60804819D01*
X149023809Y-60804819D02*
X148928571Y-60947676D01*
X148928571Y-60947676D02*
X148833333Y-61042914D01*
X148833333Y-61042914D02*
X148738095Y-61090533D01*
X149928571Y-60804819D02*
X150023809Y-60804819D01*
X150023809Y-60804819D02*
X150119047Y-60852438D01*
X150119047Y-60852438D02*
X150166666Y-60900057D01*
X150166666Y-60900057D02*
X150214285Y-60995295D01*
X150214285Y-60995295D02*
X150261904Y-61185771D01*
X150261904Y-61185771D02*
X150261904Y-61423866D01*
X150261904Y-61423866D02*
X150214285Y-61614342D01*
X150214285Y-61614342D02*
X150166666Y-61709580D01*
X150166666Y-61709580D02*
X150119047Y-61757200D01*
X150119047Y-61757200D02*
X150023809Y-61804819D01*
X150023809Y-61804819D02*
X149928571Y-61804819D01*
X149928571Y-61804819D02*
X149833333Y-61757200D01*
X149833333Y-61757200D02*
X149785714Y-61709580D01*
X149785714Y-61709580D02*
X149738095Y-61614342D01*
X149738095Y-61614342D02*
X149690476Y-61423866D01*
X149690476Y-61423866D02*
X149690476Y-61185771D01*
X149690476Y-61185771D02*
X149738095Y-60995295D01*
X149738095Y-60995295D02*
X149785714Y-60900057D01*
X149785714Y-60900057D02*
X149833333Y-60852438D01*
X149833333Y-60852438D02*
X149928571Y-60804819D01*
X132793095Y-129889819D02*
X132793095Y-130699342D01*
X132793095Y-130699342D02*
X132840714Y-130794580D01*
X132840714Y-130794580D02*
X132888333Y-130842200D01*
X132888333Y-130842200D02*
X132983571Y-130889819D01*
X132983571Y-130889819D02*
X133174047Y-130889819D01*
X133174047Y-130889819D02*
X133269285Y-130842200D01*
X133269285Y-130842200D02*
X133316904Y-130794580D01*
X133316904Y-130794580D02*
X133364523Y-130699342D01*
X133364523Y-130699342D02*
X133364523Y-129889819D01*
X133745476Y-129889819D02*
X134412142Y-129889819D01*
X134412142Y-129889819D02*
X133983571Y-130889819D01*
X153000057Y-86532738D02*
X152952438Y-86627976D01*
X152952438Y-86627976D02*
X152857200Y-86723214D01*
X152857200Y-86723214D02*
X152714342Y-86866071D01*
X152714342Y-86866071D02*
X152666723Y-86961309D01*
X152666723Y-86961309D02*
X152666723Y-87056547D01*
X152904819Y-87008928D02*
X152857200Y-87104166D01*
X152857200Y-87104166D02*
X152761961Y-87199404D01*
X152761961Y-87199404D02*
X152571485Y-87247023D01*
X152571485Y-87247023D02*
X152238152Y-87247023D01*
X152238152Y-87247023D02*
X152047676Y-87199404D01*
X152047676Y-87199404D02*
X151952438Y-87104166D01*
X151952438Y-87104166D02*
X151904819Y-87008928D01*
X151904819Y-87008928D02*
X151904819Y-86818452D01*
X151904819Y-86818452D02*
X151952438Y-86723214D01*
X151952438Y-86723214D02*
X152047676Y-86627976D01*
X152047676Y-86627976D02*
X152238152Y-86580357D01*
X152238152Y-86580357D02*
X152571485Y-86580357D01*
X152571485Y-86580357D02*
X152761961Y-86627976D01*
X152761961Y-86627976D02*
X152857200Y-86723214D01*
X152857200Y-86723214D02*
X152904819Y-86818452D01*
X152904819Y-86818452D02*
X152904819Y-87008928D01*
X152000057Y-86199404D02*
X151952438Y-86151785D01*
X151952438Y-86151785D02*
X151904819Y-86056547D01*
X151904819Y-86056547D02*
X151904819Y-85818452D01*
X151904819Y-85818452D02*
X151952438Y-85723214D01*
X151952438Y-85723214D02*
X152000057Y-85675595D01*
X152000057Y-85675595D02*
X152095295Y-85627976D01*
X152095295Y-85627976D02*
X152190533Y-85627976D01*
X152190533Y-85627976D02*
X152333390Y-85675595D01*
X152333390Y-85675595D02*
X152904819Y-86247023D01*
X152904819Y-86247023D02*
X152904819Y-85627976D01*
X171714819Y-148034523D02*
X172429104Y-148034523D01*
X172429104Y-148034523D02*
X172571961Y-148082142D01*
X172571961Y-148082142D02*
X172667200Y-148177380D01*
X172667200Y-148177380D02*
X172714819Y-148320237D01*
X172714819Y-148320237D02*
X172714819Y-148415475D01*
X172714819Y-147034523D02*
X172714819Y-147605951D01*
X172714819Y-147320237D02*
X171714819Y-147320237D01*
X171714819Y-147320237D02*
X171857676Y-147415475D01*
X171857676Y-147415475D02*
X171952914Y-147510713D01*
X171952914Y-147510713D02*
X172000533Y-147605951D01*
X171714819Y-146415475D02*
X171714819Y-146320237D01*
X171714819Y-146320237D02*
X171762438Y-146224999D01*
X171762438Y-146224999D02*
X171810057Y-146177380D01*
X171810057Y-146177380D02*
X171905295Y-146129761D01*
X171905295Y-146129761D02*
X172095771Y-146082142D01*
X172095771Y-146082142D02*
X172333866Y-146082142D01*
X172333866Y-146082142D02*
X172524342Y-146129761D01*
X172524342Y-146129761D02*
X172619580Y-146177380D01*
X172619580Y-146177380D02*
X172667200Y-146224999D01*
X172667200Y-146224999D02*
X172714819Y-146320237D01*
X172714819Y-146320237D02*
X172714819Y-146415475D01*
X172714819Y-146415475D02*
X172667200Y-146510713D01*
X172667200Y-146510713D02*
X172619580Y-146558332D01*
X172619580Y-146558332D02*
X172524342Y-146605951D01*
X172524342Y-146605951D02*
X172333866Y-146653570D01*
X172333866Y-146653570D02*
X172095771Y-146653570D01*
X172095771Y-146653570D02*
X171905295Y-146605951D01*
X171905295Y-146605951D02*
X171810057Y-146558332D01*
X171810057Y-146558332D02*
X171762438Y-146510713D01*
X171762438Y-146510713D02*
X171714819Y-146415475D01*
X108416666Y-167254819D02*
X108416666Y-167969104D01*
X108416666Y-167969104D02*
X108369047Y-168111961D01*
X108369047Y-168111961D02*
X108273809Y-168207200D01*
X108273809Y-168207200D02*
X108130952Y-168254819D01*
X108130952Y-168254819D02*
X108035714Y-168254819D01*
X109035714Y-167683390D02*
X108940476Y-167635771D01*
X108940476Y-167635771D02*
X108892857Y-167588152D01*
X108892857Y-167588152D02*
X108845238Y-167492914D01*
X108845238Y-167492914D02*
X108845238Y-167445295D01*
X108845238Y-167445295D02*
X108892857Y-167350057D01*
X108892857Y-167350057D02*
X108940476Y-167302438D01*
X108940476Y-167302438D02*
X109035714Y-167254819D01*
X109035714Y-167254819D02*
X109226190Y-167254819D01*
X109226190Y-167254819D02*
X109321428Y-167302438D01*
X109321428Y-167302438D02*
X109369047Y-167350057D01*
X109369047Y-167350057D02*
X109416666Y-167445295D01*
X109416666Y-167445295D02*
X109416666Y-167492914D01*
X109416666Y-167492914D02*
X109369047Y-167588152D01*
X109369047Y-167588152D02*
X109321428Y-167635771D01*
X109321428Y-167635771D02*
X109226190Y-167683390D01*
X109226190Y-167683390D02*
X109035714Y-167683390D01*
X109035714Y-167683390D02*
X108940476Y-167731009D01*
X108940476Y-167731009D02*
X108892857Y-167778628D01*
X108892857Y-167778628D02*
X108845238Y-167873866D01*
X108845238Y-167873866D02*
X108845238Y-168064342D01*
X108845238Y-168064342D02*
X108892857Y-168159580D01*
X108892857Y-168159580D02*
X108940476Y-168207200D01*
X108940476Y-168207200D02*
X109035714Y-168254819D01*
X109035714Y-168254819D02*
X109226190Y-168254819D01*
X109226190Y-168254819D02*
X109321428Y-168207200D01*
X109321428Y-168207200D02*
X109369047Y-168159580D01*
X109369047Y-168159580D02*
X109416666Y-168064342D01*
X109416666Y-168064342D02*
X109416666Y-167873866D01*
X109416666Y-167873866D02*
X109369047Y-167778628D01*
X109369047Y-167778628D02*
X109321428Y-167731009D01*
X109321428Y-167731009D02*
X109226190Y-167683390D01*
X164238095Y-161304819D02*
X164238095Y-160304819D01*
X164238095Y-160781009D02*
X164809523Y-160781009D01*
X164809523Y-161304819D02*
X164809523Y-160304819D01*
X165714285Y-160638152D02*
X165714285Y-161304819D01*
X165476190Y-160257200D02*
X165238095Y-160971485D01*
X165238095Y-160971485D02*
X165857142Y-160971485D01*
X157738095Y-95804819D02*
X157738095Y-94804819D01*
X157738095Y-95281009D02*
X158309523Y-95281009D01*
X158309523Y-95804819D02*
X158309523Y-94804819D01*
X158690476Y-94804819D02*
X159357142Y-94804819D01*
X159357142Y-94804819D02*
X158928571Y-95804819D01*
X171714819Y-120784523D02*
X172429104Y-120784523D01*
X172429104Y-120784523D02*
X172571961Y-120832142D01*
X172571961Y-120832142D02*
X172667200Y-120927380D01*
X172667200Y-120927380D02*
X172714819Y-121070237D01*
X172714819Y-121070237D02*
X172714819Y-121165475D01*
X172714819Y-119784523D02*
X172714819Y-120355951D01*
X172714819Y-120070237D02*
X171714819Y-120070237D01*
X171714819Y-120070237D02*
X171857676Y-120165475D01*
X171857676Y-120165475D02*
X171952914Y-120260713D01*
X171952914Y-120260713D02*
X172000533Y-120355951D01*
X172714819Y-118832142D02*
X172714819Y-119403570D01*
X172714819Y-119117856D02*
X171714819Y-119117856D01*
X171714819Y-119117856D02*
X171857676Y-119213094D01*
X171857676Y-119213094D02*
X171952914Y-119308332D01*
X171952914Y-119308332D02*
X172000533Y-119403570D01*
X154357142Y-62304819D02*
X154023809Y-61828628D01*
X153785714Y-62304819D02*
X153785714Y-61304819D01*
X153785714Y-61304819D02*
X154166666Y-61304819D01*
X154166666Y-61304819D02*
X154261904Y-61352438D01*
X154261904Y-61352438D02*
X154309523Y-61400057D01*
X154309523Y-61400057D02*
X154357142Y-61495295D01*
X154357142Y-61495295D02*
X154357142Y-61638152D01*
X154357142Y-61638152D02*
X154309523Y-61733390D01*
X154309523Y-61733390D02*
X154261904Y-61781009D01*
X154261904Y-61781009D02*
X154166666Y-61828628D01*
X154166666Y-61828628D02*
X153785714Y-61828628D01*
X155309523Y-62304819D02*
X154738095Y-62304819D01*
X155023809Y-62304819D02*
X155023809Y-61304819D01*
X155023809Y-61304819D02*
X154928571Y-61447676D01*
X154928571Y-61447676D02*
X154833333Y-61542914D01*
X154833333Y-61542914D02*
X154738095Y-61590533D01*
X156261904Y-62304819D02*
X155690476Y-62304819D01*
X155976190Y-62304819D02*
X155976190Y-61304819D01*
X155976190Y-61304819D02*
X155880952Y-61447676D01*
X155880952Y-61447676D02*
X155785714Y-61542914D01*
X155785714Y-61542914D02*
X155690476Y-61590533D01*
X66940476Y-168479819D02*
X66940476Y-169194104D01*
X66940476Y-169194104D02*
X66892857Y-169336961D01*
X66892857Y-169336961D02*
X66797619Y-169432200D01*
X66797619Y-169432200D02*
X66654762Y-169479819D01*
X66654762Y-169479819D02*
X66559524Y-169479819D01*
X67940476Y-169479819D02*
X67369048Y-169479819D01*
X67654762Y-169479819D02*
X67654762Y-168479819D01*
X67654762Y-168479819D02*
X67559524Y-168622676D01*
X67559524Y-168622676D02*
X67464286Y-168717914D01*
X67464286Y-168717914D02*
X67369048Y-168765533D01*
X68273810Y-168479819D02*
X68940476Y-168479819D01*
X68940476Y-168479819D02*
X68511905Y-169479819D01*
X91883333Y-56679580D02*
X91835714Y-56727200D01*
X91835714Y-56727200D02*
X91692857Y-56774819D01*
X91692857Y-56774819D02*
X91597619Y-56774819D01*
X91597619Y-56774819D02*
X91454762Y-56727200D01*
X91454762Y-56727200D02*
X91359524Y-56631961D01*
X91359524Y-56631961D02*
X91311905Y-56536723D01*
X91311905Y-56536723D02*
X91264286Y-56346247D01*
X91264286Y-56346247D02*
X91264286Y-56203390D01*
X91264286Y-56203390D02*
X91311905Y-56012914D01*
X91311905Y-56012914D02*
X91359524Y-55917676D01*
X91359524Y-55917676D02*
X91454762Y-55822438D01*
X91454762Y-55822438D02*
X91597619Y-55774819D01*
X91597619Y-55774819D02*
X91692857Y-55774819D01*
X91692857Y-55774819D02*
X91835714Y-55822438D01*
X91835714Y-55822438D02*
X91883333Y-55870057D01*
X92835714Y-56774819D02*
X92264286Y-56774819D01*
X92550000Y-56774819D02*
X92550000Y-55774819D01*
X92550000Y-55774819D02*
X92454762Y-55917676D01*
X92454762Y-55917676D02*
X92359524Y-56012914D01*
X92359524Y-56012914D02*
X92264286Y-56060533D01*
X165238095Y-50304819D02*
X165238095Y-49304819D01*
X165238095Y-49781009D02*
X165809523Y-49781009D01*
X165809523Y-50304819D02*
X165809523Y-49304819D01*
X166238095Y-49400057D02*
X166285714Y-49352438D01*
X166285714Y-49352438D02*
X166380952Y-49304819D01*
X166380952Y-49304819D02*
X166619047Y-49304819D01*
X166619047Y-49304819D02*
X166714285Y-49352438D01*
X166714285Y-49352438D02*
X166761904Y-49400057D01*
X166761904Y-49400057D02*
X166809523Y-49495295D01*
X166809523Y-49495295D02*
X166809523Y-49590533D01*
X166809523Y-49590533D02*
X166761904Y-49733390D01*
X166761904Y-49733390D02*
X166190476Y-50304819D01*
X166190476Y-50304819D02*
X166809523Y-50304819D01*
X90357142Y-73689580D02*
X90309523Y-73737200D01*
X90309523Y-73737200D02*
X90166666Y-73784819D01*
X90166666Y-73784819D02*
X90071428Y-73784819D01*
X90071428Y-73784819D02*
X89928571Y-73737200D01*
X89928571Y-73737200D02*
X89833333Y-73641961D01*
X89833333Y-73641961D02*
X89785714Y-73546723D01*
X89785714Y-73546723D02*
X89738095Y-73356247D01*
X89738095Y-73356247D02*
X89738095Y-73213390D01*
X89738095Y-73213390D02*
X89785714Y-73022914D01*
X89785714Y-73022914D02*
X89833333Y-72927676D01*
X89833333Y-72927676D02*
X89928571Y-72832438D01*
X89928571Y-72832438D02*
X90071428Y-72784819D01*
X90071428Y-72784819D02*
X90166666Y-72784819D01*
X90166666Y-72784819D02*
X90309523Y-72832438D01*
X90309523Y-72832438D02*
X90357142Y-72880057D01*
X91309523Y-73784819D02*
X90738095Y-73784819D01*
X91023809Y-73784819D02*
X91023809Y-72784819D01*
X91023809Y-72784819D02*
X90928571Y-72927676D01*
X90928571Y-72927676D02*
X90833333Y-73022914D01*
X90833333Y-73022914D02*
X90738095Y-73070533D01*
X91928571Y-72784819D02*
X92023809Y-72784819D01*
X92023809Y-72784819D02*
X92119047Y-72832438D01*
X92119047Y-72832438D02*
X92166666Y-72880057D01*
X92166666Y-72880057D02*
X92214285Y-72975295D01*
X92214285Y-72975295D02*
X92261904Y-73165771D01*
X92261904Y-73165771D02*
X92261904Y-73403866D01*
X92261904Y-73403866D02*
X92214285Y-73594342D01*
X92214285Y-73594342D02*
X92166666Y-73689580D01*
X92166666Y-73689580D02*
X92119047Y-73737200D01*
X92119047Y-73737200D02*
X92023809Y-73784819D01*
X92023809Y-73784819D02*
X91928571Y-73784819D01*
X91928571Y-73784819D02*
X91833333Y-73737200D01*
X91833333Y-73737200D02*
X91785714Y-73689580D01*
X91785714Y-73689580D02*
X91738095Y-73594342D01*
X91738095Y-73594342D02*
X91690476Y-73403866D01*
X91690476Y-73403866D02*
X91690476Y-73165771D01*
X91690476Y-73165771D02*
X91738095Y-72975295D01*
X91738095Y-72975295D02*
X91785714Y-72880057D01*
X91785714Y-72880057D02*
X91833333Y-72832438D01*
X91833333Y-72832438D02*
X91928571Y-72784819D01*
X105754819Y-85433333D02*
X106469104Y-85433333D01*
X106469104Y-85433333D02*
X106611961Y-85480952D01*
X106611961Y-85480952D02*
X106707200Y-85576190D01*
X106707200Y-85576190D02*
X106754819Y-85719047D01*
X106754819Y-85719047D02*
X106754819Y-85814285D01*
X105754819Y-85052380D02*
X105754819Y-84433333D01*
X105754819Y-84433333D02*
X106135771Y-84766666D01*
X106135771Y-84766666D02*
X106135771Y-84623809D01*
X106135771Y-84623809D02*
X106183390Y-84528571D01*
X106183390Y-84528571D02*
X106231009Y-84480952D01*
X106231009Y-84480952D02*
X106326247Y-84433333D01*
X106326247Y-84433333D02*
X106564342Y-84433333D01*
X106564342Y-84433333D02*
X106659580Y-84480952D01*
X106659580Y-84480952D02*
X106707200Y-84528571D01*
X106707200Y-84528571D02*
X106754819Y-84623809D01*
X106754819Y-84623809D02*
X106754819Y-84909523D01*
X106754819Y-84909523D02*
X106707200Y-85004761D01*
X106707200Y-85004761D02*
X106659580Y-85052380D01*
X156679580Y-92116666D02*
X156727200Y-92164285D01*
X156727200Y-92164285D02*
X156774819Y-92307142D01*
X156774819Y-92307142D02*
X156774819Y-92402380D01*
X156774819Y-92402380D02*
X156727200Y-92545237D01*
X156727200Y-92545237D02*
X156631961Y-92640475D01*
X156631961Y-92640475D02*
X156536723Y-92688094D01*
X156536723Y-92688094D02*
X156346247Y-92735713D01*
X156346247Y-92735713D02*
X156203390Y-92735713D01*
X156203390Y-92735713D02*
X156012914Y-92688094D01*
X156012914Y-92688094D02*
X155917676Y-92640475D01*
X155917676Y-92640475D02*
X155822438Y-92545237D01*
X155822438Y-92545237D02*
X155774819Y-92402380D01*
X155774819Y-92402380D02*
X155774819Y-92307142D01*
X155774819Y-92307142D02*
X155822438Y-92164285D01*
X155822438Y-92164285D02*
X155870057Y-92116666D01*
X155774819Y-91211904D02*
X155774819Y-91688094D01*
X155774819Y-91688094D02*
X156251009Y-91735713D01*
X156251009Y-91735713D02*
X156203390Y-91688094D01*
X156203390Y-91688094D02*
X156155771Y-91592856D01*
X156155771Y-91592856D02*
X156155771Y-91354761D01*
X156155771Y-91354761D02*
X156203390Y-91259523D01*
X156203390Y-91259523D02*
X156251009Y-91211904D01*
X156251009Y-91211904D02*
X156346247Y-91164285D01*
X156346247Y-91164285D02*
X156584342Y-91164285D01*
X156584342Y-91164285D02*
X156679580Y-91211904D01*
X156679580Y-91211904D02*
X156727200Y-91259523D01*
X156727200Y-91259523D02*
X156774819Y-91354761D01*
X156774819Y-91354761D02*
X156774819Y-91592856D01*
X156774819Y-91592856D02*
X156727200Y-91688094D01*
X156727200Y-91688094D02*
X156679580Y-91735713D01*
X54238095Y-161304819D02*
X54238095Y-160304819D01*
X54238095Y-160781009D02*
X54809523Y-160781009D01*
X54809523Y-161304819D02*
X54809523Y-160304819D01*
X55190476Y-160304819D02*
X55809523Y-160304819D01*
X55809523Y-160304819D02*
X55476190Y-160685771D01*
X55476190Y-160685771D02*
X55619047Y-160685771D01*
X55619047Y-160685771D02*
X55714285Y-160733390D01*
X55714285Y-160733390D02*
X55761904Y-160781009D01*
X55761904Y-160781009D02*
X55809523Y-160876247D01*
X55809523Y-160876247D02*
X55809523Y-161114342D01*
X55809523Y-161114342D02*
X55761904Y-161209580D01*
X55761904Y-161209580D02*
X55714285Y-161257200D01*
X55714285Y-161257200D02*
X55619047Y-161304819D01*
X55619047Y-161304819D02*
X55333333Y-161304819D01*
X55333333Y-161304819D02*
X55238095Y-161257200D01*
X55238095Y-161257200D02*
X55190476Y-161209580D01*
X60684580Y-106566666D02*
X60732200Y-106614285D01*
X60732200Y-106614285D02*
X60779819Y-106757142D01*
X60779819Y-106757142D02*
X60779819Y-106852380D01*
X60779819Y-106852380D02*
X60732200Y-106995237D01*
X60732200Y-106995237D02*
X60636961Y-107090475D01*
X60636961Y-107090475D02*
X60541723Y-107138094D01*
X60541723Y-107138094D02*
X60351247Y-107185713D01*
X60351247Y-107185713D02*
X60208390Y-107185713D01*
X60208390Y-107185713D02*
X60017914Y-107138094D01*
X60017914Y-107138094D02*
X59922676Y-107090475D01*
X59922676Y-107090475D02*
X59827438Y-106995237D01*
X59827438Y-106995237D02*
X59779819Y-106852380D01*
X59779819Y-106852380D02*
X59779819Y-106757142D01*
X59779819Y-106757142D02*
X59827438Y-106614285D01*
X59827438Y-106614285D02*
X59875057Y-106566666D01*
X59779819Y-105709523D02*
X59779819Y-105899999D01*
X59779819Y-105899999D02*
X59827438Y-105995237D01*
X59827438Y-105995237D02*
X59875057Y-106042856D01*
X59875057Y-106042856D02*
X60017914Y-106138094D01*
X60017914Y-106138094D02*
X60208390Y-106185713D01*
X60208390Y-106185713D02*
X60589342Y-106185713D01*
X60589342Y-106185713D02*
X60684580Y-106138094D01*
X60684580Y-106138094D02*
X60732200Y-106090475D01*
X60732200Y-106090475D02*
X60779819Y-105995237D01*
X60779819Y-105995237D02*
X60779819Y-105804761D01*
X60779819Y-105804761D02*
X60732200Y-105709523D01*
X60732200Y-105709523D02*
X60684580Y-105661904D01*
X60684580Y-105661904D02*
X60589342Y-105614285D01*
X60589342Y-105614285D02*
X60351247Y-105614285D01*
X60351247Y-105614285D02*
X60256009Y-105661904D01*
X60256009Y-105661904D02*
X60208390Y-105709523D01*
X60208390Y-105709523D02*
X60160771Y-105804761D01*
X60160771Y-105804761D02*
X60160771Y-105995237D01*
X60160771Y-105995237D02*
X60208390Y-106090475D01*
X60208390Y-106090475D02*
X60256009Y-106138094D01*
X60256009Y-106138094D02*
X60351247Y-106185713D01*
X161179580Y-73716666D02*
X161227200Y-73764285D01*
X161227200Y-73764285D02*
X161274819Y-73907142D01*
X161274819Y-73907142D02*
X161274819Y-74002380D01*
X161274819Y-74002380D02*
X161227200Y-74145237D01*
X161227200Y-74145237D02*
X161131961Y-74240475D01*
X161131961Y-74240475D02*
X161036723Y-74288094D01*
X161036723Y-74288094D02*
X160846247Y-74335713D01*
X160846247Y-74335713D02*
X160703390Y-74335713D01*
X160703390Y-74335713D02*
X160512914Y-74288094D01*
X160512914Y-74288094D02*
X160417676Y-74240475D01*
X160417676Y-74240475D02*
X160322438Y-74145237D01*
X160322438Y-74145237D02*
X160274819Y-74002380D01*
X160274819Y-74002380D02*
X160274819Y-73907142D01*
X160274819Y-73907142D02*
X160322438Y-73764285D01*
X160322438Y-73764285D02*
X160370057Y-73716666D01*
X160274819Y-73383332D02*
X160274819Y-72764285D01*
X160274819Y-72764285D02*
X160655771Y-73097618D01*
X160655771Y-73097618D02*
X160655771Y-72954761D01*
X160655771Y-72954761D02*
X160703390Y-72859523D01*
X160703390Y-72859523D02*
X160751009Y-72811904D01*
X160751009Y-72811904D02*
X160846247Y-72764285D01*
X160846247Y-72764285D02*
X161084342Y-72764285D01*
X161084342Y-72764285D02*
X161179580Y-72811904D01*
X161179580Y-72811904D02*
X161227200Y-72859523D01*
X161227200Y-72859523D02*
X161274819Y-72954761D01*
X161274819Y-72954761D02*
X161274819Y-73240475D01*
X161274819Y-73240475D02*
X161227200Y-73335713D01*
X161227200Y-73335713D02*
X161179580Y-73383332D01*
X97738095Y-95804819D02*
X97738095Y-94804819D01*
X97738095Y-95281009D02*
X98309523Y-95281009D01*
X98309523Y-95804819D02*
X98309523Y-94804819D01*
X99261904Y-94804819D02*
X98785714Y-94804819D01*
X98785714Y-94804819D02*
X98738095Y-95281009D01*
X98738095Y-95281009D02*
X98785714Y-95233390D01*
X98785714Y-95233390D02*
X98880952Y-95185771D01*
X98880952Y-95185771D02*
X99119047Y-95185771D01*
X99119047Y-95185771D02*
X99214285Y-95233390D01*
X99214285Y-95233390D02*
X99261904Y-95281009D01*
X99261904Y-95281009D02*
X99309523Y-95376247D01*
X99309523Y-95376247D02*
X99309523Y-95614342D01*
X99309523Y-95614342D02*
X99261904Y-95709580D01*
X99261904Y-95709580D02*
X99214285Y-95757200D01*
X99214285Y-95757200D02*
X99119047Y-95804819D01*
X99119047Y-95804819D02*
X98880952Y-95804819D01*
X98880952Y-95804819D02*
X98785714Y-95757200D01*
X98785714Y-95757200D02*
X98738095Y-95709580D01*
X102166666Y-49094819D02*
X102166666Y-49809104D01*
X102166666Y-49809104D02*
X102119047Y-49951961D01*
X102119047Y-49951961D02*
X102023809Y-50047200D01*
X102023809Y-50047200D02*
X101880952Y-50094819D01*
X101880952Y-50094819D02*
X101785714Y-50094819D01*
X103166666Y-50094819D02*
X102595238Y-50094819D01*
X102880952Y-50094819D02*
X102880952Y-49094819D01*
X102880952Y-49094819D02*
X102785714Y-49237676D01*
X102785714Y-49237676D02*
X102690476Y-49332914D01*
X102690476Y-49332914D02*
X102595238Y-49380533D01*
X160104819Y-79754166D02*
X159628628Y-80087499D01*
X160104819Y-80325594D02*
X159104819Y-80325594D01*
X159104819Y-80325594D02*
X159104819Y-79944642D01*
X159104819Y-79944642D02*
X159152438Y-79849404D01*
X159152438Y-79849404D02*
X159200057Y-79801785D01*
X159200057Y-79801785D02*
X159295295Y-79754166D01*
X159295295Y-79754166D02*
X159438152Y-79754166D01*
X159438152Y-79754166D02*
X159533390Y-79801785D01*
X159533390Y-79801785D02*
X159581009Y-79849404D01*
X159581009Y-79849404D02*
X159628628Y-79944642D01*
X159628628Y-79944642D02*
X159628628Y-80325594D01*
X159104819Y-79420832D02*
X159104819Y-78801785D01*
X159104819Y-78801785D02*
X159485771Y-79135118D01*
X159485771Y-79135118D02*
X159485771Y-78992261D01*
X159485771Y-78992261D02*
X159533390Y-78897023D01*
X159533390Y-78897023D02*
X159581009Y-78849404D01*
X159581009Y-78849404D02*
X159676247Y-78801785D01*
X159676247Y-78801785D02*
X159914342Y-78801785D01*
X159914342Y-78801785D02*
X160009580Y-78849404D01*
X160009580Y-78849404D02*
X160057200Y-78897023D01*
X160057200Y-78897023D02*
X160104819Y-78992261D01*
X160104819Y-78992261D02*
X160104819Y-79277975D01*
X160104819Y-79277975D02*
X160057200Y-79373213D01*
X160057200Y-79373213D02*
X160009580Y-79420832D01*
X171739819Y-134284523D02*
X172454104Y-134284523D01*
X172454104Y-134284523D02*
X172596961Y-134332142D01*
X172596961Y-134332142D02*
X172692200Y-134427380D01*
X172692200Y-134427380D02*
X172739819Y-134570237D01*
X172739819Y-134570237D02*
X172739819Y-134665475D01*
X172739819Y-133284523D02*
X172739819Y-133855951D01*
X172739819Y-133570237D02*
X171739819Y-133570237D01*
X171739819Y-133570237D02*
X171882676Y-133665475D01*
X171882676Y-133665475D02*
X171977914Y-133760713D01*
X171977914Y-133760713D02*
X172025533Y-133855951D01*
X171835057Y-132903570D02*
X171787438Y-132855951D01*
X171787438Y-132855951D02*
X171739819Y-132760713D01*
X171739819Y-132760713D02*
X171739819Y-132522618D01*
X171739819Y-132522618D02*
X171787438Y-132427380D01*
X171787438Y-132427380D02*
X171835057Y-132379761D01*
X171835057Y-132379761D02*
X171930295Y-132332142D01*
X171930295Y-132332142D02*
X172025533Y-132332142D01*
X172025533Y-132332142D02*
X172168390Y-132379761D01*
X172168390Y-132379761D02*
X172739819Y-132951189D01*
X172739819Y-132951189D02*
X172739819Y-132332142D01*
X91283333Y-89689580D02*
X91235714Y-89737200D01*
X91235714Y-89737200D02*
X91092857Y-89784819D01*
X91092857Y-89784819D02*
X90997619Y-89784819D01*
X90997619Y-89784819D02*
X90854762Y-89737200D01*
X90854762Y-89737200D02*
X90759524Y-89641961D01*
X90759524Y-89641961D02*
X90711905Y-89546723D01*
X90711905Y-89546723D02*
X90664286Y-89356247D01*
X90664286Y-89356247D02*
X90664286Y-89213390D01*
X90664286Y-89213390D02*
X90711905Y-89022914D01*
X90711905Y-89022914D02*
X90759524Y-88927676D01*
X90759524Y-88927676D02*
X90854762Y-88832438D01*
X90854762Y-88832438D02*
X90997619Y-88784819D01*
X90997619Y-88784819D02*
X91092857Y-88784819D01*
X91092857Y-88784819D02*
X91235714Y-88832438D01*
X91235714Y-88832438D02*
X91283333Y-88880057D01*
X91759524Y-89784819D02*
X91950000Y-89784819D01*
X91950000Y-89784819D02*
X92045238Y-89737200D01*
X92045238Y-89737200D02*
X92092857Y-89689580D01*
X92092857Y-89689580D02*
X92188095Y-89546723D01*
X92188095Y-89546723D02*
X92235714Y-89356247D01*
X92235714Y-89356247D02*
X92235714Y-88975295D01*
X92235714Y-88975295D02*
X92188095Y-88880057D01*
X92188095Y-88880057D02*
X92140476Y-88832438D01*
X92140476Y-88832438D02*
X92045238Y-88784819D01*
X92045238Y-88784819D02*
X91854762Y-88784819D01*
X91854762Y-88784819D02*
X91759524Y-88832438D01*
X91759524Y-88832438D02*
X91711905Y-88880057D01*
X91711905Y-88880057D02*
X91664286Y-88975295D01*
X91664286Y-88975295D02*
X91664286Y-89213390D01*
X91664286Y-89213390D02*
X91711905Y-89308628D01*
X91711905Y-89308628D02*
X91759524Y-89356247D01*
X91759524Y-89356247D02*
X91854762Y-89403866D01*
X91854762Y-89403866D02*
X92045238Y-89403866D01*
X92045238Y-89403866D02*
X92140476Y-89356247D01*
X92140476Y-89356247D02*
X92188095Y-89308628D01*
X92188095Y-89308628D02*
X92235714Y-89213390D01*
X80954819Y-92364285D02*
X79954819Y-92364285D01*
X79954819Y-92364285D02*
X79954819Y-92126190D01*
X79954819Y-92126190D02*
X80002438Y-91983333D01*
X80002438Y-91983333D02*
X80097676Y-91888095D01*
X80097676Y-91888095D02*
X80192914Y-91840476D01*
X80192914Y-91840476D02*
X80383390Y-91792857D01*
X80383390Y-91792857D02*
X80526247Y-91792857D01*
X80526247Y-91792857D02*
X80716723Y-91840476D01*
X80716723Y-91840476D02*
X80811961Y-91888095D01*
X80811961Y-91888095D02*
X80907200Y-91983333D01*
X80907200Y-91983333D02*
X80954819Y-92126190D01*
X80954819Y-92126190D02*
X80954819Y-92364285D01*
X80954819Y-90840476D02*
X80954819Y-91411904D01*
X80954819Y-91126190D02*
X79954819Y-91126190D01*
X79954819Y-91126190D02*
X80097676Y-91221428D01*
X80097676Y-91221428D02*
X80192914Y-91316666D01*
X80192914Y-91316666D02*
X80240533Y-91411904D01*
X79954819Y-89935714D02*
X79954819Y-90411904D01*
X79954819Y-90411904D02*
X80431009Y-90459523D01*
X80431009Y-90459523D02*
X80383390Y-90411904D01*
X80383390Y-90411904D02*
X80335771Y-90316666D01*
X80335771Y-90316666D02*
X80335771Y-90078571D01*
X80335771Y-90078571D02*
X80383390Y-89983333D01*
X80383390Y-89983333D02*
X80431009Y-89935714D01*
X80431009Y-89935714D02*
X80526247Y-89888095D01*
X80526247Y-89888095D02*
X80764342Y-89888095D01*
X80764342Y-89888095D02*
X80859580Y-89935714D01*
X80859580Y-89935714D02*
X80907200Y-89983333D01*
X80907200Y-89983333D02*
X80954819Y-90078571D01*
X80954819Y-90078571D02*
X80954819Y-90316666D01*
X80954819Y-90316666D02*
X80907200Y-90411904D01*
X80907200Y-90411904D02*
X80859580Y-90459523D01*
X147416666Y-167254819D02*
X147416666Y-167969104D01*
X147416666Y-167969104D02*
X147369047Y-168111961D01*
X147369047Y-168111961D02*
X147273809Y-168207200D01*
X147273809Y-168207200D02*
X147130952Y-168254819D01*
X147130952Y-168254819D02*
X147035714Y-168254819D01*
X147940476Y-168254819D02*
X148130952Y-168254819D01*
X148130952Y-168254819D02*
X148226190Y-168207200D01*
X148226190Y-168207200D02*
X148273809Y-168159580D01*
X148273809Y-168159580D02*
X148369047Y-168016723D01*
X148369047Y-168016723D02*
X148416666Y-167826247D01*
X148416666Y-167826247D02*
X148416666Y-167445295D01*
X148416666Y-167445295D02*
X148369047Y-167350057D01*
X148369047Y-167350057D02*
X148321428Y-167302438D01*
X148321428Y-167302438D02*
X148226190Y-167254819D01*
X148226190Y-167254819D02*
X148035714Y-167254819D01*
X148035714Y-167254819D02*
X147940476Y-167302438D01*
X147940476Y-167302438D02*
X147892857Y-167350057D01*
X147892857Y-167350057D02*
X147845238Y-167445295D01*
X147845238Y-167445295D02*
X147845238Y-167683390D01*
X147845238Y-167683390D02*
X147892857Y-167778628D01*
X147892857Y-167778628D02*
X147940476Y-167826247D01*
X147940476Y-167826247D02*
X148035714Y-167873866D01*
X148035714Y-167873866D02*
X148226190Y-167873866D01*
X148226190Y-167873866D02*
X148321428Y-167826247D01*
X148321428Y-167826247D02*
X148369047Y-167778628D01*
X148369047Y-167778628D02*
X148416666Y-167683390D01*
X54238095Y-51304819D02*
X54238095Y-50304819D01*
X54238095Y-50781009D02*
X54809523Y-50781009D01*
X54809523Y-51304819D02*
X54809523Y-50304819D01*
X55809523Y-51304819D02*
X55238095Y-51304819D01*
X55523809Y-51304819D02*
X55523809Y-50304819D01*
X55523809Y-50304819D02*
X55428571Y-50447676D01*
X55428571Y-50447676D02*
X55333333Y-50542914D01*
X55333333Y-50542914D02*
X55238095Y-50590533D01*
X78604819Y-111761904D02*
X79414342Y-111761904D01*
X79414342Y-111761904D02*
X79509580Y-111714285D01*
X79509580Y-111714285D02*
X79557200Y-111666666D01*
X79557200Y-111666666D02*
X79604819Y-111571428D01*
X79604819Y-111571428D02*
X79604819Y-111380952D01*
X79604819Y-111380952D02*
X79557200Y-111285714D01*
X79557200Y-111285714D02*
X79509580Y-111238095D01*
X79509580Y-111238095D02*
X79414342Y-111190476D01*
X79414342Y-111190476D02*
X78604819Y-111190476D01*
X78938152Y-110285714D02*
X79604819Y-110285714D01*
X78557200Y-110523809D02*
X79271485Y-110761904D01*
X79271485Y-110761904D02*
X79271485Y-110142857D01*
X161000057Y-86532738D02*
X160952438Y-86627976D01*
X160952438Y-86627976D02*
X160857200Y-86723214D01*
X160857200Y-86723214D02*
X160714342Y-86866071D01*
X160714342Y-86866071D02*
X160666723Y-86961309D01*
X160666723Y-86961309D02*
X160666723Y-87056547D01*
X160904819Y-87008928D02*
X160857200Y-87104166D01*
X160857200Y-87104166D02*
X160761961Y-87199404D01*
X160761961Y-87199404D02*
X160571485Y-87247023D01*
X160571485Y-87247023D02*
X160238152Y-87247023D01*
X160238152Y-87247023D02*
X160047676Y-87199404D01*
X160047676Y-87199404D02*
X159952438Y-87104166D01*
X159952438Y-87104166D02*
X159904819Y-87008928D01*
X159904819Y-87008928D02*
X159904819Y-86818452D01*
X159904819Y-86818452D02*
X159952438Y-86723214D01*
X159952438Y-86723214D02*
X160047676Y-86627976D01*
X160047676Y-86627976D02*
X160238152Y-86580357D01*
X160238152Y-86580357D02*
X160571485Y-86580357D01*
X160571485Y-86580357D02*
X160761961Y-86627976D01*
X160761961Y-86627976D02*
X160857200Y-86723214D01*
X160857200Y-86723214D02*
X160904819Y-86818452D01*
X160904819Y-86818452D02*
X160904819Y-87008928D01*
X160904819Y-85627976D02*
X160904819Y-86199404D01*
X160904819Y-85913690D02*
X159904819Y-85913690D01*
X159904819Y-85913690D02*
X160047676Y-86008928D01*
X160047676Y-86008928D02*
X160142914Y-86104166D01*
X160142914Y-86104166D02*
X160190533Y-86199404D01*
X113068095Y-42169819D02*
X113068095Y-42979342D01*
X113068095Y-42979342D02*
X113115714Y-43074580D01*
X113115714Y-43074580D02*
X113163333Y-43122200D01*
X113163333Y-43122200D02*
X113258571Y-43169819D01*
X113258571Y-43169819D02*
X113449047Y-43169819D01*
X113449047Y-43169819D02*
X113544285Y-43122200D01*
X113544285Y-43122200D02*
X113591904Y-43074580D01*
X113591904Y-43074580D02*
X113639523Y-42979342D01*
X113639523Y-42979342D02*
X113639523Y-42169819D01*
X114639523Y-43169819D02*
X114068095Y-43169819D01*
X114353809Y-43169819D02*
X114353809Y-42169819D01*
X114353809Y-42169819D02*
X114258571Y-42312676D01*
X114258571Y-42312676D02*
X114163333Y-42407914D01*
X114163333Y-42407914D02*
X114068095Y-42455533D01*
X85916666Y-167254819D02*
X85916666Y-167969104D01*
X85916666Y-167969104D02*
X85869047Y-168111961D01*
X85869047Y-168111961D02*
X85773809Y-168207200D01*
X85773809Y-168207200D02*
X85630952Y-168254819D01*
X85630952Y-168254819D02*
X85535714Y-168254819D01*
X86821428Y-167254819D02*
X86630952Y-167254819D01*
X86630952Y-167254819D02*
X86535714Y-167302438D01*
X86535714Y-167302438D02*
X86488095Y-167350057D01*
X86488095Y-167350057D02*
X86392857Y-167492914D01*
X86392857Y-167492914D02*
X86345238Y-167683390D01*
X86345238Y-167683390D02*
X86345238Y-168064342D01*
X86345238Y-168064342D02*
X86392857Y-168159580D01*
X86392857Y-168159580D02*
X86440476Y-168207200D01*
X86440476Y-168207200D02*
X86535714Y-168254819D01*
X86535714Y-168254819D02*
X86726190Y-168254819D01*
X86726190Y-168254819D02*
X86821428Y-168207200D01*
X86821428Y-168207200D02*
X86869047Y-168159580D01*
X86869047Y-168159580D02*
X86916666Y-168064342D01*
X86916666Y-168064342D02*
X86916666Y-167826247D01*
X86916666Y-167826247D02*
X86869047Y-167731009D01*
X86869047Y-167731009D02*
X86821428Y-167683390D01*
X86821428Y-167683390D02*
X86726190Y-167635771D01*
X86726190Y-167635771D02*
X86535714Y-167635771D01*
X86535714Y-167635771D02*
X86440476Y-167683390D01*
X86440476Y-167683390D02*
X86392857Y-167731009D01*
X86392857Y-167731009D02*
X86345238Y-167826247D01*
X133793095Y-101389819D02*
X133793095Y-102199342D01*
X133793095Y-102199342D02*
X133840714Y-102294580D01*
X133840714Y-102294580D02*
X133888333Y-102342200D01*
X133888333Y-102342200D02*
X133983571Y-102389819D01*
X133983571Y-102389819D02*
X134174047Y-102389819D01*
X134174047Y-102389819D02*
X134269285Y-102342200D01*
X134269285Y-102342200D02*
X134316904Y-102294580D01*
X134316904Y-102294580D02*
X134364523Y-102199342D01*
X134364523Y-102199342D02*
X134364523Y-101389819D01*
X134888333Y-102389819D02*
X135078809Y-102389819D01*
X135078809Y-102389819D02*
X135174047Y-102342200D01*
X135174047Y-102342200D02*
X135221666Y-102294580D01*
X135221666Y-102294580D02*
X135316904Y-102151723D01*
X135316904Y-102151723D02*
X135364523Y-101961247D01*
X135364523Y-101961247D02*
X135364523Y-101580295D01*
X135364523Y-101580295D02*
X135316904Y-101485057D01*
X135316904Y-101485057D02*
X135269285Y-101437438D01*
X135269285Y-101437438D02*
X135174047Y-101389819D01*
X135174047Y-101389819D02*
X134983571Y-101389819D01*
X134983571Y-101389819D02*
X134888333Y-101437438D01*
X134888333Y-101437438D02*
X134840714Y-101485057D01*
X134840714Y-101485057D02*
X134793095Y-101580295D01*
X134793095Y-101580295D02*
X134793095Y-101818390D01*
X134793095Y-101818390D02*
X134840714Y-101913628D01*
X134840714Y-101913628D02*
X134888333Y-101961247D01*
X134888333Y-101961247D02*
X134983571Y-102008866D01*
X134983571Y-102008866D02*
X135174047Y-102008866D01*
X135174047Y-102008866D02*
X135269285Y-101961247D01*
X135269285Y-101961247D02*
X135316904Y-101913628D01*
X135316904Y-101913628D02*
X135364523Y-101818390D01*
X125916666Y-167254819D02*
X125916666Y-167969104D01*
X125916666Y-167969104D02*
X125869047Y-168111961D01*
X125869047Y-168111961D02*
X125773809Y-168207200D01*
X125773809Y-168207200D02*
X125630952Y-168254819D01*
X125630952Y-168254819D02*
X125535714Y-168254819D01*
X126297619Y-167254819D02*
X126964285Y-167254819D01*
X126964285Y-167254819D02*
X126535714Y-168254819D01*
X148657200Y-80733332D02*
X148704819Y-80590475D01*
X148704819Y-80590475D02*
X148704819Y-80352380D01*
X148704819Y-80352380D02*
X148657200Y-80257142D01*
X148657200Y-80257142D02*
X148609580Y-80209523D01*
X148609580Y-80209523D02*
X148514342Y-80161904D01*
X148514342Y-80161904D02*
X148419104Y-80161904D01*
X148419104Y-80161904D02*
X148323866Y-80209523D01*
X148323866Y-80209523D02*
X148276247Y-80257142D01*
X148276247Y-80257142D02*
X148228628Y-80352380D01*
X148228628Y-80352380D02*
X148181009Y-80542856D01*
X148181009Y-80542856D02*
X148133390Y-80638094D01*
X148133390Y-80638094D02*
X148085771Y-80685713D01*
X148085771Y-80685713D02*
X147990533Y-80733332D01*
X147990533Y-80733332D02*
X147895295Y-80733332D01*
X147895295Y-80733332D02*
X147800057Y-80685713D01*
X147800057Y-80685713D02*
X147752438Y-80638094D01*
X147752438Y-80638094D02*
X147704819Y-80542856D01*
X147704819Y-80542856D02*
X147704819Y-80304761D01*
X147704819Y-80304761D02*
X147752438Y-80161904D01*
X147704819Y-79828570D02*
X148704819Y-79590475D01*
X148704819Y-79590475D02*
X147990533Y-79399999D01*
X147990533Y-79399999D02*
X148704819Y-79209523D01*
X148704819Y-79209523D02*
X147704819Y-78971428D01*
X147704819Y-78685713D02*
X147704819Y-78019047D01*
X147704819Y-78019047D02*
X148704819Y-78447618D01*
X110293095Y-101389819D02*
X110293095Y-102199342D01*
X110293095Y-102199342D02*
X110340714Y-102294580D01*
X110340714Y-102294580D02*
X110388333Y-102342200D01*
X110388333Y-102342200D02*
X110483571Y-102389819D01*
X110483571Y-102389819D02*
X110674047Y-102389819D01*
X110674047Y-102389819D02*
X110769285Y-102342200D01*
X110769285Y-102342200D02*
X110816904Y-102294580D01*
X110816904Y-102294580D02*
X110864523Y-102199342D01*
X110864523Y-102199342D02*
X110864523Y-101389819D01*
X111769285Y-101389819D02*
X111578809Y-101389819D01*
X111578809Y-101389819D02*
X111483571Y-101437438D01*
X111483571Y-101437438D02*
X111435952Y-101485057D01*
X111435952Y-101485057D02*
X111340714Y-101627914D01*
X111340714Y-101627914D02*
X111293095Y-101818390D01*
X111293095Y-101818390D02*
X111293095Y-102199342D01*
X111293095Y-102199342D02*
X111340714Y-102294580D01*
X111340714Y-102294580D02*
X111388333Y-102342200D01*
X111388333Y-102342200D02*
X111483571Y-102389819D01*
X111483571Y-102389819D02*
X111674047Y-102389819D01*
X111674047Y-102389819D02*
X111769285Y-102342200D01*
X111769285Y-102342200D02*
X111816904Y-102294580D01*
X111816904Y-102294580D02*
X111864523Y-102199342D01*
X111864523Y-102199342D02*
X111864523Y-101961247D01*
X111864523Y-101961247D02*
X111816904Y-101866009D01*
X111816904Y-101866009D02*
X111769285Y-101818390D01*
X111769285Y-101818390D02*
X111674047Y-101770771D01*
X111674047Y-101770771D02*
X111483571Y-101770771D01*
X111483571Y-101770771D02*
X111388333Y-101818390D01*
X111388333Y-101818390D02*
X111340714Y-101866009D01*
X111340714Y-101866009D02*
X111293095Y-101961247D01*
X56008333Y-138524819D02*
X55675000Y-138048628D01*
X55436905Y-138524819D02*
X55436905Y-137524819D01*
X55436905Y-137524819D02*
X55817857Y-137524819D01*
X55817857Y-137524819D02*
X55913095Y-137572438D01*
X55913095Y-137572438D02*
X55960714Y-137620057D01*
X55960714Y-137620057D02*
X56008333Y-137715295D01*
X56008333Y-137715295D02*
X56008333Y-137858152D01*
X56008333Y-137858152D02*
X55960714Y-137953390D01*
X55960714Y-137953390D02*
X55913095Y-138001009D01*
X55913095Y-138001009D02*
X55817857Y-138048628D01*
X55817857Y-138048628D02*
X55436905Y-138048628D01*
X56484524Y-138524819D02*
X56675000Y-138524819D01*
X56675000Y-138524819D02*
X56770238Y-138477200D01*
X56770238Y-138477200D02*
X56817857Y-138429580D01*
X56817857Y-138429580D02*
X56913095Y-138286723D01*
X56913095Y-138286723D02*
X56960714Y-138096247D01*
X56960714Y-138096247D02*
X56960714Y-137715295D01*
X56960714Y-137715295D02*
X56913095Y-137620057D01*
X56913095Y-137620057D02*
X56865476Y-137572438D01*
X56865476Y-137572438D02*
X56770238Y-137524819D01*
X56770238Y-137524819D02*
X56579762Y-137524819D01*
X56579762Y-137524819D02*
X56484524Y-137572438D01*
X56484524Y-137572438D02*
X56436905Y-137620057D01*
X56436905Y-137620057D02*
X56389286Y-137715295D01*
X56389286Y-137715295D02*
X56389286Y-137953390D01*
X56389286Y-137953390D02*
X56436905Y-138048628D01*
X56436905Y-138048628D02*
X56484524Y-138096247D01*
X56484524Y-138096247D02*
X56579762Y-138143866D01*
X56579762Y-138143866D02*
X56770238Y-138143866D01*
X56770238Y-138143866D02*
X56865476Y-138096247D01*
X56865476Y-138096247D02*
X56913095Y-138048628D01*
X56913095Y-138048628D02*
X56960714Y-137953390D01*
X151120476Y-58399819D02*
X151120476Y-59114104D01*
X151120476Y-59114104D02*
X151072857Y-59256961D01*
X151072857Y-59256961D02*
X150977619Y-59352200D01*
X150977619Y-59352200D02*
X150834762Y-59399819D01*
X150834762Y-59399819D02*
X150739524Y-59399819D01*
X152120476Y-59399819D02*
X151549048Y-59399819D01*
X151834762Y-59399819D02*
X151834762Y-58399819D01*
X151834762Y-58399819D02*
X151739524Y-58542676D01*
X151739524Y-58542676D02*
X151644286Y-58637914D01*
X151644286Y-58637914D02*
X151549048Y-58685533D01*
X152977619Y-58733152D02*
X152977619Y-59399819D01*
X152739524Y-58352200D02*
X152501429Y-59066485D01*
X152501429Y-59066485D02*
X153120476Y-59066485D01*
X157738095Y-155804819D02*
X157738095Y-154804819D01*
X157738095Y-155281009D02*
X158309523Y-155281009D01*
X158309523Y-155804819D02*
X158309523Y-154804819D01*
X158928571Y-155233390D02*
X158833333Y-155185771D01*
X158833333Y-155185771D02*
X158785714Y-155138152D01*
X158785714Y-155138152D02*
X158738095Y-155042914D01*
X158738095Y-155042914D02*
X158738095Y-154995295D01*
X158738095Y-154995295D02*
X158785714Y-154900057D01*
X158785714Y-154900057D02*
X158833333Y-154852438D01*
X158833333Y-154852438D02*
X158928571Y-154804819D01*
X158928571Y-154804819D02*
X159119047Y-154804819D01*
X159119047Y-154804819D02*
X159214285Y-154852438D01*
X159214285Y-154852438D02*
X159261904Y-154900057D01*
X159261904Y-154900057D02*
X159309523Y-154995295D01*
X159309523Y-154995295D02*
X159309523Y-155042914D01*
X159309523Y-155042914D02*
X159261904Y-155138152D01*
X159261904Y-155138152D02*
X159214285Y-155185771D01*
X159214285Y-155185771D02*
X159119047Y-155233390D01*
X159119047Y-155233390D02*
X158928571Y-155233390D01*
X158928571Y-155233390D02*
X158833333Y-155281009D01*
X158833333Y-155281009D02*
X158785714Y-155328628D01*
X158785714Y-155328628D02*
X158738095Y-155423866D01*
X158738095Y-155423866D02*
X158738095Y-155614342D01*
X158738095Y-155614342D02*
X158785714Y-155709580D01*
X158785714Y-155709580D02*
X158833333Y-155757200D01*
X158833333Y-155757200D02*
X158928571Y-155804819D01*
X158928571Y-155804819D02*
X159119047Y-155804819D01*
X159119047Y-155804819D02*
X159214285Y-155757200D01*
X159214285Y-155757200D02*
X159261904Y-155709580D01*
X159261904Y-155709580D02*
X159309523Y-155614342D01*
X159309523Y-155614342D02*
X159309523Y-155423866D01*
X159309523Y-155423866D02*
X159261904Y-155328628D01*
X159261904Y-155328628D02*
X159214285Y-155281009D01*
X159214285Y-155281009D02*
X159119047Y-155233390D01*
X66666666Y-59954819D02*
X66666666Y-60669104D01*
X66666666Y-60669104D02*
X66619047Y-60811961D01*
X66619047Y-60811961D02*
X66523809Y-60907200D01*
X66523809Y-60907200D02*
X66380952Y-60954819D01*
X66380952Y-60954819D02*
X66285714Y-60954819D01*
X67619047Y-59954819D02*
X67142857Y-59954819D01*
X67142857Y-59954819D02*
X67095238Y-60431009D01*
X67095238Y-60431009D02*
X67142857Y-60383390D01*
X67142857Y-60383390D02*
X67238095Y-60335771D01*
X67238095Y-60335771D02*
X67476190Y-60335771D01*
X67476190Y-60335771D02*
X67571428Y-60383390D01*
X67571428Y-60383390D02*
X67619047Y-60431009D01*
X67619047Y-60431009D02*
X67666666Y-60526247D01*
X67666666Y-60526247D02*
X67666666Y-60764342D01*
X67666666Y-60764342D02*
X67619047Y-60859580D01*
X67619047Y-60859580D02*
X67571428Y-60907200D01*
X67571428Y-60907200D02*
X67476190Y-60954819D01*
X67476190Y-60954819D02*
X67238095Y-60954819D01*
X67238095Y-60954819D02*
X67142857Y-60907200D01*
X67142857Y-60907200D02*
X67095238Y-60859580D01*
X158529819Y-71736904D02*
X159339342Y-71736904D01*
X159339342Y-71736904D02*
X159434580Y-71689285D01*
X159434580Y-71689285D02*
X159482200Y-71641666D01*
X159482200Y-71641666D02*
X159529819Y-71546428D01*
X159529819Y-71546428D02*
X159529819Y-71355952D01*
X159529819Y-71355952D02*
X159482200Y-71260714D01*
X159482200Y-71260714D02*
X159434580Y-71213095D01*
X159434580Y-71213095D02*
X159339342Y-71165476D01*
X159339342Y-71165476D02*
X158529819Y-71165476D01*
X158625057Y-70736904D02*
X158577438Y-70689285D01*
X158577438Y-70689285D02*
X158529819Y-70594047D01*
X158529819Y-70594047D02*
X158529819Y-70355952D01*
X158529819Y-70355952D02*
X158577438Y-70260714D01*
X158577438Y-70260714D02*
X158625057Y-70213095D01*
X158625057Y-70213095D02*
X158720295Y-70165476D01*
X158720295Y-70165476D02*
X158815533Y-70165476D01*
X158815533Y-70165476D02*
X158958390Y-70213095D01*
X158958390Y-70213095D02*
X159529819Y-70784523D01*
X159529819Y-70784523D02*
X159529819Y-70165476D01*
X148679580Y-92116666D02*
X148727200Y-92164285D01*
X148727200Y-92164285D02*
X148774819Y-92307142D01*
X148774819Y-92307142D02*
X148774819Y-92402380D01*
X148774819Y-92402380D02*
X148727200Y-92545237D01*
X148727200Y-92545237D02*
X148631961Y-92640475D01*
X148631961Y-92640475D02*
X148536723Y-92688094D01*
X148536723Y-92688094D02*
X148346247Y-92735713D01*
X148346247Y-92735713D02*
X148203390Y-92735713D01*
X148203390Y-92735713D02*
X148012914Y-92688094D01*
X148012914Y-92688094D02*
X147917676Y-92640475D01*
X147917676Y-92640475D02*
X147822438Y-92545237D01*
X147822438Y-92545237D02*
X147774819Y-92402380D01*
X147774819Y-92402380D02*
X147774819Y-92307142D01*
X147774819Y-92307142D02*
X147822438Y-92164285D01*
X147822438Y-92164285D02*
X147870057Y-92116666D01*
X148108152Y-91259523D02*
X148774819Y-91259523D01*
X147727200Y-91497618D02*
X148441485Y-91735713D01*
X148441485Y-91735713D02*
X148441485Y-91116666D01*
X137357142Y-141209580D02*
X137309523Y-141257200D01*
X137309523Y-141257200D02*
X137166666Y-141304819D01*
X137166666Y-141304819D02*
X137071428Y-141304819D01*
X137071428Y-141304819D02*
X136928571Y-141257200D01*
X136928571Y-141257200D02*
X136833333Y-141161961D01*
X136833333Y-141161961D02*
X136785714Y-141066723D01*
X136785714Y-141066723D02*
X136738095Y-140876247D01*
X136738095Y-140876247D02*
X136738095Y-140733390D01*
X136738095Y-140733390D02*
X136785714Y-140542914D01*
X136785714Y-140542914D02*
X136833333Y-140447676D01*
X136833333Y-140447676D02*
X136928571Y-140352438D01*
X136928571Y-140352438D02*
X137071428Y-140304819D01*
X137071428Y-140304819D02*
X137166666Y-140304819D01*
X137166666Y-140304819D02*
X137309523Y-140352438D01*
X137309523Y-140352438D02*
X137357142Y-140400057D01*
X138309523Y-141304819D02*
X137738095Y-141304819D01*
X138023809Y-141304819D02*
X138023809Y-140304819D01*
X138023809Y-140304819D02*
X137928571Y-140447676D01*
X137928571Y-140447676D02*
X137833333Y-140542914D01*
X137833333Y-140542914D02*
X137738095Y-140590533D01*
X139166666Y-140638152D02*
X139166666Y-141304819D01*
X138928571Y-140257200D02*
X138690476Y-140971485D01*
X138690476Y-140971485D02*
X139309523Y-140971485D01*
X91745833Y-51804819D02*
X91412500Y-51328628D01*
X91174405Y-51804819D02*
X91174405Y-50804819D01*
X91174405Y-50804819D02*
X91555357Y-50804819D01*
X91555357Y-50804819D02*
X91650595Y-50852438D01*
X91650595Y-50852438D02*
X91698214Y-50900057D01*
X91698214Y-50900057D02*
X91745833Y-50995295D01*
X91745833Y-50995295D02*
X91745833Y-51138152D01*
X91745833Y-51138152D02*
X91698214Y-51233390D01*
X91698214Y-51233390D02*
X91650595Y-51281009D01*
X91650595Y-51281009D02*
X91555357Y-51328628D01*
X91555357Y-51328628D02*
X91174405Y-51328628D01*
X92698214Y-51804819D02*
X92126786Y-51804819D01*
X92412500Y-51804819D02*
X92412500Y-50804819D01*
X92412500Y-50804819D02*
X92317262Y-50947676D01*
X92317262Y-50947676D02*
X92222024Y-51042914D01*
X92222024Y-51042914D02*
X92126786Y-51090533D01*
X166604819Y-92166666D02*
X166128628Y-92499999D01*
X166604819Y-92738094D02*
X165604819Y-92738094D01*
X165604819Y-92738094D02*
X165604819Y-92357142D01*
X165604819Y-92357142D02*
X165652438Y-92261904D01*
X165652438Y-92261904D02*
X165700057Y-92214285D01*
X165700057Y-92214285D02*
X165795295Y-92166666D01*
X165795295Y-92166666D02*
X165938152Y-92166666D01*
X165938152Y-92166666D02*
X166033390Y-92214285D01*
X166033390Y-92214285D02*
X166081009Y-92261904D01*
X166081009Y-92261904D02*
X166128628Y-92357142D01*
X166128628Y-92357142D02*
X166128628Y-92738094D01*
X165604819Y-91261904D02*
X165604819Y-91738094D01*
X165604819Y-91738094D02*
X166081009Y-91785713D01*
X166081009Y-91785713D02*
X166033390Y-91738094D01*
X166033390Y-91738094D02*
X165985771Y-91642856D01*
X165985771Y-91642856D02*
X165985771Y-91404761D01*
X165985771Y-91404761D02*
X166033390Y-91309523D01*
X166033390Y-91309523D02*
X166081009Y-91261904D01*
X166081009Y-91261904D02*
X166176247Y-91214285D01*
X166176247Y-91214285D02*
X166414342Y-91214285D01*
X166414342Y-91214285D02*
X166509580Y-91261904D01*
X166509580Y-91261904D02*
X166557200Y-91309523D01*
X166557200Y-91309523D02*
X166604819Y-91404761D01*
X166604819Y-91404761D02*
X166604819Y-91642856D01*
X166604819Y-91642856D02*
X166557200Y-91738094D01*
X166557200Y-91738094D02*
X166509580Y-91785713D01*
X167157200Y-81233332D02*
X167204819Y-81090475D01*
X167204819Y-81090475D02*
X167204819Y-80852380D01*
X167204819Y-80852380D02*
X167157200Y-80757142D01*
X167157200Y-80757142D02*
X167109580Y-80709523D01*
X167109580Y-80709523D02*
X167014342Y-80661904D01*
X167014342Y-80661904D02*
X166919104Y-80661904D01*
X166919104Y-80661904D02*
X166823866Y-80709523D01*
X166823866Y-80709523D02*
X166776247Y-80757142D01*
X166776247Y-80757142D02*
X166728628Y-80852380D01*
X166728628Y-80852380D02*
X166681009Y-81042856D01*
X166681009Y-81042856D02*
X166633390Y-81138094D01*
X166633390Y-81138094D02*
X166585771Y-81185713D01*
X166585771Y-81185713D02*
X166490533Y-81233332D01*
X166490533Y-81233332D02*
X166395295Y-81233332D01*
X166395295Y-81233332D02*
X166300057Y-81185713D01*
X166300057Y-81185713D02*
X166252438Y-81138094D01*
X166252438Y-81138094D02*
X166204819Y-81042856D01*
X166204819Y-81042856D02*
X166204819Y-80804761D01*
X166204819Y-80804761D02*
X166252438Y-80661904D01*
X166204819Y-80328570D02*
X167204819Y-80090475D01*
X167204819Y-80090475D02*
X166490533Y-79899999D01*
X166490533Y-79899999D02*
X167204819Y-79709523D01*
X167204819Y-79709523D02*
X166204819Y-79471428D01*
X166633390Y-78947618D02*
X166585771Y-79042856D01*
X166585771Y-79042856D02*
X166538152Y-79090475D01*
X166538152Y-79090475D02*
X166442914Y-79138094D01*
X166442914Y-79138094D02*
X166395295Y-79138094D01*
X166395295Y-79138094D02*
X166300057Y-79090475D01*
X166300057Y-79090475D02*
X166252438Y-79042856D01*
X166252438Y-79042856D02*
X166204819Y-78947618D01*
X166204819Y-78947618D02*
X166204819Y-78757142D01*
X166204819Y-78757142D02*
X166252438Y-78661904D01*
X166252438Y-78661904D02*
X166300057Y-78614285D01*
X166300057Y-78614285D02*
X166395295Y-78566666D01*
X166395295Y-78566666D02*
X166442914Y-78566666D01*
X166442914Y-78566666D02*
X166538152Y-78614285D01*
X166538152Y-78614285D02*
X166585771Y-78661904D01*
X166585771Y-78661904D02*
X166633390Y-78757142D01*
X166633390Y-78757142D02*
X166633390Y-78947618D01*
X166633390Y-78947618D02*
X166681009Y-79042856D01*
X166681009Y-79042856D02*
X166728628Y-79090475D01*
X166728628Y-79090475D02*
X166823866Y-79138094D01*
X166823866Y-79138094D02*
X167014342Y-79138094D01*
X167014342Y-79138094D02*
X167109580Y-79090475D01*
X167109580Y-79090475D02*
X167157200Y-79042856D01*
X167157200Y-79042856D02*
X167204819Y-78947618D01*
X167204819Y-78947618D02*
X167204819Y-78757142D01*
X167204819Y-78757142D02*
X167157200Y-78661904D01*
X167157200Y-78661904D02*
X167109580Y-78614285D01*
X167109580Y-78614285D02*
X167014342Y-78566666D01*
X167014342Y-78566666D02*
X166823866Y-78566666D01*
X166823866Y-78566666D02*
X166728628Y-78614285D01*
X166728628Y-78614285D02*
X166681009Y-78661904D01*
X166681009Y-78661904D02*
X166633390Y-78757142D01*
X154604819Y-79579166D02*
X154128628Y-79912499D01*
X154604819Y-80150594D02*
X153604819Y-80150594D01*
X153604819Y-80150594D02*
X153604819Y-79769642D01*
X153604819Y-79769642D02*
X153652438Y-79674404D01*
X153652438Y-79674404D02*
X153700057Y-79626785D01*
X153700057Y-79626785D02*
X153795295Y-79579166D01*
X153795295Y-79579166D02*
X153938152Y-79579166D01*
X153938152Y-79579166D02*
X154033390Y-79626785D01*
X154033390Y-79626785D02*
X154081009Y-79674404D01*
X154081009Y-79674404D02*
X154128628Y-79769642D01*
X154128628Y-79769642D02*
X154128628Y-80150594D01*
X153700057Y-79198213D02*
X153652438Y-79150594D01*
X153652438Y-79150594D02*
X153604819Y-79055356D01*
X153604819Y-79055356D02*
X153604819Y-78817261D01*
X153604819Y-78817261D02*
X153652438Y-78722023D01*
X153652438Y-78722023D02*
X153700057Y-78674404D01*
X153700057Y-78674404D02*
X153795295Y-78626785D01*
X153795295Y-78626785D02*
X153890533Y-78626785D01*
X153890533Y-78626785D02*
X154033390Y-78674404D01*
X154033390Y-78674404D02*
X154604819Y-79245832D01*
X154604819Y-79245832D02*
X154604819Y-78626785D01*
X114857142Y-141209580D02*
X114809523Y-141257200D01*
X114809523Y-141257200D02*
X114666666Y-141304819D01*
X114666666Y-141304819D02*
X114571428Y-141304819D01*
X114571428Y-141304819D02*
X114428571Y-141257200D01*
X114428571Y-141257200D02*
X114333333Y-141161961D01*
X114333333Y-141161961D02*
X114285714Y-141066723D01*
X114285714Y-141066723D02*
X114238095Y-140876247D01*
X114238095Y-140876247D02*
X114238095Y-140733390D01*
X114238095Y-140733390D02*
X114285714Y-140542914D01*
X114285714Y-140542914D02*
X114333333Y-140447676D01*
X114333333Y-140447676D02*
X114428571Y-140352438D01*
X114428571Y-140352438D02*
X114571428Y-140304819D01*
X114571428Y-140304819D02*
X114666666Y-140304819D01*
X114666666Y-140304819D02*
X114809523Y-140352438D01*
X114809523Y-140352438D02*
X114857142Y-140400057D01*
X115809523Y-141304819D02*
X115238095Y-141304819D01*
X115523809Y-141304819D02*
X115523809Y-140304819D01*
X115523809Y-140304819D02*
X115428571Y-140447676D01*
X115428571Y-140447676D02*
X115333333Y-140542914D01*
X115333333Y-140542914D02*
X115238095Y-140590533D01*
X116142857Y-140304819D02*
X116761904Y-140304819D01*
X116761904Y-140304819D02*
X116428571Y-140685771D01*
X116428571Y-140685771D02*
X116571428Y-140685771D01*
X116571428Y-140685771D02*
X116666666Y-140733390D01*
X116666666Y-140733390D02*
X116714285Y-140781009D01*
X116714285Y-140781009D02*
X116761904Y-140876247D01*
X116761904Y-140876247D02*
X116761904Y-141114342D01*
X116761904Y-141114342D02*
X116714285Y-141209580D01*
X116714285Y-141209580D02*
X116666666Y-141257200D01*
X116666666Y-141257200D02*
X116571428Y-141304819D01*
X116571428Y-141304819D02*
X116285714Y-141304819D01*
X116285714Y-141304819D02*
X116190476Y-141257200D01*
X116190476Y-141257200D02*
X116142857Y-141209580D01*
X161654819Y-109309523D02*
X162369104Y-109309523D01*
X162369104Y-109309523D02*
X162511961Y-109357142D01*
X162511961Y-109357142D02*
X162607200Y-109452380D01*
X162607200Y-109452380D02*
X162654819Y-109595237D01*
X162654819Y-109595237D02*
X162654819Y-109690475D01*
X162654819Y-108309523D02*
X162654819Y-108880951D01*
X162654819Y-108595237D02*
X161654819Y-108595237D01*
X161654819Y-108595237D02*
X161797676Y-108690475D01*
X161797676Y-108690475D02*
X161892914Y-108785713D01*
X161892914Y-108785713D02*
X161940533Y-108880951D01*
X161654819Y-107976189D02*
X161654819Y-107357142D01*
X161654819Y-107357142D02*
X162035771Y-107690475D01*
X162035771Y-107690475D02*
X162035771Y-107547618D01*
X162035771Y-107547618D02*
X162083390Y-107452380D01*
X162083390Y-107452380D02*
X162131009Y-107404761D01*
X162131009Y-107404761D02*
X162226247Y-107357142D01*
X162226247Y-107357142D02*
X162464342Y-107357142D01*
X162464342Y-107357142D02*
X162559580Y-107404761D01*
X162559580Y-107404761D02*
X162607200Y-107452380D01*
X162607200Y-107452380D02*
X162654819Y-107547618D01*
X162654819Y-107547618D02*
X162654819Y-107833332D01*
X162654819Y-107833332D02*
X162607200Y-107928570D01*
X162607200Y-107928570D02*
X162559580Y-107976189D01*
X110293095Y-129889819D02*
X110293095Y-130699342D01*
X110293095Y-130699342D02*
X110340714Y-130794580D01*
X110340714Y-130794580D02*
X110388333Y-130842200D01*
X110388333Y-130842200D02*
X110483571Y-130889819D01*
X110483571Y-130889819D02*
X110674047Y-130889819D01*
X110674047Y-130889819D02*
X110769285Y-130842200D01*
X110769285Y-130842200D02*
X110816904Y-130794580D01*
X110816904Y-130794580D02*
X110864523Y-130699342D01*
X110864523Y-130699342D02*
X110864523Y-129889819D01*
X111483571Y-130318390D02*
X111388333Y-130270771D01*
X111388333Y-130270771D02*
X111340714Y-130223152D01*
X111340714Y-130223152D02*
X111293095Y-130127914D01*
X111293095Y-130127914D02*
X111293095Y-130080295D01*
X111293095Y-130080295D02*
X111340714Y-129985057D01*
X111340714Y-129985057D02*
X111388333Y-129937438D01*
X111388333Y-129937438D02*
X111483571Y-129889819D01*
X111483571Y-129889819D02*
X111674047Y-129889819D01*
X111674047Y-129889819D02*
X111769285Y-129937438D01*
X111769285Y-129937438D02*
X111816904Y-129985057D01*
X111816904Y-129985057D02*
X111864523Y-130080295D01*
X111864523Y-130080295D02*
X111864523Y-130127914D01*
X111864523Y-130127914D02*
X111816904Y-130223152D01*
X111816904Y-130223152D02*
X111769285Y-130270771D01*
X111769285Y-130270771D02*
X111674047Y-130318390D01*
X111674047Y-130318390D02*
X111483571Y-130318390D01*
X111483571Y-130318390D02*
X111388333Y-130366009D01*
X111388333Y-130366009D02*
X111340714Y-130413628D01*
X111340714Y-130413628D02*
X111293095Y-130508866D01*
X111293095Y-130508866D02*
X111293095Y-130699342D01*
X111293095Y-130699342D02*
X111340714Y-130794580D01*
X111340714Y-130794580D02*
X111388333Y-130842200D01*
X111388333Y-130842200D02*
X111483571Y-130889819D01*
X111483571Y-130889819D02*
X111674047Y-130889819D01*
X111674047Y-130889819D02*
X111769285Y-130842200D01*
X111769285Y-130842200D02*
X111816904Y-130794580D01*
X111816904Y-130794580D02*
X111864523Y-130699342D01*
X111864523Y-130699342D02*
X111864523Y-130508866D01*
X111864523Y-130508866D02*
X111816904Y-130413628D01*
X111816904Y-130413628D02*
X111769285Y-130366009D01*
X111769285Y-130366009D02*
X111674047Y-130318390D01*
X137666666Y-49554819D02*
X137666666Y-50269104D01*
X137666666Y-50269104D02*
X137619047Y-50411961D01*
X137619047Y-50411961D02*
X137523809Y-50507200D01*
X137523809Y-50507200D02*
X137380952Y-50554819D01*
X137380952Y-50554819D02*
X137285714Y-50554819D01*
X138095238Y-49650057D02*
X138142857Y-49602438D01*
X138142857Y-49602438D02*
X138238095Y-49554819D01*
X138238095Y-49554819D02*
X138476190Y-49554819D01*
X138476190Y-49554819D02*
X138571428Y-49602438D01*
X138571428Y-49602438D02*
X138619047Y-49650057D01*
X138619047Y-49650057D02*
X138666666Y-49745295D01*
X138666666Y-49745295D02*
X138666666Y-49840533D01*
X138666666Y-49840533D02*
X138619047Y-49983390D01*
X138619047Y-49983390D02*
X138047619Y-50554819D01*
X138047619Y-50554819D02*
X138666666Y-50554819D01*
X160454819Y-64214285D02*
X159454819Y-64214285D01*
X159454819Y-64214285D02*
X159454819Y-63976190D01*
X159454819Y-63976190D02*
X159502438Y-63833333D01*
X159502438Y-63833333D02*
X159597676Y-63738095D01*
X159597676Y-63738095D02*
X159692914Y-63690476D01*
X159692914Y-63690476D02*
X159883390Y-63642857D01*
X159883390Y-63642857D02*
X160026247Y-63642857D01*
X160026247Y-63642857D02*
X160216723Y-63690476D01*
X160216723Y-63690476D02*
X160311961Y-63738095D01*
X160311961Y-63738095D02*
X160407200Y-63833333D01*
X160407200Y-63833333D02*
X160454819Y-63976190D01*
X160454819Y-63976190D02*
X160454819Y-64214285D01*
X160454819Y-62690476D02*
X160454819Y-63261904D01*
X160454819Y-62976190D02*
X159454819Y-62976190D01*
X159454819Y-62976190D02*
X159597676Y-63071428D01*
X159597676Y-63071428D02*
X159692914Y-63166666D01*
X159692914Y-63166666D02*
X159740533Y-63261904D01*
X159454819Y-62357142D02*
X159454819Y-61738095D01*
X159454819Y-61738095D02*
X159835771Y-62071428D01*
X159835771Y-62071428D02*
X159835771Y-61928571D01*
X159835771Y-61928571D02*
X159883390Y-61833333D01*
X159883390Y-61833333D02*
X159931009Y-61785714D01*
X159931009Y-61785714D02*
X160026247Y-61738095D01*
X160026247Y-61738095D02*
X160264342Y-61738095D01*
X160264342Y-61738095D02*
X160359580Y-61785714D01*
X160359580Y-61785714D02*
X160407200Y-61833333D01*
X160407200Y-61833333D02*
X160454819Y-61928571D01*
X160454819Y-61928571D02*
X160454819Y-62214285D01*
X160454819Y-62214285D02*
X160407200Y-62309523D01*
X160407200Y-62309523D02*
X160359580Y-62357142D01*
X53954819Y-77214285D02*
X52954819Y-77214285D01*
X52954819Y-77214285D02*
X52954819Y-76976190D01*
X52954819Y-76976190D02*
X53002438Y-76833333D01*
X53002438Y-76833333D02*
X53097676Y-76738095D01*
X53097676Y-76738095D02*
X53192914Y-76690476D01*
X53192914Y-76690476D02*
X53383390Y-76642857D01*
X53383390Y-76642857D02*
X53526247Y-76642857D01*
X53526247Y-76642857D02*
X53716723Y-76690476D01*
X53716723Y-76690476D02*
X53811961Y-76738095D01*
X53811961Y-76738095D02*
X53907200Y-76833333D01*
X53907200Y-76833333D02*
X53954819Y-76976190D01*
X53954819Y-76976190D02*
X53954819Y-77214285D01*
X53954819Y-75690476D02*
X53954819Y-76261904D01*
X53954819Y-75976190D02*
X52954819Y-75976190D01*
X52954819Y-75976190D02*
X53097676Y-76071428D01*
X53097676Y-76071428D02*
X53192914Y-76166666D01*
X53192914Y-76166666D02*
X53240533Y-76261904D01*
X53288152Y-74833333D02*
X53954819Y-74833333D01*
X52907200Y-75071428D02*
X53621485Y-75309523D01*
X53621485Y-75309523D02*
X53621485Y-74690476D01*
X71059580Y-91166666D02*
X71107200Y-91214285D01*
X71107200Y-91214285D02*
X71154819Y-91357142D01*
X71154819Y-91357142D02*
X71154819Y-91452380D01*
X71154819Y-91452380D02*
X71107200Y-91595237D01*
X71107200Y-91595237D02*
X71011961Y-91690475D01*
X71011961Y-91690475D02*
X70916723Y-91738094D01*
X70916723Y-91738094D02*
X70726247Y-91785713D01*
X70726247Y-91785713D02*
X70583390Y-91785713D01*
X70583390Y-91785713D02*
X70392914Y-91738094D01*
X70392914Y-91738094D02*
X70297676Y-91690475D01*
X70297676Y-91690475D02*
X70202438Y-91595237D01*
X70202438Y-91595237D02*
X70154819Y-91452380D01*
X70154819Y-91452380D02*
X70154819Y-91357142D01*
X70154819Y-91357142D02*
X70202438Y-91214285D01*
X70202438Y-91214285D02*
X70250057Y-91166666D01*
X70154819Y-90833332D02*
X70154819Y-90166666D01*
X70154819Y-90166666D02*
X71154819Y-90595237D01*
X56008333Y-135524819D02*
X55675000Y-135048628D01*
X55436905Y-135524819D02*
X55436905Y-134524819D01*
X55436905Y-134524819D02*
X55817857Y-134524819D01*
X55817857Y-134524819D02*
X55913095Y-134572438D01*
X55913095Y-134572438D02*
X55960714Y-134620057D01*
X55960714Y-134620057D02*
X56008333Y-134715295D01*
X56008333Y-134715295D02*
X56008333Y-134858152D01*
X56008333Y-134858152D02*
X55960714Y-134953390D01*
X55960714Y-134953390D02*
X55913095Y-135001009D01*
X55913095Y-135001009D02*
X55817857Y-135048628D01*
X55817857Y-135048628D02*
X55436905Y-135048628D01*
X56579762Y-134953390D02*
X56484524Y-134905771D01*
X56484524Y-134905771D02*
X56436905Y-134858152D01*
X56436905Y-134858152D02*
X56389286Y-134762914D01*
X56389286Y-134762914D02*
X56389286Y-134715295D01*
X56389286Y-134715295D02*
X56436905Y-134620057D01*
X56436905Y-134620057D02*
X56484524Y-134572438D01*
X56484524Y-134572438D02*
X56579762Y-134524819D01*
X56579762Y-134524819D02*
X56770238Y-134524819D01*
X56770238Y-134524819D02*
X56865476Y-134572438D01*
X56865476Y-134572438D02*
X56913095Y-134620057D01*
X56913095Y-134620057D02*
X56960714Y-134715295D01*
X56960714Y-134715295D02*
X56960714Y-134762914D01*
X56960714Y-134762914D02*
X56913095Y-134858152D01*
X56913095Y-134858152D02*
X56865476Y-134905771D01*
X56865476Y-134905771D02*
X56770238Y-134953390D01*
X56770238Y-134953390D02*
X56579762Y-134953390D01*
X56579762Y-134953390D02*
X56484524Y-135001009D01*
X56484524Y-135001009D02*
X56436905Y-135048628D01*
X56436905Y-135048628D02*
X56389286Y-135143866D01*
X56389286Y-135143866D02*
X56389286Y-135334342D01*
X56389286Y-135334342D02*
X56436905Y-135429580D01*
X56436905Y-135429580D02*
X56484524Y-135477200D01*
X56484524Y-135477200D02*
X56579762Y-135524819D01*
X56579762Y-135524819D02*
X56770238Y-135524819D01*
X56770238Y-135524819D02*
X56865476Y-135477200D01*
X56865476Y-135477200D02*
X56913095Y-135429580D01*
X56913095Y-135429580D02*
X56960714Y-135334342D01*
X56960714Y-135334342D02*
X56960714Y-135143866D01*
X56960714Y-135143866D02*
X56913095Y-135048628D01*
X56913095Y-135048628D02*
X56865476Y-135001009D01*
X56865476Y-135001009D02*
X56770238Y-134953390D01*
X81807142Y-69189580D02*
X81759523Y-69237200D01*
X81759523Y-69237200D02*
X81616666Y-69284819D01*
X81616666Y-69284819D02*
X81521428Y-69284819D01*
X81521428Y-69284819D02*
X81378571Y-69237200D01*
X81378571Y-69237200D02*
X81283333Y-69141961D01*
X81283333Y-69141961D02*
X81235714Y-69046723D01*
X81235714Y-69046723D02*
X81188095Y-68856247D01*
X81188095Y-68856247D02*
X81188095Y-68713390D01*
X81188095Y-68713390D02*
X81235714Y-68522914D01*
X81235714Y-68522914D02*
X81283333Y-68427676D01*
X81283333Y-68427676D02*
X81378571Y-68332438D01*
X81378571Y-68332438D02*
X81521428Y-68284819D01*
X81521428Y-68284819D02*
X81616666Y-68284819D01*
X81616666Y-68284819D02*
X81759523Y-68332438D01*
X81759523Y-68332438D02*
X81807142Y-68380057D01*
X82759523Y-69284819D02*
X82188095Y-69284819D01*
X82473809Y-69284819D02*
X82473809Y-68284819D01*
X82473809Y-68284819D02*
X82378571Y-68427676D01*
X82378571Y-68427676D02*
X82283333Y-68522914D01*
X82283333Y-68522914D02*
X82188095Y-68570533D01*
X83711904Y-69284819D02*
X83140476Y-69284819D01*
X83426190Y-69284819D02*
X83426190Y-68284819D01*
X83426190Y-68284819D02*
X83330952Y-68427676D01*
X83330952Y-68427676D02*
X83235714Y-68522914D01*
X83235714Y-68522914D02*
X83140476Y-68570533D01*
X97738095Y-155804819D02*
X97738095Y-154804819D01*
X97738095Y-155281009D02*
X98309523Y-155281009D01*
X98309523Y-155804819D02*
X98309523Y-154804819D01*
X99214285Y-154804819D02*
X99023809Y-154804819D01*
X99023809Y-154804819D02*
X98928571Y-154852438D01*
X98928571Y-154852438D02*
X98880952Y-154900057D01*
X98880952Y-154900057D02*
X98785714Y-155042914D01*
X98785714Y-155042914D02*
X98738095Y-155233390D01*
X98738095Y-155233390D02*
X98738095Y-155614342D01*
X98738095Y-155614342D02*
X98785714Y-155709580D01*
X98785714Y-155709580D02*
X98833333Y-155757200D01*
X98833333Y-155757200D02*
X98928571Y-155804819D01*
X98928571Y-155804819D02*
X99119047Y-155804819D01*
X99119047Y-155804819D02*
X99214285Y-155757200D01*
X99214285Y-155757200D02*
X99261904Y-155709580D01*
X99261904Y-155709580D02*
X99309523Y-155614342D01*
X99309523Y-155614342D02*
X99309523Y-155376247D01*
X99309523Y-155376247D02*
X99261904Y-155281009D01*
X99261904Y-155281009D02*
X99214285Y-155233390D01*
X99214285Y-155233390D02*
X99119047Y-155185771D01*
X99119047Y-155185771D02*
X98928571Y-155185771D01*
X98928571Y-155185771D02*
X98833333Y-155233390D01*
X98833333Y-155233390D02*
X98785714Y-155281009D01*
X98785714Y-155281009D02*
X98738095Y-155376247D01*
X138357142Y-112709580D02*
X138309523Y-112757200D01*
X138309523Y-112757200D02*
X138166666Y-112804819D01*
X138166666Y-112804819D02*
X138071428Y-112804819D01*
X138071428Y-112804819D02*
X137928571Y-112757200D01*
X137928571Y-112757200D02*
X137833333Y-112661961D01*
X137833333Y-112661961D02*
X137785714Y-112566723D01*
X137785714Y-112566723D02*
X137738095Y-112376247D01*
X137738095Y-112376247D02*
X137738095Y-112233390D01*
X137738095Y-112233390D02*
X137785714Y-112042914D01*
X137785714Y-112042914D02*
X137833333Y-111947676D01*
X137833333Y-111947676D02*
X137928571Y-111852438D01*
X137928571Y-111852438D02*
X138071428Y-111804819D01*
X138071428Y-111804819D02*
X138166666Y-111804819D01*
X138166666Y-111804819D02*
X138309523Y-111852438D01*
X138309523Y-111852438D02*
X138357142Y-111900057D01*
X139309523Y-112804819D02*
X138738095Y-112804819D01*
X139023809Y-112804819D02*
X139023809Y-111804819D01*
X139023809Y-111804819D02*
X138928571Y-111947676D01*
X138928571Y-111947676D02*
X138833333Y-112042914D01*
X138833333Y-112042914D02*
X138738095Y-112090533D01*
X139690476Y-111900057D02*
X139738095Y-111852438D01*
X139738095Y-111852438D02*
X139833333Y-111804819D01*
X139833333Y-111804819D02*
X140071428Y-111804819D01*
X140071428Y-111804819D02*
X140166666Y-111852438D01*
X140166666Y-111852438D02*
X140214285Y-111900057D01*
X140214285Y-111900057D02*
X140261904Y-111995295D01*
X140261904Y-111995295D02*
X140261904Y-112090533D01*
X140261904Y-112090533D02*
X140214285Y-112233390D01*
X140214285Y-112233390D02*
X139642857Y-112804819D01*
X139642857Y-112804819D02*
X140261904Y-112804819D01*
X145104819Y-92166666D02*
X144628628Y-92499999D01*
X145104819Y-92738094D02*
X144104819Y-92738094D01*
X144104819Y-92738094D02*
X144104819Y-92357142D01*
X144104819Y-92357142D02*
X144152438Y-92261904D01*
X144152438Y-92261904D02*
X144200057Y-92214285D01*
X144200057Y-92214285D02*
X144295295Y-92166666D01*
X144295295Y-92166666D02*
X144438152Y-92166666D01*
X144438152Y-92166666D02*
X144533390Y-92214285D01*
X144533390Y-92214285D02*
X144581009Y-92261904D01*
X144581009Y-92261904D02*
X144628628Y-92357142D01*
X144628628Y-92357142D02*
X144628628Y-92738094D01*
X144438152Y-91309523D02*
X145104819Y-91309523D01*
X144057200Y-91547618D02*
X144771485Y-91785713D01*
X144771485Y-91785713D02*
X144771485Y-91166666D01*
X67808333Y-79004819D02*
X67332143Y-79004819D01*
X67332143Y-79004819D02*
X67332143Y-78004819D01*
X68665476Y-79004819D02*
X68094048Y-79004819D01*
X68379762Y-79004819D02*
X68379762Y-78004819D01*
X68379762Y-78004819D02*
X68284524Y-78147676D01*
X68284524Y-78147676D02*
X68189286Y-78242914D01*
X68189286Y-78242914D02*
X68094048Y-78290533D01*
X91333333Y-94689580D02*
X91285714Y-94737200D01*
X91285714Y-94737200D02*
X91142857Y-94784819D01*
X91142857Y-94784819D02*
X91047619Y-94784819D01*
X91047619Y-94784819D02*
X90904762Y-94737200D01*
X90904762Y-94737200D02*
X90809524Y-94641961D01*
X90809524Y-94641961D02*
X90761905Y-94546723D01*
X90761905Y-94546723D02*
X90714286Y-94356247D01*
X90714286Y-94356247D02*
X90714286Y-94213390D01*
X90714286Y-94213390D02*
X90761905Y-94022914D01*
X90761905Y-94022914D02*
X90809524Y-93927676D01*
X90809524Y-93927676D02*
X90904762Y-93832438D01*
X90904762Y-93832438D02*
X91047619Y-93784819D01*
X91047619Y-93784819D02*
X91142857Y-93784819D01*
X91142857Y-93784819D02*
X91285714Y-93832438D01*
X91285714Y-93832438D02*
X91333333Y-93880057D01*
X91904762Y-94213390D02*
X91809524Y-94165771D01*
X91809524Y-94165771D02*
X91761905Y-94118152D01*
X91761905Y-94118152D02*
X91714286Y-94022914D01*
X91714286Y-94022914D02*
X91714286Y-93975295D01*
X91714286Y-93975295D02*
X91761905Y-93880057D01*
X91761905Y-93880057D02*
X91809524Y-93832438D01*
X91809524Y-93832438D02*
X91904762Y-93784819D01*
X91904762Y-93784819D02*
X92095238Y-93784819D01*
X92095238Y-93784819D02*
X92190476Y-93832438D01*
X92190476Y-93832438D02*
X92238095Y-93880057D01*
X92238095Y-93880057D02*
X92285714Y-93975295D01*
X92285714Y-93975295D02*
X92285714Y-94022914D01*
X92285714Y-94022914D02*
X92238095Y-94118152D01*
X92238095Y-94118152D02*
X92190476Y-94165771D01*
X92190476Y-94165771D02*
X92095238Y-94213390D01*
X92095238Y-94213390D02*
X91904762Y-94213390D01*
X91904762Y-94213390D02*
X91809524Y-94261009D01*
X91809524Y-94261009D02*
X91761905Y-94308628D01*
X91761905Y-94308628D02*
X91714286Y-94403866D01*
X91714286Y-94403866D02*
X91714286Y-94594342D01*
X91714286Y-94594342D02*
X91761905Y-94689580D01*
X91761905Y-94689580D02*
X91809524Y-94737200D01*
X91809524Y-94737200D02*
X91904762Y-94784819D01*
X91904762Y-94784819D02*
X92095238Y-94784819D01*
X92095238Y-94784819D02*
X92190476Y-94737200D01*
X92190476Y-94737200D02*
X92238095Y-94689580D01*
X92238095Y-94689580D02*
X92285714Y-94594342D01*
X92285714Y-94594342D02*
X92285714Y-94403866D01*
X92285714Y-94403866D02*
X92238095Y-94308628D01*
X92238095Y-94308628D02*
X92190476Y-94261009D01*
X92190476Y-94261009D02*
X92095238Y-94213390D01*
X85954819Y-79911904D02*
X86764342Y-79911904D01*
X86764342Y-79911904D02*
X86859580Y-79864285D01*
X86859580Y-79864285D02*
X86907200Y-79816666D01*
X86907200Y-79816666D02*
X86954819Y-79721428D01*
X86954819Y-79721428D02*
X86954819Y-79530952D01*
X86954819Y-79530952D02*
X86907200Y-79435714D01*
X86907200Y-79435714D02*
X86859580Y-79388095D01*
X86859580Y-79388095D02*
X86764342Y-79340476D01*
X86764342Y-79340476D02*
X85954819Y-79340476D01*
X85954819Y-78388095D02*
X85954819Y-78864285D01*
X85954819Y-78864285D02*
X86431009Y-78911904D01*
X86431009Y-78911904D02*
X86383390Y-78864285D01*
X86383390Y-78864285D02*
X86335771Y-78769047D01*
X86335771Y-78769047D02*
X86335771Y-78530952D01*
X86335771Y-78530952D02*
X86383390Y-78435714D01*
X86383390Y-78435714D02*
X86431009Y-78388095D01*
X86431009Y-78388095D02*
X86526247Y-78340476D01*
X86526247Y-78340476D02*
X86764342Y-78340476D01*
X86764342Y-78340476D02*
X86859580Y-78388095D01*
X86859580Y-78388095D02*
X86907200Y-78435714D01*
X86907200Y-78435714D02*
X86954819Y-78530952D01*
X86954819Y-78530952D02*
X86954819Y-78769047D01*
X86954819Y-78769047D02*
X86907200Y-78864285D01*
X86907200Y-78864285D02*
X86859580Y-78911904D01*
X80626666Y-59534819D02*
X80626666Y-60249104D01*
X80626666Y-60249104D02*
X80579047Y-60391961D01*
X80579047Y-60391961D02*
X80483809Y-60487200D01*
X80483809Y-60487200D02*
X80340952Y-60534819D01*
X80340952Y-60534819D02*
X80245714Y-60534819D01*
X81531428Y-59868152D02*
X81531428Y-60534819D01*
X81293333Y-59487200D02*
X81055238Y-60201485D01*
X81055238Y-60201485D02*
X81674285Y-60201485D01*
X114857142Y-112709580D02*
X114809523Y-112757200D01*
X114809523Y-112757200D02*
X114666666Y-112804819D01*
X114666666Y-112804819D02*
X114571428Y-112804819D01*
X114571428Y-112804819D02*
X114428571Y-112757200D01*
X114428571Y-112757200D02*
X114333333Y-112661961D01*
X114333333Y-112661961D02*
X114285714Y-112566723D01*
X114285714Y-112566723D02*
X114238095Y-112376247D01*
X114238095Y-112376247D02*
X114238095Y-112233390D01*
X114238095Y-112233390D02*
X114285714Y-112042914D01*
X114285714Y-112042914D02*
X114333333Y-111947676D01*
X114333333Y-111947676D02*
X114428571Y-111852438D01*
X114428571Y-111852438D02*
X114571428Y-111804819D01*
X114571428Y-111804819D02*
X114666666Y-111804819D01*
X114666666Y-111804819D02*
X114809523Y-111852438D01*
X114809523Y-111852438D02*
X114857142Y-111900057D01*
X115809523Y-112804819D02*
X115238095Y-112804819D01*
X115523809Y-112804819D02*
X115523809Y-111804819D01*
X115523809Y-111804819D02*
X115428571Y-111947676D01*
X115428571Y-111947676D02*
X115333333Y-112042914D01*
X115333333Y-112042914D02*
X115238095Y-112090533D01*
X116714285Y-111804819D02*
X116238095Y-111804819D01*
X116238095Y-111804819D02*
X116190476Y-112281009D01*
X116190476Y-112281009D02*
X116238095Y-112233390D01*
X116238095Y-112233390D02*
X116333333Y-112185771D01*
X116333333Y-112185771D02*
X116571428Y-112185771D01*
X116571428Y-112185771D02*
X116666666Y-112233390D01*
X116666666Y-112233390D02*
X116714285Y-112281009D01*
X116714285Y-112281009D02*
X116761904Y-112376247D01*
X116761904Y-112376247D02*
X116761904Y-112614342D01*
X116761904Y-112614342D02*
X116714285Y-112709580D01*
X116714285Y-112709580D02*
X116666666Y-112757200D01*
X116666666Y-112757200D02*
X116571428Y-112804819D01*
X116571428Y-112804819D02*
X116333333Y-112804819D01*
X116333333Y-112804819D02*
X116238095Y-112757200D01*
X116238095Y-112757200D02*
X116190476Y-112709580D01*
X161179580Y-69166666D02*
X161227200Y-69214285D01*
X161227200Y-69214285D02*
X161274819Y-69357142D01*
X161274819Y-69357142D02*
X161274819Y-69452380D01*
X161274819Y-69452380D02*
X161227200Y-69595237D01*
X161227200Y-69595237D02*
X161131961Y-69690475D01*
X161131961Y-69690475D02*
X161036723Y-69738094D01*
X161036723Y-69738094D02*
X160846247Y-69785713D01*
X160846247Y-69785713D02*
X160703390Y-69785713D01*
X160703390Y-69785713D02*
X160512914Y-69738094D01*
X160512914Y-69738094D02*
X160417676Y-69690475D01*
X160417676Y-69690475D02*
X160322438Y-69595237D01*
X160322438Y-69595237D02*
X160274819Y-69452380D01*
X160274819Y-69452380D02*
X160274819Y-69357142D01*
X160274819Y-69357142D02*
X160322438Y-69214285D01*
X160322438Y-69214285D02*
X160370057Y-69166666D01*
X160370057Y-68785713D02*
X160322438Y-68738094D01*
X160322438Y-68738094D02*
X160274819Y-68642856D01*
X160274819Y-68642856D02*
X160274819Y-68404761D01*
X160274819Y-68404761D02*
X160322438Y-68309523D01*
X160322438Y-68309523D02*
X160370057Y-68261904D01*
X160370057Y-68261904D02*
X160465295Y-68214285D01*
X160465295Y-68214285D02*
X160560533Y-68214285D01*
X160560533Y-68214285D02*
X160703390Y-68261904D01*
X160703390Y-68261904D02*
X161274819Y-68833332D01*
X161274819Y-68833332D02*
X161274819Y-68214285D01*
D11*
%TO.C,U3*%
X60466000Y-127690000D02*
X60466000Y-148010000D01*
X61736000Y-127690000D02*
X60466000Y-127690000D01*
X61736000Y-148010000D02*
X60466000Y-148010000D01*
X64126000Y-127690000D02*
X77126000Y-127690000D01*
X64126000Y-148010000D02*
X77126000Y-148010000D01*
X79516000Y-127690000D02*
X80786000Y-127690000D01*
X79516000Y-148010000D02*
X80786000Y-148010000D01*
X80786000Y-148010000D02*
X80786000Y-127690000D01*
D12*
X63106000Y-127121800D02*
G75*
G02*
X62906000Y-127121800I-100000J0D01*
G01*
X62906000Y-127121800D02*
G75*
G02*
X63106000Y-127121800I100000J0D01*
G01*
D13*
%TO.C,R10*%
X148772936Y-62265000D02*
X149227064Y-62265000D01*
X148772936Y-63735000D02*
X149227064Y-63735000D01*
D11*
%TO.C,U7*%
X130380000Y-132340000D02*
X145620000Y-132340000D01*
X130380000Y-152660000D02*
X130380000Y-132340000D01*
X145620000Y-132340000D02*
X145620000Y-152660000D01*
X145620000Y-152660000D02*
X130380000Y-152660000D01*
D12*
X129500000Y-133500000D02*
G75*
G02*
X129300000Y-133500000I-100000J0D01*
G01*
X129300000Y-133500000D02*
G75*
G02*
X129500000Y-133500000I100000J0D01*
G01*
D13*
%TO.C,Q2*%
X148490000Y-86437500D02*
X148490000Y-85787500D01*
X148490000Y-86437500D02*
X148490000Y-87087500D01*
X151610000Y-86437500D02*
X151610000Y-85787500D01*
X151610000Y-86437500D02*
X151610000Y-87087500D01*
X151890000Y-85515000D02*
X151560000Y-85275000D01*
X151890000Y-85035000D01*
X151890000Y-85515000D01*
G36*
X151890000Y-85515000D02*
G01*
X151560000Y-85275000D01*
X151890000Y-85035000D01*
X151890000Y-85515000D01*
G37*
D11*
%TO.C,J10*%
X164625000Y-144300000D02*
X170375000Y-144300000D01*
X164625000Y-151700000D02*
X164625000Y-144300000D01*
X170375000Y-144300000D02*
X170375000Y-151700000D01*
X170375000Y-151700000D02*
X164625000Y-151700000D01*
D12*
X167075000Y-143550000D02*
G75*
G02*
X166875000Y-143550000I-100000J0D01*
G01*
X166875000Y-143550000D02*
G75*
G02*
X167075000Y-143550000I100000J0D01*
G01*
D13*
%TO.C,J8*%
X102390000Y-162690000D02*
X102390000Y-166710000D01*
X102390000Y-164190000D02*
X103390000Y-164190000D01*
X102390000Y-166710000D02*
X115110000Y-166710000D01*
X102890000Y-165000000D02*
X102390000Y-165000000D01*
X102890000Y-166210000D02*
X102890000Y-165000000D01*
X103390000Y-164190000D02*
X103390000Y-162690000D01*
X114110000Y-164190000D02*
X114110000Y-162690000D01*
X114610000Y-165000000D02*
X114610000Y-166210000D01*
X114610000Y-166210000D02*
X102890000Y-166210000D01*
X115110000Y-162690000D02*
X102390000Y-162690000D01*
X115110000Y-164190000D02*
X114110000Y-164190000D01*
X115110000Y-165000000D02*
X114610000Y-165000000D01*
X115110000Y-166710000D02*
X115110000Y-162690000D01*
X115410000Y-162390000D02*
X112910000Y-162390000D01*
X115410000Y-164890000D02*
X115410000Y-162390000D01*
D11*
%TO.C,J11*%
X164625000Y-117050000D02*
X170375000Y-117050000D01*
X164625000Y-124450000D02*
X164625000Y-117050000D01*
X170375000Y-117050000D02*
X170375000Y-124450000D01*
X170375000Y-124450000D02*
X164625000Y-124450000D01*
D12*
X167075000Y-116300000D02*
G75*
G02*
X166875000Y-116300000I-100000J0D01*
G01*
X166875000Y-116300000D02*
G75*
G02*
X167075000Y-116300000I100000J0D01*
G01*
D13*
%TO.C,R11*%
X154772936Y-62765000D02*
X155227064Y-62765000D01*
X154772936Y-64235000D02*
X155227064Y-64235000D01*
D11*
%TO.C,J17*%
X63800000Y-162125000D02*
X71200000Y-162125000D01*
X63800000Y-167875000D02*
X63800000Y-162125000D01*
X71200000Y-162125000D02*
X71200000Y-167875000D01*
X71200000Y-167875000D02*
X63800000Y-167875000D01*
D12*
X63150000Y-165525000D02*
G75*
G02*
X62950000Y-165525000I-100000J0D01*
G01*
X62950000Y-165525000D02*
G75*
G02*
X63150000Y-165525000I100000J0D01*
G01*
D13*
%TO.C,C1*%
X91788748Y-57265000D02*
X92311252Y-57265000D01*
X91788748Y-58735000D02*
X92311252Y-58735000D01*
%TO.C,C10*%
X91261252Y-70915000D02*
X90738748Y-70915000D01*
X91261252Y-72385000D02*
X90738748Y-72385000D01*
%TO.C,J3*%
X107300000Y-86480000D02*
X107300000Y-85100000D01*
X108680000Y-86480000D02*
X107300000Y-86480000D01*
X109950000Y-83720000D02*
X132920000Y-83720000D01*
X109950000Y-86480000D02*
X109950000Y-83720000D01*
X109950000Y-86480000D02*
X132920000Y-86480000D01*
X132920000Y-86480000D02*
X132920000Y-83720000D01*
%TO.C,C5*%
X157265000Y-92211252D02*
X157265000Y-91688748D01*
X158735000Y-92211252D02*
X158735000Y-91688748D01*
%TO.C,C6*%
X54590000Y-108854437D02*
X54590000Y-114610000D01*
X54590000Y-114610000D02*
X56940000Y-114610000D01*
X55654437Y-107790000D02*
X54590000Y-108854437D01*
X55654437Y-107790000D02*
X56940000Y-107790000D01*
X59847500Y-106762500D02*
X59847500Y-107550000D01*
X60241250Y-107156250D02*
X59453750Y-107156250D01*
X60345563Y-107790000D02*
X59060000Y-107790000D01*
X60345563Y-107790000D02*
X61410000Y-108854437D01*
X61410000Y-108854437D02*
X61410000Y-114610000D01*
X61410000Y-114610000D02*
X59060000Y-114610000D01*
%TO.C,C3*%
X161765000Y-73811252D02*
X161765000Y-73288748D01*
X163235000Y-73811252D02*
X163235000Y-73288748D01*
%TO.C,J1*%
X101120000Y-50640000D02*
X102500000Y-50640000D01*
X101120000Y-52020000D02*
X101120000Y-50640000D01*
X101120000Y-53290000D02*
X101120000Y-86420000D01*
X101120000Y-53290000D02*
X103880000Y-53290000D01*
X101120000Y-86420000D02*
X103880000Y-86420000D01*
X103880000Y-53290000D02*
X103880000Y-86420000D01*
%TO.C,R3*%
X157265000Y-79360436D02*
X157265000Y-79814564D01*
X158735000Y-79360436D02*
X158735000Y-79814564D01*
D11*
%TO.C,J12*%
X164650000Y-130550000D02*
X170400000Y-130550000D01*
X164650000Y-137950000D02*
X164650000Y-130550000D01*
X170400000Y-130550000D02*
X170400000Y-137950000D01*
X170400000Y-137950000D02*
X164650000Y-137950000D01*
D12*
X167100000Y-129800000D02*
G75*
G02*
X166900000Y-129800000I-100000J0D01*
G01*
X166900000Y-129800000D02*
G75*
G02*
X167100000Y-129800000I100000J0D01*
G01*
D13*
%TO.C,C9*%
X91711252Y-86915000D02*
X91188748Y-86915000D01*
X91711252Y-88385000D02*
X91188748Y-88385000D01*
%TO.C,D15*%
X75350000Y-87490000D02*
X75350000Y-93300000D01*
X79650000Y-87490000D02*
X75350000Y-87490000D01*
X79650000Y-87490000D02*
X79650000Y-93300000D01*
%TO.C,J9*%
X154410000Y-164890000D02*
X154410000Y-162390000D01*
X154410000Y-162390000D02*
X151910000Y-162390000D01*
X154110000Y-166710000D02*
X154110000Y-162690000D01*
X154110000Y-165000000D02*
X153610000Y-165000000D01*
X154110000Y-164190000D02*
X153110000Y-164190000D01*
X154110000Y-162690000D02*
X141390000Y-162690000D01*
X153610000Y-166210000D02*
X141890000Y-166210000D01*
X153610000Y-165000000D02*
X153610000Y-166210000D01*
X153110000Y-164190000D02*
X153110000Y-162690000D01*
X142390000Y-164190000D02*
X142390000Y-162690000D01*
X141890000Y-166210000D02*
X141890000Y-165000000D01*
X141890000Y-165000000D02*
X141390000Y-165000000D01*
X141390000Y-166710000D02*
X154110000Y-166710000D01*
X141390000Y-164190000D02*
X142390000Y-164190000D01*
X141390000Y-162690000D02*
X141390000Y-166710000D01*
%TO.C,U4*%
X67300000Y-106175000D02*
X68250000Y-106175000D01*
X67300000Y-107540000D02*
X67300000Y-106175000D01*
X77700000Y-106175000D02*
X76750000Y-106175000D01*
X77700000Y-107540000D02*
X77700000Y-106175000D01*
X77180000Y-103690000D02*
X76710000Y-103350000D01*
X77180000Y-103010000D01*
X77180000Y-103690000D01*
G36*
X77180000Y-103690000D02*
G01*
X76710000Y-103350000D01*
X77180000Y-103010000D01*
X77180000Y-103690000D01*
G37*
%TO.C,Q1*%
X156490000Y-86437500D02*
X156490000Y-85787500D01*
X156490000Y-86437500D02*
X156490000Y-87087500D01*
X159610000Y-86437500D02*
X159610000Y-85787500D01*
X159610000Y-86437500D02*
X159610000Y-87087500D01*
X159890000Y-85515000D02*
X159560000Y-85275000D01*
X159890000Y-85035000D01*
X159890000Y-85515000D01*
G36*
X159890000Y-85515000D02*
G01*
X159560000Y-85275000D01*
X159890000Y-85035000D01*
X159890000Y-85515000D01*
G37*
D11*
%TO.C,U1*%
X111405000Y-43850000D02*
X129405000Y-43850000D01*
X111405000Y-50350000D02*
X111405000Y-43850000D01*
X111405000Y-68700000D02*
X111405000Y-69350000D01*
X111405000Y-69350000D02*
X113855000Y-69350000D01*
X126955000Y-69350000D02*
X129405000Y-69350000D01*
X129405000Y-43850000D02*
X129405000Y-50350000D01*
X129405000Y-69350000D02*
X129405000Y-68700000D01*
D12*
X110305000Y-51340000D02*
G75*
G02*
X110105000Y-51340000I-100000J0D01*
G01*
X110105000Y-51340000D02*
G75*
G02*
X110305000Y-51340000I100000J0D01*
G01*
D13*
%TO.C,J6*%
X92910000Y-164890000D02*
X92910000Y-162390000D01*
X92910000Y-162390000D02*
X90410000Y-162390000D01*
X92610000Y-166710000D02*
X92610000Y-162690000D01*
X92610000Y-165000000D02*
X92110000Y-165000000D01*
X92610000Y-164190000D02*
X91610000Y-164190000D01*
X92610000Y-162690000D02*
X79890000Y-162690000D01*
X92110000Y-166210000D02*
X80390000Y-166210000D01*
X92110000Y-165000000D02*
X92110000Y-166210000D01*
X91610000Y-164190000D02*
X91610000Y-162690000D01*
X80890000Y-164190000D02*
X80890000Y-162690000D01*
X80390000Y-166210000D02*
X80390000Y-165000000D01*
X80390000Y-165000000D02*
X79890000Y-165000000D01*
X79890000Y-166710000D02*
X92610000Y-166710000D01*
X79890000Y-164190000D02*
X80890000Y-164190000D01*
X79890000Y-162690000D02*
X79890000Y-166710000D01*
D11*
%TO.C,U9*%
X131380000Y-103840000D02*
X146620000Y-103840000D01*
X131380000Y-124160000D02*
X131380000Y-103840000D01*
X146620000Y-103840000D02*
X146620000Y-124160000D01*
X146620000Y-124160000D02*
X131380000Y-124160000D01*
D12*
X130500000Y-105000000D02*
G75*
G02*
X130300000Y-105000000I-100000J0D01*
G01*
X130300000Y-105000000D02*
G75*
G02*
X130500000Y-105000000I100000J0D01*
G01*
D13*
%TO.C,J7*%
X119890000Y-162690000D02*
X119890000Y-166710000D01*
X119890000Y-164190000D02*
X120890000Y-164190000D01*
X119890000Y-166710000D02*
X132610000Y-166710000D01*
X120390000Y-165000000D02*
X119890000Y-165000000D01*
X120390000Y-166210000D02*
X120390000Y-165000000D01*
X120890000Y-164190000D02*
X120890000Y-162690000D01*
X131610000Y-164190000D02*
X131610000Y-162690000D01*
X132110000Y-165000000D02*
X132110000Y-166210000D01*
X132110000Y-166210000D02*
X120390000Y-166210000D01*
X132610000Y-162690000D02*
X119890000Y-162690000D01*
X132610000Y-164190000D02*
X131610000Y-164190000D01*
X132610000Y-165000000D02*
X132110000Y-165000000D01*
X132610000Y-166710000D02*
X132610000Y-162690000D01*
X132910000Y-162390000D02*
X130410000Y-162390000D01*
X132910000Y-164890000D02*
X132910000Y-162390000D01*
%TO.C,SW7*%
X144430000Y-77330000D02*
X144730000Y-77330000D01*
X144430000Y-81470000D02*
X144430000Y-77330000D01*
X144730000Y-81470000D02*
X144430000Y-81470000D01*
X147270000Y-77330000D02*
X147570000Y-77330000D01*
X147570000Y-77330000D02*
X147570000Y-81470000D01*
X147570000Y-81470000D02*
X147270000Y-81470000D01*
D11*
%TO.C,U6*%
X107880000Y-103840000D02*
X123120000Y-103840000D01*
X107880000Y-124160000D02*
X107880000Y-103840000D01*
X123120000Y-103840000D02*
X123120000Y-124160000D01*
X123120000Y-124160000D02*
X107880000Y-124160000D01*
D12*
X107000000Y-105000000D02*
G75*
G02*
X106800000Y-105000000I-100000J0D01*
G01*
X106800000Y-105000000D02*
G75*
G02*
X107000000Y-105000000I100000J0D01*
G01*
D13*
%TO.C,R9*%
X55937742Y-138977500D02*
X56412258Y-138977500D01*
X55937742Y-140022500D02*
X56412258Y-140022500D01*
%TO.C,J14*%
X147230000Y-51300000D02*
X147230000Y-49400000D01*
X147230000Y-55200000D02*
X147230000Y-53200000D01*
X156630000Y-49400000D02*
X147230000Y-49400000D01*
X156630000Y-51300000D02*
X156630000Y-49400000D01*
X156630000Y-55200000D02*
X156630000Y-53200000D01*
%TO.C,J5*%
X62400000Y-44300000D02*
X71600000Y-44300000D01*
X62400000Y-52800000D02*
X62400000Y-44300000D01*
X62400000Y-59000000D02*
X62400000Y-57200000D01*
X64500000Y-59000000D02*
X62400000Y-59000000D01*
X70200000Y-59300000D02*
X71900000Y-59300000D01*
X71600000Y-44300000D02*
X71600000Y-59000000D01*
X71600000Y-59000000D02*
X69500000Y-59000000D01*
X71900000Y-59300000D02*
X71900000Y-57700000D01*
%TO.C,U2*%
X148115000Y-70975000D02*
X148115000Y-69025000D01*
X148115000Y-70975000D02*
X148115000Y-72925000D01*
X158235000Y-70975000D02*
X158235000Y-69025000D01*
X158235000Y-70975000D02*
X158235000Y-72925000D01*
X158510000Y-68515000D02*
X158180000Y-68275000D01*
X158510000Y-68035000D01*
X158510000Y-68515000D01*
G36*
X158510000Y-68515000D02*
G01*
X158180000Y-68275000D01*
X158510000Y-68035000D01*
X158510000Y-68515000D01*
G37*
%TO.C,C4*%
X149265000Y-92211252D02*
X149265000Y-91688748D01*
X150735000Y-92211252D02*
X150735000Y-91688748D01*
%TO.C,C14*%
X134590000Y-133090000D02*
X134590000Y-135440000D01*
X134590000Y-139910000D02*
X134590000Y-137560000D01*
X140345563Y-133090000D02*
X134590000Y-133090000D01*
X140345563Y-139910000D02*
X134590000Y-139910000D01*
X141410000Y-134154437D02*
X140345563Y-133090000D01*
X141410000Y-134154437D02*
X141410000Y-135440000D01*
X141410000Y-138845563D02*
X140345563Y-139910000D01*
X141410000Y-138845563D02*
X141410000Y-137560000D01*
X142043750Y-138741250D02*
X142043750Y-137953750D01*
X142437500Y-138347500D02*
X141650000Y-138347500D01*
%TO.C,R1*%
X91685436Y-52265000D02*
X92139564Y-52265000D01*
X91685436Y-53735000D02*
X92139564Y-53735000D01*
%TO.C,R5*%
X163765000Y-91772936D02*
X163765000Y-92227064D01*
X165235000Y-91772936D02*
X165235000Y-92227064D01*
%TO.C,SW8*%
X162930000Y-77830000D02*
X163230000Y-77830000D01*
X162930000Y-81970000D02*
X162930000Y-77830000D01*
X163230000Y-81970000D02*
X162930000Y-81970000D01*
X165770000Y-77830000D02*
X166070000Y-77830000D01*
X166070000Y-77830000D02*
X166070000Y-81970000D01*
X166070000Y-81970000D02*
X165770000Y-81970000D01*
%TO.C,R2*%
X151765000Y-79185436D02*
X151765000Y-79639564D01*
X153235000Y-79185436D02*
X153235000Y-79639564D01*
%TO.C,C13*%
X112090000Y-133090000D02*
X112090000Y-135440000D01*
X112090000Y-139910000D02*
X112090000Y-137560000D01*
X117845563Y-133090000D02*
X112090000Y-133090000D01*
X117845563Y-139910000D02*
X112090000Y-139910000D01*
X118910000Y-134154437D02*
X117845563Y-133090000D01*
X118910000Y-134154437D02*
X118910000Y-135440000D01*
X118910000Y-138845563D02*
X117845563Y-139910000D01*
X118910000Y-138845563D02*
X118910000Y-137560000D01*
X119543750Y-138741250D02*
X119543750Y-137953750D01*
X119937500Y-138347500D02*
X119150000Y-138347500D01*
%TO.C,J13*%
X163290000Y-103390000D02*
X163290000Y-113610000D01*
X163290000Y-113610000D02*
X167310000Y-113610000D01*
X163790000Y-103890000D02*
X165000000Y-103890000D01*
X163790000Y-113110000D02*
X163790000Y-103890000D01*
X165000000Y-103890000D02*
X165000000Y-103390000D01*
X165000000Y-113110000D02*
X163790000Y-113110000D01*
X165000000Y-113610000D02*
X165000000Y-113110000D01*
X165110000Y-113910000D02*
X167610000Y-113910000D01*
X165810000Y-103390000D02*
X165810000Y-104390000D01*
X165810000Y-104390000D02*
X167310000Y-104390000D01*
X165810000Y-112610000D02*
X167310000Y-112610000D01*
X165810000Y-113610000D02*
X165810000Y-112610000D01*
X167310000Y-103390000D02*
X163290000Y-103390000D01*
X167310000Y-113610000D02*
X167310000Y-103390000D01*
X167610000Y-113910000D02*
X167610000Y-111410000D01*
D11*
%TO.C,U8*%
X107880000Y-132340000D02*
X123120000Y-132340000D01*
X107880000Y-152660000D02*
X107880000Y-132340000D01*
X123120000Y-132340000D02*
X123120000Y-152660000D01*
X123120000Y-152660000D02*
X107880000Y-152660000D01*
D12*
X107000000Y-133500000D02*
G75*
G02*
X106800000Y-133500000I-100000J0D01*
G01*
X106800000Y-133500000D02*
G75*
G02*
X107000000Y-133500000I100000J0D01*
G01*
D13*
%TO.C,J2*%
X136620000Y-51100000D02*
X138000000Y-51100000D01*
X136620000Y-52480000D02*
X136620000Y-51100000D01*
X136620000Y-53750000D02*
X136620000Y-86880000D01*
X136620000Y-53750000D02*
X139380000Y-53750000D01*
X136620000Y-86880000D02*
X139380000Y-86880000D01*
X139380000Y-53750000D02*
X139380000Y-86880000D01*
%TO.C,D13*%
X160850000Y-66510000D02*
X160850000Y-61000000D01*
X160850000Y-66510000D02*
X164150000Y-66510000D01*
X164150000Y-66510000D02*
X164150000Y-61000000D01*
%TO.C,D14*%
X54350000Y-79510000D02*
X54350000Y-74000000D01*
X54350000Y-79510000D02*
X57650000Y-79510000D01*
X57650000Y-79510000D02*
X57650000Y-74000000D01*
%TO.C,C7*%
X61240000Y-87804437D02*
X61240000Y-95260000D01*
X61240000Y-95260000D02*
X63990000Y-95260000D01*
X62304437Y-86740000D02*
X61240000Y-87804437D01*
X62304437Y-86740000D02*
X63990000Y-86740000D01*
X68010000Y-85500000D02*
X68010000Y-86500000D01*
X68510000Y-86000000D02*
X67510000Y-86000000D01*
X68695563Y-86740000D02*
X67010000Y-86740000D01*
X68695563Y-86740000D02*
X69760000Y-87804437D01*
X69760000Y-87804437D02*
X69760000Y-95260000D01*
X69760000Y-95260000D02*
X67010000Y-95260000D01*
%TO.C,R8*%
X55937742Y-135977500D02*
X56412258Y-135977500D01*
X55937742Y-137022500D02*
X56412258Y-137022500D01*
%TO.C,C11*%
X91211252Y-66415000D02*
X90688748Y-66415000D01*
X91211252Y-67885000D02*
X90688748Y-67885000D01*
%TO.C,C12*%
X135590000Y-104590000D02*
X135590000Y-106940000D01*
X135590000Y-111410000D02*
X135590000Y-109060000D01*
X141345563Y-104590000D02*
X135590000Y-104590000D01*
X141345563Y-111410000D02*
X135590000Y-111410000D01*
X142410000Y-105654437D02*
X141345563Y-104590000D01*
X142410000Y-105654437D02*
X142410000Y-106940000D01*
X142410000Y-110345563D02*
X141345563Y-111410000D01*
X142410000Y-110345563D02*
X142410000Y-109060000D01*
X143043750Y-110241250D02*
X143043750Y-109453750D01*
X143437500Y-109847500D02*
X142650000Y-109847500D01*
%TO.C,R4*%
X142265000Y-91772936D02*
X142265000Y-92227064D01*
X143735000Y-91772936D02*
X143735000Y-92227064D01*
%TO.C,L1*%
X64700000Y-71700000D02*
X75300000Y-71700000D01*
X64700000Y-74900000D02*
X64700000Y-71700000D01*
X64700000Y-82300000D02*
X64700000Y-79100000D01*
X75300000Y-71700000D02*
X75300000Y-74900000D01*
X75300000Y-79100000D02*
X75300000Y-82300000D01*
X75300000Y-82300000D02*
X64700000Y-82300000D01*
%TO.C,C8*%
X91761252Y-91915000D02*
X91238748Y-91915000D01*
X91761252Y-93385000D02*
X91238748Y-93385000D01*
%TO.C,U5*%
X87590000Y-77240000D02*
X88850000Y-77240000D01*
X87590000Y-81000000D02*
X87590000Y-77240000D01*
X94410000Y-77240000D02*
X93150000Y-77240000D01*
X94410000Y-81000000D02*
X94410000Y-77240000D01*
X87690000Y-82280000D02*
X87360000Y-82520000D01*
X87360000Y-82040000D01*
X87690000Y-82280000D01*
G36*
X87690000Y-82280000D02*
G01*
X87360000Y-82520000D01*
X87360000Y-82040000D01*
X87690000Y-82280000D01*
G37*
%TO.C,J4*%
X75880000Y-51190000D02*
X75880000Y-58810000D01*
X75880000Y-52460000D02*
X86040000Y-52460000D01*
X75880000Y-58810000D02*
X86040000Y-58810000D01*
X86040000Y-51190000D02*
X75880000Y-51190000D01*
X86040000Y-58810000D02*
X86040000Y-51190000D01*
%TO.C,C15*%
X112090000Y-104590000D02*
X112090000Y-106940000D01*
X112090000Y-111410000D02*
X112090000Y-109060000D01*
X117845563Y-104590000D02*
X112090000Y-104590000D01*
X117845563Y-111410000D02*
X112090000Y-111410000D01*
X118910000Y-105654437D02*
X117845563Y-104590000D01*
X118910000Y-105654437D02*
X118910000Y-106940000D01*
X118910000Y-110345563D02*
X117845563Y-111410000D01*
X118910000Y-110345563D02*
X118910000Y-109060000D01*
X119543750Y-110241250D02*
X119543750Y-109453750D01*
X119937500Y-109847500D02*
X119150000Y-109847500D01*
%TO.C,C2*%
X161765000Y-69261252D02*
X161765000Y-68738748D01*
X163235000Y-69261252D02*
X163235000Y-68738748D01*
%TD*%
M02*
